<svg xmlns="http://www.w3.org/2000/svg" width="300" height="340"><path fill="#fff" stroke="#000" stroke-width=".75" d="M170 150v40h-20v20h20v20h20v-40h20v-20h-20v-20z" style="marker:none" /><path fill="none" stroke="#000" stroke-width=".5" d="M200 180l-10 10" /><path fill="none" stroke="#000" stroke-width=".5" d="M190 170l10 10" /><path fill="none" stroke="#000" stroke-width=".5" d="M210 170l-10 10" /><path fill="none" stroke="#000" stroke-width=".5" d="M180 180l-10-10" /><path fill="#dabf1e" d="M196 180a6 6 0 00-6-6 6 6 0 00-6 6 6 6 0 006 6 6 6 0 006-6zm-1.03125.56055l-3.47266.38086 1.16407 3.29297-2.46289-2.47852-1.84961 2.96289.40234-3.46875-3.46875.40234 2.96289-1.84961-2.47852-2.46289 3.29297 1.16407.38086-3.47266 1.14453 3.30078 2.95118-1.86719-1.86719 2.95118z" style="marker:none" /><path fill="#14d2d2" d="M186 190a6 6 0 00-6-6 6 6 0 00-6 6 6 6 0 006 6 6 6 0 006-6zm-2.46484-3.53516L181.76758 190l1.76758 3.5352L180 191.7676l-3.53516 1.7676L178.23242 190l-1.76758-3.53516L180 188.23242z" style="marker:none" /><path fill="#14d2d2" d="M183.53549519 173.53554484l-3.53553461-1.76776766-3.5355332 1.76776766 1.76776766-3.5355332-1.76776766-3.53553461 3.5355339 1.76776836 3.53553391-1.76776836-1.76776837 3.5355339z" style="marker:none" /><path fill="none" stroke="#000" stroke-width=".5" d="M180 200l-10-10" /><path fill="none" stroke="#000" stroke-width=".5" d="M190 190l-10 10" /><path fill="#dabf1e" d="M176 200a6 6 0 00-6-6 6 6 0 00-6 6 6 6 0 006 6 6 6 0 006-6zm-1 0l-3.36719.6758 1.90235 2.8594-2.85938-1.9024L170 205l-.67578-3.3672-2.85938 1.9024 1.90235-2.8594L165 200l3.36719-.6758-1.90235-2.8594 2.85938 1.9024L170 195l.67578 3.3672 2.85938-1.9024-1.90235 2.8594z" style="marker:none" /><path fill="#f01010" d="M180 216a6 6 0 006-6 6 6 0 00-6-6 6 6 0 00-6 6 6 6 0 006 6zm-.56055-1.0312l-.38086-3.4727-3.29297 1.164 2.47852-2.4628-2.96289-1.8496 3.46875.4023-.40234-3.4688 1.84961 2.9629 2.46289-2.4785-1.16407 3.293 3.47266.3808-3.30078 1.1446 1.86719 2.9512-2.95118-1.8672z" style="marker:none" /><path fill="none" stroke="#000" stroke-width=".5" d="M190 170l-10-10" /><path fill="none" stroke="#000" stroke-width=".5" d="M170 160l10-10" /><path fill="none" stroke="#000" stroke-width=".5" d="M190 210l-10 10" /><path fill="none" stroke="#000" stroke-width=".5" d="M170 210l10 10" /><path fill="none" stroke="#000" stroke-width=".5" d="M180 230l-10-10" /><path fill="none" stroke="#000" stroke-width=".5" d="M170 190l-10 10" /><path fill="none" stroke="#000" stroke-width=".5" d="M150 190l10 10" /><path fill="none" stroke="#000" stroke-width=".5" d="M160 210l-10-10" /><path fill="#fff" stroke="#000" stroke-width=".75" d="M150 110v20h-20v20h20v20h20v-20h40v-20h-40v-20z" style="marker:none" /><path fill="none" stroke="#000" stroke-width=".5" d="M180 140l-10-10" /><path fill="#4264f3" d="M193.5355423 143.53539521l-3.25899718-1.78953028-2.54648739 2.7090272.69486394-3.65248513-3.36335765-1.5847154 3.68844575-.46782891.46782891-3.68844575 1.5847154 3.36335765 3.65248512-.69486394-2.7090272 2.54648739z" style="marker:none" /><path fill="#f01010" d="M173.53551169 143.535525l-3.25899717-1.78953028-2.5464874 2.7090272.69486394-3.65248513-3.36335764-1.58471539 3.68844574-.46782892.46782892-3.68844574 1.5847154 3.36335764 3.65248512-.69486393-2.7090272 2.54648739z" style="marker:none" /><path fill="none" stroke="#000" stroke-width=".5" d="M170 150l-10-10" /><path fill="none" stroke="#000" stroke-width=".5" d="M170 130l-10 10" /><path fill="none" stroke="#000" stroke-width=".5" d="M160 140l-10-10" /><path fill="#f01010" d="M160 136a6 6 0 006-6 6 6 0 00-6-6 6 6 0 00-6 6 6 6 0 006 6zm-.56055-1.0313l-.38086-3.4726-3.29297 1.164 2.47852-2.4628-2.96289-1.8496 3.46875.4023-.40234-3.4688 1.84961 2.9629 2.46289-2.4785-1.16407 3.293 3.47266.3808-3.30078 1.1446 1.86719 2.9512-2.95118-1.8672z" style="marker:none" /><path fill="#4264f3" d="M156.46441681 146.46454822l2.85903637 1.90233503.67649471-3.36679843.67649613 3.36679701 2.8590406-1.90233361-1.90233361 2.8590406 3.36679701.67649613-3.36679843.67649472 1.90233504 2.85903636-2.85903637-1.90233503-.67649471 3.36679843-.67649613-3.36679702-2.8590406 1.90233362 1.9023336-2.8590406-3.366797-.67649614 3.36679842-.67649471z" style="marker:none" /><path fill="#f01010" d="M146.464444 136.4644751l2.95167866 1.86696979 1.14367733-3.29999664.38068579 3.47175076 3.29311366-1.16335047-2.47697102 2.46223491 2.96276681 1.84932112-3.46941871-.40139695.40139623 3.46941801-1.84932182-2.96276751-2.4622349 2.47697101 1.16335116-3.29311437-3.47175146-.38068507 3.29999735-1.14367805z" style="marker:none" /><path fill="none" stroke="#000" stroke-width=".5" d="M190 150l10-10" /><path fill="none" stroke="#000" stroke-width=".5" d="M210 150l-10-10" /><path fill="none" stroke="#000" stroke-width=".5" d="M200 130l10 10" /><path fill="none" stroke="#000" stroke-width=".5" d="M210 140l-10 10" /><path fill="none" stroke="#000" stroke-width=".5" d="M170 130l-10-10" /><path fill="none" stroke="#000" stroke-width=".5" d="M150 130l10-10" /><path fill="none" stroke="#000" stroke-width=".5" d="M150 120l10-10" /><path fill="none" stroke="#000" stroke-width=".5" d="M170 150l-10 10" /><path fill="none" stroke="#000" stroke-width=".5" d="M150 170l10-10" /><path fill="none" stroke="#000" stroke-width=".5" d="M150 130l-10 10" /><path fill="none" stroke="#000" stroke-width=".5" d="M150 150l-10-10" /><path fill="none" stroke="#000" stroke-width=".5" d="M130 150l10-10" /><path fill="none" stroke="#000" stroke-width=".5" d="M130 130l10 10" /><path fill="none" stroke="#000" stroke-width=".5" d="M140 150l-10-10" /><g><path fill="#fff" stroke="#000" stroke-width=".75" d="M230 230v40h-20v20h20v20h20v-40h20v-20h-20v-20z" style="marker:none" /><path fill="none" stroke="#000" stroke-width=".5" d="M230 250l10 10" /><path fill="none" stroke="#000" stroke-width=".5" d="M240 260l10 10" /><path fill="none" stroke="#000" stroke-width=".5" d="M240 260l-10 10" /><path fill="#1ee21e" d="M236.46447853 246.46449538l3.07800046 1.82800538 1.75163078-3.1221027-.04409518 3.57962908 3.57962909-.04409518-3.12210272 1.75163077 1.82800538 3.07800047-3.07800046-1.82800538-1.75163078 3.1221027.04409518-3.57962908-3.57962908.04409518 3.12210271-1.75163077z" style="marker:none" /><path fill="#1ee21e" d="M246.46448982 256.46450702l2.95167513 1.86697333 1.143683-3.3000023.38068083 3.4717557 3.29311649-1.16335328-2.47697384 2.46223773 2.96277034 1.84931758-3.46941942-.40139623.40139553 3.46941871-1.84931829-2.96277105-2.46223774 2.47697384 1.1633533-3.29311649-3.4717557-.38068083 3.30000229-1.143683z" style="marker:none" /><path fill="#4264f3" d="M236.46458495 273.53554278l1.86697333-2.95167513-3.3000023-1.143683 3.47175571-.38068083-1.16335329-3.29311649 2.46223774 2.47697385 1.84931757-2.96277035-.40139623 3.46941943 3.46941871-.40139553-2.96277105 1.84931828 2.47697385 2.46223774-3.2931165-1.1633533-.38068083 3.47175571-1.143683-3.3000023z" style="marker:none" /><path fill="none" stroke="#000" stroke-width=".5" d="M240 280l-10 10" /><path fill="none" stroke="#000" stroke-width=".5" d="M240 280l10 10" /><path fill="none" stroke="#000" stroke-width=".5" d="M250 270l-10 10" /><path fill="#4264f3" d="M226.46456081 283.53555278l1.90233503-2.85903636-3.36679843-.67649472 3.36679702-.67649613-1.90233362-2.8590406 2.8590406 1.90233361.67649614-3.36679701.67649471 3.36679843 2.85903636-1.90233503-1.90233503 2.85903636 3.36679843.67649472-3.36679701.67649612 1.90233361 2.85904061-2.8590406-1.90233362-.67649613 3.36679702-.67649472-3.36679843z" style="marker:none" /><path fill="#1ee21e" d="M240 284a6 6 0 00-6 6 6 6 0 006 6 6 6 0 006-6 6 6 0 00-6-6zm.5606 1.03125l.3808 3.47266 3.293-1.16407-2.4785 2.46289 2.9629 1.84961-3.4688-.40234.4023 3.46875-1.8496-2.96289-2.4629 2.47852 1.1641-3.29297-3.4726-.38086 3.3007-1.14453-1.8672-2.95118 2.9512 1.86719z" style="marker:none" /><path fill="none" stroke="#000" stroke-width=".5" d="M250 270l10-10" /><path fill="none" stroke="#000" stroke-width=".5" d="M250 250l10 10" /><path fill="none" stroke="#000" stroke-width=".5" d="M240 230l10 10" /><path fill="none" stroke="#000" stroke-width=".5" d="M230 270l-10 10" /><path fill="none" stroke="#000" stroke-width=".5" d="M210 290l10-10" /><path fill="none" stroke="#000" stroke-width=".5" d="M230 290l10 10" /><path fill="none" stroke="#000" stroke-width=".5" d="M230 310l10-10" /><path fill="none" stroke="#000" stroke-width=".5" d="M250 300l-10 10" /></g><g><path fill="#fff" stroke="#000" stroke-width=".75" d="M170 30v20h-40v20h20v20h20V70h40V50h-20V30z" style="marker:none" /><path fill="none" stroke="#000" stroke-width=".5" d="M170 70l10-10" /><path fill="none" stroke="#000" stroke-width=".5" d="M180 60l10-10" /><path fill="#f01010" d="M170 66a6 6 0 006-6 6 6 0 00-6-6 6 6 0 00-6 6 6 6 0 006 6zm0-1l-.67578-3.36719-2.85938 1.90235 1.90235-2.85938L165 60l3.36719-.67578-1.90235-2.85938 2.85938 1.90235L170 55l.67578 3.36719 2.85938-1.90235-1.90235 2.85938L175 60l-3.36719.67578 1.90235 2.85938-2.85938-1.90235z" style="marker:none" /><path fill="#dabf1e" d="M180 56a6 6 0 006-6 6 6 0 00-6-6 6 6 0 00-6 6 6 6 0 006 6zm2.26953-1.54492l-2.54687-2.70899-3.25782 1.78907 1.78907-3.25782-2.70899-2.54687 3.65235.69531 1.58398-3.36328.46875 3.6875 3.6875.46875-3.36328 1.58398z" style="marker:none" /><path fill="#dabf1e" d="M193.53550978 56.46439745l-1.82800608 3.07800117 3.12210342 1.75163007-3.57962909-.04409518.04409518 3.57962909-1.75163007-3.12210342-3.07800117 1.82800608 1.82800397-3.07800329-3.12209918-1.75162583 3.5796305.0440966-.0440966-3.5796305 1.75162654 3.12209988z" style="marker:none" /><path fill="none" stroke="#000" stroke-width=".5" d="M170 70l-10-10" /><path fill="none" stroke="#000" stroke-width=".5" d="M160 60l10-10" /><path fill="#dabf1e" d="M160 76a6 6 0 006-6 6 6 0 00-6-6 6 6 0 00-6 6 6 6 0 006 6zm0-1l-.67578-3.36719-2.85938 1.90235 1.90235-2.85938L155 70l3.36719-.67578-1.90235-2.85938 2.85938 1.90235L160 65l.67578 3.36719 2.85938-1.90235-1.90235 2.85938L165 70l-3.36719.67578 1.90235 2.85938-2.85938-1.90235z" style="marker:none" /><path fill="#dabf1e" d="M150 66a6 6 0 006-6 6 6 0 00-6-6 6 6 0 00-6 6 6 6 0 006 6zm3.53516-2.46484L150 61.76758l-3.53516 1.76758L148.23242 60l-1.76758-3.53516L150 58.23242l3.53516-1.76758L151.76758 60z" style="marker:none" /><path fill="none" stroke="#000" stroke-width=".5" d="M170 90l-10-10" /><path fill="none" stroke="#000" stroke-width=".5" d="M170 70l-10 10" /><path fill="none" stroke="#000" stroke-width=".5" d="M160 90l-10-10" /><path fill="none" stroke="#000" stroke-width=".5" d="M190 50l10 10" /><path fill="none" stroke="#000" stroke-width=".5" d="M210 60l-10 10" /><path fill="none" stroke="#000" stroke-width=".5" d="M200 50l10 10" /><path fill="none" stroke="#000" stroke-width=".5" d="M150 70l-10-10" /><path fill="none" stroke="#000" stroke-width=".5" d="M130 70l10-10" /><path fill="none" stroke="#000" stroke-width=".5" d="M130 50l10 10" /><path fill="none" stroke="#000" stroke-width=".5" d="M150 50l-10 10" /><path fill="none" stroke="#000" stroke-width=".5" d="M170 50l10-10" /><path fill="none" stroke="#000" stroke-width=".5" d="M170 30l10 10" /><path fill="none" stroke="#000" stroke-width=".5" d="M190 30l-10 10" /><path fill="none" stroke="#000" stroke-width=".5" d="M180 30l10 10" /></g><g><path fill="#fff" stroke="#000" stroke-width=".75" d="M170 70v20h-40v20h40v20h20v-20h20V90h-20V70z" style="marker:none" /><path fill="none" stroke="#000" stroke-width=".5" d="M180 100l10 10" /><path fill="#14d2d2" d="M190 94a6 6 0 00-6 6 6 6 0 006 6 6 6 0 006-6 6 6 0 00-6-6zm1.29492 1.16992l-.0449 3.58008 3.58008-.0449-3.12305 1.75195 1.82813 3.07813-3.07813-1.82813-1.75195 3.12305.0449-3.58008-3.58008.0449 3.12305-1.75195-1.82813-3.07813 3.07813 1.82813z" style="marker:none" /><path fill="#f01010" d="M176.46453387 93.53558317l1.8669698-2.95167867-3.29999665-1.14367734 3.47175076-.38068578-1.16335046-3.29311366 2.4622349 2.47697101 1.84932112-2.9627668-.40139695 3.46941871 3.46941801-.40139623-2.96276751 1.84932182 2.47697101 2.4622349-3.29311437-1.16335116-.38068507 3.47175146-1.14367805-3.29999735z" style="marker:none" /><path fill="#dabf1e" d="M170 94a6 6 0 00-6 6 6 6 0 006 6 6 6 0 006-6 6 6 0 00-6-6zm-3.53516 2.46484L170 98.23242l3.53516-1.76758L171.76758 100l1.76758 3.53516L170 101.76758l-3.53516 1.76758L168.23242 100z" style="marker:none" /><path fill="#4264f3" d="M180 104a6 6 0 00-6 6 6 6 0 006 6 6 6 0 006-6 6 6 0 00-6-6zm-1.65234 1.28125l1.84961 2.96289 2.46289-2.47851-1.16407 3.29296 3.47266.38086-3.30078 1.14453 1.86719 2.95118-2.95118-1.86719-1.14453 3.30078-.38086-3.47266-3.29297 1.16407 2.47852-2.46289-2.96289-1.84961 3.46875.40234z" style="marker:none" /><path fill="none" stroke="#000" stroke-width=".5" d="M170 70l10 10" /><path fill="none" stroke="#000" stroke-width=".5" d="M190 70l-10 10" /><path fill="none" stroke="#000" stroke-width=".5" d="M190 90l-10-10" /><path fill="none" stroke="#000" stroke-width=".5" d="M170 90l10-10" /><path fill="none" stroke="#000" stroke-width=".5" d="M180 70l10 10" /><path fill="none" stroke="#000" stroke-width=".5" d="M150 90l-10 10" /><path fill="none" stroke="#000" stroke-width=".5" d="M150 110l-10-10" /><path fill="none" stroke="#000" stroke-width=".5" d="M150 100l-10 10" /><path fill="none" stroke="#000" stroke-width=".5" d="M150 90l10 10" /><path fill="none" stroke="#000" stroke-width=".5" d="M170 90l-10 10" /><path fill="none" stroke="#000" stroke-width=".5" d="M170 110l-10-10" /><path fill="none" stroke="#000" stroke-width=".5" d="M150 110l10-10" /><path fill="none" stroke="#000" stroke-width=".5" d="M210 110l-10-10" /><path fill="none" stroke="#000" stroke-width=".5" d="M210 100l-10 10" /><path fill="none" stroke="#000" stroke-width=".5" d="M170 110l10 10" /><path fill="none" stroke="#000" stroke-width=".5" d="M190 110l-10 10" /><path fill="none" stroke="#000" stroke-width=".5" d="M190 130l-10-10" /><path fill="none" stroke="#000" stroke-width=".5" d="M170 130l10-10" /><path fill="none" stroke="#000" stroke-width=".5" d="M190 120l-10 10" /><path fill="none" stroke="#000" stroke-width=".5" d="M180 130l-10-10" /></g><g><path fill="#fff" stroke="#000" stroke-width=".75" d="M210 50v20h-20v20h40v20h20V90h20V70h-40V50z" style="marker:none" /><path fill="none" stroke="#000" stroke-width=".5" d="M240 80l-10-10" /><path fill="none" stroke="#000" stroke-width=".5" d="M250 90l-10-10" /><path fill="#4264f3" d="M230 86a6 6 0 006-6 6 6 0 00-6-6 6 6 0 00-6 6 6 6 0 006 6zm-.78125-1.0625L228.75 81.25l-3.6875-.46875 3.36328-1.58398-.69531-3.65235 2.54687 2.70899 3.25782-1.78907-1.78907 3.25782 2.70899 2.54687-3.65235-.69531z" style="marker:none" /><path fill="#1ee21e" d="M240 96a6 6 0 006-6 6 6 0 00-6-6 6 6 0 00-6 6 6 6 0 006 6zm-.56055-1.03125l-.38086-3.47266-3.29297 1.16407 2.47852-2.46289-2.96289-1.84961L238.75 88.75l-.40234-3.46875 1.84961 2.96289 2.46289-2.47852-1.16407 3.29297 3.47266.38086-3.30078 1.14453 1.86719 2.95118-2.95118-1.86719z" style="marker:none" /><path fill="#14d2d2" d="M250 86a6 6 0 006-6 6 6 0 00-6-6 6 6 0 00-6 6 6 6 0 006 6zm-1.29492-1.16992l.0449-3.58008-3.58008.0449 3.12305-1.75195-1.82813-3.07813 3.07813 1.82813 1.75195-3.12305-.0449 3.58008 3.58008-.0449-3.12305 1.75195 1.82813 3.07813-3.07813-1.82813z" style="marker:none" /><path fill="none" stroke="#000" stroke-width=".5" d="M220 80l10-10" /><path fill="none" stroke="#000" stroke-width=".5" d="M220 80l-10-10" /><path fill="none" stroke="#000" stroke-width=".5" d="M210 90l10-10" /><path fill="#4264f3" d="M214 70a6 6 0 006 6 6 6 0 006-6 6 6 0 00-6-6 6 6 0 00-6 6zm1.16992-1.29492l3.58008.0449-.0449-3.58008 1.75195 3.12305 3.07813-1.82813-1.82813 3.07813 3.12305 1.75195-3.58008-.0449.0449 3.58008-1.75195-3.12305-3.07813 1.82813 1.82813-3.07813z" style="marker:none" /><path fill="#4264f3" d="M206.46446972 76.4644551l3.99306523 1.82800468 4.3720978.41343402-3.57962697 2.54409736-2.54409736 3.57962697-.41343473-4.3720985z" style="marker:none" /><path fill="none" stroke="#000" stroke-width=".5" d="M250 110l-10-10" /><path fill="none" stroke="#000" stroke-width=".5" d="M250 90l-10 10" /><path fill="none" stroke="#000" stroke-width=".5" d="M240 110l-10-10" /><path fill="none" stroke="#000" stroke-width=".5" d="M200 90l-10-10" /><path fill="none" stroke="#000" stroke-width=".5" d="M190 80l10-10" /><path fill="none" stroke="#000" stroke-width=".5" d="M270 70l-10 10" /><path fill="none" stroke="#000" stroke-width=".5" d="M260 70l10 10" /><path fill="none" stroke="#000" stroke-width=".5" d="M230 50l-10 10" /><path fill="none" stroke="#000" stroke-width=".5" d="M230 70l-10-10" /><path fill="none" stroke="#000" stroke-width=".5" d="M210 70l10-10" /><path fill="none" stroke="#000" stroke-width=".5" d="M220 50l10 10" /><path fill="none" stroke="#000" stroke-width=".5" d="M210 60l10-10" /></g><g><path fill="#fff" stroke="#000" stroke-width=".75" d="M110 90v60H90v20h40v-40h20v-20h-20V90z" style="marker:none" /><path fill="none" stroke="#000" stroke-width=".5" d="M120 120l-10 10" /><path fill="none" stroke="#000" stroke-width=".5" d="M130 130l-10-10" /><path fill="#dabf1e" d="M136 120a6 6 0 00-6-6 6 6 0 00-6 6 6 6 0 006 6 6 6 0 006-6zm-1.54492-2.26953l-2.70899 2.54687 1.78907 3.25782-3.25782-1.78907-2.54687 2.70899.69531-3.65235-3.36328-1.58398 3.6875-.46875.46875-3.6875 1.58398 3.36328z" style="marker:none" /><path fill="#14d2d2" d="M123.53545777 133.53549514l-3.07800046-1.82800538-1.75163078 3.1221027.04409518-3.57962908-3.57962908.04409518 3.1221027-1.75163077-1.82800537-3.07800047 3.07800046 1.82800538 1.75163078-3.12210271-.04409518 3.57962909 3.57962908-.04409518-3.1221027 1.75163077z" style="marker:none" /><path fill="#f01010" d="M126 110a6 6 0 00-6-6 6 6 0 00-6 6 6 6 0 006 6 6 6 0 006-6zm-2.46484 3.53516l-3.99219-1.82813-4.37305-.41211L118.75 108.75l2.54492-3.58008.41211 4.37305z" style="marker:none" /><path fill="none" stroke="#000" stroke-width=".5" d="M120 140l-10-10" /><path fill="none" stroke="#000" stroke-width=".5" d="M130 150l-10-10" /><path fill="#f01010" d="M126 150a6 6 0 00-6-6 6 6 0 00-6 6 6 6 0 006 6 6 6 0 006-6zm-1.16992-1.29492l-3.12305 1.75195 1.82813 3.07813-3.07813-1.82813-1.75195 3.12305.0449-3.58008-3.58008.0449 3.12305-1.75195-1.82813-3.07813 3.07813 1.82813 1.75195-3.12305-.0449 3.58008z" style="marker:none" /><path fill="none" stroke="#000" stroke-width=".5" d="M90 150l10 10" /><path fill="none" stroke="#000" stroke-width=".5" d="M100 160l10 10" /><path fill="none" stroke="#000" stroke-width=".5" d="M150 110l-10 10" /><path fill="none" stroke="#000" stroke-width=".5" d="M150 130l-10-10" /><path fill="none" stroke="#000" stroke-width=".5" d="M130 130l10-10" /><path fill="none" stroke="#000" stroke-width=".5" d="M140 110l10 10" /><path fill="none" stroke="#000" stroke-width=".5" d="M130 110l-10-10" /><path fill="none" stroke="#000" stroke-width=".5" d="M120 90l10 10" /><path fill="none" stroke="#000" stroke-width=".5" d="M130 150l-10 10" /><path fill="none" stroke="#000" stroke-width=".5" d="M130 170l-10-10" /></g><g><path fill="#fff" stroke="#000" stroke-width=".75" d="M210 170v20h-20v20h20v40h20v-20h20v-20h-20v-40z" style="marker:none" /><path fill="none" stroke="#000" stroke-width=".5" d="M210 190l10 10" /><path fill="none" stroke="#000" stroke-width=".5" d="M220 200l-10 10" /><path fill="#f01010" d="M210 194a6 6 0 00-6 6 6 6 0 006 6 6 6 0 006-6 6 6 0 00-6-6zm-1.29492 1.16992l1.75195 3.12305 3.07813-1.82813-1.82813 3.07813 3.12305 1.75195-3.58008-.0449.0449 3.58008-1.75195-3.12305-3.07813 1.82813 1.82813-3.07813-3.12305-1.75195 3.58008.0449z" style="marker:none" /><path fill="#4264f3" d="M220 184a6 6 0 00-6 6 6 6 0 006 6 6 6 0 006-6 6 6 0 00-6-6zm-1.65234 1.28125l1.84961 2.96289 2.46289-2.47851-1.16407 3.29296 3.47266.38086-3.30078 1.14453 1.86719 2.95118-2.95118-1.86719-1.14453 3.30078-.38086-3.47266-3.29297 1.16407 2.47852-2.46289-2.96289-1.84961 3.46875.40234z" style="marker:none" /><path fill="#f01010" d="M220 204a6 6 0 00-6 6 6 6 0 006 6 6 6 0 006-6 6 6 0 00-6-6zm-3.53516 2.46484L220 208.23242l3.53516-1.76758L221.76758 210l1.76758 3.53516L220 211.76758l-3.53516 1.76758L218.23242 210z" style="marker:none" /><path fill="none" stroke="#000" stroke-width=".5" d="M210 210l10 10" /><path fill="none" stroke="#000" stroke-width=".5" d="M220 220l10 10" /><path fill="#f01010" d="M226.4644358 216.46437408l3.5355339 1.76776696 3.5355339-1.76776696-1.76776695 3.53553391 1.76776695 3.5355339-3.5355339-1.76776695-3.5355339 1.76776696 1.76776694-3.53553391z" style="marker:none" /><path fill="#d459ee" d="M220 224a6 6 0 00-6 6 6 6 0 006 6 6 6 0 006-6 6 6 0 00-6-6zm0 1l.67578 3.36719 2.85938-1.90235-1.90235 2.85938L225 230l-3.36719.67578 1.90235 2.85938-2.85938-1.90235L220 235l-.67578-3.36719-2.85938 1.90235 1.90235-2.85938L215 230l3.36719-.67578-1.90235-2.85938 2.85938 1.90235z" style="marker:none" /><path fill="none" stroke="#000" stroke-width=".5" d="M210 170l10 10" /><path fill="none" stroke="#000" stroke-width=".5" d="M230 170l-10 10" /><path fill="none" stroke="#000" stroke-width=".5" d="M230 190l-10-10" /><path fill="none" stroke="#000" stroke-width=".5" d="M210 190l10-10" /><path fill="none" stroke="#000" stroke-width=".5" d="M210 180l10-10" /><path fill="none" stroke="#000" stroke-width=".5" d="M220 170l10 10" /><path fill="none" stroke="#000" stroke-width=".5" d="M230 250l-10-10" /><path fill="none" stroke="#000" stroke-width=".5" d="M210 250l10-10" /><path fill="none" stroke="#000" stroke-width=".5" d="M230 240l-10 10" /><path fill="none" stroke="#000" stroke-width=".5" d="M220 250l-10-10" /><path fill="none" stroke="#000" stroke-width=".5" d="M190 190l10 10" /><path fill="none" stroke="#000" stroke-width=".5" d="M210 190l-10 10" /><path fill="none" stroke="#000" stroke-width=".5" d="M250 210l-10 10" /><path fill="none" stroke="#000" stroke-width=".5" d="M250 230l-10-10" /><path fill="none" stroke="#000" stroke-width=".5" d="M230 230l10-10" /><path fill="none" stroke="#000" stroke-width=".5" d="M240 210l10 10" /><path fill="none" stroke="#000" stroke-width=".5" d="M250 220l-10 10" /></g><g><path fill="#fff" stroke="#000" stroke-width=".75" d="M50 130v20H30v20h20v40h20v-60h20v-20H70z" style="marker:none" /><path fill="none" stroke="#000" stroke-width=".5" d="M30 150l10 10" /><path fill="none" stroke="#000" stroke-width=".5" d="M40 160l-10 10" /><path fill="#4264f3" d="M53.5354764 156.4645381l-1.82800609 3.07800116 3.12210342 1.75163007-3.57962908-.04409518.04409518 3.57962909-1.75163007-3.12210342-3.07800117 1.82800609 1.82800609-3.07800117-3.12210342-1.75163007 3.57962908.04409518-.04409518-3.57962909 1.75163007 3.12210342z" style="marker:none" /><path fill="none" stroke="#000" stroke-width=".5" d="M70 150l-10 10" /><path fill="none" stroke="#000" stroke-width=".5" d="M60 160l-10 10" /><path fill="none" stroke="#000" stroke-width=".5" d="M60 160l10 10" /><path fill="#4264f3" d="M54 170a6 6 0 006 6 6 6 0 006-6 6 6 0 00-6-6 6 6 0 00-6 6zm1 0l3.36719-.67578-1.90235-2.85938 2.85938 1.90235L60 165l.67578 3.36719 2.85938-1.90235-1.90235 2.85938L65 170l-3.36719.67578 1.90235 2.85938-2.85938-1.90235L60 175l-.67578-3.36719-2.85938 1.90235 1.90235-2.85938z" style="marker:none" /><path fill="#4264f3" d="M66 150a6 6 0 00-6-6 6 6 0 00-6 6 6 6 0 006 6 6 6 0 006-6zm-1.16992 1.29492l-3.58008-.0449.0449 3.58008-1.75195-3.12305-3.07813 1.82813 1.82813-3.07813-3.12305-1.75195 3.58008.0449-.0449-3.58008 1.75195 3.12305 3.07813-1.82813-1.82813 3.07813z" style="marker:none" /><path fill="none" stroke="#000" stroke-width=".5" d="M50 190l10-10" /><path fill="none" stroke="#000" stroke-width=".5" d="M60 180l10-10" /><path fill="#f01010" d="M56.46456287 193.53551019l1.76776695-3.5355339-1.76776695-3.53553391 3.5355339 1.76776695 3.53553391-1.76776695-1.76776695 3.5355339 1.76776695 3.5355339-3.5355339-1.76776694z" style="marker:none" /><path fill="none" stroke="#000" stroke-width=".5" d="M70 150l-10-10" /><path fill="none" stroke="#000" stroke-width=".5" d="M50 150l10-10" /><path fill="none" stroke="#000" stroke-width=".5" d="M50 130l10 10" /><path fill="none" stroke="#000" stroke-width=".5" d="M60 130l10 10" /><path fill="none" stroke="#000" stroke-width=".5" d="M50 140l10-10" /><path fill="none" stroke="#000" stroke-width=".5" d="M70 150l10-10" /><path fill="none" stroke="#000" stroke-width=".5" d="M70 130l10 10" /><path fill="none" stroke="#000" stroke-width=".5" d="M90 150l-10-10" /><path fill="none" stroke="#000" stroke-width=".5" d="M70 140l10-10" /><path fill="none" stroke="#000" stroke-width=".5" d="M90 140l-10 10" /><path fill="none" stroke="#000" stroke-width=".5" d="M70 210l-10-10" /><path fill="none" stroke="#000" stroke-width=".5" d="M50 210l10-10" /><path fill="none" stroke="#000" stroke-width=".5" d="M70 190l-10 10" /><path fill="none" stroke="#000" stroke-width=".5" d="M70 200l-10 10" /><path fill="none" stroke="#000" stroke-width=".5" d="M60 210l-10-10" /></g><g><path fill="#fff" stroke="#000" stroke-width=".75" d="M250 170v20h-20v20h20v40h20v-20h20v-20h-20v-40z" style="marker:none" /><path fill="none" stroke="#000" stroke-width=".5" d="M260 200l10 10" /><path fill="#f01010" d="M244 200a6 6 0 006 6 6 6 0 006-6 6 6 0 00-6-6 6 6 0 00-6 6zm1.54492-2.26953l3.65235.69531 1.58398-3.36328.46875 3.6875 3.6875.46875-3.36328 1.58398.69531 3.65235-2.54687-2.70899-3.25782 1.78907 1.78907-3.25782z" style="marker:none" /><path fill="#d459ee" d="M256.46449839 206.46447396l3.25899717 1.78953029 2.54648739-2.7090272-.69486394 3.65248513 3.36335765 1.58471539-3.68844575.46782892-.46782891 3.68844574-1.5847154-3.36335764-3.65248512.69486393 2.7090272-2.54648739z" style="marker:none" /><path fill="#14d2d2" d="M256.46450108 186.46446922l2.85903637 1.90233503.67649471-3.36679843.67649613 3.36679702 2.8590406-1.90233362-1.90233361 2.8590406 3.36679701.67649613-3.36679842.67649472 1.90233503 2.85903636-2.85903637-1.90233503-.67649471 3.36679843-.67649613-3.36679701-2.8590406 1.90233361 1.90233361-2.8590406-3.36679701-.67649613 3.36679842-.67649472z" style="marker:none" /><path fill="none" stroke="#000" stroke-width=".5" d="M270 210l-10 10" /><path fill="none" stroke="#000" stroke-width=".5" d="M260 220l-10 10" /><path fill="none" stroke="#000" stroke-width=".5" d="M250 210l10 10" /><path fill="none" stroke="#000" stroke-width=".5" d="M260 220l10 10" /><path fill="#d459ee" d="M260 224a6 6 0 00-6 6 6 6 0 006 6 6 6 0 006-6 6 6 0 00-6-6zm.56055 1.03125l.38086 3.47266 3.29296-1.16407-2.47851 2.46289 2.96289 1.84961L261.25 231.25l.40234 3.46875-1.84961-2.96289-2.46289 2.47852 1.16407-3.29297-3.47266-.38086 3.30078-1.14453-1.86719-2.95118 2.95118 1.86719z" style="marker:none" /><path fill="#14d2d2" d="M273.5355731 216.4645147l-1.76776766 3.53553462 1.76776766 3.5355332-3.5355332-1.76776767-3.53553461 1.76776767 1.76776836-3.53553391-1.76776836-3.5355339 3.5355339 1.76776836z" style="marker:none" /><path fill="none" stroke="#000" stroke-width=".5" d="M230 210l10-10" /><path fill="none" stroke="#000" stroke-width=".5" d="M240 210l-10-10" /><path fill="none" stroke="#000" stroke-width=".5" d="M270 210l10 10" /><path fill="none" stroke="#000" stroke-width=".5" d="M290 220l-10 10" /><path fill="none" stroke="#000" stroke-width=".5" d="M270 190l-10-10" /><path fill="none" stroke="#000" stroke-width=".5" d="M250 190l10-10" /><path fill="none" stroke="#000" stroke-width=".5" d="M270 230l-10 10" /><path fill="none" stroke="#000" stroke-width=".5" d="M270 250l-10-10" /><path fill="none" stroke="#000" stroke-width=".5" d="M250 250l10-10" /><path fill="none" stroke="#000" stroke-width=".5" d="M250 230l10 10" /><path fill="none" stroke="#000" stroke-width=".5" d="M270 240l-10 10" /><path fill="none" stroke="#000" stroke-width=".5" d="M260 250l-10-10" /></g><g><path fill="#fff" stroke="#000" stroke-width=".75" d="M30 70h20v40h20V70h20V50H70V30H50v20H30z" style="marker:none" /><path fill="none" stroke="#000" stroke-width=".5" d="M70 50L60 60" /><path fill="#dabf1e" d="M66.46446547 56.4645008l3.53553462 1.76776765 3.5355332-1.76776766-1.76776766 3.5355332 1.76776766 3.53553461-3.53553462-1.76776766-3.5355332 1.76776766 1.76776766-3.5355332z" style="marker:none" /><path fill="#14d2d2" d="M60 44a6 6 0 00-6 6 6 6 0 006 6 6 6 0 006-6 6 6 0 00-6-6zm0 1l.67578 3.36719 2.85938-1.90235-1.90235 2.85938L65 50l-3.36719.67578 1.90235 2.85938-2.85938-1.90235L60 55l-.67578-3.36719-2.85938 1.90235 1.90235-2.85938L55 50l3.36719-.67578-1.90235-2.85938 2.85938 1.90235z" style="marker:none" /><path fill="#4264f3" d="M63.53538805 66.4644493l-1.78953028 3.25899718 2.7090272 2.54648738-3.65248513-.69486393-1.5847154 3.36335765-.46782891-3.68844575-3.68844575-.46782892 3.36335765-1.58471539-.69486394-3.65248512 2.5464874 2.7090272z" style="marker:none" /><path fill="#14d2d2" d="M53.53551492 56.46448698l-1.90233503 2.85903636 3.36679843.67649472-3.36679702.67649613 1.90233362 2.8590406-2.8590406-1.90233361-.67649613 3.36679701-.67649472-3.36679843-2.85903636 1.90233503 1.90233503-2.85903636-3.36679843-.67649472 3.36679701-.67649612-1.90233361-2.85904061 2.8590406 1.90233362.67649613-3.36679702.67649472 3.36679843z" style="marker:none" /><path fill="none" stroke="#000" stroke-width=".5" d="M50 50l10-10" /><path fill="none" stroke="#000" stroke-width=".5" d="M50 30l10 10" /><path fill="none" stroke="#000" stroke-width=".5" d="M60 30l10 10" /><path fill="none" stroke="#000" stroke-width=".5" d="M50 50L40 60" /><path fill="none" stroke="#000" stroke-width=".5" d="M50 70L40 60" /><path fill="none" stroke="#000" stroke-width=".5" d="M70 70L60 80" /><path fill="none" stroke="#000" stroke-width=".5" d="M70 90L60 80" /><path fill="none" stroke="#000" stroke-width=".5" d="M70 80L60 90" /><path fill="none" stroke="#000" stroke-width=".5" d="M60 90L50 80" /><path fill="none" stroke="#000" stroke-width=".5" d="M70 70l10-10" /><path fill="none" stroke="#000" stroke-width=".5" d="M90 70L80 60" /><path fill="none" stroke="#000" stroke-width=".5" d="M80 50l10 10" /><path fill="none" stroke="#000" stroke-width=".5" d="M50 90l10 10" /><path fill="none" stroke="#000" stroke-width=".5" d="M70 90l-10 10" /><path fill="none" stroke="#000" stroke-width=".5" d="M60 90l10 10" /><path fill="none" stroke="#000" stroke-width=".5" d="M70 100l-10 10" /></g><g><path fill="#fff" stroke="#000" stroke-width=".75" d="M70 190v20H50v20h20v40h20v-20h20v-20H90v-40z" style="marker:none" /><path fill="none" stroke="#000" stroke-width=".5" d="M90 210l-10 10" /><path fill="#d459ee" d="M80 224a6 6 0 00-6 6 6 6 0 006 6 6 6 0 006-6 6 6 0 00-6-6zm1.29492 1.16992l-.0449 3.58008 3.58009-.0449-3.12305 1.75195 1.82813 3.07812-3.07813-1.82812-1.75195 3.12305.0449-3.58008-3.58008.0449 3.12305-1.75195-1.82813-3.07813 3.07813 1.82813z" style="marker:none" /><path fill="#1ee21e" d="M73.53551138 216.4644912l-1.82800538 3.07800047 3.1221027 1.75163077-3.57962908-.04409518.04409518 3.57962909-1.75163077-3.12210271-3.07800047 1.82800537 1.82800538-3.07800046-3.12210271-1.75163077 3.57962908.04409517-.04409517-3.57962908 1.75163077 3.12210271z" style="marker:none" /><path fill="#dabf1e" d="M83.53550995 206.46448777l-1.76776766 3.53553461 1.76776766 3.5355332-3.5355332-1.76776766-3.53553461 1.76776766 1.76776766-3.53553461-1.76776766-3.5355332 3.5355332 1.76776766z" style="marker:none" /><path fill="none" stroke="#000" stroke-width=".5" d="M80 240l10 10" /><path fill="none" stroke="#000" stroke-width=".5" d="M80 240l-10 10" /><path fill="#dabf1e" d="M80 256a6 6 0 006-6 6 6 0 00-6-6 6 6 0 00-6 6 6 6 0 006 6zm1.29492-1.16992L78.75 251.25l-3.58008-2.54492 4.37305-.41211 3.99219-1.82813-1.82813 3.99219z" style="marker:none" /><path fill="#d459ee" d="M86.46448807 236.46450594l3.07800117 1.82800608 1.75163007-3.12210342-.04409518 3.57962909 3.57962908-.04409518-3.12210342 1.75163007 1.82800609 3.07800117-3.07800117-1.82800609-1.75163007 3.12210342.04409518-3.57962908-3.57962908.04409517 3.12210342-1.75163006z" style="marker:none" /><path fill="none" stroke="#000" stroke-width=".5" d="M110 240l-10 10" /><path fill="none" stroke="#000" stroke-width=".5" d="M70 210l10-10" /><path fill="none" stroke="#000" stroke-width=".5" d="M70 190l10 10" /><path fill="none" stroke="#000" stroke-width=".5" d="M80 190l10 10" /><path fill="none" stroke="#000" stroke-width=".5" d="M60 230l-10-10" /><path fill="none" stroke="#000" stroke-width=".5" d="M90 250l-10 10" /><path fill="none" stroke="#000" stroke-width=".5" d="M80 270l-10-10" /><path fill="none" stroke="#000" stroke-width=".5" d="M90 260l-10 10" /></g><g><path fill="#fff" stroke="#000" stroke-width=".75" d="M210 90v20h-20v20h20v20h20v-20h40v-20h-40V90z" style="marker:none" /><path fill="none" stroke="#000" stroke-width=".5" d="M210 110l10 10" /><path fill="#dabf1e" d="M223.53551633 126.46451294l-1.8669698 2.95167867 3.29999665 1.14367733-3.47175076.38068579 1.163354 3.29311012-2.46224905-2.47695687-1.84932111 2.9627668.40140401-3.46942578-3.46941164.40138987 2.9627668-1.84932111-2.47695687-2.46224905 3.29311083 1.1633547.38068508-3.47175146 1.14367804 3.29999735z" style="marker:none" /><path fill="#dabf1e" d="M226.46447262 123.5355922l1.8280061-3.07800118-3.12210343-1.75163007 3.57962909.04409518-.04409518-3.57962908 1.75163007 3.12210342 3.07800117-1.82800609-1.82800397 3.0780033 3.12209918 1.75162582-3.5796305-.0440966.0440966 3.5796305-1.75162654-3.12209988z" style="marker:none" /><path fill="#d459ee" d="M220 104a6 6 0 00-6 6 6 6 0 006 6 6 6 0 006-6 6 6 0 00-6-6zm.56055 1.03125l.38086 3.47266 3.29296-1.16407-2.47851 2.46289 2.96289 1.84961L221.25 111.25l.40234 3.46875-1.84961-2.96289-2.46289 2.47852 1.16407-3.29297-3.47266-.38086 3.30078-1.14453-1.86719-2.95118 2.95118 1.86719z" style="marker:none" /><path fill="#1ee21e" d="M205.75736 115.75736a6 6 0 000 8.48528 6 6 0 008.48528 0 6 6 0 000-8.48528 6 6 0 00-8.48528 0zm.70711.7071l2.85881 1.90312.67672-3.36705.67672 3.36705 2.85881-1.90311-1.90311 2.85881 3.36705.67672-3.36705.67672 1.90311 2.85882-2.85881-1.90312L210 124.99947l-.67672-3.36705-2.85881 1.90311 1.90311-2.85881L205.00053 120l3.36705-.67672z" style="marker:none" /><path fill="none" stroke="#000" stroke-width=".5" d="M210 110l10-10" /><path fill="none" stroke="#000" stroke-width=".5" d="M210 90l10 10" /><path fill="none" stroke="#000" stroke-width=".5" d="M230 90l-10 10" /><path fill="none" stroke="#000" stroke-width=".5" d="M230 110l-10-10" /><path fill="none" stroke="#000" stroke-width=".5" d="M210 100l10-10" /><path fill="none" stroke="#000" stroke-width=".5" d="M220 90l10 10" /><path fill="none" stroke="#000" stroke-width=".5" d="M210 130l-10-10" /><path fill="none" stroke="#000" stroke-width=".5" d="M190 130l10-10" /><path fill="none" stroke="#000" stroke-width=".5" d="M200 130l-10-10" /><path fill="none" stroke="#000" stroke-width=".5" d="M230 130l10-10" /><path fill="none" stroke="#000" stroke-width=".5" d="M240 110l10 10" /><path fill="none" stroke="#000" stroke-width=".5" d="M250 120l-10 10" /><path fill="none" stroke="#000" stroke-width=".5" d="M270 110l-10 10" /><path fill="none" stroke="#000" stroke-width=".5" d="M270 130l-10-10" /><path fill="none" stroke="#000" stroke-width=".5" d="M250 120l10-10" /><path fill="none" stroke="#000" stroke-width=".5" d="M260 110l10 10" /><path fill="none" stroke="#000" stroke-width=".5" d="M270 120l-10 10" /><path fill="none" stroke="#000" stroke-width=".5" d="M230 130l-10 10" /><path fill="none" stroke="#000" stroke-width=".5" d="M230 150l-10-10" /><path fill="none" stroke="#000" stroke-width=".5" d="M210 130l10 10" /><path fill="none" stroke="#000" stroke-width=".5" d="M230 140l-10 10" /><path fill="none" stroke="#000" stroke-width=".5" d="M220 150l-10-10" /></g><g stroke="#000"><path fill="#fff" stroke-width=".75" d="M110 210v60h20v40h20v-60h-20v-40z" style="marker:none" /><path fill="none" stroke-width=".5" d="M150 270l-10-10" /><path fill="none" stroke-width=".5" d="M130 270l10-10" /><path fill="none" stroke-width=".5" d="M140 250l10 10" /><path fill="none" stroke-width=".5" d="M150 260l-10 10" /><path fill="none" stroke-width=".5" d="M130 230l-10 10" /><path fill="none" stroke-width=".5" d="M130 250l-10-10" /><path fill="none" stroke-width=".5" d="M130 240l-10 10" /><path fill="none" stroke-width=".5" d="M120 250l-10-10" /><path fill="none" stroke-width=".5" d="M110 240l10-10" /><path fill="none" stroke-width=".5" d="M130 250l-10 10" /><path fill="none" stroke-width=".5" d="M110 250l10 10" /><path fill="none" stroke-width=".5" d="M120 250l10 10" /><path fill="none" stroke-width=".5" d="M130 260l-10 10" /><path fill="none" stroke-width=".5" d="M110 260l10-10" /><path fill="none" stroke-width=".5" d="M130 270l10 10" /><path fill="none" stroke-width=".5" d="M130 290l10-10" /><path fill="none" stroke-width=".5" d="M140 290l-10-10" /><path fill="none" stroke-width=".5" d="M130 210l-10 10" /><path fill="none" stroke-width=".5" d="M130 230l-10-10" /><path fill="none" stroke-width=".5" d="M110 230l10-10" /><path fill="none" stroke-width=".5" d="M130 220l-10 10" /><path fill="none" stroke-width=".5" d="M120 230l-10-10" /><path fill="none" stroke-width=".5" d="M130 290l10 10" /><path fill="none" stroke-width=".5" d="M150 310l-10-10" /><path fill="none" stroke-width=".5" d="M130 300l10-10" /><path fill="none" stroke-width=".5" d="M140 290l10 10" /></g><g><path fill="#fff" stroke="#000" stroke-width=".75" d="M230 130v20h-40v20h40v20h20v-20h20v-20h-20v-20z" style="marker:none" /><path fill="#dabf1e" d="M240 156a6 6 0 006-6 6 6 0 00-6-6 6 6 0 00-6 6 6 6 0 006 6zm1.29492-1.16992L238.75 151.25l-3.58008-2.54492 4.37305-.41211 3.99219-1.82813-1.82813 3.99219z" style="marker:none" /><path fill="#1ee21e" d="M253.5354355 156.46448127l-1.78953312 3.25899434 2.70903214 2.54649234-3.65248441-.69486323-1.58472105 3.363352-.4678261-3.68844293-3.6884432-.46782637 3.36335193-1.58472112-.69486252-3.6524837 2.54649184 2.70903164z" style="marker:none" /><path fill="none" stroke="#000" stroke-width=".5" d="M250 150l-10 10" /><path fill="#14d2d2" d="M243.53555092 166.4645107l-1.86697333 2.95167513 3.3000023 1.143683-3.4717557.38068083 1.16335682 3.29311295-2.46225188-2.4769597-1.84931758 2.96277034.40138917-3.46941235-3.46941235.40138917 2.96277034-1.84931758-2.4769597-2.46225188 3.29311295 1.16335683.38068084-3.4717557 1.143683 3.30000229z" style="marker:none" /><path fill="#4264f3" d="M233.53552944 163.53553833l-3.99306523-1.82800467-4.3720978-.41343402 3.57962697-2.54409737 2.54409737-3.57962696.41343473 4.3720985z" style="marker:none" /><path fill="none" stroke="#000" stroke-width=".5" d="M250 150l-10-10" /><path fill="none" stroke="#000" stroke-width=".5" d="M240 130l10 10" /><path fill="none" stroke="#000" stroke-width=".5" d="M230 140l10-10" /><path fill="none" stroke="#000" stroke-width=".5" d="M270 150l-10 10" /><path fill="none" stroke="#000" stroke-width=".5" d="M190 150l10 10" /><path fill="none" stroke="#000" stroke-width=".5" d="M210 150l-10 10" /><path fill="none" stroke="#000" stroke-width=".5" d="M190 170l10-10" /><path fill="none" stroke="#000" stroke-width=".5" d="M190 160l10-10" /><path fill="none" stroke="#000" stroke-width=".5" d="M200 170l-10-10" /><path fill="none" stroke="#000" stroke-width=".5" d="M210 160l10-10" /><path fill="none" stroke="#000" stroke-width=".5" d="M220 170l-10-10" /><path fill="none" stroke="#000" stroke-width=".5" d="M250 170l-10 10" /><path fill="none" stroke="#000" stroke-width=".5" d="M250 180l-10 10" /></g><g><path fill="#fff" stroke="#000" stroke-width=".75" d="M150 210v20h-20v20h20v40h20v-40h20v-20h-20v-20z" style="marker:none" /><path fill="none" stroke="#000" stroke-width=".5" d="M170 230l-10 10" /><path fill="#1ee21e" d="M160 244a6 6 0 00-6 6 6 6 0 006 6 6 6 0 006-6 6 6 0 00-6-6zm-3.53516 2.46484L160 248.23242l3.53516-1.76758L161.76758 250l1.76758 3.53516L160 251.76758l-3.53516 1.76758L158.23242 250z" style="marker:none" /><path fill="#f01010" d="M170 234a6 6 0 00-6 6 6 6 0 006 6 6 6 0 006-6 6 6 0 00-6-6zm3.53516 2.46484l-1.82813 3.99219-.41211 4.37305L168.75 241.25l-3.58008-2.54492 4.37305-.41211z" style="marker:none" /><path fill="#dabf1e" d="M163.53553968 226.46455162l-1.86696979 2.95167866 3.29999664 1.14367734-3.47175076.38068578 1.163354 3.29311013-2.46224905-2.47695687-1.84932111 2.9627668.40140401-3.46942578-3.46941164.40138987 2.9627668-1.84932111-2.47695687-2.46224905 3.29311083 1.1633547.38068508-3.47175146 1.14367805 3.29999734z" style="marker:none" /><path fill="#1ee21e" d="M153.53553226 236.4645558l-1.9023322 2.85903919 3.36679843.6764947-3.36679843.67649472 1.9023322 2.8590392-2.8590392-1.9023322-.6764947 3.36679842-.67649472-3.36679843-2.8590392 1.9023322 1.90233221-2.85903919-3.36679843-.67649471 3.36679843-.67649471-1.9023322-2.8590392 2.85903919 1.9023322.67649471-3.36679842.67649472 3.36679843z" style="marker:none" /><path fill="none" stroke="#000" stroke-width=".5" d="M160 260l-10-10" /><path fill="none" stroke="#000" stroke-width=".5" d="M170 250l-10 10" /><path fill="#d459ee" d="M156.46448038 273.53544224l1.90233645-2.85903778-3.36679702-.67649613 3.36679702-.67649613-1.90233645-2.85903777 2.85903778 1.90233644.67649613-3.36679701.67649613 3.36679701 2.85903777-1.90233644-1.90233644 2.85903777 3.36679701.67649613-3.36679701.67649613 1.90233644 2.85903778-2.85903777-1.90233645-.67649613 3.36679702-.67649613-3.36679702z" style="marker:none" /><path fill="none" stroke="#000" stroke-width=".5" d="M150 230l10-10" /><path fill="none" stroke="#000" stroke-width=".5" d="M170 210l-10 10" /><path fill="none" stroke="#000" stroke-width=".5" d="M170 230l-10-10" /><path fill="none" stroke="#000" stroke-width=".5" d="M150 220l10-10" /><path fill="none" stroke="#000" stroke-width=".5" d="M160 210l10 10" /><path fill="none" stroke="#000" stroke-width=".5" d="M130 230l10 10" /><path fill="none" stroke="#000" stroke-width=".5" d="M150 230l-10 10" /><path fill="none" stroke="#000" stroke-width=".5" d="M130 250l10-10" /><path fill="none" stroke="#000" stroke-width=".5" d="M130 240l10-10" /><path fill="none" stroke="#000" stroke-width=".5" d="M140 250l-10-10" /><path fill="none" stroke="#000" stroke-width=".5" d="M170 230l10 10" /><path fill="none" stroke="#000" stroke-width=".5" d="M180 230l10 10" /><path fill="none" stroke="#000" stroke-width=".5" d="M170 270l-10 10" /><path fill="none" stroke="#000" stroke-width=".5" d="M160 290l-10-10" /></g><g><path fill="#fff" stroke="#000" stroke-width=".75" d="M90 250v20H50v20h40v20h20v-20h20v-20h-20v-20z" style="marker:none" /><path fill="none" stroke="#000" stroke-width=".5" d="M90 290l10-10" /><path fill="#d459ee" d="M103.53550776 286.46456887l-1.90233644 2.85903777 3.36679701.67649613-3.36679701.67649613 1.90233644 2.85903778-2.85903777-1.90233645-.67649613 3.36679702-.67649613-3.36679702-2.85903778 1.90233645 1.90233645-2.85903778-3.36679702-.67649613 3.36679702-.67649613-1.90233645-2.85903777 2.85903778 1.90233644.67649613-3.36679702.67649613 3.36679702z" style="marker:none" /><path fill="#d459ee" d="M84 280a6 6 0 006 6 6 6 0 006-6 6 6 0 00-6-6 6 6 0 00-6 6zm1 0l3.36719-.67578-1.90235-2.85938 2.85938 1.90235L90 275l.67578 3.36719 2.85938-1.90235-1.90235 2.85938L95 280l-3.36719.67578 1.90235 2.85938-2.85938-1.90235L90 285l-.67578-3.36719-2.85938 1.90235 1.90235-2.85938z" style="marker:none" /><path fill="#dabf1e" d="M103.53567456 273.53536022l-3.25899859-1.7895317-2.5464895 2.70902508.69486676-3.6524823-3.36336048-1.58471822 3.68844575-.46782892.46783599-3.68843867 1.58471115 3.3633534 3.65248936-.69485969-2.70903214 2.54648244z" style="marker:none" /><path fill="#f01010" d="M106.46451854 276.46449143l3.07800046 1.82800538 1.75163078-3.12210272-.04409518 3.57962909 3.57962908-.04409518-3.12210271 1.75163077 1.82800538 3.07800047-3.07800046-1.82800538-1.75163078 3.12210271.04409518-3.57962908-3.57962909.04409518 3.12210272-1.75163078z" style="marker:none" /><path fill="none" stroke="#000" stroke-width=".5" d="M50 270l10 10" /><path fill="none" stroke="#000" stroke-width=".5" d="M70 290l-10-10" /><path fill="none" stroke="#000" stroke-width=".5" d="M60 270l10 10" /><path fill="none" stroke="#000" stroke-width=".5" d="M70 280l-10 10" /><path fill="none" stroke="#000" stroke-width=".5" d="M130 270l-10 10" /><path fill="none" stroke="#000" stroke-width=".5" d="M130 290l-10-10" /><path fill="none" stroke="#000" stroke-width=".5" d="M130 280l-10 10" /><path fill="none" stroke="#000" stroke-width=".5" d="M90 290l10 10" /><path fill="none" stroke="#000" stroke-width=".5" d="M110 300l-10 10" /><path fill="none" stroke="#000" stroke-width=".5" d="M70 290l10-10" /><path fill="none" stroke="#000" stroke-width=".5" d="M70 270l10 10" /><path fill="none" stroke="#000" stroke-width=".5" d="M80 290l-10-10" /><path fill="none" stroke="#000" stroke-width=".5" d="M70 280l10-10" /><path fill="none" stroke="#000" stroke-width=".5" d="M110 250l-10 10" /><path fill="none" stroke="#000" stroke-width=".5" d="M110 270l-10-10" /><path fill="none" stroke="#000" stroke-width=".5" d="M90 260l10-10" /></g><g><path fill="#fff" stroke="#000" stroke-width=".75" d="M110 10v20H70v20h20v20h20V50h40V30h-20V10z" style="marker:none" /><path fill="none" stroke="#000" stroke-width=".5" d="M120 40l-10-10" /><path fill="#dabf1e" d="M106.46438462 36.46465991l2.85903778 1.90233645.67649613-3.36679702.67649613 3.36679702 2.85903778-1.90233645-1.90233645 2.85903778 3.36679702.67649613-3.36679702.67649613 1.90233645 2.85903778-2.85903778-1.90233645-.67649613 3.36679702-.67649613-3.36679702-2.85903778 1.90233645 1.90233645-2.85903778-3.36679702-.67649613 3.36679702-.67649613z" style="marker:none" /><path fill="#14d2d2" d="M133.53548797 43.5354841l-2.95167512-1.86697333-1.143683 3.3000023-.38068083-3.4717557-3.29311296 1.16335682 2.4769597-2.46225188-2.96277034-1.84931758 3.46941235.40138917-.40138916-3.46941236 1.84931758 2.96277035 2.46225187-2.4769597-1.16335682 3.29311295 3.4717557.38068084-3.3000023 1.14368299z" style="marker:none" /><path fill="none" stroke="#000" stroke-width=".5" d="M100 40L90 50" /><path fill="none" stroke="#000" stroke-width=".5" d="M90 30l10 10" /><path fill="#dabf1e" d="M86.46467115 43.53561265l1.7895317-3.25899858-2.70902508-2.54648951 3.6524823.69486676 1.58471822-3.36336048.46782892 3.68844575 3.68843867.46783599-3.3633534 1.58471115.69485969 3.65248937-2.54648244-2.70903215z" style="marker:none" /><path fill="#1ee21e" d="M100 56a6 6 0 006-6 6 6 0 00-6-6 6 6 0 00-6 6 6 6 0 006 6zm-3.53516-2.46484l1.82813-3.99219.41211-4.37305L101.25 48.75l3.58008 2.54492-4.37305.41211z" style="marker:none" /><path fill="none" stroke="#000" stroke-width=".5" d="M130 50l10-10" /><path fill="none" stroke="#000" stroke-width=".5" d="M150 40l-10 10" /><path fill="none" stroke="#000" stroke-width=".5" d="M110 70l-10-10" /><path fill="none" stroke="#000" stroke-width=".5" d="M90 50l10 10" /><path fill="none" stroke="#000" stroke-width=".5" d="M110 50l-10 10" /><path fill="none" stroke="#000" stroke-width=".5" d="M110 60l-10 10" /><path fill="none" stroke="#000" stroke-width=".5" d="M100 70L90 60" /><path fill="none" stroke="#000" stroke-width=".5" d="M70 50l10-10" /><path fill="none" stroke="#000" stroke-width=".5" d="M90 50L80 40" /><path fill="none" stroke="#000" stroke-width=".5" d="M70 40l10-10" /><path fill="none" stroke="#000" stroke-width=".5" d="M130 10l-10 10" /><path fill="none" stroke="#000" stroke-width=".5" d="M130 30l-10-10" /><path fill="none" stroke="#000" stroke-width=".5" d="M110 30l10-10" /><path fill="none" stroke="#000" stroke-width=".5" d="M120 10l10 10" /><path fill="none" stroke="#000" stroke-width=".5" d="M120 30l-10-10" /></g><g><path fill="#fff" stroke="#000" stroke-width=".75" d="M130 150v20h-20v20h20v40h20v-40h20v-20h-20v-20z" style="marker:none" /><path fill="none" stroke="#000" stroke-width=".5" d="M150 190l-10 10" /><path fill="#1ee21e" d="M140 184a6 6 0 00-6 6 6 6 0 006 6 6 6 0 006-6 6 6 0 00-6-6zm-1.29492 1.16992l1.75195 3.12305 3.07813-1.82813-1.82813 3.07813 3.12305 1.75195-3.58008-.0449.0449 3.58008-1.75195-3.12305-3.07813 1.82813 1.82813-3.07813-3.12305-1.75197 3.5801.0449z" style="marker:none" /><path fill="#f01010" d="M140 204a6 6 0 00-6 6 6 6 0 006 6 6 6 0 006-6 6 6 0 00-6-6zm2.26953 1.54492l-.69531 3.65235 3.36328 1.58398-3.6875.46875-.46875 3.6875-1.58398-3.36328-3.65235.69531 2.70899-2.54687-1.78907-3.25782 3.25782 1.78907z" style="marker:none" /><path fill="none" stroke="#000" stroke-width=".5" d="M130 190l10-10" /><path fill="none" stroke="#000" stroke-width=".5" d="M140 180l-10-10" /><path fill="none" stroke="#000" stroke-width=".5" d="M150 190l-10-10" /><path fill="none" stroke="#000" stroke-width=".5" d="M140 180l10-10" /><path fill="#dabf1e" d="M130 186a6 6 0 006-6 6 6 0 00-6-6 6 6 0 00-6 6 6 6 0 006 6zm-1.29492-1.16992l.0449-3.58008-3.58008.0449 3.12305-1.75195-1.82813-3.07813 3.07813 1.82813 1.75195-3.12305-.0449 3.58008 3.58008-.0449-3.12305 1.75195 1.82813 3.07813-3.07813-1.82813z" style="marker:none" /><path fill="#14d2d2" d="M143.535533 166.46447126l-1.82800468 3.99306523-.41343402 4.3720978-2.54409383-3.5796305-3.5796305-2.54409383 4.3720985-.41343473z" style="marker:none" /><path fill="#1ee21e" d="M153.53554275 176.46444622l-1.82800538 3.99306734-.41343119 4.3720978-2.54409949-3.57962908-3.57962908-2.5440995 4.3720978-.41343118z" style="marker:none" /><path fill="none" stroke="#000" stroke-width=".5" d="M130 190l-10-10" /><path fill="none" stroke="#000" stroke-width=".5" d="M120 180l-10-10" /><path fill="none" stroke="#000" stroke-width=".5" d="M130 230l10-10" /><path fill="none" stroke="#000" stroke-width=".5" d="M140 230l-10-10" /><path fill="none" stroke="#000" stroke-width=".5" d="M150 190l10-10" /><path fill="none" stroke="#000" stroke-width=".5" d="M170 170l-10 10" /><path fill="none" stroke="#000" stroke-width=".5" d="M170 180l-10 10" /><path fill="none" stroke="#000" stroke-width=".5" d="M150 150l-10 10" /><path fill="none" stroke="#000" stroke-width=".5" d="M130 170l10-10" /><path fill="none" stroke="#000" stroke-width=".5" d="M140 150l10 10" /></g><g><path fill="#fff" stroke="#000" stroke-width=".75" d="M190 210v40h-20v20h20v20h20v-20h20v-20h-20v-40z" style="marker:none" /><path fill="none" stroke="#000" stroke-width=".5" d="M190 250l10-10" /><path fill="none" stroke="#000" stroke-width=".5" d="M200 240l10-10" /><path fill="#d459ee" d="M200 256a6 6 0 006-6 6 6 0 00-6-6 6 6 0 00-6 6 6 6 0 006 6zm2.26953-1.54492l-2.54687-2.70899-3.25782 1.78907 1.78907-3.25782-2.70899-2.54687 3.65235.69531 1.58398-3.36328.46875 3.6875 3.6875.46875-3.36328 1.58398z" style="marker:none" /><path fill="#14d2d2" d="M200 236a6 6 0 006-6 6 6 0 00-6-6 6 6 0 00-6 6 6 6 0 006 6zm0-1l-.67578-3.36719-2.85938 1.90235 1.90235-2.85938L195 230l3.36719-.67578-1.90235-2.85938 2.85938 1.90235L200 225l.67578 3.36719 2.85938-1.90235-1.90235 2.85938L205 230l-3.36719.67578 1.90235 2.85938-2.85938-1.90235z" style="marker:none" /><path fill="none" stroke="#000" stroke-width=".5" d="M210 250l-10 10" /><path fill="none" stroke="#000" stroke-width=".5" d="M200 260l-10 10" /><path fill="none" stroke="#000" stroke-width=".5" d="M190 250l10 10" /><path fill="#1ee21e" d="M206.4644779 263.53550394l1.82800537-3.99306735.4134312-4.3720978 2.54409948 3.57962909 3.57962909 2.54409949-4.3720978.41343119z" style="marker:none" /><path fill="#d459ee" d="M196.46440081 273.53544712l1.76776837-3.5355339-1.76776837-3.53553391 3.53553391 1.76776837 3.5355339-1.76776837-1.76776836 3.5355339 1.76776837 3.53553391-3.53553391-1.76776837z" style="marker:none" /><path fill="#4264f3" d="M190 254a6 6 0 00-6 6 6 6 0 006 6 6 6 0 006-6 6 6 0 00-6-6zm3.53516 2.46484l-1.82813 3.99219-.41211 4.37305L188.75 261.25l-3.58008-2.54492 4.37305-.41211z" style="marker:none" /><path fill="none" stroke="#000" stroke-width=".5" d="M210 250l10 10" /><path fill="none" stroke="#000" stroke-width=".5" d="M230 270l-10-10" /><path fill="none" stroke="#000" stroke-width=".5" d="M220 250l10 10" /><path fill="none" stroke="#000" stroke-width=".5" d="M210 230l-10-10" /><path fill="none" stroke="#000" stroke-width=".5" d="M210 210l-10 10" /><path fill="none" stroke="#000" stroke-width=".5" d="M190 220l10-10" /><path fill="none" stroke="#000" stroke-width=".5" d="M190 250l-10 10" /><path fill="none" stroke="#000" stroke-width=".5" d="M190 270l-10-10" /><path fill="none" stroke="#000" stroke-width=".5" d="M170 260l10-10" /><path fill="none" stroke="#000" stroke-width=".5" d="M180 270l-10-10" /><path fill="none" stroke="#000" stroke-width=".5" d="M190 270l10 10" /><path fill="none" stroke="#000" stroke-width=".5" d="M200 290l-10-10" /></g><g><path fill="#fff" stroke="#000" stroke-width=".75" d="M70 90v20H30v20h60v20h20v-40H90V90z" style="marker:none" /><path fill="none" stroke="#000" stroke-width=".5" d="M100 140l10-10" /><path fill="none" stroke="#000" stroke-width=".5" d="M100 140l-10-10" /><path fill="none" stroke="#000" stroke-width=".5" d="M50 130l10-10" /><path fill="none" stroke="#000" stroke-width=".5" d="M70 130l-10-10" /><path fill="#14d2d2" d="M70 126a6 6 0 006-6 6 6 0 00-6-6 6 6 0 00-6 6 6 6 0 006 6zm.56055-1.03125l-1.14453-3.30078-2.95118 1.86719 1.86719-2.95118-3.30078-1.14453 3.47266-.38086-1.16407-3.29297 2.46289 2.47852 1.84961-2.96289L71.25 118.75l3.46875-.40234-2.96289 1.84961 2.47852 2.46289-3.29297-1.16407z" style="marker:none" /><path fill="none" stroke="#000" stroke-width=".5" d="M70 130l10-10" /><path fill="none" stroke="#000" stroke-width=".5" d="M90 130l-10-10" /><path fill="#d459ee" d="M93.53552457 123.53550515l-3.07800117-1.8280061-1.75163007 3.12210343.04409518-3.57962909-3.57962909.04409518 3.12210342-1.75163007-1.82800608-3.07800117 3.07800117 1.82800609L91.294088 115.17034l-.04409518 3.57962908 3.57962908-.04409517-3.12210342 1.75163006z" style="marker:none" /><path fill="none" stroke="#000" stroke-width=".5" d="M80 120l10-10" /><path fill="#1ee21e" d="M80 116a6 6 0 006-6 6 6 0 00-6-6 6 6 0 00-6 6 6 6 0 006 6zm2.26953-1.54492l-2.54687-2.70899-3.25782 1.78907 1.78907-3.25782-2.70899-2.54687 3.65235.69531 1.58398-3.36328.46875 3.6875 3.6875.46875-3.36328 1.58398z" style="marker:none" /><path fill="#4264f3" d="M50 126a6 6 0 006-6 6 6 0 00-6-6 6 6 0 00-6 6 6 6 0 006 6zm-3.53516-2.46484l1.82813-3.99219.41211-4.37305L51.25 118.75l3.58008 2.54492-4.37305.41211z" style="marker:none" /><path fill="none" stroke="#000" stroke-width=".5" d="M50 130l-10-10" /><path fill="none" stroke="#000" stroke-width=".5" d="M50 110l-10 10" /><path fill="none" stroke="#000" stroke-width=".5" d="M40 130l-10-10" /><path fill="none" stroke="#000" stroke-width=".5" d="M30 120l10-10" /><path fill="none" stroke="#000" stroke-width=".5" d="M100 110l10 10" /><path fill="none" stroke="#000" stroke-width=".5" d="M70 90l10 10" /></g><g><path fill="#fff" stroke="#000" stroke-width=".75" d="M270 250v20h-20v40h-20v20h40v-40h20v-40z" style="marker:none" /><path fill="none" stroke="#000" stroke-width=".5" d="M280 280l-10 10" /><path fill="none" stroke="#000" stroke-width=".5" d="M290 270l-10 10" /><path fill="#14d2d2" d="M276.46445381 273.53554252l1.82800468-3.99306523.41343402-4.3720978 2.54409383 3.5796305 3.5796305 2.54409384-4.3720985.41343473z" style="marker:none" /><path fill="none" stroke="#000" stroke-width=".5" d="M260 320l-10-10" /><path fill="none" stroke="#000" stroke-width=".5" d="M270 330l-10-10" /><path fill="#1ee21e" d="M254.24264 324.24264a6 6 0 000-8.48528 6 6 0 00-8.48528 0 6 6 0 000 8.48528 6 6 0 008.48528 0zm-.70711-.7071l-2.85881-1.90312L250 324.99947l-.67672-3.36705-2.85881 1.90311 1.90311-2.85881L245.00053 320l3.36705-.67672-1.90311-2.85882 2.85881 1.90312.67672-3.36705.67672 3.36705 2.85881-1.90311-1.90311 2.85881 3.36705.67672-3.36705.67672z" style="marker:none" /><path fill="#4264f3" d="M274.24264 275.75736a6 6 0 00-8.48528 0 6 6 0 000 8.48528 6 6 0 008.48528 0 6 6 0 000-8.48528zm-.70711.70711L271.76777 280l1.76776 3.53553L270 281.76777l-3.53553 1.76776L268.23223 280l-1.76776-3.53553L270 278.23223z" style="marker:none" /><path fill="#14d2d2" d="M260 304a6 6 0 00-6 6 6 6 0 006 6 6 6 0 006-6 6 6 0 00-6-6zm-3.53516 2.46484l3.99219 1.82813 4.37305.41211L261.25 311.25l-2.54492 3.58008-.41211-4.37305z" style="marker:none" /><path fill="none" stroke="#000" stroke-width=".5" d="M290 270l-10-10" /><path fill="none" stroke="#000" stroke-width=".5" d="M270 250l10 10" /><path fill="none" stroke="#000" stroke-width=".5" d="M270 260l10-10" /><path fill="none" stroke="#000" stroke-width=".5" d="M230 310l10 10" /><path fill="none" stroke="#000" stroke-width=".5" d="M250 310l-10 10" /><path fill="none" stroke="#000" stroke-width=".5" d="M230 320l10-10" /><path fill="none" stroke="#000" stroke-width=".5" d="M270 290l-10-10" /><path fill="none" stroke="#000" stroke-width=".5" d="M250 310l10-10" /><path fill="none" stroke="#000" stroke-width=".5" d="M250 300l10-10" /><path fill="none" stroke="#000" stroke-width=".5" d="M260 290l10 10" /></g><g><path fill="#fff" stroke="#000" stroke-width=".75" d="M50 330v-20h40v-20H50v-20H30v20H10v20h20v20z" style="marker:none" /><path fill="none" stroke="#000" stroke-width=".5" d="M40 300l-10 10" /><path fill="none" stroke="#000" stroke-width=".5" d="M50 290l-10 10" /><path fill="#d459ee" d="M36.46443979 293.53547982l1.76776836-3.5355339-1.76776836-3.53553391 3.5355339 1.76776836 3.5355339-1.76776836-1.76776836 3.5355339 1.76776837 3.5355339-3.5355339-1.76776836z" style="marker:none" /><path fill="#d459ee" d="M30 294a6 6 0 00-6 6 6 6 0 006 6 6 6 0 006-6 6 6 0 00-6-6zm3.53516 2.46484l-1.82813 3.99219-.41211 4.37305L28.75 301.25l-3.58008-2.54492 4.37305-.41211z" style="marker:none" /><path fill="#4264f3" d="M43.535511 306.4644646l-1.76776837 3.5355339 1.76776837 3.5355339-3.53553462-1.76776765-3.5355332 1.76776766 1.76776766-3.5355332-1.76776766-3.53553462 3.53553391 1.76776837z" style="marker:none" /><path fill="#4264f3" d="M54.24264 295.75736a6 6 0 00-8.48528 0 6 6 0 000 8.48528 6 6 0 008.48528 0 6 6 0 000-8.48528zm-.70711.70711L51.76777 300l1.76776 3.53553L50 301.76777l-3.53553 1.76776L48.23223 300l-1.76776-3.53553L50 298.23223z" style="marker:none" /><path fill="none" stroke="#000" stroke-width=".5" d="M30 290l10-10" /><path fill="none" stroke="#000" stroke-width=".5" d="M30 280l10-10" /><path fill="none" stroke="#000" stroke-width=".5" d="M50 310l10-10" /><path fill="none" stroke="#000" stroke-width=".5" d="M70 290l10 10" /><path fill="none" stroke="#000" stroke-width=".5" d="M90 290l-10 10" /><path fill="none" stroke="#000" stroke-width=".5" d="M70 300l10-10" /><path fill="none" stroke="#000" stroke-width=".5" d="M90 300l-10 10" /><path fill="none" stroke="#000" stroke-width=".5" d="M80 310l-10-10" /><path fill="none" stroke="#000" stroke-width=".5" d="M30 310l-10-10" /><path fill="none" stroke="#000" stroke-width=".5" d="M50 330l-10-10" /><path fill="none" stroke="#000" stroke-width=".5" d="M30 310l10 10" /><path fill="none" stroke="#000" stroke-width=".5" d="M50 310l-10 10" /><path fill="none" stroke="#000" stroke-width=".5" d="M50 320l-10 10" /></g><g><path fill="#fff" stroke="#000" stroke-width=".75" d="M170 270v20h-20v20h40v20h20v-20h20v-20h-40v-20z" style="marker:none" /><path fill="none" stroke="#000" stroke-width=".5" d="M190 310l-10-10" /><path fill="#1ee21e" d="M186.46447956 296.4643322l3.5355336 1.76776867 3.53553412-1.76776858-1.76776865 3.5355342 1.76776855 3.53553371-3.5355336-1.76776867-3.53553411 1.76776858 1.76776865-3.5355342z" style="marker:none" /><path fill="#d459ee" d="M170 306a6 6 0 006-6 6 6 0 00-6-6 6 6 0 00-6 6 6 6 0 006 6zm-3.5352-2.46484l1.8282-3.99219.4121-4.37305L171.25 298.75l3.5801 2.54492-4.3731.41211z" style="marker:none" /><path fill="#d459ee" d="M176.46445375 293.53547545l1.82800467-3.99306523.41343402-4.3720978 2.54409737 3.57962696 3.57962704 2.54409744-4.3720983.41343494z" style="marker:none" /><path fill="none" stroke="#000" stroke-width=".5" d="M190 310l10-10" /><path fill="none" stroke="#000" stroke-width=".5" d="M200 300l10-10" /><path fill="#1ee21e" d="M200 316a6 6 0 006-6 6 6 0 00-6-6 6 6 0 00-6 6 6 6 0 006 6zm2.2695-1.54492l-2.5468-2.70899-3.2579 1.78907 1.7891-3.25782-2.709-2.54687 3.6524.69531 1.584-3.36328.4687 3.6875 3.6875.46875-3.3633 1.58398z" style="marker:none" /><path fill="#1ee21e" d="M206.46444903 303.53547996l1.78953312-3.25899434-2.70903215-2.54649234 3.65248442.69486323 1.58472105-3.363352.46782609 3.68844293 3.6884432.46782637-3.36335192 1.58472112.69486252 3.65248371-2.54649184-2.70903165z" style="marker:none" /><path fill="none" stroke="#000" stroke-width=".5" d="M170 310l10-10" /><path fill="none" stroke="#000" stroke-width=".5" d="M190 330l10-10" /><path fill="none" stroke="#000" stroke-width=".5" d="M170 290l-10 10" /><path fill="none" stroke="#000" stroke-width=".5" d="M230 310l-10-10" /><path fill="none" stroke="#000" stroke-width=".5" d="M190 290l-10-10" /><path fill="none" stroke="#000" stroke-width=".5" d="M180 270l10 10" /></g><g><path fill="#fff" stroke="#000" stroke-width=".75" d="M70 150v40h20v40h20v-20h20v-20h-20v-20H90v-20z" style="marker:none" /><path fill="none" stroke="#000" stroke-width=".5" d="M110 190l-10-10" /><path fill="none" stroke="#000" stroke-width=".5" d="M100 180l-10 10" /><path fill="#d459ee" d="M96.46448465 193.53553367l1.8669705-2.95167938-3.29999806-1.14367592 3.471755-.38069003-1.16335753-3.29310658 2.46224905 2.47695687 1.84932111-2.96276681-.40140401 3.46942579 3.46941164-.40138988-2.9627668 1.84932112 2.47695686 2.46224905-3.2931073-1.16335824-.38068931 3.4717557-1.14367663-3.29999876z" style="marker:none" /><path fill="none" stroke="#000" stroke-width=".5" d="M100 180l-10-10" /><path fill="#14d2d2" d="M86.46441685 176.464552l3.25899859 1.7895317 2.5464895-2.70902508-.69486676 3.6524823 3.36336048 1.58471822-3.68844575.46782892-.46783599 3.68843867-1.58471115-3.3633534-3.65248936.69485969 2.70903214-2.54648244z" style="marker:none" /><path fill="none" stroke="#000" stroke-width=".5" d="M110 190l-10 10" /><path fill="#1ee21e" d="M103.53544338 213.5355824l-2.8590392-1.9023322-.6764947 3.36679843-.67649472-3.36679843-2.8590392 1.9023322 1.9023322-2.85903919-3.36679842-.67649471 3.36679843-.67649472-1.9023322-2.8590392 2.85903919 1.90233221.67649471-3.36679843.67649472 3.36679843 2.85903919-1.9023322-1.9023322 2.8590392 3.36679842.6764947-3.36679842.67649472z" style="marker:none" /><path fill="none" stroke="#000" stroke-width=".5" d="M80 180l10 10" /><path fill="none" stroke="#000" stroke-width=".5" d="M70 190l10-10" /><path fill="#14d2d2" d="M74 170a6 6 0 006 6 6 6 0 006-6 6 6 0 00-6-6 6 6 0 00-6 6zm1.54492 2.26953l2.70899-2.54687-1.78907-3.25782 3.25782 1.78907 2.54687-2.70899-.69531 3.65235 3.36328 1.58398-3.6875.46875-.46875 3.6875-1.58398-3.36328z" style="marker:none" /><path fill="#14d2d2" d="M104 200a6 6 0 006 6 6 6 0 006-6 6 6 0 00-6-6 6 6 0 00-6 6zm2.46484 3.53516l1.82813-3.99219.41211-4.37305L111.25 198.75l3.58008 2.54492-4.37305.41211z" style="marker:none" /><path fill="none" stroke="#000" stroke-width=".5" d="M110 210l10-10" /><path fill="none" stroke="#000" stroke-width=".5" d="M120 190l10 10" /><path fill="none" stroke="#000" stroke-width=".5" d="M130 200l-10 10" /><path fill="none" stroke="#000" stroke-width=".5" d="M110 210l-10 10" /><path fill="none" stroke="#000" stroke-width=".5" d="M110 230l-10-10" /><path fill="none" stroke="#000" stroke-width=".5" d="M90 230l10-10" /><path fill="none" stroke="#000" stroke-width=".5" d="M110 220l-10 10" /><path fill="none" stroke="#000" stroke-width=".5" d="M100 230l-10-10" /><path fill="none" stroke="#000" stroke-width=".5" d="M90 170l-10-10" /><path fill="none" stroke="#000" stroke-width=".5" d="M70 170l10-10" /><path fill="none" stroke="#000" stroke-width=".5" d="M70 160l10-10" /></g><g><path fill="#fff" stroke="#000" stroke-width=".75" d="M110 50v20H70v20h20v20h20V90h40V70h-20V50z" style="marker:none" /><path fill="none" stroke="#000" stroke-width=".5" d="M90 70l10 10" /><path fill="#f01010" d="M106.46450855 76.4645424l2.85904061 1.90233362.67649613-3.36679702.67649471 3.36679843 2.85903637-1.90233503-1.90233503 2.85903636 3.36679842.67649472-3.36679701.67649613 1.90233362 2.8590406-2.85904061-1.90233361-.67649613 3.36679701-.67649471-3.36679843-2.85903637 1.90233503 1.90233503-2.85903636-3.36679842-.67649472 3.36679701-.67649612z" style="marker:none" /><path fill="#f01010" d="M103.53558027 86.4644857l-1.82800609 3.99306664-.4134326 4.37209639-2.54409737-3.57962697-3.57962697-2.54409736 4.37209639-.41343261z" style="marker:none" /><path fill="none" stroke="#000" stroke-width=".5" d="M130 90l-10-10" /><path fill="none" stroke="#000" stroke-width=".5" d="M120 80l-10-10" /><path fill="none" stroke="#000" stroke-width=".5" d="M130 70l-10 10" /><path fill="#f01010" d="M133.53546015 83.5355533l-3.07800046-1.82800539-1.75163078 3.12210272.04409518-3.57962909-3.57962909.04409518 3.12210272-1.75163077-1.82800538-3.07800047 3.07800046 1.82800538 1.75163078-3.12210271-.04409518 3.57962908 3.57962908-.04409518-3.12210271 1.75163078z" style="marker:none" /><path fill="#14d2d2" d="M126 70a6 6 0 00-6-6 6 6 0 00-6 6 6 6 0 006 6 6 6 0 006-6zm-1.54492-2.26953l-2.70899 2.54687 1.78907 3.25782-3.25782-1.78907-2.54687 2.70899.69531-3.65235-3.36328-1.58398L118.75 68.75l.46875-3.6875 1.58398 3.36328z" style="marker:none" /><path fill="#4264f3" d="M86.46448127 76.46444826l3.53553391 1.76776837 3.5355339-1.76776837-1.76776765 3.53553461 1.76776766 3.5355332-3.5355332-1.76776766-3.53553462 1.76776766 1.76776837-3.5355339z" style="marker:none" /><path fill="none" stroke="#000" stroke-width=".5" d="M90 70L80 80" /><path fill="none" stroke="#000" stroke-width=".5" d="M90 90L80 80" /><path fill="none" stroke="#000" stroke-width=".5" d="M70 70l10 10" /><path fill="none" stroke="#000" stroke-width=".5" d="M70 80l10-10" /><path fill="none" stroke="#000" stroke-width=".5" d="M130 70l-10-10" /><path fill="none" stroke="#000" stroke-width=".5" d="M110 70l10-10" /><path fill="none" stroke="#000" stroke-width=".5" d="M120 50l10 10" /><path fill="none" stroke="#000" stroke-width=".5" d="M150 70l-10 10" /><path fill="none" stroke="#000" stroke-width=".5" d="M150 90l-10-10" /><path fill="none" stroke="#000" stroke-width=".5" d="M140 70l10 10" /><path fill="none" stroke="#000" stroke-width=".5" d="M110 100l-10 10" /></g><g><path fill="#fff" stroke="#000" stroke-width=".75" d="M30 190v20H10v20h20v20h20v20h20v-40H50v-40z" style="marker:none" /><path fill="none" stroke="#000" stroke-width=".5" d="M40 220l10-10" /><path fill="none" stroke="#000" stroke-width=".5" d="M40 220l10 10" /><path fill="#f01010" d="M43.53562136 206.46446868l-1.82800609 3.99306665-.4134326 4.37209638-2.54409737-3.57962697-3.57962697-2.54409736 4.37209639-.41343261z" style="marker:none" /><path fill="#d459ee" d="M34 230a6 6 0 006 6 6 6 0 006-6 6 6 0 00-6-6 6 6 0 00-6 6zm2.46484 3.5352L38.23242 230l-1.76758-3.5352L40 228.2324l3.53516-1.7676L41.76758 230l1.76758 3.5352L40 231.7676z" style="marker:none" /><path fill="#d459ee" d="M26.46450217 216.4645778l3.99306523 1.82800468 4.3720978.41343402-3.57962697 2.54409737-2.54409743 3.57962703-.41343495-4.37209829z" style="marker:none" /><path fill="none" stroke="#000" stroke-width=".5" d="M30 230l10 10" /><path fill="none" stroke="#000" stroke-width=".5" d="M40 240l10-10" /><path fill="#dabf1e" d="M46.46454326 243.53550138l1.82800538-3.99306734.4134312-4.3720978 2.54409948 3.57962908 3.57962908 2.5440995-4.3720978.41343118z" style="marker:none" /><path fill="none" stroke="#000" stroke-width=".5" d="M50 250l10-10" /><path fill="none" stroke="#000" stroke-width=".5" d="M60 240l10-10" /><path fill="#1ee21e" d="M60 244a6 6 0 00-6 6 6 6 0 006 6 6 6 0 006-6 6 6 0 00-6-6zm3.53516 2.4648l-1.82813 3.99223-.41211 4.37305L58.75 251.25l-3.58008-2.5449 4.37305-.4121z" style="marker:none" /><path fill="none" stroke="#000" stroke-width=".5" d="M70 250l-10-10" /><path fill="none" stroke="#000" stroke-width=".5" d="M30 230l-10-10" /><path fill="none" stroke="#000" stroke-width=".5" d="M20 230l-10-10" /><path fill="none" stroke="#000" stroke-width=".5" d="M40 190l10 10" /><path fill="none" stroke="#000" stroke-width=".5" d="M50 270l10-10" /><path fill="none" stroke="#000" stroke-width=".5" d="M50 250l10 10" /><path fill="none" stroke="#000" stroke-width=".5" d="M70 250l-10 10" /><path fill="none" stroke="#000" stroke-width=".5" d="M70 260l-10 10" /><path fill="none" stroke="#000" stroke-width=".5" d="M60 270l-10-10" /></g><text font-family="Work Sans" text-anchor="middle" x="40" y="24">0</text><text font-family="Work Sans" text-anchor="middle" x="60" y="24">1</text><text font-family="Work Sans" text-anchor="middle" x="100" y="24">2</text><text font-family="Work Sans" text-anchor="middle" x="120" y="24">3</text><text font-family="Work Sans" text-anchor="middle" x="160" y="24">0</text><text font-family="Work Sans" text-anchor="middle" x="200" y="24">0</text><text font-family="Work Sans" text-anchor="middle" x="220" y="24">0</text><text font-family="Work Sans" text-anchor="middle" x="260" y="24">0</text><text font-family="Work Sans" text-anchor="middle" x="20" y="64">1</text><text font-family="Work Sans" text-anchor="middle" x="80" y="64">3</text><text font-family="Work Sans" text-anchor="middle" x="140" y="64">3</text><text font-family="Work Sans" text-anchor="middle" x="160" y="64">1</text><text font-family="Work Sans" text-anchor="middle" x="240" y="64">2</text><text font-family="Work Sans" text-anchor="middle" x="280" y="64">0</text><text font-family="Work Sans" text-anchor="middle" x="20" y="84">0</text><text font-family="Work Sans" text-anchor="middle" x="100" y="84">1</text><text font-family="Work Sans" text-anchor="middle" x="160" y="84">3</text><text font-family="Work Sans" text-anchor="middle" x="200" y="84">3</text><text font-family="Work Sans" text-anchor="middle" x="240" y="84">1</text><text font-family="Work Sans" text-anchor="middle" x="40" y="104">2</text><text font-family="Work Sans" text-anchor="middle" x="60" y="104">3</text><text font-family="Work Sans" text-anchor="middle" x="100" y="104">3</text><text font-family="Work Sans" text-anchor="middle" x="140" y="104">3</text><text font-family="Work Sans" text-anchor="middle" x="160" y="104">2</text><text font-family="Work Sans" text-anchor="middle" x="220" y="104">3</text><text font-family="Work Sans" text-anchor="middle" x="260" y="104">3</text><text font-family="Work Sans" text-anchor="middle" x="60" y="124">2</text><text font-family="Work Sans" text-anchor="middle" x="240" y="124">2</text><text font-family="Work Sans" text-anchor="middle" x="260" y="124">3</text><text font-family="Work Sans" text-anchor="middle" x="280" y="124">1</text><text font-family="Work Sans" text-anchor="middle" x="20" y="144">0</text><text font-family="Work Sans" text-anchor="middle" x="60" y="144">2</text><text font-family="Work Sans" text-anchor="middle" x="80" y="144">3</text><text font-family="Work Sans" text-anchor="middle" x="100" y="144">3</text><text font-family="Work Sans" text-anchor="middle" x="120" y="144">2</text><text font-family="Work Sans" text-anchor="middle" x="180" y="144">2</text><text font-family="Work Sans" text-anchor="middle" x="200" y="144">3</text><text font-family="Work Sans" text-anchor="middle" x="260" y="144">3</text><text font-family="Work Sans" text-anchor="middle" x="120" y="164">2</text><text font-family="Work Sans" text-anchor="middle" x="200" y="164">3</text><text font-family="Work Sans" text-anchor="middle" x="220" y="164">2</text><text font-family="Work Sans" text-anchor="middle" x="40" y="184">3</text><text font-family="Work Sans" text-anchor="middle" x="100" y="184">2</text><text font-family="Work Sans" text-anchor="middle" x="160" y="184">3</text><text font-family="Work Sans" text-anchor="middle" x="280" y="184">1</text><text font-family="Work Sans" text-anchor="middle" x="20" y="204">2</text><text font-family="Work Sans" text-anchor="middle" x="40" y="204">3</text><text font-family="Work Sans" text-anchor="middle" x="180" y="204">1</text><text font-family="Work Sans" text-anchor="middle" x="240" y="204">3</text><text font-family="Work Sans" text-anchor="middle" x="280" y="204">2</text><text font-family="Work Sans" text-anchor="middle" x="60" y="224">3</text><text font-family="Work Sans" text-anchor="middle" x="120" y="224">3</text><text font-family="Work Sans" text-anchor="middle" x="180" y="224">3</text><text font-family="Work Sans" text-anchor="middle" x="100" y="244">3</text><text font-family="Work Sans" text-anchor="middle" x="120" y="244">2</text><text font-family="Work Sans" text-anchor="middle" x="140" y="244">3</text><text font-family="Work Sans" text-anchor="middle" x="240" y="244">3</text><text font-family="Work Sans" text-anchor="middle" x="280" y="244">3</text><text font-family="Work Sans" text-anchor="middle" x="20" y="264">0</text><text font-family="Work Sans" text-anchor="middle" x="120" y="264">2</text><text font-family="Work Sans" text-anchor="middle" x="160" y="264">2</text><text font-family="Work Sans" text-anchor="middle" x="220" y="264">3</text><text font-family="Work Sans" text-anchor="middle" x="280" y="264">3</text><text font-family="Work Sans" text-anchor="middle" x="60" y="284">3</text><text font-family="Work Sans" text-anchor="middle" x="80" y="284">2</text><text font-family="Work Sans" text-anchor="middle" x="120" y="284">3</text><text font-family="Work Sans" text-anchor="middle" x="140" y="284">2</text><text font-family="Work Sans" text-anchor="middle" x="160" y="284">3</text><text font-family="Work Sans" text-anchor="middle" x="80" y="304">3</text><text font-family="Work Sans" text-anchor="middle" x="160" y="304">3</text><text font-family="Work Sans" text-anchor="middle" x="200" y="304">1</text><text font-family="Work Sans" text-anchor="middle" x="220" y="304">3</text><text font-family="Work Sans" text-anchor="middle" x="260" y="304">2</text><text font-family="Work Sans" text-anchor="middle" x="20" y="324">2</text><text font-family="Work Sans" text-anchor="middle" x="40" y="324">3</text><text font-family="Work Sans" text-anchor="middle" x="60" y="324">2</text><text font-family="Work Sans" text-anchor="middle" x="80" y="324">1</text><text font-family="Work Sans" text-anchor="middle" x="120" y="324">0</text><text font-family="Work Sans" text-anchor="middle" x="140" y="324">1</text><text font-family="Work Sans" text-anchor="middle" x="160" y="324">1</text><text font-family="Work Sans" text-anchor="middle" x="220" y="324">3</text><text font-family="Work Sans" text-anchor="middle" x="240" y="324">3</text><text font-family="Work Sans" text-anchor="middle" x="280" y="324">1</text></svg>