<svg xmlns="http://www.w3.org/2000/svg" width="300" height="320"><path fill="#dedede" d="M0 0h300v320H0z" style="marker:none"/><path fill="#fff" fill-rule="evenodd" stroke="#000" d="M170 270h-20v-20h-20v-20h20v-40h20v40h20v20h-20z"/><path fill="none" stroke="#000" stroke-width=".5" d="M150 230l10-10"/><path fill="#1ee21e" d="M160 236a6 6 0 006-6 6 6 0 00-6-6 6 6 0 00-6 6 6 6 0 006 6zm1.2949-1.16992l-1.7519-3.12305-3.0782 1.82813 1.8282-3.07813-3.1231-1.75195 3.5801.0449-.045-3.58008 1.7519 3.12305 3.0782-1.82813-1.8282 3.07813 3.1231 1.75197-3.5801-.0449z" style="marker:none"/><path fill="#f01010" d="M160 216a6 6 0 006-6 6 6 0 00-6-6 6 6 0 00-6 6 6 6 0 006 6zm-2.2695-1.54492l.6953-3.65235-3.3633-1.58398 3.6875-.46875.4687-3.6875 1.584 3.36328 3.6524-.69531-2.709 2.54687 1.7891 3.25782-3.2579-1.78907z" style="marker:none"/><path fill="none" stroke="#000" stroke-width=".5" d="M170 230l-10 10"/><path fill="none" stroke="#000" stroke-width=".5" d="M160 240l10 10"/><path fill="none" stroke="#000" stroke-width=".5" d="M150 230l10 10"/><path fill="none" stroke="#000" stroke-width=".5" d="M160 240l-10 10"/><path fill="#dabf1e" d="M170 234a6 6 0 00-6 6 6 6 0 006 6 6 6 0 006-6 6 6 0 00-6-6zm1.2949 1.16992l-.045 3.58008 3.5801-.0449-3.1231 1.75195 1.8282 3.07813-3.0782-1.82813-1.7519 3.12305.045-3.58008-3.5801.0449 3.1231-1.75195-1.8282-3.07813 3.0782 1.82813z" style="marker:none"/><path fill="#1ee21e" d="M160 236a6 6 0 006-6 6 6 0 00-6-6 6 6 0 00-6 6 6 6 0 006 6zm1.2949-1.16992l-1.7519-3.12305-3.0782 1.82813 1.8282-3.07813-3.1231-1.75195 3.5801.0449-.045-3.58008 1.7519 3.12305 3.0782-1.82813-1.8282 3.07813 3.1231 1.75195-3.5801-.0449z" style="marker:none"/><path fill="#14d2d2" d="M156.46459479 253.53555834l1.82800467-3.99306523.41343402-4.3720978 2.54409383 3.5796305 3.5796305 2.54409383-4.3720985.41343473z" style="marker:none"/><path fill="#1ee21e" d="M146.46463177 243.53547055l1.82800538-3.99306735.41343119-4.3720978 2.54409949 3.57962909 3.57962908 2.54409948-4.3720978.4134312z" style="marker:none"/><path fill="none" stroke="#000" stroke-width=".5" d="M170 230l10 10"/><path fill="none" stroke="#000" stroke-width=".5" d="M180 240l10 10"/><path fill="none" stroke="#000" stroke-width=".5" d="M170 190l-10 10"/><path fill="none" stroke="#000" stroke-width=".5" d="M160 190l10 10"/><path fill="none" stroke="#000" stroke-width=".5" d="M150 230l-10 10"/><path fill="none" stroke="#000" stroke-width=".5" d="M130 250l10-10"/><path fill="none" stroke="#000" stroke-width=".5" d="M130 240l10-10"/><path fill="none" stroke="#000" stroke-width=".5" d="M150 270l10-10"/><path fill="none" stroke="#000" stroke-width=".5" d="M170 250l-10 10"/><path fill="none" stroke="#000" stroke-width=".5" d="M160 270l-10-10"/><path fill="#fff" fill-rule="evenodd" stroke="#000" d="M150 110v20h20v20h-20v20h-20v-20H90v-20h40v-20z"/><path fill="none" stroke="#000" stroke-width=".5" d="M150 150l-10-10"/><path fill="#dabf1e" d="M143.53548913 146.46452428l-1.76776766 3.53553462 1.76776766 3.5355332-3.5355332-1.76776766-3.53553462 1.76776766 1.76776766-3.53553462-1.76776766-3.5355332 3.5355332 1.76776766z" style="marker:none"/><path fill="#14d2d2" d="M156 140a6 6 0 00-6-6 6 6 0 00-6 6 6 6 0 006 6 6 6 0 006-6zm-1 0l-3.36719.67578 1.90235 2.85938-2.85938-1.90235L150 145l-.67578-3.36719-2.85938 1.90235 1.90235-2.85938L145 140l3.36719-.67578-1.90235-2.85938 2.85938 1.90235L150 135l.67578 3.36719 2.85938-1.90235-1.90235 2.85938z" style="marker:none"/><path fill="#4264f3" d="M133.53533039 143.53585677l-3.25899718-1.78953028-2.54648738 2.7090272.69486393-3.65248513-3.36335765-1.5847154 3.68844575-.46782891.46782892-3.68844575 1.5847154 3.36335765 3.65248512-.69486393-2.7090272 2.54648738z" style="marker:none"/><path fill="#14d2d2" d="M143.53559944 133.53524913l-2.85903636-1.90233503-.67649471 3.36679843-.67649613-3.36679702-2.8590406 1.90233362 1.9023336-2.8590406-3.366797-.67649613 3.36679842-.67649472-1.90233503-2.85903636 2.85903636 1.90233503.67649472-3.36679843.67649613 3.36679701 2.8590406-1.90233361-1.90233361 2.8590406 3.36679701.67649613-3.36679843.67649472z" style="marker:none"/><path fill="none" stroke="#000" stroke-width=".5" d="M150 130l10 10"/><path fill="none" stroke="#000" stroke-width=".5" d="M170 130l-10 10"/><path fill="none" stroke="#000" stroke-width=".5" d="M170 140l-10 10"/><path fill="none" stroke="#000" stroke-width=".5" d="M150 130l-10-10"/><path fill="none" stroke="#000" stroke-width=".5" d="M130 130l10-10"/><path fill="none" stroke="#000" stroke-width=".5" d="M130 150l-10-10"/><path fill="none" stroke="#000" stroke-width=".5" d="M110 150l10-10"/><path fill="none" stroke="#000" stroke-width=".5" d="M120 150l-10-10"/><path fill="none" stroke="#000" stroke-width=".5" d="M110 140l10-10"/><path fill="none" stroke="#000" stroke-width=".5" d="M130 150l10 10"/><path fill="none" stroke="#000" stroke-width=".5" d="M130 170l10-10"/><path fill="none" stroke="#000" stroke-width=".5" d="M150 160l-10 10"/><path fill="none" stroke="#000" stroke-width=".5" d="M110 130l-10 10"/><path fill="none" stroke="#000" stroke-width=".5" d="M110 150l-10-10"/><path fill="none" stroke="#000" stroke-width=".5" d="M110 140l-10 10"/><path fill="none" stroke="#000" stroke-width=".5" d="M100 150l-10-10"/><g><path fill="#fff" fill-rule="evenodd" stroke="#000" d="M150 230v-20h-20v-20h-20v20H70v20h40v20h20v-20z"/><path fill="none" stroke="#000" stroke-width=".5" d="M100 220l10 10"/><path fill="#4264f3" d="M86.46482929 216.46384567l3.25899717 1.78953029 2.54648739-2.7090272-.69486394 3.65248513 3.36335765 1.58471539-3.68844575.46782892-.46782891 3.68844574-1.5847154-3.36335764-3.65248512.69486393 2.7090272-2.54648739z" style="marker:none"/><path fill="#f01010" d="M106.46452275 216.4645009l3.25899717 1.7895303 2.54648739-2.7090272-.69486394 3.65248512 3.36335765 1.5847154-3.68844575.46782891-.46782891 3.68844575-1.5847154-3.36335765-3.65248512.69486393 2.7090272-2.54648738z" style="marker:none"/><path fill="none" stroke="#000" stroke-width=".5" d="M110 210l10 10"/><path fill="none" stroke="#000" stroke-width=".5" d="M110 230l10-10"/><path fill="none" stroke="#000" stroke-width=".5" d="M120 220l10 10"/><path fill="#f01010" d="M120 224a6 6 0 00-6 6 6 6 0 006 6 6 6 0 006-6 6 6 0 00-6-6zm.56055 1.03125l.38086 3.47265 3.29297-1.16405-2.47852 2.46288 2.96289 1.84961L121.25 231.25l.40234 3.46875-1.84961-2.96289-2.46289 2.47851 1.16407-3.29296-3.47266-.38086 3.30078-1.14454-1.86719-2.95117 2.95118 1.86719z" style="marker:none"/><path fill="#4264f3" d="M123.53548905 213.53545445l-2.85903636-1.90233503-.67649472 3.36679843-.67649613-3.36679702-2.8590406 1.90233362 1.90233362-2.8590406-3.36679702-.67649614 3.36679843-.67649471-1.90233503-2.85903636 2.85903636 1.90233503.67649472-3.36679843.67649613 3.36679701 2.8590406-1.90233361-1.90233361 2.8590406 3.36679701.67649613-3.36679843.67649471z" style="marker:none"/><path fill="#f01010" d="M133.53546478 223.53553014l-2.95167866-1.86696979-1.14367734 3.29999664-.38068578-3.47175075-3.29311366 1.16335046 2.476971-2.4622349-2.9627668-1.84932112 3.46941872.40139694-.40139624-3.469418 1.84932182 2.9627675 2.46223491-2.476971-1.16335117 3.29311436 3.47175146.38068508-3.29999734 1.14367804z" style="marker:none"/><path fill="none" stroke="#000" stroke-width=".5" d="M90 210l-10 10"/><path fill="none" stroke="#000" stroke-width=".5" d="M70 210l10 10"/><path fill="none" stroke="#000" stroke-width=".5" d="M80 230l-10-10"/><path fill="none" stroke="#000" stroke-width=".5" d="M70 220l10-10"/><path fill="none" stroke="#000" stroke-width=".5" d="M110 230l10 10"/><path fill="none" stroke="#000" stroke-width=".5" d="M130 230l-10 10"/><path fill="none" stroke="#000" stroke-width=".5" d="M130 240l-10 10"/><path fill="none" stroke="#000" stroke-width=".5" d="M110 210l10-10"/><path fill="none" stroke="#000" stroke-width=".5" d="M130 190l-10 10"/><path fill="none" stroke="#000" stroke-width=".5" d="M130 230l10-10"/><path fill="none" stroke="#000" stroke-width=".5" d="M130 210l10 10"/><path fill="none" stroke="#000" stroke-width=".5" d="M150 210l-10 10"/><path fill="none" stroke="#000" stroke-width=".5" d="M150 230l-10-10"/><path fill="none" stroke="#000" stroke-width=".5" d="M140 210l10 10"/></g><g><path fill="#fff" stroke="#000" d="M30 210v20H10v20h40v20h20v-20h20v-20H50v-20z" style="marker:none"/><path fill="none" stroke="#000" stroke-width=".5" d="M40 220l10 10"/><path fill="none" stroke="#000" stroke-width=".5" d="M30 230l10-10"/><path fill="none" stroke="#000" stroke-width=".5" d="M30 210l10 10"/><path fill="#dabf1e" d="M40 224a6 6 0 00-6 6 6 6 0 006 6 6 6 0 006-6 6 6 0 00-6-6zm.5606 1.03125l.3808 3.47265 3.293-1.16405-2.4785 2.46288 2.9629 1.84961L41.25 231.25l.4023 3.46875-1.8496-2.96289-2.4629 2.47851 1.1641-3.29296-3.4726-.38086 3.3007-1.14454-1.8672-2.95117 2.9512 1.86719z" style="marker:none"/><path fill="none" stroke="#000" stroke-width=".5" d="M40 240l-10 10"/><path fill="#14d2d2" d="M50 234a6 6 0 00-6 6 6 6 0 006 6 6 6 0 006-6 6 6 0 00-6-6zm-3.53516 2.4648L50 238.2324l3.53516-1.7676L51.76758 240l1.76758 3.5352L50 241.7676l-3.53516 1.7676L48.23242 240z" style="marker:none"/><path fill="#14d2d2" d="M33.53552913 236.46450454l-1.76776766 3.53553461 1.76776766 3.5355332-3.5355332-1.76776766-3.53553461 1.76776766 1.76776836-3.5355339-1.76776836-3.53553391 3.5355339 1.76776836z" style="marker:none"/><path fill="none" stroke="#000" stroke-width=".5" d="M60 240l-10 10"/><path fill="none" stroke="#000" stroke-width=".5" d="M50 230l10 10"/><path fill="#dabf1e" d="M60 244a6 6 0 00-6 6 6 6 0 006 6 6 6 0 006-6 6 6 0 00-6-6zm0 1l.67578 3.3672 2.85938-1.9024-1.90235 2.8594L65 250l-3.36719.6758 1.90235 2.8594-2.85938-1.9024L60 255l-.67578-3.3672-2.85938 1.9024 1.90235-2.8594L55 250l3.36719-.6758-1.90235-2.8594 2.85938 1.9024z" style="marker:none"/><path fill="#f01010" d="M76 240a6 6 0 00-6-6 6 6 0 00-6 6 6 6 0 006 6 6 6 0 006-6zm-1.03125.5606l-3.47265.3808 1.16405 3.293-2.46288-2.4785-1.84961 2.9629.40234-3.4688-3.46875.4023 2.96289-1.8496-2.47851-2.4629 3.29296 1.1641.38086-3.4726 1.14454 3.3007 2.95117-1.8672-1.86719 2.9512z" style="marker:none"/><path fill="none" stroke="#000" stroke-width=".5" d="M30 230l-10 10"/><path fill="none" stroke="#000" stroke-width=".5" d="M20 250l-10-10"/><path fill="none" stroke="#000" stroke-width=".5" d="M70 230l10 10"/><path fill="none" stroke="#000" stroke-width=".5" d="M70 250l10-10"/><path fill="none" stroke="#000" stroke-width=".5" d="M90 240l-10 10"/><path fill="none" stroke="#000" stroke-width=".5" d="M50 250l10 10"/><path fill="none" stroke="#000" stroke-width=".5" d="M50 270l10-10"/><path fill="none" stroke="#000" stroke-width=".5" d="M70 260l-10 10"/></g><g><path fill="#fff" stroke="#000" d="M130 30H90V10H70v20H50v20h40v20h20V50h20z" style="marker:none"/><path fill="none" stroke="#000" stroke-width=".5" d="M110 30l-10 10"/><path fill="none" stroke="#000" stroke-width=".5" d="M100 40L90 50"/><path fill="none" stroke="#000" stroke-width=".5" d="M100 40L90 30"/><path fill="#1ee21e" d="M113.53553898 36.46447654l-1.82800538 3.07800047 3.12210271 1.75163077-3.57962908-.04409518.04409518 3.57962909-1.75163078-3.12210272-3.07800046 1.82800538 1.82800538-3.07800046-3.12210272-1.75163078 3.57962909.04409518-.04409518-3.57962908 1.75163078 3.12210271z" style="marker:none"/><path fill="#1ee21e" d="M103.53547784 46.46450834l-1.86697332 2.95167513 3.3000023 1.14368299-3.47175571.38068083 1.16335329 3.2931165-2.46223774-2.47697385-1.84931758 2.96277034.40139624-3.46941942-3.46941871.40139553 2.96277104-1.84931829-2.47697384-2.46223773 3.2931165 1.16335329.38068083-3.4717557 1.14368299 3.30000229z" style="marker:none"/><path fill="#4264f3" d="M86.4644703 36.46460542l2.95167513 1.86697333 1.143683-3.3000023.38068083 3.47175571 3.29311649-1.16335329-2.47697384 2.46223774 2.96277034 1.84931757-3.46941942-.40139623.40139553 3.46941871-1.84931829-2.96277105-2.46223773 2.47697385 1.16335329-3.2931165-3.4717557-.38068083 3.30000229-1.143683z" style="marker:none"/><path fill="none" stroke="#000" stroke-width=".5" d="M80 40L70 30"/><path fill="none" stroke="#000" stroke-width=".5" d="M80 40L70 50"/><path fill="none" stroke="#000" stroke-width=".5" d="M90 50L80 40"/><path fill="#4264f3" d="M76.46447737 26.46458835l2.85903637 1.90233503.67649471-3.36679843.67649613 3.36679702 2.8590406-1.90233362-1.9023336 2.8590406 3.366797.67649614-3.36679842.67649471 1.90233503 2.85903636-2.85903637-1.90233503-.67649471 3.36679843-.67649613-3.36679701-2.8590406 1.90233361 1.90233361-2.8590406-3.36679701-.67649613 3.36679843-.67649471z" style="marker:none"/><path fill="#1ee21e" d="M76 40a6 6 0 00-6-6 6 6 0 00-6 6 6 6 0 006 6 6 6 0 006-6zm-1.0313.56055l-3.4726.38086 1.1641 3.29297-2.4629-2.47852-1.8496 2.96289L68.75 41.25l-3.4688.40234 2.9629-1.84961-2.4785-2.46289 3.293 1.16407.3808-3.47266 1.1446 3.30078 2.9512-1.86719-1.8672 2.95118z" style="marker:none"/><path fill="none" stroke="#000" stroke-width=".5" d="M90 50l10 10"/><path fill="none" stroke="#000" stroke-width=".5" d="M110 50l-10 10"/><path fill="none" stroke="#000" stroke-width=".5" d="M130 40l-10 10"/><path fill="none" stroke="#000" stroke-width=".5" d="M90 30L80 20"/><path fill="none" stroke="#000" stroke-width=".5" d="M70 10l10 10"/><path fill="none" stroke="#000" stroke-width=".5" d="M70 30L60 40"/><path fill="none" stroke="#000" stroke-width=".5" d="M50 30l10 10"/><path fill="none" stroke="#000" stroke-width=".5" d="M60 50L50 40"/></g><g><path fill="#fff" stroke="#000" d="M170 250v20h-40v20h20v20h20v-20h40v-20h-20v-20z" style="marker:none"/><path fill="none" stroke="#000" stroke-width=".5" d="M170 270l-10 10"/><path fill="none" stroke="#000" stroke-width=".5" d="M160 280l-10 10"/><path fill="#f01010" d="M170 274a6 6 0 00-6 6 6 6 0 006 6 6 6 0 006-6 6 6 0 00-6-6zm0 1l.67578 3.36719 2.85938-1.90235-1.90235 2.85938L175 280l-3.36719.67578 1.90235 2.85938-2.85938-1.90235L170 285l-.67578-3.36719-2.85938 1.90235 1.90235-2.85938L165 280l3.36719-.67578-1.90235-2.85938 2.85938 1.90235z" style="marker:none"/><path fill="#dabf1e" d="M160 284a6 6 0 00-6 6 6 6 0 006 6 6 6 0 006-6 6 6 0 00-6-6zm-2.26953 1.54492l2.54687 2.70899 3.25782-1.78907-1.78907 3.25782 2.70899 2.54687-3.65235-.69531-1.58398 3.36328-.46875-3.6875-3.6875-.46875 3.36328-1.58398z" style="marker:none"/><path fill="#dabf1e" d="M146.46449925 283.53558073l1.8280061-3.07800117-3.12210343-1.75163007 3.57962909.04409518-.04409518-3.57962909 1.75163007 3.12210342 3.07800117-1.82800608-1.82800397 3.07800329 3.12209918 1.75162583-3.5796305-.0440966.0440966 3.5796305-1.75162654-3.12209988z" style="marker:none"/><path fill="none" stroke="#000" stroke-width=".5" d="M170 270l10 10"/><path fill="none" stroke="#000" stroke-width=".5" d="M180 280l-10 10"/><path fill="#dabf1e" d="M180 264a6 6 0 00-6 6 6 6 0 006 6 6 6 0 006-6 6 6 0 00-6-6zm0 1l.67578 3.36719 2.85938-1.90235-1.90235 2.85938L185 270l-3.36719.67578 1.90235 2.85938-2.85938-1.90235L180 275l-.67578-3.36719-2.85938 1.90235 1.90235-2.85938L175 270l3.36719-.67578-1.90235-2.85938 2.85938 1.90235z" style="marker:none"/><path fill="#dabf1e" d="M190 274a6 6 0 00-6 6 6 6 0 006 6 6 6 0 006-6 6 6 0 00-6-6zm-3.53516 2.46484L190 278.23242l3.53516-1.76758L191.76758 280l1.76758 3.53516L190 281.76758l-3.53516 1.76758L188.23242 280z" style="marker:none"/><path fill="none" stroke="#000" stroke-width=".5" d="M170 250l10 10"/><path fill="none" stroke="#000" stroke-width=".5" d="M170 270l10-10"/><path fill="none" stroke="#000" stroke-width=".5" d="M180 250l10 10"/><path fill="none" stroke="#000" stroke-width=".5" d="M150 290l-10-10"/><path fill="none" stroke="#000" stroke-width=".5" d="M130 280l10-10"/><path fill="none" stroke="#000" stroke-width=".5" d="M140 290l-10-10"/><path fill="none" stroke="#000" stroke-width=".5" d="M190 270l10 10"/><path fill="none" stroke="#000" stroke-width=".5" d="M210 270l-10 10"/><path fill="none" stroke="#000" stroke-width=".5" d="M210 290l-10-10"/><path fill="none" stroke="#000" stroke-width=".5" d="M190 290l10-10"/><path fill="none" stroke="#000" stroke-width=".5" d="M170 290l-10 10"/><path fill="none" stroke="#000" stroke-width=".5" d="M170 310l-10-10"/><path fill="none" stroke="#000" stroke-width=".5" d="M150 310l10-10"/><path fill="none" stroke="#000" stroke-width=".5" d="M160 310l-10-10"/></g><g><path fill="#fff" fill-rule="evenodd" stroke="#000" d="M30 310v-20H10v-20h20v-20h20v20h40v20H50v20z"/><path fill="none" stroke="#000" stroke-width=".5" d="M40 280l-10-10"/><path fill="#14d2d2" d="M30 286a6 6 0 006-6 6 6 0 00-6-6 6 6 0 00-6 6 6 6 0 006 6zm-1.2949-1.16992l.045-3.58008-3.5801.0449 3.123-1.75195-1.8281-3.07813 3.0781 1.82813 1.752-3.12305-.045 3.58008 3.5801-.0449-3.1231 1.75195 1.8282 3.07813-3.0782-1.82813z" style="marker:none"/><path fill="#f01010" d="M43.535455 286.46447107l-1.8669698 2.95167866 3.29999665 1.14367734-3.47175076.38068578 1.16335046 3.29311366-2.4622349-2.47697101-1.84932112 2.9627668.40139695-3.4694187-3.46941801.40139623 2.96276751-1.84932182-2.47697101-2.46223491 3.29311437 1.16335117.38068507-3.47175146 1.14367805 3.29999734z" style="marker:none"/><path fill="#dabf1e" d="M50 286a6 6 0 006-6 6 6 0 00-6-6 6 6 0 00-6 6 6 6 0 006 6zm3.5352-2.46484L50 281.76758l-3.5352 1.76758L48.2324 280l-1.7676-3.53516L50 278.23242l3.5352-1.76758L51.7676 280z" style="marker:none"/><path fill="#4264f3" d="M40 276a6 6 0 006-6 6 6 0 00-6-6 6 6 0 00-6 6 6 6 0 006 6zm1.6523-1.28125l-1.8496-2.96289-2.4629 2.47851 1.1641-3.29296-3.4727-.38086 3.3008-1.14453-1.8672-2.95118 2.9512 1.86719 1.1446-3.30078.3808 3.47266 3.293-1.16407-2.4785 2.46289 2.9628 1.84961L41.25 271.25z" style="marker:none"/><path fill="none" stroke="#000" stroke-width=".5" d="M50 310l-10-10"/><path fill="none" stroke="#000" stroke-width=".5" d="M30 310l10-10"/><path fill="none" stroke="#000" stroke-width=".5" d="M30 290l10 10"/><path fill="none" stroke="#000" stroke-width=".5" d="M50 290l-10 10"/><path fill="none" stroke="#000" stroke-width=".5" d="M40 310l-10-10"/><path fill="none" stroke="#000" stroke-width=".5" d="M70 290l10-10"/><path fill="none" stroke="#000" stroke-width=".5" d="M70 270l10 10"/><path fill="none" stroke="#000" stroke-width=".5" d="M70 280l10-10"/><path fill="none" stroke="#000" stroke-width=".5" d="M70 290l-10-10"/><path fill="none" stroke="#000" stroke-width=".5" d="M50 290l10-10"/><path fill="none" stroke="#000" stroke-width=".5" d="M50 270l10 10"/><path fill="none" stroke="#000" stroke-width=".5" d="M70 270l-10 10"/><path fill="none" stroke="#000" stroke-width=".5" d="M10 270l10 10"/><path fill="none" stroke="#000" stroke-width=".5" d="M10 280l10-10"/><path fill="none" stroke="#000" stroke-width=".5" d="M50 270l-10-10"/><path fill="none" stroke="#000" stroke-width=".5" d="M30 270l10-10"/><path fill="none" stroke="#000" stroke-width=".5" d="M30 250l10 10"/><path fill="none" stroke="#000" stroke-width=".5" d="M50 250l-10 10"/><path fill="none" stroke="#000" stroke-width=".5" d="M30 260l10-10"/><path fill="none" stroke="#000" stroke-width=".5" d="M40 250l10 10"/></g><g><path fill="#fff" stroke="#000" d="M270 130v20h-20v20h-20v20h20v20h20v-40h20v-40z" style="marker:none"/><path fill="none" stroke="#000" stroke-width=".5" d="M260 180l10-10"/><path fill="none" stroke="#000" stroke-width=".5" d="M250 190l10-10"/><path fill="#4264f3" d="M254 170a6 6 0 006 6 6 6 0 006-6 6 6 0 00-6-6 6 6 0 00-6 6zm1.0625-.78125l3.6875-.46875.46875-3.6875 1.58398 3.36328 3.65235-.69531-2.70899 2.54687 1.78907 3.25782-3.25782-1.78907-2.54687 2.70899.69531-3.65235z" style="marker:none"/><path fill="#1ee21e" d="M244 180a6 6 0 006 6 6 6 0 006-6 6 6 0 00-6-6 6 6 0 00-6 6zm1.03125-.56055l3.47266-.38086-1.16407-3.29297 2.46289 2.47852 1.84961-2.96289L251.25 178.75l3.46875-.40234-2.96289 1.84961 2.47852 2.46289-3.29297-1.16407-.38086 3.47266-1.14453-3.30078-2.95118 1.86719 1.86719-2.95118z" style="marker:none"/><path fill="#14d2d2" d="M254 190a6 6 0 006 6 6 6 0 006-6 6 6 0 00-6-6 6 6 0 00-6 6zm1.16992-1.29492l3.58008.0449-.0449-3.58008 1.75195 3.12305 3.07813-1.82813-1.82813 3.07813 3.12305 1.75195-3.58008-.0449.0449 3.58008-1.75195-3.12305-3.07813 1.82813 1.82813-3.07813z" style="marker:none"/><path fill="none" stroke="#000" stroke-width=".5" d="M260 160l10 10"/><path fill="none" stroke="#000" stroke-width=".5" d="M260 160l10-10"/><path fill="none" stroke="#000" stroke-width=".5" d="M250 150l10 10"/><path fill="#4264f3" d="M270 154a6 6 0 00-6 6 6 6 0 006 6 6 6 0 006-6 6 6 0 00-6-6zm1.29492 1.16992l-.0449 3.58008 3.58008-.0449-3.12305 1.75195 1.82813 3.07813-3.07813-1.82813-1.75195 3.12305.0449-3.58008-3.58008.0449 3.12305-1.75195-1.82813-3.07813 3.07813 1.82813z" style="marker:none"/><path fill="none" stroke="#000" stroke-width=".5" d="M230 190l10-10"/><path fill="none" stroke="#000" stroke-width=".5" d="M250 190l-10-10"/><path fill="none" stroke="#000" stroke-width=".5" d="M230 180l10-10"/><path fill="none" stroke="#000" stroke-width=".5" d="M270 140l10-10"/><path fill="none" stroke="#000" stroke-width=".5" d="M280 130l10 10"/><path fill="none" stroke="#000" stroke-width=".5" d="M290 140l-10 10"/><path fill="none" stroke="#000" stroke-width=".5" d="M280 150l-10-10"/><path fill="none" stroke="#000" stroke-width=".5" d="M270 210l-10-10"/><path fill="none" stroke="#000" stroke-width=".5" d="M270 200l-10 10"/><path fill="none" stroke="#000" stroke-width=".5" d="M290 170l-10-10"/><path fill="none" stroke="#000" stroke-width=".5" d="M270 170l10-10"/><path fill="none" stroke="#000" stroke-width=".5" d="M270 150l10 10"/><path fill="none" stroke="#000" stroke-width=".5" d="M290 160l-10 10"/><path fill="none" stroke="#000" stroke-width=".5" d="M280 150l10 10"/></g><g><path fill="#fff" stroke="#000" d="M110 150v20H90v20h40v20h20v-20h20v-20h-40v-20z" style="marker:none"/><path fill="none" stroke="#000" stroke-width=".5" d="M120 180l10 10"/><path fill="none" stroke="#000" stroke-width=".5" d="M130 170l-10 10"/><path fill="#dabf1e" d="M120 164a6 6 0 00-6 6 6 6 0 006 6 6 6 0 006-6 6 6 0 00-6-6zm-2.26953 1.54492l2.54687 2.70899 3.25782-1.78907-1.78907 3.25782 2.70899 2.54687-3.65235-.69531-1.58398 3.36328-.46875-3.6875-3.6875-.46875 3.36328-1.58398z" style="marker:none"/><path fill="#14d2d2" d="M133.53551083 176.46454873l-1.82800538 3.07800046 3.1221027 1.75163078-3.57962908-.04409518.04409518 3.57962908-1.75163077-3.12210271-3.07800047 1.82800538 1.82800538-3.07800046-3.12210271-1.75163078 3.57962908.04409518-.04409517-3.57962909 1.75163077 3.12210272z" style="marker:none"/><path fill="#f01010" d="M110 174a6 6 0 00-6 6 6 6 0 006 6 6 6 0 006-6 6 6 0 00-6-6zm3.53516 2.46484l-1.82813 3.99219-.41211 4.37305L108.75 181.25l-3.58008-2.54492 4.37305-.41211z" style="marker:none"/><path fill="none" stroke="#000" stroke-width=".5" d="M140 180l-10 10"/><path fill="none" stroke="#000" stroke-width=".5" d="M150 170l-10 10"/><path fill="#f01010" d="M150 174a6 6 0 00-6 6 6 6 0 006 6 6 6 0 006-6 6 6 0 00-6-6zm-1.29492 1.16992l1.75195 3.12305 3.07813-1.82813-1.82813 3.07813 3.12305 1.75195-3.58008-.0449.0449 3.58008-1.75195-3.12305-3.07813 1.82813 1.82813-3.07813-3.12305-1.75195 3.58008.0449z" style="marker:none"/><path fill="none" stroke="#000" stroke-width=".5" d="M130 190l10 10"/><path fill="none" stroke="#000" stroke-width=".5" d="M140 200l10 10"/><path fill="none" stroke="#000" stroke-width=".5" d="M110 150l10 10"/><path fill="none" stroke="#000" stroke-width=".5" d="M130 150l-10 10"/><path fill="none" stroke="#000" stroke-width=".5" d="M130 170l-10-10"/><path fill="none" stroke="#000" stroke-width=".5" d="M110 160l10-10"/><path fill="none" stroke="#000" stroke-width=".5" d="M110 170l-10 10"/><path fill="none" stroke="#000" stroke-width=".5" d="M90 180l10-10"/><path fill="none" stroke="#000" stroke-width=".5" d="M150 170l10 10"/><path fill="none" stroke="#000" stroke-width=".5" d="M170 170l-10 10"/></g><g><path fill="#fff" stroke="#000" d="M70 170v20H30v20h20v20h20v-20h40v-20H90v-20z" style="marker:none"/><path fill="none" stroke="#000" stroke-width=".5" d="M80 200l-10 10"/><path fill="#f01010" d="M80 184a6 6 0 00-6 6 6 6 0 006 6 6 6 0 006-6 6 6 0 00-6-6zm2.26953 1.54492l-.69531 3.65235 3.36328 1.58398-3.6875.46875-.46875 3.6875-1.58398-3.36328-3.65235.69531 2.70899-2.54687-1.78907-3.25782 3.25782 1.78907z" style="marker:none"/><path fill="#d459ee" d="M73.53551527 196.464493l-1.78953029 3.25899716 2.7090272 2.5464874-3.65248513-.69486394-1.5847154 3.36335765-.46782891-3.68844575-3.68844575-.46782892 3.36335765-1.5847154-.69486393-3.65248512 2.54648738 2.7090272z" style="marker:none"/><path fill="#14d2d2" d="M93.53551708 196.46448862l-1.90233503 2.85903636 3.36679843.67649471-3.36679702.67649613 1.90233362 2.8590406-2.8590406-1.9023336-.67649614 3.366797-.67649471-3.36679842-2.85903636 1.90233503 1.90233503-2.85903636-3.36679843-.67649472 3.36679701-.67649613-1.90233361-2.8590406 2.8590406 1.90233361.67649613-3.36679701.67649471 3.36679843z" style="marker:none"/><path fill="none" stroke="#000" stroke-width=".5" d="M70 210l-10-10"/><path fill="none" stroke="#000" stroke-width=".5" d="M60 200l-10-10"/><path fill="none" stroke="#000" stroke-width=".5" d="M70 190l-10 10"/><path fill="none" stroke="#000" stroke-width=".5" d="M60 200l-10 10"/><path fill="#d459ee" d="M56 200a6 6 0 00-6-6 6 6 0 00-6 6 6 6 0 006 6 6 6 0 006-6zm-1.03125.56055l-3.47266.38086 1.16407 3.29296-2.46289-2.47851-1.84961 2.96289L48.75 201.25l-3.46875.40234 2.96289-1.84961-2.47852-2.46289 3.29297 1.16407.38086-3.47266 1.14453 3.30078 2.95118-1.86719-1.86719 2.95118z" style="marker:none"/><path fill="#14d2d2" d="M63.53550311 213.53553748l-3.53553461-1.76776766-3.5355332 1.76776766 1.76776766-3.5355332-1.76776766-3.53553461 3.5355339 1.76776837 3.53553391-1.76776837-1.76776837 3.5355339z" style="marker:none"/><path fill="none" stroke="#000" stroke-width=".5" d="M70 170l10 10"/><path fill="none" stroke="#000" stroke-width=".5" d="M70 180l10-10"/><path fill="none" stroke="#000" stroke-width=".5" d="M70 210l-10 10"/><path fill="none" stroke="#000" stroke-width=".5" d="M60 230l-10-10"/><path fill="none" stroke="#000" stroke-width=".5" d="M90 210l10-10"/><path fill="none" stroke="#000" stroke-width=".5" d="M90 190l10 10"/><path fill="none" stroke="#000" stroke-width=".5" d="M50 210l-10-10"/><path fill="none" stroke="#000" stroke-width=".5" d="M30 210l10-10"/><path fill="none" stroke="#000" stroke-width=".5" d="M30 190l10 10"/><path fill="none" stroke="#000" stroke-width=".5" d="M50 190l-10 10"/><path fill="none" stroke="#000" stroke-width=".5" d="M40 210l-10-10"/><path fill="none" stroke="#000" stroke-width=".5" d="M30 200l10-10"/></g><g><path fill="#fff" stroke="#000" d="M70 50v20H30v20h20v20h20V90h40V70H90V50z" style="marker:none"/><path fill="none" stroke="#000" stroke-width=".5" d="M50 70l10 10"/><path fill="#d459ee" d="M64 80a6 6 0 006 6 6 6 0 006-6 6 6 0 00-6-6 6 6 0 00-6 6zm1.16992-1.29492l3.58008.0449-.0449-3.58009 1.75195 3.12305 3.07812-1.82813-1.82812 3.07813 3.12305 1.75195-3.58008-.0449.0449 3.58008-1.75195-3.12305-3.07813 1.82813 1.82813-3.07813z" style="marker:none"/><path fill="#1ee21e" d="M56.4645158 86.46455427l3.07800045 1.82800538 1.75163078-3.12210271-.04409518 3.57962908 3.57962909-.04409518-3.12210272 1.75163078 1.82800538 3.07800046-3.07800046-1.82800538-1.75163078 3.12210272.04409518-3.57962909-3.57962908.04409518 3.12210271-1.75163078z" style="marker:none"/><path fill="#dabf1e" d="M46.46450643 76.4645553l3.53553462 1.76776766 3.5355332-1.76776766-1.76776767 3.5355332 1.76776766 3.53553461-3.5355346-1.76776766-3.5355332 1.76776766 1.76776765-3.5355332z" style="marker:none"/><path fill="none" stroke="#000" stroke-width=".5" d="M80 80l10-10"/><path fill="none" stroke="#000" stroke-width=".5" d="M80 80l10 10"/><path fill="#dabf1e" d="M96 80a6 6 0 00-6-6 6 6 0 00-6 6 6 6 0 006 6 6 6 0 006-6zm-1.1699-1.29492L91.25 81.25l-2.5449 3.58008-.4121-4.37305-1.8282-3.99219 3.9922 1.82813z" style="marker:none"/><path fill="#d459ee" d="M76.46457203 73.53547149l1.82800609-3.07800117-3.12210342-1.75163007 3.57962908.04409518-.04409518-3.57962909 1.75163007 3.12210342 3.07800117-1.82800608-1.82800609 3.07800117 3.12210343 1.75163007-3.57962909-.04409518.04409518 3.57962908-1.75163007-3.12210342z" style="marker:none"/><path fill="none" stroke="#000" stroke-width=".5" d="M80 50l10 10"/><path fill="none" stroke="#000" stroke-width=".5" d="M50 90L40 80"/><path fill="none" stroke="#000" stroke-width=".5" d="M30 90l10-10"/><path fill="none" stroke="#000" stroke-width=".5" d="M30 80l10-10"/><path fill="none" stroke="#000" stroke-width=".5" d="M70 100l-10 10"/><path fill="none" stroke="#000" stroke-width=".5" d="M90 70l10 10"/><path fill="none" stroke="#000" stroke-width=".5" d="M110 80l-10 10"/><path fill="none" stroke="#000" stroke-width=".5" d="M100 70l10 10"/></g><g stroke="#000"><path fill="#fff" d="M170 30v20h20v20h40v20h20V50h-40V30h-20z" style="marker:none"/><path fill="none" stroke-width=".5" d="M190 30l10 10"/><path fill="none" stroke-width=".5" d="M210 30l-10 10"/><path fill="none" stroke-width=".5" d="M200 50l-10-10"/><path fill="none" stroke-width=".5" d="M190 40l10-10"/><path fill="none" stroke-width=".5" d="M190 50l10 10"/><path fill="none" stroke-width=".5" d="M210 50l-10 10"/><path fill="none" stroke-width=".5" d="M200 50l10 10"/><path fill="none" stroke-width=".5" d="M210 60l-10 10"/><path fill="none" stroke-width=".5" d="M200 70l-10-10"/><path fill="none" stroke-width=".5" d="M210 50l10 10"/><path fill="none" stroke-width=".5" d="M210 70l10-10"/><path fill="none" stroke-width=".5" d="M210 60l10-10"/><path fill="none" stroke-width=".5" d="M220 50l10 10"/><path fill="none" stroke-width=".5" d="M220 70l-10-10"/><path fill="none" stroke-width=".5" d="M230 50l10 10"/><path fill="none" stroke-width=".5" d="M230 70l10-10"/><path fill="none" stroke-width=".5" d="M240 70l-10-10"/><path fill="none" stroke-width=".5" d="M190 30l-10 10"/><path fill="none" stroke-width=".5" d="M190 50l-10-10"/><path fill="none" stroke-width=".5" d="M170 50l10-10"/><path fill="none" stroke-width=".5" d="M190 40l-10 10"/><path fill="none" stroke-width=".5" d="M180 50l-10-10"/><path fill="none" stroke-width=".5" d="M230 70l10 10"/><path fill="none" stroke-width=".5" d="M250 90l-10-10"/><path fill="none" stroke-width=".5" d="M230 80l10-10"/><path fill="none" stroke-width=".5" d="M240 70l10 10"/></g><g><path fill="#fff" stroke="#000" d="M250 290v20h20v-40h-20v-40h-20v20h-20v20h20v20z" style="marker:none"/><path fill="#dabf1e" d="M240 264a6 6 0 00-6 6 6 6 0 006 6 6 6 0 006-6 6 6 0 00-6-6zm-1.29492 1.16992L241.25 268.75l3.58008 2.54492-4.37305.41211-3.99219 1.82813 1.82813-3.99219z" style="marker:none"/><path fill="#1ee21e" d="M226.46451426 263.53549067l1.78953312-3.25899435-2.70903215-2.54649233 3.65248442.69486322 1.58472105-3.36335199.46782609 3.68844292 3.6884432.46782637-3.36335192 1.58472112.69486252 3.65248371-2.54649184-2.70903165z" style="marker:none"/><path fill="none" stroke="#000" stroke-width=".5" d="M230 270l10-10"/><path fill="#14d2d2" d="M236.46446662 253.5354976l1.86697332-2.95167513-3.3000023-1.143683 3.47175571-.38068083-1.16335682-3.29311295 2.46225187 2.4769597 1.84931758-2.96277035-.40138916 3.46941235 3.46941235-.40138916-2.96277034 1.84931758 2.4769597 2.46225188-3.29311296-1.16335683-.38068083 3.4717557-1.143683-3.3000023z" style="marker:none"/><path fill="none" stroke="#000" stroke-width=".5" d="M230 270l10 10"/><path fill="none" stroke="#000" stroke-width=".5" d="M240 290l-10-10"/><path fill="none" stroke="#000" stroke-width=".5" d="M250 280l-10 10"/><path fill="none" stroke="#000" stroke-width=".5" d="M210 270l10-10"/><path fill="none" stroke="#000" stroke-width=".5" d="M250 310l10-10"/><path fill="none" stroke="#000" stroke-width=".5" d="M250 290l10 10"/><path fill="none" stroke="#000" stroke-width=".5" d="M270 310l-10-10"/><path fill="none" stroke="#000" stroke-width=".5" d="M260 310l-10-10"/><path fill="none" stroke="#000" stroke-width=".5" d="M270 300l-10 10"/><path fill="none" stroke="#000" stroke-width=".5" d="M260 290l-10-10"/><path fill="none" stroke="#000" stroke-width=".5" d="M250 280l10-10"/><path fill="none" stroke="#000" stroke-width=".5" d="M260 270l10 10"/><path fill="none" stroke="#000" stroke-width=".5" d="M270 280l-10 10"/><path fill="none" stroke="#000" stroke-width=".5" d="M230 250l10-10"/><path fill="none" stroke="#000" stroke-width=".5" d="M230 240l10-10"/></g><g><path fill="#fff" fill-rule="evenodd" stroke="#000" d="M230 110v20h-20v20h-20v-20h-40v-20h40V90h20v20z"/><path fill="none" stroke="#000" stroke-width=".5" d="M210 130l-10-10"/><path fill="#1ee21e" d="M196 120a6 6 0 00-6-6 6 6 0 00-6 6 6 6 0 006 6 6 6 0 006-6zm-2.46484-3.53516L191.76758 120l1.76758 3.53516L190 121.76758l-3.53516 1.76758L188.23242 120l-1.76758-3.53516L190 118.23242z" style="marker:none"/><path fill="#f01010" d="M206 130a6 6 0 00-6-6 6 6 0 00-6 6 6 6 0 006 6 6 6 0 006-6zm-2.46484 3.53516l-3.99219-1.82813-4.37305-.41211L198.75 128.75l2.54492-3.58008.41211 4.37305z" style="marker:none"/><path fill="#dabf1e" d="M213.53546095 123.53552237l-2.95167867-1.8669698-1.14367733 3.29999664-.38068579-3.47175075-3.29311012 1.163354 2.47695687-2.46224905-2.96276681-1.84932112 3.46942579.40140402-.40138988-3.46941165 1.84932112 2.9627668 2.46224905-2.47695686-1.1633547 3.29311083 3.47175145.38068508-3.29999734 1.14367804z" style="marker:none"/><path fill="#1ee21e" d="M203.53543569 113.53557909l-2.8590392-1.9023322-.6764947 3.36679842-.67649472-3.36679842-2.8590392 1.9023322 1.9023322-2.8590392-3.36679842-.6764947 3.36679843-.67649472-1.9023322-2.8590392 2.85903919 1.9023322.67649471-3.36679842.67649472 3.36679843 2.85903919-1.9023322-1.9023322 2.85903919 3.36679843.67649471-3.36679843.67649472z" style="marker:none"/><path fill="none" stroke="#000" stroke-width=".5" d="M180 120l10-10"/><path fill="none" stroke="#000" stroke-width=".5" d="M190 130l-10-10"/><path fill="#d459ee" d="M166.46451389 116.46438263l2.85903778 1.90233645.67649613-3.36679702.67649613 3.36679702 2.85903777-1.90233645-1.90233644 2.85903778 3.36679701.67649613-3.36679701.67649613 1.90233644 2.85903777-2.85903777-1.90233644-.67649613 3.36679701-.67649613-3.36679701-2.85903778 1.90233644 1.90233644-2.85903777-3.36679701-.67649613 3.36679701-.67649613z" style="marker:none"/><path fill="none" stroke="#000" stroke-width=".5" d="M210 110l10 10"/><path fill="none" stroke="#000" stroke-width=".5" d="M230 130l-10-10"/><path fill="none" stroke="#000" stroke-width=".5" d="M210 130l10-10"/><path fill="none" stroke="#000" stroke-width=".5" d="M220 110l10 10"/><path fill="none" stroke="#000" stroke-width=".5" d="M230 120l-10 10"/><path fill="none" stroke="#000" stroke-width=".5" d="M210 90l-10 10"/><path fill="none" stroke="#000" stroke-width=".5" d="M210 110l-10-10"/><path fill="none" stroke="#000" stroke-width=".5" d="M190 90l10 10"/><path fill="none" stroke="#000" stroke-width=".5" d="M200 90l10 10"/><path fill="none" stroke="#000" stroke-width=".5" d="M190 100l10-10"/><path fill="none" stroke="#000" stroke-width=".5" d="M210 130l-10 10"/><path fill="none" stroke="#000" stroke-width=".5" d="M210 140l-10 10"/><path fill="none" stroke="#000" stroke-width=".5" d="M170 130l-10-10"/><path fill="none" stroke="#000" stroke-width=".5" d="M150 120l10-10"/></g><g><path fill="#fff" fill-rule="evenodd" stroke="#000" d="M70 270v-20h20v-20h20v20h40v20h-40v20H90v-20z"/><path fill="none" stroke="#000" stroke-width=".5" d="M110 250l-10 10"/><path fill="#d459ee" d="M96.46443396 253.535482l1.90233644-2.85903777-3.36679701-.67649613 3.36679701-.67649613-1.90233644-2.85903778 2.85903777 1.90233645.67649613-3.36679702.67649613 3.36679702 2.85903778-1.90233645-1.90233645 2.85903778 3.36679702.67649613-3.36679702.67649613 1.90233645 2.85903777-2.85903778-1.90233644-.67649613 3.36679701-.67649613-3.36679701z" style="marker:none"/><path fill="#d459ee" d="M116 260a6 6 0 00-6-6 6 6 0 00-6 6 6 6 0 006 6 6 6 0 006-6zm-1 0l-3.3672.67578 1.9024 2.85938-2.8594-1.90235L110 265l-.6758-3.36719-2.8594 1.90235 1.9024-2.85938L105 260l3.3672-.67578-1.9024-2.85938 2.8594 1.90235L110 255l.6758 3.36719 2.8594-1.90235-1.9024 2.85938z" style="marker:none"/><path fill="#dabf1e" d="M96.46443082 266.46465997l3.25899858 1.7895317 2.54648951-2.70902507-.69486676 3.6524823 3.36336048 1.58471821-3.68844575.46782892-.467836 3.68843868-1.58471114-3.3633534-3.65248937.69485968 2.70903215-2.54648243z" style="marker:none"/><path fill="#f01010" d="M93.53546384 263.53559424l-3.07800046-1.82800538-1.75163078 3.12210271.04409518-3.57962909-3.57962909.04409518 3.12210272-1.75163077-1.82800538-3.07800047 3.07800046 1.82800538 1.75163078-3.1221027-.04409518 3.57962908 3.57962908-.04409518-3.12210271 1.75163077z" style="marker:none"/><path fill="none" stroke="#000" stroke-width=".5" d="M150 270l-10-10"/><path fill="none" stroke="#000" stroke-width=".5" d="M130 250l10 10"/><path fill="none" stroke="#000" stroke-width=".5" d="M140 270l-10-10"/><path fill="none" stroke="#000" stroke-width=".5" d="M130 260l10-10"/><path fill="none" stroke="#000" stroke-width=".5" d="M70 270l10-10"/><path fill="none" stroke="#000" stroke-width=".5" d="M70 250l10 10"/><path fill="none" stroke="#000" stroke-width=".5" d="M70 260l10-10"/><path fill="none" stroke="#000" stroke-width=".5" d="M110 250l-10-10"/><path fill="none" stroke="#000" stroke-width=".5" d="M90 240l10-10"/><path fill="none" stroke="#000" stroke-width=".5" d="M130 250l-10 10"/><path fill="none" stroke="#000" stroke-width=".5" d="M130 270l-10-10"/><path fill="none" stroke="#000" stroke-width=".5" d="M120 250l10 10"/><path fill="none" stroke="#000" stroke-width=".5" d="M130 260l-10 10"/><path fill="none" stroke="#000" stroke-width=".5" d="M90 290l10-10"/><path fill="none" stroke="#000" stroke-width=".5" d="M90 270l10 10"/><path fill="none" stroke="#000" stroke-width=".5" d="M110 280l-10 10"/></g><g><path fill="#fff" fill-rule="evenodd" stroke="#000" d="M150 90V70h20V50h20v20h40v20h-40v20h-20V90z"/><path fill="none" stroke="#000" stroke-width=".5" d="M200 80l-10-10"/><path fill="#14d2d2" d="M213.53538111 83.53580043l-2.95167513-1.86697333-1.143683 3.3000023-.38068083-3.47175571-3.29311295 1.16335682 2.4769597-2.46225187-2.96277034-1.84931758 3.46941235.40138916-.40138916-3.46941235 1.84931757 2.96277034 2.46225188-2.4769597-1.16335682 3.29311296 3.4717557.38068083-3.3000023 1.143683z" style="marker:none"/><path fill="none" stroke="#000" stroke-width=".5" d="M180 80l-10 10"/><path fill="none" stroke="#000" stroke-width=".5" d="M170 70l10 10"/><path fill="#14d2d2" d="M180 64a6 6 0 00-6 6 6 6 0 006 6 6 6 0 006-6 6 6 0 00-6-6zm-3.5352 2.46484l3.9922 1.82813 4.3731.41211L181.25 71.25l-2.5449 3.58008-.4121-4.37305z" style="marker:none"/><path fill="#dabf1e" d="M166.46467597 83.53551323l1.7895317-3.25899858-2.70902508-2.54648951 3.6524823.69486676 1.58471822-3.36336048.46782892 3.68844575 3.68843867.46783599-3.3633534 1.58471115.69485969 3.65248937-2.54648244-2.70903215z" style="marker:none"/><path fill="#dabf1e" d="M186.46453483 76.46450444l2.85903778 1.90233644.67649613-3.36679701.67649613 3.36679701 2.85903777-1.90233644-1.90233644 2.85903777 3.36679701.67649613-3.36679701.67649613 1.90233644 2.85903778-2.85903777-1.90233644-.67649613 3.36679701-.67649613-3.36679701-2.85903778 1.90233644 1.90233645-2.85903778-3.36679702-.67649613 3.36679702-.67649613z" style="marker:none"/><path fill="#1ee21e" d="M180 96a6 6 0 006-6 6 6 0 00-6-6 6 6 0 00-6 6 6 6 0 006 6zm-3.5352-2.46484l1.8282-3.99219.4121-4.37305L181.25 88.75l3.5801 2.54492-4.3731.41211z" style="marker:none"/><path fill="none" stroke="#000" stroke-width=".5" d="M210 90l10-10"/><path fill="none" stroke="#000" stroke-width=".5" d="M230 80l-10 10"/><path fill="none" stroke="#000" stroke-width=".5" d="M190 110l-10-10"/><path fill="none" stroke="#000" stroke-width=".5" d="M170 90l10 10"/><path fill="none" stroke="#000" stroke-width=".5" d="M190 90l-10 10"/><path fill="none" stroke="#000" stroke-width=".5" d="M190 100l-10 10"/><path fill="none" stroke="#000" stroke-width=".5" d="M180 110l-10-10"/><path fill="none" stroke="#000" stroke-width=".5" d="M150 90l10-10"/><path fill="none" stroke="#000" stroke-width=".5" d="M170 90l-10-10"/><path fill="none" stroke="#000" stroke-width=".5" d="M150 80l10-10"/><path fill="none" stroke="#000" stroke-width=".5" d="M170 50l10 10"/><path fill="none" stroke="#000" stroke-width=".5" d="M190 50l-10 10"/><path fill="none" stroke="#000" stroke-width=".5" d="M190 70l-10-10"/><path fill="none" stroke="#000" stroke-width=".5" d="M170 60l10-10"/></g><g><path fill="#fff" stroke="#000" d="M250 110v20h-40v20h20v20h20v-20h20v-20h20v-20h-20z" style="marker:none"/><path fill="none" stroke="#000" stroke-width=".5" d="M260 120l10-10"/><path fill="none" stroke="#000" stroke-width=".5" d="M260 120l-10-10"/><path fill="#4264f3" d="M266.4644729 123.53551165l1.76776794-3.5355349-1.76776794-3.5355329 3.5355332 1.76776765 3.53553461-1.76776766-1.76776766 3.53553461 1.76776759 3.53553327-3.53553292-1.76776794z" style="marker:none"/><path fill="#4264f3" d="M260 136a6 6 0 006-6 6 6 0 00-6-6 6 6 0 00-6 6 6 6 0 006 6zm3.53516-2.46484L260 131.76758l-3.53516 1.76758L258.23242 130l-1.76758-3.53516L260 128.23242l3.53516-1.76758L261.76758 130z" style="marker:none"/><path fill="none" stroke="#000" stroke-width=".5" d="M260 140l-10 10"/><path fill="none" stroke="#000" stroke-width=".5" d="M250 130l10 10"/><path fill="#14d2d2" d="M250 134a6 6 0 00-6 6 6 6 0 006 6 6 6 0 006-6 6 6 0 00-6-6zm-.56055 1.03125l1.14453 3.30078 2.95118-1.86719-1.86719 2.95118 3.30078 1.14453-3.47266.38086 1.16407 3.29297-2.46289-2.47852-1.84961 2.96289.40234-3.46875-3.46875.40234 2.96289-1.84961-2.47852-2.46289 3.29297 1.16407z" style="marker:none"/><path fill="none" stroke="#000" stroke-width=".5" d="M260 140l10 10"/><path fill="none" stroke="#000" stroke-width=".5" d="M250 130l-10 10"/><path fill="none" stroke="#000" stroke-width=".5" d="M230 130l10 10"/><path fill="#d459ee" d="M226.46455686 136.46464392l3.07800117 1.82800609 1.75163007-3.12210342-.04409518 3.57962908 3.57962909-.04409518-3.12210342 1.75163007 1.82800608 3.07800117-3.07800117-1.82800608-1.75163006 3.12210342.04409517-3.57962909-3.57962908.04409518 3.12210342-1.75163007z" style="marker:none"/><path fill="none" stroke="#000" stroke-width=".5" d="M240 140l-10 10"/><path fill="#1ee21e" d="M240 144a6 6 0 00-6 6 6 6 0 006 6 6 6 0 006-6 6 6 0 00-6-6zm-2.26953 1.54492l2.54687 2.70899 3.25782-1.78907-1.78907 3.25782 2.70899 2.54687-3.65235-.69531-1.58398 3.36328-.46875-3.6875-3.6875-.46875 3.36328-1.58398z" style="marker:none"/><path fill="none" stroke="#000" stroke-width=".5" d="M270 130l10-10"/><path fill="none" stroke="#000" stroke-width=".5" d="M290 130l-10-10"/><path fill="none" stroke="#000" stroke-width=".5" d="M280 110l10 10"/><path fill="none" stroke="#000" stroke-width=".5" d="M220 150l-10-10"/><path fill="none" stroke="#000" stroke-width=".5" d="M250 170l-10-10"/></g><g><path fill="#fff" stroke="#000" d="M270 270v-40h20v-40h-20v20h-40v20h20v40z" style="marker:none"/><path fill="none" stroke="#000" stroke-width=".5" d="M270 210l10-10"/><path fill="none" stroke="#000" stroke-width=".5" d="M270 200l10-10"/><path fill="none" stroke="#000" stroke-width=".5" d="M280 190l10 10"/><path fill="none" stroke="#000" stroke-width=".5" d="M280 220l-10-10"/><path fill="none" stroke="#000" stroke-width=".5" d="M290 230l-10-10"/><path fill="#1ee21e" d="M274.24264 224.24264a6 6 0 000-8.48528 6 6 0 00-8.48528 0 6 6 0 000 8.48528 6 6 0 008.48528 0zm-.70711-.7071l-2.85881-1.90312L270 224.99947l-.67672-3.36705-2.85881 1.90311 1.90311-2.85881L265.00053 220l3.36705-.67672-1.90311-2.85882 2.85881 1.90312.67672-3.36705.67672 3.36705 2.85881-1.90311-1.90311 2.85881 3.36705.67672-3.36705.67672z" style="marker:none"/><path fill="#4264f3" d="M283.53552125 213.53548968l-3.99306523-1.82800467-4.3720978-.41343402 3.57962697-2.54409737 2.54409736-3.57962696.41343473 4.3720985z" style="marker:none"/><path fill="none" stroke="#000" stroke-width=".5" d="M260 260l-10 10"/><path fill="none" stroke="#000" stroke-width=".5" d="M270 250l-10 10"/><path fill="#14d2d2" d="M256.46448835 253.53551633l1.82800467-3.99306522.41343402-4.3720978 2.54409383 3.5796305 3.5796305 2.54409383-4.3720985.41343473z" style="marker:none"/><path fill="none" stroke="#000" stroke-width=".5" d="M270 250l-10-10"/><path fill="none" stroke="#000" stroke-width=".5" d="M250 230l10 10"/><path fill="none" stroke="#000" stroke-width=".5" d="M250 240l10-10"/><path fill="none" stroke="#000" stroke-width=".5" d="M250 210l10 10"/><path fill="none" stroke="#000" stroke-width=".5" d="M270 210l-10 10"/><path fill="none" stroke="#000" stroke-width=".5" d="M250 220l10-10"/><path fill="none" stroke="#000" stroke-width=".5" d="M230 210l10 10"/><path fill="none" stroke="#000" stroke-width=".5" d="M230 220l10-10"/></g><g><path fill="#fff" stroke="#000" d="M170 50h-20V10h-20v40h-20v40h20V70h40z" style="marker:none"/><path fill="none" stroke="#000" stroke-width=".5" d="M140 60l-10-10"/><path fill="none" stroke="#000" stroke-width=".5" d="M150 70l-10-10"/><path fill="#4264f3" d="M136 60a6 6 0 00-6-6 6 6 0 00-6 6 6 6 0 006 6 6 6 0 006-6zm-2.46484 3.53516l-3.99219-1.82813-4.37305-.41211L128.75 58.75l2.54492-3.58008.41211 4.37305z" style="marker:none"/><path fill="#d459ee" d="M146.46453267 56.46446246l3.5355339 1.76776837 3.53553391-1.76776837-1.76776837 3.5355339 1.76776837 3.53553392-3.5355339-1.76776837-3.53553391 1.76776837 1.76776837-3.53553391z" style="marker:none"/><path fill="#d459ee" d="M146 50a6 6 0 00-6-6 6 6 0 00-6 6 6 6 0 006 6 6 6 0 006-6zm-2.46484 3.53516l-3.99219-1.82813-4.37305-.41211L138.75 48.75l2.54492-3.58008.41211 4.37305z" style="marker:none"/><path fill="none" stroke="#000" stroke-width=".5" d="M150 50l10 10"/><path fill="none" stroke="#000" stroke-width=".5" d="M160 50l10 10"/><path fill="none" stroke="#000" stroke-width=".5" d="M130 70l-10 10"/><path fill="none" stroke="#000" stroke-width=".5" d="M120 70l10 10"/><path fill="none" stroke="#000" stroke-width=".5" d="M150 10l-10 10"/><path fill="none" stroke="#000" stroke-width=".5" d="M150 30l-10-10"/><path fill="none" stroke="#000" stroke-width=".5" d="M140 10l10 10"/><path fill="none" stroke="#000" stroke-width=".5" d="M140 30l-10-10"/><path fill="none" stroke="#000" stroke-width=".5" d="M130 20l10-10"/><path fill="none" stroke="#000" stroke-width=".5" d="M130 50l10-10"/><path fill="none" stroke="#000" stroke-width=".5" d="M110 70l10-10"/><path fill="none" stroke="#000" stroke-width=".5" d="M130 50l-10 10"/><path fill="none" stroke="#000" stroke-width=".5" d="M130 70l-10-10"/><path fill="none" stroke="#000" stroke-width=".5" d="M120 70l-10-10"/></g><g><path fill="#fff" stroke="#000" d="M230 10v20h-20v20h40v20h20V50h20V30h-40V10z" style="marker:none"/><path fill="none" stroke="#000" stroke-width=".5" d="M250 30l10 10"/><path fill="#1ee21e" d="M253.53552617 43.53568162l-3.5355336-1.76776867-3.53553412 1.76776858 1.76776865-3.53553419-1.76776856-3.53553372 3.5355336 1.76776868 3.53553412-1.76776858-1.76776865 3.53553419z" style="marker:none"/><path fill="#d459ee" d="M270 34a6 6 0 00-6 6 6 6 0 006 6 6 6 0 006-6 6 6 0 00-6-6zm3.53516 2.46484l-1.82813 3.99219-.41211 4.37305L268.75 41.25l-3.58008-2.54492 4.37305-.41211z" style="marker:none"/><path fill="#d459ee" d="M263.53565097 46.46456793l-1.82800467 3.99306523-.41343402 4.3720978-2.54409737-3.57962697-3.57962703-2.54409744 4.37209829-.41343494z" style="marker:none"/><path fill="none" stroke="#000" stroke-width=".5" d="M250 30l-10 10"/><path fill="none" stroke="#000" stroke-width=".5" d="M240 40l-10 10"/><path fill="#1ee21e" d="M240 24a6 6 0 00-6 6 6 6 0 006 6 6 6 0 006-6 6 6 0 00-6-6zm-2.26953 1.54492l2.54687 2.70899 3.25782-1.78907-1.78907 3.25782 2.70899 2.54687-3.65235-.69531-1.58398 3.36328L238.75 31.25l-3.6875-.46875 3.36328-1.58398z" style="marker:none"/><path fill="#1ee21e" d="M233.53544356 36.46447555l-1.78953312 3.25899434 2.70903215 2.54649234-3.65248442-.69486323-1.58472105 3.36335199-.46782609-3.68844292-3.6884432-.46782637 3.36335192-1.58472112-.69486252-3.65248371 2.54649184 2.70903165z" style="marker:none"/><path fill="none" stroke="#000" stroke-width=".5" d="M250 10l-10 10"/><path fill="none" stroke="#000" stroke-width=".5" d="M270 50l10-10"/><path fill="none" stroke="#000" stroke-width=".5" d="M210 30l10 10"/><path fill="none" stroke="#000" stroke-width=".5" d="M250 50l10 10"/><path fill="none" stroke="#000" stroke-width=".5" d="M260 70l-10-10"/></g><g><path fill="#fff" fill-rule="evenodd" stroke="#000" d="M30 170h20v-20h20v-20h20v20h20v20H70v20H30z" style="marker:none"/><path fill="none" stroke="#000" stroke-width=".5" d="M70 150l-10 10"/><path fill="none" stroke="#000" stroke-width=".5" d="M60 160l10 10"/><path fill="#d459ee" d="M73.53552117 163.53554552l-2.95167937-1.8669705-1.14367592 3.29999805-.38069003-3.471755-3.29310659 1.16335754 2.47695687-2.46224905-2.9627668-1.84932111 3.46942578.401404-.40138987-3.46941163 1.84932111 2.9627668 2.46224905-2.47695687-1.16335824 3.2931073 3.4717557.38068932-3.29999875 1.14367663z" style="marker:none"/><path fill="none" stroke="#000" stroke-width=".5" d="M60 160l-10 10"/><path fill="#14d2d2" d="M56.46458216 173.53557065l1.7895317-3.25899858-2.70902507-2.54648951 3.6524823.69486676 1.58471821-3.36336047.46782892 3.68844574 3.68843868.467836-3.3633534 1.58471114.69485968 3.65248937-2.54648243-2.70903215z" style="marker:none"/><path fill="none" stroke="#000" stroke-width=".5" d="M70 150l10 10"/><path fill="#4264f3" d="M76.4644902 146.46453794l3.99306522 1.82800467 4.3720978.41343402-3.57962697 2.54409737-2.54409736 3.57962696-.41343473-4.3720985z" style="marker:none"/><path fill="#1ee21e" d="M93.53553779 156.46454932l-1.9023322 2.8590392 3.36679842.6764947-3.36679843.67649472 1.9023322 2.8590392-2.85903919-1.9023322-.67649471 3.36679842-.67649471-3.36679843-2.8590392 1.9023322 1.9023322-2.85903919-3.36679842-.67649471 3.36679843-.67649472-1.9023322-2.85903919 2.85903919 1.9023322.67649471-3.36679842.67649471 3.36679842z" style="marker:none"/><path fill="none" stroke="#000" stroke-width=".5" d="M60 180l10-10"/><path fill="none" stroke="#000" stroke-width=".5" d="M70 190l-10-10"/><path fill="#14d2d2" d="M56.46449388 173.53549409l1.7895317-3.2589986-2.70902508-2.5464895 3.6524823.69486676 1.58471822-3.36336047.46782892 3.68844574 3.68843867.467836-3.3633534 1.58471114.69485969 3.65248937-2.54648244-2.70903214z" style="marker:none"/><path fill="#14d2d2" d="M50 186a6 6 0 006-6 6 6 0 00-6-6 6 6 0 00-6 6 6 6 0 006 6zm2.26953-1.54492l-2.54687-2.70899-3.25782 1.78907 1.78907-3.25782-2.70899-2.54687 3.65235.69531 1.58398-3.36328.46875 3.6875 3.6875.46875-3.36328 1.58398z" style="marker:none"/><path fill="none" stroke="#000" stroke-width=".5" d="M90 150l-10-10"/><path fill="none" stroke="#000" stroke-width=".5" d="M70 140l10-10"/><path fill="none" stroke="#000" stroke-width=".5" d="M80 130l10 10"/><path fill="none" stroke="#000" stroke-width=".5" d="M90 150l10 10"/><path fill="none" stroke="#000" stroke-width=".5" d="M110 150l-10 10"/><path fill="none" stroke="#000" stroke-width=".5" d="M110 170l-10-10"/><path fill="none" stroke="#000" stroke-width=".5" d="M100 150l10 10"/><path fill="none" stroke="#000" stroke-width=".5" d="M110 160l-10 10"/><path fill="none" stroke="#000" stroke-width=".5" d="M50 170l-10 10"/><path fill="none" stroke="#000" stroke-width=".5" d="M50 190l-10-10"/><path fill="none" stroke="#000" stroke-width=".5" d="M40 190l-10-10"/></g><g><path fill="#fff" stroke="#000" d="M110 110H90V90H70v20H30v20h20v20h20v-20h40z" style="marker:none"/><path fill="none" stroke="#000" stroke-width=".5" d="M50 110l10 10"/><path fill="#f01010" d="M66.46455724 116.46445142l2.85904061 1.90233361.67649613-3.36679701.67649471 3.36679843 2.85903637-1.90233503-1.90233503 2.85903636 3.36679843.67649471-3.36679702.67649613 1.90233362 2.8590406-2.8590406-1.9023336-.67649614 3.366797-.67649471-3.36679842-2.85903637 1.90233503 1.90233504-2.85903637-3.36679843-.67649471 3.36679701-.67649613z" style="marker:none"/><path fill="#f01010" d="M63.53558845 126.46447408l-1.8280061 3.99306664-.4134326 4.37209639-2.54409737-3.57962697-3.57962696-2.54409736 4.37209638-.41343261z" style="marker:none"/><path fill="#4264f3" d="M44 120a6 6 0 006 6 6 6 0 006-6 6 6 0 00-6-6 6 6 0 00-6 6zm2.46484-3.53516l3.99219 1.82813 4.37305.41211L51.25 121.25l-2.54492 3.58008-.41211-4.37305z" style="marker:none"/><path fill="none" stroke="#000" stroke-width=".5" d="M90 130l-10-10"/><path fill="none" stroke="#000" stroke-width=".5" d="M80 120l-10-10"/><path fill="none" stroke="#000" stroke-width=".5" d="M90 110l-10 10"/><path fill="#f01010" d="M93.53548625 123.53552765l-3.07800046-1.82800538-1.75163078 3.12210271.04409518-3.57962908-3.57962909.04409518 3.12210272-1.75163078-1.82800538-3.07800046 3.07800046 1.82800538 1.75163078-3.12210271-.04409518 3.57962908 3.57962908-.04409518-3.12210271 1.75163078z" style="marker:none"/><path fill="#14d2d2" d="M86 110a6 6 0 00-6-6 6 6 0 00-6 6 6 6 0 006 6 6 6 0 006-6zm-1.54492-2.26953l-2.70899 2.54687 1.78907 3.25782-3.25782-1.78907-2.54687 2.70899.69531-3.65235-3.36328-1.58398L78.75 108.75l.46875-3.6875 1.58398 3.36328z" style="marker:none"/><path fill="none" stroke="#000" stroke-width=".5" d="M50 110l-10 10"/><path fill="none" stroke="#000" stroke-width=".5" d="M50 130l-10-10"/><path fill="none" stroke="#000" stroke-width=".5" d="M30 110l10 10"/><path fill="none" stroke="#000" stroke-width=".5" d="M30 120l10-10"/><path fill="none" stroke="#000" stroke-width=".5" d="M90 110l-10-10"/><path fill="none" stroke="#000" stroke-width=".5" d="M70 110l10-10"/><path fill="none" stroke="#000" stroke-width=".5" d="M80 90l10 10"/><path fill="none" stroke="#000" stroke-width=".5" d="M110 110l-10 10"/><path fill="none" stroke="#000" stroke-width=".5" d="M110 130l-10-10"/><path fill="none" stroke="#000" stroke-width=".5" d="M100 110l10 10"/><path fill="none" stroke="#000" stroke-width=".5" d="M70 140l-10 10"/></g><g><path fill="#fff" stroke="#000" d="M250 70v20h-40v20h20v20h20v-20h20V90h20V70h-20z" style="marker:none"/><path fill="none" stroke="#000" stroke-width=".5" d="M240 100l-10-10"/><path fill="none" stroke="#000" stroke-width=".5" d="M240 100l10-10"/><path fill="#f01010" d="M226.46446034 96.46438774l3.99306664 1.82800608 4.37209638.41343261-3.57962696 2.54409737-2.54409737 3.57962696-.4134326-4.37209638z" style="marker:none"/><path fill="#d459ee" d="M250 106a6 6 0 006-6 6 6 0 00-6-6 6 6 0 00-6 6 6 6 0 006 6zm3.53516-2.46484L250 101.76758l-3.53516 1.76758L248.23242 100l-1.76758-3.53516L250 98.23242l3.53516-1.76758L251.76758 100z" style="marker:none"/><path fill="#d459ee" d="M236.46437428 113.53540267l1.82800467-3.99306523.41343402-4.3720978 2.54409737 3.57962696 3.57962703 2.54409744-4.37209829.41343494z" style="marker:none"/><path fill="none" stroke="#000" stroke-width=".5" d="M250 110l10-10"/><path fill="none" stroke="#000" stroke-width=".5" d="M260 100l-10-10"/><path fill="none" stroke="#000" stroke-width=".5" d="M270 90l-10-10"/><path fill="none" stroke="#000" stroke-width=".5" d="M260 80l-10-10"/><path fill="#1ee21e" d="M264 80a6 6 0 006 6 6 6 0 006-6 6 6 0 00-6-6 6 6 0 00-6 6zm2.46484-3.53516l3.99219 1.82813 4.37305.41211L271.25 81.25l-2.54492 3.58008-.41211-4.37305z" style="marker:none"/><path fill="#dabf1e" d="M263.53548077 93.5355416l-3.99306734-1.82800538-4.3720978-.4134312 3.57962908-2.54409948 2.5440995-3.57962909.41343118 4.3720978z" style="marker:none"/><path fill="none" stroke="#000" stroke-width=".5" d="M250 110l-10 10"/><path fill="none" stroke="#000" stroke-width=".5" d="M250 120l-10 10"/><path fill="none" stroke="#000" stroke-width=".5" d="M210 100l10-10"/><path fill="none" stroke="#000" stroke-width=".5" d="M290 90l-10-10"/><path fill="none" stroke="#000" stroke-width=".5" d="M270 90l10-10"/><path fill="none" stroke="#000" stroke-width=".5" d="M270 70l10 10"/><path fill="none" stroke="#000" stroke-width=".5" d="M280 70l10 10"/><path fill="none" stroke="#000" stroke-width=".5" d="M290 80l-10 10"/></g><g><path fill="#fff" fill-rule="evenodd" stroke="#000" d="M210 170h-20v40h-20v-40h-20v-20h20v-20h20v20h20z"/><path fill="none" stroke="#000" stroke-width=".5" d="M190 150l-10 10"/><path fill="#dabf1e" d="M173.53547196 163.53554091l-2.95167866-1.8669698-1.14367734 3.29999665-.38068578-3.47175076-3.29311013 1.163354 2.47695687-2.46224905-2.9627668-1.84932111 3.46942578.40140401-.40138987-3.46941164 1.84932112 2.9627668 2.46224905-2.47695687-1.1633547 3.29311083 3.47175145.38068508-3.29999734 1.14367805z" style="marker:none"/><path fill="#dabf1e" d="M176.46447763 166.4644934l3.07800117 1.8280061 1.75163007-3.12210342-.04409518 3.57962908 3.57962909-.04409518-3.12210342 1.75163007 1.82800609 3.07800117-3.0780033-1.82800396-1.75162582 3.12209917.0440966-3.5796305-3.5796305.0440966 3.12209988-1.75162654z" style="marker:none"/><path fill="#d459ee" d="M196 160a6 6 0 00-6-6 6 6 0 00-6 6 6 6 0 006 6 6 6 0 006-6zm-1.03125.56055l-3.47266.38086 1.16407 3.29296-2.46289-2.47851-1.84961 2.96289.40234-3.46875-3.46875.40234 2.96289-1.84961-2.47852-2.46289 3.29297 1.16407.38086-3.47266 1.14453 3.30078 2.95118-1.86719-1.86719 2.95118z" style="marker:none"/><path fill="#1ee21e" d="M184.24264 145.75736a6 6 0 00-8.48528 0 6 6 0 000 8.48528 6 6 0 008.48528 0 6 6 0 000-8.48528zm-.7071.70711l-1.90312 2.85881 3.36705.67672-3.36705.67672 1.90311 2.85881-2.85881-1.90311L180 154.99947l-.67672-3.36705-2.85882 1.90311 1.90312-2.85881L175.00053 150l3.36705-.67672-1.90311-2.85881 2.85881 1.90311.67672-3.36705.67672 3.36705z" style="marker:none"/><path fill="none" stroke="#000" stroke-width=".5" d="M190 150l10 10"/><path fill="none" stroke="#000" stroke-width=".5" d="M210 150l-10 10"/><path fill="none" stroke="#000" stroke-width=".5" d="M210 170l-10-10"/><path fill="none" stroke="#000" stroke-width=".5" d="M190 170l10-10"/><path fill="none" stroke="#000" stroke-width=".5" d="M200 150l10 10"/><path fill="none" stroke="#000" stroke-width=".5" d="M210 160l-10 10"/><path fill="none" stroke="#000" stroke-width=".5" d="M170 150l10-10"/><path fill="none" stroke="#000" stroke-width=".5" d="M170 130l10 10"/><path fill="none" stroke="#000" stroke-width=".5" d="M170 140l10-10"/><path fill="none" stroke="#000" stroke-width=".5" d="M170 170l10 10"/><path fill="none" stroke="#000" stroke-width=".5" d="M190 180l-10 10"/><path fill="none" stroke="#000" stroke-width=".5" d="M180 190l-10-10"/><path fill="none" stroke="#000" stroke-width=".5" d="M190 210l-10-10"/><path fill="none" stroke="#000" stroke-width=".5" d="M170 210l10-10"/><path fill="none" stroke="#000" stroke-width=".5" d="M180 190l10 10"/><path fill="none" stroke="#000" stroke-width=".5" d="M190 200l-10 10"/><path fill="none" stroke="#000" stroke-width=".5" d="M180 210l-10-10"/><path fill="none" stroke="#000" stroke-width=".5" d="M170 170l-10-10"/><path fill="none" stroke="#000" stroke-width=".5" d="M150 170l10-10"/><path fill="none" stroke="#000" stroke-width=".5" d="M170 150l-10 10"/><path fill="none" stroke="#000" stroke-width=".5" d="M160 170l-10-10"/><path fill="none" stroke="#000" stroke-width=".5" d="M150 160l10-10"/></g><g><path fill="#fff" fill-rule="evenodd" stroke="#000" d="M90 110V90h40V70h20v20h20v20h-40v20h-20v-20z" style="marker:none"/><path fill="none" stroke="#000" stroke-width=".5" d="M130 110l-10-10"/><path fill="none" stroke="#000" stroke-width=".5" d="M120 100l-10-10"/><path fill="#d459ee" d="M136 100a6 6 0 00-6-6 6 6 0 00-6 6 6 6 0 006 6 6 6 0 006-6zm-1.54492-2.26953l-2.70899 2.54687 1.78907 3.25782-3.25782-1.78907-2.54687 2.70899.69531-3.65235-3.36328-1.58398L128.75 98.75l.46875-3.6875 1.58398 3.36328z" style="marker:none"/><path fill="#14d2d2" d="M116 100a6 6 0 00-6-6 6 6 0 00-6 6 6 6 0 006 6 6 6 0 006-6zm-1 0l-3.36719.67578 1.90235 2.85938-2.85938-1.90235L110 105l-.67578-3.36719-2.85938 1.90235 1.90235-2.85938L105 100l3.36719-.67578-1.90235-2.85938 2.85938 1.90235L110 95l.67578 3.36719 2.85938-1.90235-1.90235 2.85938z" style="marker:none"/><path fill="#4264f3" d="M123.53554264 113.53546247l-3.5355349-1.76776794-3.53553291 1.76776794 1.76776766-3.5355332-1.76776766-3.5355346 3.53553461 1.76776765 3.53553327-1.76776759-1.76776794 3.53553292z" style="marker:none"/><path fill="none" stroke="#000" stroke-width=".5" d="M130 90l10 10"/><path fill="none" stroke="#000" stroke-width=".5" d="M140 100l10 10"/><path fill="none" stroke="#000" stroke-width=".5" d="M130 110l10-10"/><path fill="#1ee21e" d="M143.5354905 93.53543777l-3.99306735-1.82800538-4.3720978-.4134312 3.57962909-2.54409948 2.54409949-3.57962909.41343119 4.3720978z" style="marker:none"/><path fill="#d459ee" d="M153.53547124 103.5355304l-3.53553391-1.76776837-3.5355339 1.76776837 1.76776836-3.5355339-1.76776837-3.53553391 3.53553391 1.76776837 3.5355339-1.76776837-1.76776836 3.5355339z" style="marker:none"/><path fill="none" stroke="#000" stroke-width=".5" d="M130 90l10-10"/><path fill="none" stroke="#000" stroke-width=".5" d="M150 70l-10 10"/><path fill="none" stroke="#000" stroke-width=".5" d="M130 80l10-10"/><path fill="none" stroke="#000" stroke-width=".5" d="M110 90l-10 10"/><path fill="none" stroke="#000" stroke-width=".5" d="M90 90l10 10"/><path fill="none" stroke="#000" stroke-width=".5" d="M100 110l-10-10"/><path fill="none" stroke="#000" stroke-width=".5" d="M130 110l-10 10"/><path fill="none" stroke="#000" stroke-width=".5" d="M130 130l-10-10"/><path fill="none" stroke="#000" stroke-width=".5" d="M120 130l-10-10"/><path fill="none" stroke="#000" stroke-width=".5" d="M150 110l10-10"/><path fill="none" stroke="#000" stroke-width=".5" d="M170 100l-10 10"/></g><g><path fill="#fff" fill-rule="evenodd" stroke="#000" d="M210 230v-40h-20v-20h20v-20h20v40h20v20h-20v20z" style="marker:none"/><path fill="none" stroke="#000" stroke-width=".5" d="M210 170l10 10"/><path fill="none" stroke="#000" stroke-width=".5" d="M220 180l-10 10"/><path fill="#f01010" d="M210 174a6 6 0 00-6 6 6 6 0 006 6 6 6 0 006-6 6 6 0 00-6-6zm-1.29492 1.16992l1.75195 3.12305 3.07813-1.82813-1.82813 3.07813 3.12305 1.75195-3.58008-.0449.0449 3.58008-1.75195-3.12305-3.07813 1.82813 1.82813-3.07813-3.12305-1.75195 3.58008.0449z" style="marker:none"/><path fill="#4264f3" d="M220 164a6 6 0 00-6 6 6 6 0 006 6 6 6 0 006-6 6 6 0 00-6-6zm-1.65234 1.28125l1.84961 2.96289 2.46289-2.47851-1.16407 3.29296 3.47266.38086-3.30078 1.14453 1.86719 2.95118-2.95118-1.86719-1.14453 3.30078-.38086-3.47266-3.29297 1.16407 2.47852-2.46289-2.96289-1.84961 3.46875.40234z" style="marker:none"/><path fill="#f01010" d="M220 184a6 6 0 00-6 6 6 6 0 006 6 6 6 0 006-6 6 6 0 00-6-6zm-3.53516 2.46484L220 188.23242l3.53516-1.76758L221.76758 190l1.76758 3.53516L220 191.76758l-3.53516 1.76758L218.23242 190z" style="marker:none"/><path fill="none" stroke="#000" stroke-width=".5" d="M210 190l10 10"/><path fill="none" stroke="#000" stroke-width=".5" d="M220 200l10 10"/><path fill="#f01010" d="M226.46458137 196.46433647l3.5355339 1.76776695 3.53553391-1.76776695-1.76776695 3.5355339 1.76776695 3.53553391-3.5355339-1.76776695-3.53553391 1.76776695 1.76776695-3.5355339z" style="marker:none"/><path fill="#d459ee" d="M220 204a6 6 0 00-6 6 6 6 0 006 6 6 6 0 006-6 6 6 0 00-6-6zm0 1l.67578 3.36719 2.85938-1.90235-1.90235 2.85938L225 210l-3.36719.67578 1.90235 2.85938-2.85938-1.90235L220 215l-.67578-3.36719-2.85938 1.90235 1.90235-2.85938L215 210l3.36719-.67578-1.90235-2.85938 2.85938 1.90235z" style="marker:none"/><path fill="none" stroke="#000" stroke-width=".5" d="M210 150l10 10"/><path fill="none" stroke="#000" stroke-width=".5" d="M230 150l-10 10"/><path fill="none" stroke="#000" stroke-width=".5" d="M230 170l-10-10"/><path fill="none" stroke="#000" stroke-width=".5" d="M210 170l10-10"/><path fill="none" stroke="#000" stroke-width=".5" d="M210 160l10-10"/><path fill="none" stroke="#000" stroke-width=".5" d="M220 150l10 10"/><path fill="none" stroke="#000" stroke-width=".5" d="M230 230l-10-10"/><path fill="none" stroke="#000" stroke-width=".5" d="M210 230l10-10"/><path fill="none" stroke="#000" stroke-width=".5" d="M230 220l-10 10"/><path fill="none" stroke="#000" stroke-width=".5" d="M220 230l-10-10"/><path fill="none" stroke="#000" stroke-width=".5" d="M190 170l10 10"/><path fill="none" stroke="#000" stroke-width=".5" d="M210 170l-10 10"/><path fill="none" stroke="#000" stroke-width=".5" d="M250 190l-10 10"/><path fill="none" stroke="#000" stroke-width=".5" d="M250 210l-10-10"/><path fill="none" stroke="#000" stroke-width=".5" d="M230 210l10-10"/><path fill="none" stroke="#000" stroke-width=".5" d="M240 190l10 10"/><path fill="none" stroke="#000" stroke-width=".5" d="M250 200l-10 10"/></g><g><path fill="#fff" fill-rule="evenodd" stroke="#000" d="M190 270v-40h-20v-20h20v-20h20v40h20v20h-20v20z" style="marker:none"/><path fill="none" stroke="#000" stroke-width=".5" d="M170 210l10 10"/><path fill="none" stroke="#000" stroke-width=".5" d="M180 220l-10 10"/><path fill="#4264f3" d="M193.5355264 216.4645549l-1.8280061 3.07800116 3.12210343 1.75163007-3.57962909-.04409518.04409518 3.57962909-1.75163007-3.12210342-3.07800117 1.82800608 1.82800609-3.07800117-3.12210342-1.75163007 3.57962908.04409518-.04409518-3.57962908 1.75163007 3.12210342z" style="marker:none"/><path fill="none" stroke="#000" stroke-width=".5" d="M210 210l-10 10"/><path fill="none" stroke="#000" stroke-width=".5" d="M200 220l-10 10"/><path fill="none" stroke="#000" stroke-width=".5" d="M200 220l10 10"/><path fill="#4264f3" d="M194 230a6 6 0 006 6 6 6 0 006-6 6 6 0 00-6-6 6 6 0 00-6 6zm1 0l3.36719-.67578-1.90235-2.85938 2.85938 1.90235L200 225l.67578 3.36719 2.85938-1.90235-1.90235 2.85938L205 230l-3.36719.67578 1.90235 2.85938-2.85938-1.90235L200 235l-.67578-3.36719-2.85938 1.90235 1.90235-2.85938z" style="marker:none"/><path fill="#4264f3" d="M206 210a6 6 0 00-6-6 6 6 0 00-6 6 6 6 0 006 6 6 6 0 006-6zm-1.16992 1.29492l-3.58008-.0449.0449 3.58008-1.75195-3.12305-3.07813 1.82813 1.82813-3.07813-3.12305-1.75195 3.58008.0449-.0449-3.58008 1.75195 3.12305 3.07813-1.82813-1.82813 3.07813z" style="marker:none"/><path fill="none" stroke="#000" stroke-width=".5" d="M190 250l10-10"/><path fill="none" stroke="#000" stroke-width=".5" d="M200 240l10-10"/><path fill="#14d2d2" d="M204 240a6 6 0 006 6 6 6 0 006-6 6 6 0 00-6-6 6 6 0 00-6 6zm2.46484 3.53516l1.82813-3.99219.41211-4.37305L211.25 238.75l3.58008 2.54492-4.37305.41211z" style="marker:none"/><path fill="#f01010" d="M196.4645441 253.53548965l1.76776695-3.5355339-1.76776696-3.5355339 3.5355339 1.76776695 3.53553391-1.76776696-1.76776695 3.5355339 1.76776695 3.53553391-3.5355339-1.76776695z" style="marker:none"/><path fill="none" stroke="#000" stroke-width=".5" d="M210 210l-10-10"/><path fill="none" stroke="#000" stroke-width=".5" d="M190 210l10-10"/><path fill="none" stroke="#000" stroke-width=".5" d="M190 190l10 10"/><path fill="none" stroke="#000" stroke-width=".5" d="M200 190l10 10"/><path fill="none" stroke="#000" stroke-width=".5" d="M190 200l10-10"/><path fill="none" stroke="#000" stroke-width=".5" d="M230 230l-10 10"/><path fill="none" stroke="#000" stroke-width=".5" d="M230 250l-10-10"/><path fill="none" stroke="#000" stroke-width=".5" d="M210 230l10 10"/><path fill="none" stroke="#000" stroke-width=".5" d="M230 240l-10 10"/><path fill="none" stroke="#000" stroke-width=".5" d="M210 270l-10-10"/><path fill="none" stroke="#000" stroke-width=".5" d="M190 270l10-10"/><path fill="none" stroke="#000" stroke-width=".5" d="M210 250l-10 10"/><path fill="none" stroke="#000" stroke-width=".5" d="M210 260l-10 10"/><path fill="none" stroke="#000" stroke-width=".5" d="M200 270l-10-10"/></g></svg>