<?xml version="1.0" encoding="UTF-8" standalone="no"?>
<!-- Created with Inkscape (http://www.inkscape.org/) -->

<svg
   xmlns:dc="http://purl.org/dc/elements/1.1/"
   xmlns:cc="http://creativecommons.org/ns#"
   xmlns:rdf="http://www.w3.org/1999/02/22-rdf-syntax-ns#"
   xmlns:svg="http://www.w3.org/2000/svg"
   xmlns="http://www.w3.org/2000/svg"
   xmlns:xlink="http://www.w3.org/1999/xlink"
   xmlns:sodipodi="http://sodipodi.sourceforge.net/DTD/sodipodi-0.dtd"
   xmlns:inkscape="http://www.inkscape.org/namespaces/inkscape"
   width="297.59573"
   height="70.63446"
   viewBox="0 0 297.59573 70.634461"
   version="1.1"
   id="main-svg"
   inkscape:export-filename="D:\c\Qoph\DataFiles\Objectionable Ranking\Graphics\Are you Taller than a Skyscraper.png"
   inkscape:version="0.92.3 (2405546, 2018-03-11)"
   sodipodi:docname="Are you Taller than a Skyscraper.svg"
   inkscape:export-xdpi="600"
   inkscape:export-ydpi="600">
  <metadata
     id="metadata7">
    <rdf:RDF>
      <cc:Work
         rdf:about="">
        <dc:format>image/svg+xml</dc:format>
        <dc:type
           rdf:resource="http://purl.org/dc/dcmitype/StillImage" />
        <dc:title></dc:title>
      </cc:Work>
    </rdf:RDF>
  </metadata>
  <defs
     id="defs5">
    <linearGradient
       id="linearGradient4667"
       inkscape:collect="always">
      <stop
         id="stop4663"
         offset="0"
         style="stop-color:#004889;stop-opacity:1" />
      <stop
         id="stop4665"
         offset="1"
         style="stop-color:#36b1ff;stop-opacity:1" />
    </linearGradient>
    <linearGradient
       id="linearGradient4641"
       inkscape:collect="always">
      <stop
         id="stop4637"
         offset="0"
         style="stop-color:#007300;stop-opacity:1" />
      <stop
         id="stop4639"
         offset="1"
         style="stop-color:#00b00d;stop-opacity:1" />
    </linearGradient>
    <linearGradient
       id="linearGradient4635"
       inkscape:collect="always">
      <stop
         id="stop4631"
         offset="0"
         style="stop-color:#007300;stop-opacity:1" />
      <stop
         id="stop4633"
         offset="1"
         style="stop-color:#00b00d;stop-opacity:1" />
    </linearGradient>
    <linearGradient
       inkscape:collect="always"
       id="linearGradient4623">
      <stop
         style="stop-color:#007300;stop-opacity:1"
         offset="0"
         id="stop4619" />
      <stop
         style="stop-color:#00b00d;stop-opacity:1"
         offset="1"
         id="stop4621" />
    </linearGradient>
    <linearGradient
       inkscape:collect="always"
       xlink:href="#linearGradient4623"
       id="linearGradient4625"
       x1="44.741226"
       y1="64.091835"
       x2="44.741226"
       y2="43.88879"
       gradientUnits="userSpaceOnUse"
       gradientTransform="translate(-6.5000113,-7.5581297)" />
    <linearGradient
       inkscape:collect="always"
       xlink:href="#linearGradient4635"
       id="linearGradient4627"
       x1="149.55118"
       y1="41.785366"
       x2="149.55118"
       y2="18.349829"
       gradientUnits="userSpaceOnUse"
       gradientTransform="translate(-6.5000113,-7.5581297)" />
    <linearGradient
       inkscape:collect="always"
       xlink:href="#linearGradient4641"
       id="linearGradient4629"
       x1="109.21182"
       y1="33.941429"
       x2="109.21182"
       y2="13.738379"
       gradientUnits="userSpaceOnUse"
       gradientTransform="translate(-6.5000113,-7.5581297)" />
    <linearGradient
       inkscape:collect="always"
       xlink:href="#linearGradient4667"
       id="linearGradient4661"
       x1="154.97974"
       y1="78.957268"
       x2="154.97974"
       y2="8.2465887"
       gradientUnits="userSpaceOnUse" />
    <clipPath
       clipPathUnits="userSpaceOnUse"
       id="clipPath4683">
      <path
         id="path4685"
         style="font-style:normal;font-variant:normal;font-weight:normal;font-stretch:normal;font-size:medium;line-height:100%;font-family:Shag;-inkscape-font-specification:Shag;font-variant-ligatures:normal;font-variant-position:normal;font-variant-caps:normal;font-variant-numeric:normal;font-variant-alternates:normal;font-feature-settings:normal;text-indent:0;text-align:start;text-decoration:none;text-decoration-line:none;text-decoration-style:solid;text-decoration-color:#000000;letter-spacing:0px;word-spacing:0px;text-transform:none;writing-mode:lr-tb;direction:ltr;text-orientation:mixed;dominant-baseline:auto;baseline-shift:baseline;text-anchor:start;white-space:normal;shape-padding:0;fill:none;fill-opacity:1;stroke:#000900;stroke-width:5;stroke-linecap:butt;stroke-linejoin:round;stroke-miterlimit:4;stroke-dasharray:none;stroke-dashoffset:0;stroke-opacity:1;paint-order:stroke fill markers"
         d="m 277.74958,49.005052 c -0.56827,-7.996393 4.54617,-12.055475 11.5278,-12.055475 6.04803,0 11.56838,3.490811 11.56838,9.37648 0,5.114444 -3.32845,8.442892 -9.49825,9.214118 0,0 0,0.690044 0.0406,1.907768 0,0 -2.71959,0 -6.12922,0.08118 0,0 0.12178,-2.394859 0.16237,-5.682715 5.64212,-0.121773 9.41707,-1.623633 9.41707,-5.560944 0,-2.678994 -2.35427,-4.383809 -5.47976,-4.383809 -3.61259,0 -5.88567,2.557222 -5.84508,6.656896 0,0 -1.38009,0.162363 -5.7639,0.446499 z m 6.53512,13.80088 c 0,-2.273086 1.98895,-3.734356 4.26204,-3.734356 2.15131,0 4.09967,1.420679 4.09967,3.734356 0,2.313678 -1.90777,3.856129 -4.22144,3.856129 -2.35427,0 -4.14027,-1.542451 -4.14027,-3.856129 z m -8.28433,-11.32484 c -4.54617,0.162363 -6.69749,1.704815 -6.73808,7.752848 -0.0406,3.125493 0,7.265758 0,7.265758 -2.07013,0.121772 -5.23621,0.162363 -5.23621,0.162363 -0.0406,-7.468712 -0.40591,-20.417185 -0.40591,-20.417185 1.86718,0 4.74912,0.08118 4.74912,0.08118 -0.12177,1.745406 -0.24354,3.734356 -0.24354,3.734356 1.62363,-2.273086 4.34322,-3.571992 7.75285,-3.612583 0.0406,2.029541 0.12177,5.033262 0.12177,5.033263 z m -24.64117,-5.88567 c 5.96685,0 10.06653,4.38381 10.06653,10.350661 0,0.568271 -0.0406,1.136543 -0.12178,1.704815 -8.60525,0.202954 -14.36915,0.568271 -14.36915,0.568271 0.0812,2.597813 2.31368,4.464991 4.91149,4.464991 2.35427,0 3.85613,-1.298906 4.66795,-3.206675 0,0 1.90777,0.243545 5.11444,0.568271 -1.17713,4.140265 -4.95208,6.900441 -9.66062,6.900441 -6.45394,0 -10.71597,-3.856129 -10.71597,-10.188298 0,-6.616304 4.22144,-11.162477 10.10711,-11.162477 z m -4.8709,8.645846 c 0,0 5.7639,0.04059 9.62003,-0.08118 -0.24355,-2.557222 -2.2325,-4.4244 -4.62736,-4.4244 -2.92254,0 -4.54617,2.354267 -4.99267,4.50558 z M 219.74211,45.96074 c 0,0 1.86718,0.08118 4.83031,0.121772 l -0.0812,2.191905 c 1.46127,-1.217725 3.61258,-2.029541 5.80449,-2.029541 5.39858,0 9.05177,4.4244 9.05177,10.594205 0,6.210396 -3.49083,10.188297 -8.84882,10.188297 -2.35427,0 -4.4244,-0.730635 -5.60153,-1.664224 0,0 0.0406,3.450221 0.16236,9.214118 0,0 -2.59781,-0.08118 -5.52035,-0.08118 0,0 0.16236,-15.383923 0.20295,-28.53535 z m 4.83031,10.634796 c 0,3.653174 1.786,6.048033 4.8709,6.048033 2.76019,0 4.4244,-2.719585 4.4244,-5.763897 0,-3.409629 -1.82659,-6.169806 -4.62736,-6.169806 -3.0849,0 -4.66794,2.43545 -4.66794,5.88567 z M 198.99831,52.86118 c 0.97417,-3.977901 4.05908,-6.859849 8.88939,-6.859849 5.31739,0 8.92998,3.084902 9.05175,9.417071 0.0812,4.546173 0.12177,10.431842 0.12177,10.431842 0,0 -2.23249,0.08118 -4.50558,0.08118 0,0 -0.0812,-1.014771 -0.20295,-1.98895 -1.86718,2.557222 -4.58677,3.328447 -6.57572,3.328447 -2.92254,0 -6.90044,-1.50186 -6.90044,-5.966851 0,-5.439171 7.18458,-7.225167 12.70493,-7.225167 -0.20295,-2.029541 -1.09595,-3.693765 -3.57199,-3.693765 -1.98895,0 -3.32845,1.339497 -3.85613,3.166084 0,0 -2.2325,-0.365317 -5.15503,-0.690044 z m 13.11083,4.546173 c -0.40591,-0.04059 -0.77122,-0.04059 -1.17713,-0.04059 -3.61259,0 -6.53513,1.623633 -6.53513,3.612583 0,1.501861 1.3395,2.110723 2.43545,2.110723 2.27309,0 5.27681,-2.070132 5.27681,-5.682716 z M 197.5142,51.481092 c -4.54617,0.162363 -6.69748,1.704815 -6.73807,7.752848 -0.0406,3.125493 0,7.265758 0,7.265758 -2.07014,0.121772 -5.23622,0.162363 -5.23622,0.162363 -0.0406,-7.468712 -0.40591,-20.417185 -0.40591,-20.417185 1.86718,0 4.74913,0.08118 4.74913,0.08118 -0.12177,1.745406 -0.24355,3.734356 -0.24355,3.734356 1.62364,-2.273086 4.34322,-3.571992 7.75285,-3.612583 0.0406,2.029541 0.12177,5.033262 0.12177,5.033263 z M 173.14195,45.96074 c 4.58676,0 8.23994,2.678994 9.37648,7.671666 0,0 -1.86718,0 -5.56094,0.08118 -0.36532,-1.867178 -1.62364,-3.490811 -3.61259,-3.490811 -2.67899,0 -4.34321,3.044311 -4.34321,6.494532 0,3.693765 2.1919,5.804488 4.74912,5.804488 1.62363,0 3.28786,-1.055362 3.85613,-3.369039 0,0 2.47604,0.162363 5.72331,0.284136 -0.85241,4.789717 -4.70854,7.590484 -9.57944,7.590484 -6.41335,0 -10.35066,-4.343218 -10.35066,-10.066524 0,-6.941032 4.66795,-11.000114 9.7418,-11.000114 z m -10.93226,7.225167 c 0,0 -2.2325,0.284136 -4.83031,0.527681 -0.48709,-2.719586 -2.84136,-3.89672 -4.95208,-3.89672 -1.82659,0 -3.49081,0.892998 -3.57199,2.43545 0,2.47604 4.14026,2.47604 7.63107,3.45022 2.59782,0.730635 4.99267,2.029541 4.99267,5.276807 0,4.059083 -3.93731,6.169806 -8.11816,6.169806 -4.38381,0 -9.01116,-2.313677 -9.66062,-7.103395 0,0 1.58305,-0.04059 5.03327,-0.243545 0.52768,2.110723 2.80076,3.125494 4.62735,3.125494 1.46127,0 2.6384,-0.608862 2.6384,-1.745406 0,-2.151313 -4.38381,-2.151313 -7.9558,-3.369038 -2.43545,-0.852407 -4.50558,-2.273086 -4.50558,-5.39858 0,-4.627354 4.18086,-6.981622 8.60526,-6.981622 4.62735,0 9.53884,2.597813 10.06652,7.752848 z m -39.18537,-6.575714 c 0,0 2.31368,-0.771226 5.39858,-1.623633 0,0 2.15132,8.686437 4.62736,17.454055 0,0 2.31367,-8.118165 4.50558,-16.195739 0,0 2.27308,0.649453 5.2768,1.380088 -7.18457,21.513137 -8.36171,27.317625 -15.26215,27.317625 -1.70481,0 -3.12549,-0.48709 -4.05908,-0.97418 0,0 0.40591,-2.273086 0.77123,-4.789717 1.05536,0.365317 2.11072,0.608862 3.00372,0.608862 1.3395,0 2.39486,-0.487089 2.84136,-1.745405 0,0 -3.45022,-10.391251 -7.1034,-21.431956 z m -12.51909,-9.660616 c 0,0 -0.0812,7.225166 -0.16236,17.454055 0,0 3.32844,-3.40963 8.19934,-8.686437 0,0 1.66423,1.745405 3.69377,3.856128 0,0 -3.28786,3.166085 -6.04803,5.845079 0,0 2.35426,2.96313 6.77866,8.564664 0,0 -1.94835,1.177134 -4.62735,3.044312 0,0 -2.80077,-3.977901 -6.33217,-8.686436 0,0 -0.73063,0.892998 -1.66422,2.029541 0,0 -0.0812,2.96313 -0.12178,6.859849 0,0 -2.59781,0 -5.15503,0.08118 0,0 -0.0406,-13.354382 -0.20295,-30.402528 z m -7.98244,12.745519 c -2.27309,-0.202954 -4.992674,-0.568272 -4.992674,-0.568272 0.690044,-4.789717 -2.151314,-7.38753 -6.250987,-7.38753 -3.369039,0 -5.479762,2.47604 -5.479762,4.830308 0,4.302628 5.520352,4.667945 10.107116,6.088624 3.287857,1.014771 6.048037,2.638404 6.048037,6.656895 0,4.099674 -2.881953,7.915211 -10.310074,7.915211 -5.601534,0 -10.79716,-2.922539 -10.918932,-9.295299 2.638404,0 5.560943,-0.04059 5.560943,-0.04059 0.202954,2.760176 2.354268,5.033262 5.723306,5.033262 2.881949,0 4.180855,-1.542451 4.180855,-3.247266 0,-3.328448 -5.560943,-3.369039 -10.188297,-5.195626 -3.247266,-1.298906 -6.048033,-3.45022 -6.048033,-8.280528 0,-5.195626 4.018492,-9.051754 10.715978,-9.051754 7.590485,0 13.354384,4.302627 11.852524,12.542565 z M 267.4972,26.237621 c -5.02356,0.179413 -7.40077,1.883834 -7.44564,8.56696 -0.0449,3.453695 0,8.028722 0,8.028722 -2.2875,0.134559 -5.78605,0.179412 -5.78605,0.179412 -0.0449,-8.252987 -0.44853,-22.561156 -0.44853,-22.561156 2.06325,0 5.24782,0.08971 5.24782,0.08971 -0.13456,1.928687 -0.26911,4.126494 -0.26911,4.126494 1.79412,-2.511779 4.79928,-3.947081 8.56695,-3.991934 0.0449,2.242659 0.13456,5.561796 0.13456,5.561796 z m -27.2287,-6.503713 c 6.59343,0 11.1236,4.844145 11.1236,11.437564 0,0.627945 -0.0449,1.255889 -0.13456,1.883834 -9.50888,0.224266 -15.87803,0.627945 -15.87803,0.627945 0.0897,2.870605 2.55663,4.933851 5.42724,4.933851 2.60148,0 4.26105,-1.435303 5.15811,-3.543402 0,0 2.10811,0.269119 5.65151,0.627944 -1.30075,4.575026 -5.4721,7.625043 -10.67506,7.625043 -7.13166,0 -11.84124,-4.261052 -11.84124,-11.258151 0,-7.311071 4.66472,-12.334628 11.16843,-12.334628 z m -5.38237,9.55373 c 0,0 6.36915,0.04485 10.6302,-0.08971 -0.26911,-2.825751 -2.46692,-4.888998 -5.11326,-4.888998 -3.22944,0 -5.02356,2.601485 -5.51694,4.978704 z m -14.8352,-18.165543 c 3.27429,0 6.18974,0.179413 6.18974,0.179413 -0.13456,13.680223 -0.26911,31.397234 -0.26911,31.397234 -3.18458,0 -5.78607,0.0897 -5.78607,0.0897 0,-8.387547 -0.13456,-31.666354 -0.13456,-31.666354 z m -9.81164,0 c 3.27429,0 6.18975,0.179413 6.18975,0.179413 -0.13456,13.680223 -0.26912,31.397234 -0.26912,31.397234 -3.18458,0 -5.78606,0.0897 -5.78606,0.0897 0,-8.387547 -0.13457,-31.666354 -0.13457,-31.666354 z m -23.01178,16.640534 c 1.07648,-4.395613 4.48532,-7.580189 9.82286,-7.580189 5.87574,0 9.86769,3.408842 10.00226,10.405941 0.0897,5.023557 0.13456,11.52727 0.13456,11.52727 0,0 -2.46691,0.0897 -4.9787,0.0897 0,0 -0.0897,-1.12133 -0.22426,-2.197806 -2.06324,2.825751 -5.06841,3.677961 -7.26622,3.677961 -3.22943,0 -7.62505,-1.659568 -7.62505,-6.593419 0,-6.010328 7.93902,-7.983869 14.03906,-7.983869 -0.22429,-2.242659 -1.21103,-4.08164 -3.94708,-4.08164 -2.19781,0 -3.67797,1.480155 -4.26105,3.498549 0,0 -2.46693,-0.403679 -5.69636,-0.762504 z m 14.48757,5.023558 c -0.44852,-0.04485 -0.85219,-0.04485 -1.30073,-0.04485 -3.99194,0 -7.22137,1.794127 -7.22137,3.991934 0,1.659568 1.48016,2.332367 2.69119,2.332367 2.51179,0 5.83091,-2.287514 5.83091,-6.279448 z M 168.73047,11.525773 c 11.21329,-0.358825 22.11263,-0.717651 22.11263,-0.717651 -0.0897,3.722815 -0.0449,6.279448 -0.0449,6.279448 -3.00516,-0.08971 -7.80445,-0.13456 -7.80445,-0.13456 -0.22427,12.78316 -0.31397,26.373677 -0.31397,26.373677 -2.42208,0 -6.2346,-0.134559 -6.2346,-0.134559 0.31397,-13.90449 0.58309,-25.70088 0.58309,-25.70088 -2.55663,0 -8.4324,0.224266 -8.4324,0.224266 0.0448,-2.018394 0.13456,-6.189741 0.13456,-6.189741 z"
         inkscape:connector-curvature="0" />
    </clipPath>
  </defs>
  <sodipodi:namedview
     id="base"
     pagecolor="#3ab1fd"
     bordercolor="#666666"
     borderopacity="1.0"
     inkscape:pageopacity="0"
     inkscape:pageshadow="2"
     inkscape:zoom="22.493058"
     inkscape:cx="-10.346806"
     inkscape:cy="30.030603"
     inkscape:document-units="px"
     showgrid="true"
     units="px"
     inkscape:current-layer="main-svg"
     inkscape:snap-global="false"
     fit-margin-top="1"
     fit-margin-left="1"
     fit-margin-right="1"
     fit-margin-bottom="1" />
  <path
     d="m 271.24957,41.446922 c -0.56827,-7.996393 4.54617,-12.055475 11.5278,-12.055475 6.04803,0 11.56838,3.490811 11.56838,9.37648 0,5.114444 -3.32845,8.442892 -9.49825,9.214118 0,0 0,0.690044 0.0406,1.907768 0,0 -2.71959,0 -6.12922,0.08118 0,0 0.12178,-2.394859 0.16237,-5.682715 5.64212,-0.121773 9.41707,-1.623633 9.41707,-5.560944 0,-2.678994 -2.35427,-4.383809 -5.47976,-4.383809 -3.61259,0 -5.88567,2.557222 -5.84508,6.656896 0,0 -1.38009,0.162363 -5.7639,0.446499 z m 6.53512,13.80088 c 0,-2.273086 1.98895,-3.734356 4.26204,-3.734356 2.15131,0 4.09967,1.420679 4.09967,3.734356 0,2.313678 -1.90777,3.856129 -4.22144,3.856129 -2.35427,0 -4.14027,-1.542451 -4.14027,-3.856129 z m -8.28433,-11.32484 c -4.54617,0.162363 -6.69749,1.704815 -6.73808,7.752848 -0.0406,3.125493 0,7.265758 0,7.265758 -2.07013,0.121772 -5.23621,0.162363 -5.23621,0.162363 -0.0406,-7.468712 -0.40591,-20.417185 -0.40591,-20.417185 1.86718,0 4.74912,0.08118 4.74912,0.08118 -0.12177,1.745406 -0.24354,3.734356 -0.24354,3.734356 1.62363,-2.273086 4.34322,-3.571992 7.75285,-3.612583 0.0406,2.029541 0.12177,5.033262 0.12177,5.033263 z m -24.64117,-5.88567 c 5.96685,0 10.06653,4.38381 10.06653,10.350661 0,0.568271 -0.0406,1.136543 -0.12178,1.704815 -8.60525,0.202954 -14.36915,0.568271 -14.36915,0.568271 0.0812,2.597813 2.31368,4.464991 4.91149,4.464991 2.35427,0 3.85613,-1.298906 4.66795,-3.206675 0,0 1.90777,0.243545 5.11444,0.568271 -1.17713,4.140265 -4.95208,6.900441 -9.66062,6.900441 -6.45394,0 -10.71597,-3.856129 -10.71597,-10.188298 0,-6.616304 4.22144,-11.162477 10.10711,-11.162477 z m -4.8709,8.645846 c 0,0 5.7639,0.04059 9.62003,-0.08118 -0.24355,-2.557222 -2.2325,-4.4244 -4.62736,-4.4244 -2.92254,0 -4.54617,2.354267 -4.99267,4.50558 z M 213.2421,38.40261 c 0,0 1.86718,0.08118 4.83031,0.121772 l -0.0812,2.191905 c 1.46127,-1.217725 3.61258,-2.029541 5.80449,-2.029541 5.39858,0 9.05177,4.4244 9.05177,10.594205 0,6.210396 -3.49083,10.188297 -8.84882,10.188297 -2.35427,0 -4.4244,-0.730635 -5.60153,-1.664224 0,0 0.0406,3.450221 0.16236,9.214118 0,0 -2.59781,-0.08118 -5.52035,-0.08118 0,0 0.16236,-15.383923 0.20295,-28.53535 z m 4.83031,10.634796 c 0,3.653174 1.786,6.048033 4.8709,6.048033 2.76019,0 4.4244,-2.719585 4.4244,-5.763897 0,-3.409629 -1.82659,-6.169806 -4.62736,-6.169806 -3.0849,0 -4.66794,2.43545 -4.66794,5.88567 z M 192.4983,45.30305 c 0.97417,-3.977901 4.05908,-6.859849 8.88939,-6.859849 5.31739,0 8.92998,3.084902 9.05175,9.417071 0.0812,4.546173 0.12177,10.431842 0.12177,10.431842 0,0 -2.23249,0.08118 -4.50558,0.08118 0,0 -0.0812,-1.014771 -0.20295,-1.98895 -1.86718,2.557222 -4.58677,3.328447 -6.57572,3.328447 -2.92254,0 -6.90044,-1.50186 -6.90044,-5.966851 0,-5.439171 7.18458,-7.225167 12.70493,-7.225167 -0.20295,-2.029541 -1.09595,-3.693765 -3.57199,-3.693765 -1.98895,0 -3.32845,1.339497 -3.85613,3.166084 0,0 -2.2325,-0.365317 -5.15503,-0.690044 z m 13.11083,4.546173 c -0.40591,-0.04059 -0.77122,-0.04059 -1.17713,-0.04059 -3.61259,0 -6.53513,1.623633 -6.53513,3.612583 0,1.501861 1.3395,2.110723 2.43545,2.110723 2.27309,0 5.27681,-2.070132 5.27681,-5.682716 z m -14.59494,-5.926261 c -4.54617,0.162363 -6.69748,1.704815 -6.73807,7.752848 -0.0406,3.125493 0,7.265758 0,7.265758 -2.07014,0.121772 -5.23622,0.162363 -5.23622,0.162363 -0.0406,-7.468712 -0.40591,-20.417185 -0.40591,-20.417185 1.86718,0 4.74913,0.08118 4.74913,0.08118 -0.12177,1.745406 -0.24355,3.734356 -0.24355,3.734356 1.62364,-2.273086 4.34322,-3.571992 7.75285,-3.612583 0.0406,2.029541 0.12177,5.033262 0.12177,5.033263 z M 166.64194,38.40261 c 4.58676,0 8.23994,2.678994 9.37648,7.671666 0,0 -1.86718,0 -5.56094,0.08118 -0.36532,-1.867178 -1.62364,-3.490811 -3.61259,-3.490811 -2.67899,0 -4.34321,3.044311 -4.34321,6.494532 0,3.693765 2.1919,5.804488 4.74912,5.804488 1.62363,0 3.28786,-1.055362 3.85613,-3.369039 0,0 2.47604,0.162363 5.72331,0.284136 -0.85241,4.789717 -4.70854,7.590484 -9.57944,7.590484 -6.41335,0 -10.35066,-4.343218 -10.35066,-10.066524 0,-6.941032 4.66795,-11.000114 9.7418,-11.000114 z m -10.93226,7.225167 c 0,0 -2.2325,0.284136 -4.83031,0.527681 -0.48709,-2.719586 -2.84136,-3.89672 -4.95208,-3.89672 -1.82659,0 -3.49081,0.892998 -3.57199,2.43545 0,2.47604 4.14026,2.47604 7.63107,3.45022 2.59782,0.730635 4.99267,2.029541 4.99267,5.276807 0,4.059083 -3.93731,6.169806 -8.11816,6.169806 -4.38381,0 -9.01116,-2.313677 -9.66062,-7.103395 0,0 1.58305,-0.04059 5.03327,-0.243545 0.52768,2.110723 2.80076,3.125494 4.62735,3.125494 1.46127,0 2.6384,-0.608862 2.6384,-1.745406 0,-2.151313 -4.38381,-2.151313 -7.9558,-3.369038 -2.43545,-0.852407 -4.50558,-2.273086 -4.50558,-5.39858 0,-4.627354 4.18086,-6.981622 8.60526,-6.981622 4.62735,0 9.53884,2.597813 10.06652,7.752848 z m -39.18537,-6.575714 c 0,0 2.31368,-0.771226 5.39858,-1.623633 0,0 2.15132,8.686437 4.62736,17.454055 0,0 2.31367,-8.118165 4.50558,-16.195739 0,0 2.27308,0.649453 5.2768,1.380088 -7.18457,21.513137 -8.36171,27.317625 -15.26215,27.317625 -1.70481,0 -3.12549,-0.48709 -4.05908,-0.97418 0,0 0.40591,-2.273086 0.77123,-4.789717 1.05536,0.365317 2.11072,0.608862 3.00372,0.608862 1.3395,0 2.39486,-0.487089 2.84136,-1.745405 0,0 -3.45022,-10.391251 -7.1034,-21.431956 z m -12.51909,-9.660616 c 0,0 -0.0812,7.225166 -0.16236,17.454055 0,0 3.32844,-3.40963 8.19934,-8.686437 0,0 1.66423,1.745405 3.69377,3.856128 0,0 -3.28786,3.166085 -6.04803,5.845079 0,0 2.35426,2.96313 6.77866,8.564664 0,0 -1.94835,1.177134 -4.62735,3.044312 0,0 -2.80077,-3.977901 -6.33217,-8.686436 0,0 -0.73063,0.892998 -1.66422,2.029541 0,0 -0.0812,2.96313 -0.12178,6.859849 0,0 -2.59781,0 -5.155031,0.08118 0,0 -0.0406,-13.354382 -0.20295,-30.402528 z m -7.982441,12.745519 c -2.27309,-0.202954 -4.992674,-0.568272 -4.992674,-0.568272 0.690044,-4.789717 -2.151314,-7.38753 -6.250987,-7.38753 -3.369039,0 -5.479762,2.47604 -5.479762,4.830308 0,4.302628 5.520352,4.667945 10.107116,6.088624 3.287857,1.014771 6.048037,2.638404 6.048037,6.656895 0,4.099674 -2.881953,7.915211 -10.310074,7.915211 -5.601534,0 -10.79716,-2.922539 -10.918932,-9.295299 2.638404,0 5.560943,-0.04059 5.560943,-0.04059 0.202954,2.760176 2.354268,5.033262 5.723306,5.033262 2.881949,0 4.180855,-1.542451 4.180855,-3.247266 0,-3.328448 -5.560943,-3.369039 -10.188297,-5.195626 -3.247266,-1.298906 -6.048033,-3.45022 -6.048033,-8.280528 0,-5.195626 4.018492,-9.051754 10.715978,-9.051754 7.590485,0 13.354384,4.302627 11.852524,12.542565 z M 260.99719,18.679491 c -5.02356,0.179413 -7.40077,1.883834 -7.44564,8.56696 -0.0449,3.453695 0,8.028722 0,8.028722 -2.2875,0.134559 -5.78605,0.179412 -5.78605,0.179412 -0.0449,-8.252987 -0.44853,-22.561156 -0.44853,-22.561156 2.06325,0 5.24782,0.08971 5.24782,0.08971 -0.13456,1.928687 -0.26911,4.126494 -0.26911,4.126494 1.79412,-2.511779 4.79928,-3.947081 8.56695,-3.991934 0.0449,2.242659 0.13456,5.561796 0.13456,5.561796 z m -27.2287,-6.503713 c 6.59343,0 11.1236,4.844145 11.1236,11.437564 0,0.627945 -0.0449,1.255889 -0.13456,1.883834 -9.50888,0.224266 -15.87803,0.627945 -15.87803,0.627945 0.0897,2.870605 2.55663,4.933851 5.42724,4.933851 2.60148,0 4.26105,-1.435303 5.15811,-3.543402 0,0 2.10811,0.269119 5.65151,0.627944 -1.30075,4.575026 -5.4721,7.625043 -10.67506,7.625043 -7.13166,0 -11.84124,-4.261052 -11.84124,-11.258151 0,-7.311071 4.66472,-12.334628 11.16843,-12.334628 z m -5.38237,9.55373 c 0,0 6.36915,0.04485 10.6302,-0.08971 -0.26911,-2.825751 -2.46692,-4.888998 -5.11326,-4.888998 -3.22944,0 -5.02356,2.601485 -5.51694,4.978704 z M 213.55092,3.5639653 c 3.27429,0 6.18974,0.179413 6.18974,0.179413 -0.13456,13.6802227 -0.26911,31.3972337 -0.26911,31.3972337 -3.18458,0 -5.78607,0.0897 -5.78607,0.0897 0,-8.387547 -0.13456,-31.6663537 -0.13456,-31.6663537 z m -9.81164,0 c 3.27429,0 6.18975,0.179413 6.18975,0.179413 -0.13456,13.6802227 -0.26912,31.3972337 -0.26912,31.3972337 -3.18458,0 -5.78606,0.0897 -5.78606,0.0897 0,-8.387547 -0.13457,-31.6663537 -0.13457,-31.6663537 z M 180.7275,20.204499 c 1.07648,-4.395613 4.48532,-7.580189 9.82286,-7.580189 5.87574,0 9.86769,3.408842 10.00226,10.405941 0.0897,5.023557 0.13456,11.52727 0.13456,11.52727 0,0 -2.46691,0.0897 -4.9787,0.0897 0,0 -0.0897,-1.12133 -0.22426,-2.197806 -2.06324,2.825751 -5.06841,3.677961 -7.26622,3.677961 -3.22943,0 -7.62505,-1.659568 -7.62505,-6.593419 0,-6.010328 7.93902,-7.983869 14.03906,-7.983869 -0.22429,-2.242659 -1.21103,-4.08164 -3.94708,-4.08164 -2.19781,0 -3.67797,1.480155 -4.26105,3.498549 0,0 -2.46693,-0.403679 -5.69636,-0.762504 z m 14.48757,5.023558 c -0.44852,-0.04485 -0.85219,-0.04485 -1.30073,-0.04485 -3.99194,0 -7.22137,1.794127 -7.22137,3.991934 0,1.659568 1.48016,2.332367 2.69119,2.332367 2.51179,0 5.83091,-2.287514 5.83091,-6.279448 z M 162.23046,3.9676433 c 11.21329,-0.358825 22.11263,-0.717651 22.11263,-0.717651 -0.0897,3.722815 -0.0449,6.279448 -0.0449,6.279448 -3.00516,-0.08971 -7.80445,-0.13456 -7.80445,-0.13456 -0.22427,12.7831597 -0.31397,26.3736767 -0.31397,26.3736767 -2.42208,0 -6.2346,-0.134559 -6.2346,-0.134559 0.31397,-13.90449 0.58309,-25.7008797 0.58309,-25.7008797 -2.55663,0 -8.4324,0.2242657 -8.4324,0.2242657 0.0448,-2.0183937 0.13456,-6.1897407 0.13456,-6.1897407 z"
     style="font-style:normal;font-variant:normal;font-weight:normal;font-stretch:normal;font-size:medium;line-height:100%;font-family:Shag;-inkscape-font-specification:Shag;font-variant-ligatures:normal;font-variant-position:normal;font-variant-caps:normal;font-variant-numeric:normal;font-variant-alternates:normal;font-feature-settings:normal;text-indent:0;text-align:start;text-decoration:none;text-decoration-line:none;text-decoration-style:solid;text-decoration-color:#000000;letter-spacing:0px;word-spacing:0px;text-transform:none;writing-mode:lr-tb;direction:ltr;text-orientation:mixed;dominant-baseline:auto;baseline-shift:baseline;text-anchor:start;white-space:normal;shape-padding:0;fill:none;fill-opacity:1;stroke:#000900;stroke-width:4.5;stroke-linecap:butt;stroke-linejoin:round;stroke-miterlimit:4;stroke-dasharray:none;stroke-dashoffset:0;stroke-opacity:1;paint-order:stroke fill markers"
     id="path4679"
     inkscape:connector-curvature="0" />
  <path
     id="path4533"
     style="font-style:normal;font-variant:normal;font-weight:normal;font-stretch:normal;font-size:medium;line-height:100%;font-family:Shag;-inkscape-font-specification:Shag;font-variant-ligatures:normal;font-variant-position:normal;font-variant-caps:normal;font-variant-numeric:normal;font-variant-alternates:normal;font-feature-settings:normal;text-indent:0;text-align:start;text-decoration:none;text-decoration-line:none;text-decoration-style:solid;text-decoration-color:#000000;letter-spacing:0px;word-spacing:0px;text-transform:none;writing-mode:lr-tb;direction:ltr;text-orientation:mixed;dominant-baseline:auto;baseline-shift:baseline;text-anchor:start;white-space:normal;shape-padding:0;fill:url(#linearGradient4629);fill-opacity:1;stroke:#003200;stroke-width:5;stroke-linecap:butt;stroke-linejoin:round;stroke-miterlimit:4;stroke-dasharray:none;stroke-dashoffset:0;stroke-opacity:0.98857141;paint-order:stroke fill markers"
     d="m 111.18601,11.629712 c 3.528,0 5.952,2.592 5.952,6.12 0,0.336 -0.024,0.672 -0.072,1.008 -5.088,0.12 -8.496,0.336 -8.496,0.336 0.048,1.536 1.368,2.64 2.904,2.64 1.392,0 2.28,-0.768 2.76,-1.896 0,0 1.128,0.144 3.024,0.336 -0.696,2.448 -2.928,4.08 -5.712,4.08 -3.816,0 -6.336,-2.28 -6.336,-6.024 0,-3.912 2.496,-6.6 5.976,-6.6 z m -2.88,5.112 c 0,0 3.408,0.024 5.688,-0.048 -0.144,-1.512 -1.32,-2.616 -2.736,-2.616 -1.728,0 -2.688,1.392 -2.952,2.664 z m -3.75582,-1.632 c -2.688,0.096 -3.96,1.008 -3.984,4.584 -0.024,1.848 0,4.296 0,4.296 -1.224001,0.072 -3.096001,0.096 -3.096001,0.096 -0.024,-4.416 -0.24,-12.072 -0.24,-12.072 1.104,0 2.808001,0.048 2.808001,0.048 -0.072,1.032 -0.144001,2.208 -0.144001,2.208 0.960001,-1.344 2.568001,-2.112 4.584001,-2.136 0.024,1.2 0.072,2.976 0.072,2.976 z m -18.274687,-4.8 c -0.552,-0.048 -3.12,0 -3.12,0 0.024,-1.7279997 0,-3.2399997 0,-3.2399997 5.592,0.168 12.696006,0.36 12.696006,0.36 -0.048,1.104 -0.048,2.9519997 -0.048,2.9519997 -1.296,-0.072 -3.288003,-0.096 -3.288003,-0.096 1.584003,5.112 3.720003,12.984 3.720003,12.984 -1.152,0.336 -2.712,0.672 -2.712,0.672 -0.312002,-1.056 -0.984003,-3.048 -0.984003,-3.048 -2.640003,0.096 -5.712003,0.12 -5.712003,0.12 -0.336,1.224 -0.96,3.672 -0.96,3.672 -1.584,-0.384 -3.216,-0.768 -3.216,-0.768 1.848,-6.6 3.624,-13.608 3.624,-13.608 z m 3.12,-0.264 c -0.192,-0.024 -0.336,0 -0.336,0 -0.96,3.504 -2.064,8.304 -2.064,8.304 1.824,-0.024 4.392,-0.096 4.392,-0.096 -0.696,-3.528 -1.992,-8.208 -1.992,-8.208 z"
     inkscape:connector-curvature="0" />
  <path
     id="path4539"
     style="font-style:normal;font-variant:normal;font-weight:normal;font-stretch:normal;font-size:medium;line-height:100%;font-family:Shag;-inkscape-font-specification:Shag;font-variant-ligatures:normal;font-variant-position:normal;font-variant-caps:normal;font-variant-numeric:normal;font-variant-alternates:normal;font-feature-settings:normal;text-indent:0;text-align:start;text-decoration:none;text-decoration-line:none;text-decoration-style:solid;text-decoration-color:#000000;letter-spacing:0px;word-spacing:0px;text-transform:none;writing-mode:lr-tb;direction:ltr;text-orientation:mixed;dominant-baseline:auto;baseline-shift:baseline;text-anchor:start;white-space:normal;shape-padding:0;fill:url(#linearGradient4627);fill-opacity:1;stroke:#003200;stroke-width:5;stroke-linecap:butt;stroke-linejoin:round;stroke-miterlimit:4;stroke-dasharray:none;stroke-dashoffset:0;stroke-opacity:0.98857141;paint-order:stroke fill markers"
     d="m 157.49386,17.945895 c 0,0 1.056,0 3.12,-0.096 0.096,6 0.216,11.064 0.216,11.064 -0.984,0.072 -2.664,0.144 -2.664,0.144 -0.024,-0.768 -0.072,-1.512 -0.072,-1.512 -0.672,0.984 -2.016,1.656 -3.312,1.656 -3.72,0 -4.704,-2.904 -4.704,-6.576 0,-1.704 0.192,-3.624 0.432,-5.64 1.56,0.12 3.216,0.216 3.216,0.216 -0.24,1.728 -0.504,3.696 -0.504,5.4 0,2.256 0.456,4.008 2.04,4.008 1.248,-0.024 2.16,-1.152 2.256,-3.504 0.072,-1.776 -0.024,-5.16 -0.024,-5.16 z m -15.05663,-1.08 c 3.792,0 6.408,2.592 6.408,6.072 0,3.984 -2.352,6.6 -6.216,6.6 -4.176,0 -6.312,-2.784 -6.312,-6.072 0,-4.008 2.688,-6.6 6.12,-6.6 z m 0.12,2.52 c -1.896,0.048 -2.976,1.92 -2.976,3.888 0,1.968 1.032,3.696 2.952,3.696 1.896,0 3.048,-1.824 3.048,-3.696 0,-2.112 -1.176,-3.888 -3.024,-3.888 z m -17.97225,-1.944 c 0,0 1.368,-0.456 3.192,-0.96 0,0 1.272,5.136 2.736,10.32 0,0 1.368,-4.8 2.664,-9.576 0,0 1.344,0.384 3.12,0.816 -4.248,12.72 -4.944,16.152 -9.024,16.152 -1.008,0 -1.848,-0.288 -2.4,-0.576 0,0 0.24,-1.344 0.456,-2.832 0.624,0.216 1.248,0.36 1.776,0.36 0.792,0 1.416,-0.288 1.68,-1.032 0,0 -2.04,-6.144 -4.2,-12.672 z"
     inkscape:connector-curvature="0" />
  <path
     id="path4561"
     style="font-style:normal;font-variant:normal;font-weight:normal;font-stretch:normal;font-size:medium;line-height:100%;font-family:Shag;-inkscape-font-specification:Shag;font-variant-ligatures:normal;font-variant-position:normal;font-variant-caps:normal;font-variant-numeric:normal;font-variant-alternates:normal;font-feature-settings:normal;text-indent:0;text-align:start;text-decoration:none;text-decoration-line:none;text-decoration-style:solid;text-decoration-color:#000000;letter-spacing:0px;word-spacing:0px;text-transform:none;writing-mode:lr-tb;direction:ltr;text-orientation:mixed;dominant-baseline:auto;baseline-shift:baseline;text-anchor:start;white-space:normal;shape-padding:0;fill:url(#linearGradient4625);fill-opacity:1;stroke:#003200;stroke-width:5;stroke-linecap:butt;stroke-linejoin:round;stroke-miterlimit:4;stroke-dasharray:none;stroke-dashoffset:0;stroke-opacity:0.98857141;paint-order:stroke fill markers"
     d="m 55.845489,45.639998 c 0.576,-2.352 2.4,-4.056 5.256,-4.056 3.144,0 5.28,1.824 5.352,5.568 0.048,2.688 0.072,6.168 0.072,6.168 0,0 -1.32,0.048 -2.664,0.048 0,0 -0.048,-0.6 -0.12,-1.176 -1.104,1.512 -2.712,1.968 -3.888,1.968 -1.728,0 -4.08,-0.888 -4.08,-3.528 0,-3.216 4.248,-4.272 7.512,-4.272 -0.12,-1.2 -0.648,-2.184 -2.112,-2.184 -1.176,0 -1.968,0.792 -2.28,1.872 0,0 -1.32,-0.216 -3.048,-0.408 z m 7.752,2.688 c -0.24,-0.024 -0.456,-0.024 -0.696,-0.024 -2.136,0 -3.864,0.96 -3.864,2.136 0,0.888 0.792,1.248 1.44,1.248 1.344,0 3.12,-1.224 3.12,-3.36 z m -17.290125,4.752 c 0.096,-2.952 0.096,-4.128 0.048,-6.192 -0.048,-1.632 -0.624,-2.472 -1.752,-2.448 -1.8,0.048 -2.784,1.752 -2.832,3.936 -0.048,1.824 0,3.792 0.072,5.808 -1.248,-0.048 -2.16,-0.048 -3.12,-0.048 -0.072,-5.52 -0.264,-12.312 -0.264,-12.312 1.32,0.024 2.712,0.048 2.712,0.048 -0.048,0.864 -0.072,1.728 -0.072,1.728 0.888,-1.056 2.4,-1.872 3.888,-1.872 2.568,0 4.536,1.44 4.536,5.208 0,2.664 -0.096,6.192 -0.096,6.192 -1.416,0 -3.12,-0.048 -3.12,-0.048 z m -19.993125,-7.44 c 0.576,-2.352 2.4,-4.056 5.256,-4.056 3.144,0 5.28,1.824 5.352,5.568 0.048,2.688 0.072,6.168 0.072,6.168 0,0 -1.32,0.048 -2.664,0.048 0,0 -0.048,-0.6 -0.12,-1.176 -1.104,1.512 -2.712,1.968 -3.888,1.968 -1.728,0 -4.08,-0.888 -4.08,-3.528 0,-3.216 4.248,-4.272 7.512,-4.272 -0.12,-1.2 -0.648,-2.184 -2.112,-2.184 -1.176,0 -1.968,0.792 -2.28,1.872 0,0 -1.32,-0.216 -3.048,-0.408 z m 7.752,2.688 c -0.24,-0.024 -0.456,-0.024 -0.696,-0.024 -2.136,0 -3.864,0.96 -3.864,2.136 0,0.888 0.792,1.248 1.44,1.248 1.344,0 3.12,-1.224 3.12,-3.36 z m -16.7145,-12.024 c 0,0 -0.096,3.024 -0.144,6.72 0.888,-0.768 1.968,-1.296 3.36,-1.296 2.544,0 4.344,1.8 4.416,4.56 0.072,2.184 0.048,4.584 -0.072,6.72 0,0 -1.464,-0.024 -3.168,-0.12 0.096,-1.368 0.144,-2.352 0.144,-3.624 0,-1.944 0.12,-4.8 -1.872,-4.8 -1.896,0 -2.856,1.56 -2.856,5.832 0,1.056 0.048,2.544 0.096,3.72 0,0 -1.632,0.096 -3.168,0.144 0,-11.136 -0.05154,-12.124439 -0.12,-17.904 0,0 1.56,0.048 3.384,0.048 z m -12.1957503,2.592 c 0,0 1.104,0 3.288,-0.072 0,0 -0.048,0.912 -0.096,2.856 0,0 1.296,0.024 4.0320003,0.024 0,0 0,1.248 0.024,2.928 0,0 -1.872,-0.048 -4.1280003,-0.12 0,0 -0.072,2.856 -0.072,4.224 0,1.392 0.672,2.04 1.68,2.04 0.6000003,0 1.2960003,-0.216 2.0640003,-0.6 l 0.864,2.64 c -1.128,0.648 -2.352,1.008 -3.5040003,1.008 -2.304,0 -4.224,-1.44 -4.224,-4.896 0,-1.992 0.048,-4.32 0.048,-4.32 0,0 -0.672,-0.048 -1.632,-0.096 0,0 0.048,-1.032 0.072,-2.664 0,0 0.456,0.024 1.536,0.048 0,0 0.024,-0.72 0.048,-3 z"
     inkscape:connector-curvature="0"
     sodipodi:nodetypes="csccccsscscccsssccccccccccsscccsccccsscscccssscccscccsssccccccccccssccssccccc" />
  <path
     id="path4583"
     style="font-style:normal;font-variant:normal;font-weight:normal;font-stretch:normal;font-size:medium;line-height:100%;font-family:Shag;-inkscape-font-specification:Shag;font-variant-ligatures:normal;font-variant-position:normal;font-variant-caps:normal;font-variant-numeric:normal;font-variant-alternates:normal;font-feature-settings:normal;text-indent:0;text-align:start;text-decoration:none;text-decoration-line:none;text-decoration-style:solid;text-decoration-color:#000000;letter-spacing:0px;word-spacing:0px;text-transform:none;writing-mode:lr-tb;direction:ltr;text-orientation:mixed;dominant-baseline:auto;baseline-shift:baseline;text-anchor:start;white-space:normal;shape-padding:0;fill:url(#linearGradient4661);fill-opacity:1;stroke:#6fcbfc;stroke-width:1.5;stroke-linecap:butt;stroke-linejoin:round;stroke-miterlimit:4;stroke-dasharray:none;stroke-dashoffset:0;stroke-opacity:1;paint-order:normal"
     d="m 277.74958,49.005052 c -0.56827,-7.996393 4.54617,-12.055475 11.5278,-12.055475 6.04803,0 11.56838,3.490811 11.56838,9.37648 0,5.114444 -3.32845,8.442892 -9.49825,9.214118 0,0 0,0.690044 0.0406,1.907768 0,0 -2.71959,0 -6.12922,0.08118 0,0 0.12178,-2.394859 0.16237,-5.682715 5.64212,-0.121773 9.41707,-1.623633 9.41707,-5.560944 0,-2.678994 -2.35427,-4.383809 -5.47976,-4.383809 -3.61259,0 -5.88567,2.557222 -5.84508,6.656896 0,0 -1.38009,0.162363 -5.7639,0.446499 z m 6.53512,13.80088 c 0,-2.273086 1.98895,-3.734356 4.26204,-3.734356 2.15131,0 4.09967,1.420679 4.09967,3.734356 0,2.313678 -1.90777,3.856129 -4.22144,3.856129 -2.35427,0 -4.14027,-1.542451 -4.14027,-3.856129 z m -8.28433,-11.32484 c -4.54617,0.162363 -6.69749,1.704815 -6.73808,7.752848 -0.0406,3.125493 0,7.265758 0,7.265758 -2.07013,0.121772 -5.23621,0.162363 -5.23621,0.162363 -0.0406,-7.468712 -0.40591,-20.417185 -0.40591,-20.417185 1.86718,0 4.74912,0.08118 4.74912,0.08118 -0.12177,1.745406 -0.24354,3.734356 -0.24354,3.734356 1.62363,-2.273086 4.34322,-3.571992 7.75285,-3.612583 0.0406,2.029541 0.12177,5.033262 0.12177,5.033263 z m -24.64117,-5.88567 c 5.96685,0 10.06653,4.38381 10.06653,10.350661 0,0.568271 -0.0406,1.136543 -0.12178,1.704815 -8.60525,0.202954 -14.36915,0.568271 -14.36915,0.568271 0.0812,2.597813 2.31368,4.464991 4.91149,4.464991 2.35427,0 3.85613,-1.298906 4.66795,-3.206675 0,0 1.90777,0.243545 5.11444,0.568271 -1.17713,4.140265 -4.95208,6.900441 -9.66062,6.900441 -6.45394,0 -10.71597,-3.856129 -10.71597,-10.188298 0,-6.616304 4.22144,-11.162477 10.10711,-11.162477 z m -4.8709,8.645846 c 0,0 5.7639,0.04059 9.62003,-0.08118 -0.24355,-2.557222 -2.2325,-4.4244 -4.62736,-4.4244 -2.92254,0 -4.54617,2.354267 -4.99267,4.50558 z M 219.74211,45.96074 c 0,0 1.86718,0.08118 4.83031,0.121772 l -0.0812,2.191905 c 1.46127,-1.217725 3.61258,-2.029541 5.80449,-2.029541 5.39858,0 9.05177,4.4244 9.05177,10.594205 0,6.210396 -3.49083,10.188297 -8.84882,10.188297 -2.35427,0 -4.4244,-0.730635 -5.60153,-1.664224 0,0 0.0406,3.450221 0.16236,9.214118 0,0 -2.59781,-0.08118 -5.52035,-0.08118 0,0 0.16236,-15.383923 0.20295,-28.53535 z m 4.83031,10.634796 c 0,3.653174 1.786,6.048033 4.8709,6.048033 2.76019,0 4.4244,-2.719585 4.4244,-5.763897 0,-3.409629 -1.82659,-6.169806 -4.62736,-6.169806 -3.0849,0 -4.66794,2.43545 -4.66794,5.88567 z M 198.99831,52.86118 c 0.97417,-3.977901 4.05908,-6.859849 8.88939,-6.859849 5.31739,0 8.92998,3.084902 9.05175,9.417071 0.0812,4.546173 0.12177,10.431842 0.12177,10.431842 0,0 -2.23249,0.08118 -4.50558,0.08118 0,0 -0.0812,-1.014771 -0.20295,-1.98895 -1.86718,2.557222 -4.58677,3.328447 -6.57572,3.328447 -2.92254,0 -6.90044,-1.50186 -6.90044,-5.966851 0,-5.439171 7.18458,-7.225167 12.70493,-7.225167 -0.20295,-2.029541 -1.09595,-3.693765 -3.57199,-3.693765 -1.98895,0 -3.32845,1.339497 -3.85613,3.166084 0,0 -2.2325,-0.365317 -5.15503,-0.690044 z m 13.11083,4.546173 c -0.40591,-0.04059 -0.77122,-0.04059 -1.17713,-0.04059 -3.61259,0 -6.53513,1.623633 -6.53513,3.612583 0,1.501861 1.3395,2.110723 2.43545,2.110723 2.27309,0 5.27681,-2.070132 5.27681,-5.682716 z M 197.5142,51.481092 c -4.54617,0.162363 -6.69748,1.704815 -6.73807,7.752848 -0.0406,3.125493 0,7.265758 0,7.265758 -2.07014,0.121772 -5.23622,0.162363 -5.23622,0.162363 -0.0406,-7.468712 -0.40591,-20.417185 -0.40591,-20.417185 1.86718,0 4.74913,0.08118 4.74913,0.08118 -0.12177,1.745406 -0.24355,3.734356 -0.24355,3.734356 1.62364,-2.273086 4.34322,-3.571992 7.75285,-3.612583 0.0406,2.029541 0.12177,5.033262 0.12177,5.033263 z M 173.14195,45.96074 c 4.58676,0 8.23994,2.678994 9.37648,7.671666 0,0 -1.86718,0 -5.56094,0.08118 -0.36532,-1.867178 -1.62364,-3.490811 -3.61259,-3.490811 -2.67899,0 -4.34321,3.044311 -4.34321,6.494532 0,3.693765 2.1919,5.804488 4.74912,5.804488 1.62363,0 3.28786,-1.055362 3.85613,-3.369039 0,0 2.47604,0.162363 5.72331,0.284136 -0.85241,4.789717 -4.70854,7.590484 -9.57944,7.590484 -6.41335,0 -10.35066,-4.343218 -10.35066,-10.066524 0,-6.941032 4.66795,-11.000114 9.7418,-11.000114 z m -10.93226,7.225167 c 0,0 -2.2325,0.284136 -4.83031,0.527681 -0.48709,-2.719586 -2.84136,-3.89672 -4.95208,-3.89672 -1.82659,0 -3.49081,0.892998 -3.57199,2.43545 0,2.47604 4.14026,2.47604 7.63107,3.45022 2.59782,0.730635 4.99267,2.029541 4.99267,5.276807 0,4.059083 -3.93731,6.169806 -8.11816,6.169806 -4.38381,0 -9.01116,-2.313677 -9.66062,-7.103395 0,0 1.58305,-0.04059 5.03327,-0.243545 0.52768,2.110723 2.80076,3.125494 4.62735,3.125494 1.46127,0 2.6384,-0.608862 2.6384,-1.745406 0,-2.151313 -4.38381,-2.151313 -7.9558,-3.369038 -2.43545,-0.852407 -4.50558,-2.273086 -4.50558,-5.39858 0,-4.627354 4.18086,-6.981622 8.60526,-6.981622 4.62735,0 9.53884,2.597813 10.06652,7.752848 z m -39.18537,-6.575714 c 0,0 2.31368,-0.771226 5.39858,-1.623633 0,0 2.15132,8.686437 4.62736,17.454055 0,0 2.31367,-8.118165 4.50558,-16.195739 0,0 2.27308,0.649453 5.2768,1.380088 -7.18457,21.513137 -8.36171,27.317625 -15.26215,27.317625 -1.70481,0 -3.12549,-0.48709 -4.05908,-0.97418 0,0 0.40591,-2.273086 0.77123,-4.789717 1.05536,0.365317 2.11072,0.608862 3.00372,0.608862 1.3395,0 2.39486,-0.487089 2.84136,-1.745405 0,0 -3.45022,-10.391251 -7.1034,-21.431956 z m -12.51909,-9.660616 c 0,0 -0.0812,7.225166 -0.16236,17.454055 0,0 3.32844,-3.40963 8.19934,-8.686437 0,0 1.66423,1.745405 3.69377,3.856128 0,0 -3.28786,3.166085 -6.04803,5.845079 0,0 2.35426,2.96313 6.77866,8.564664 0,0 -1.94835,1.177134 -4.62735,3.044312 0,0 -2.80077,-3.977901 -6.33217,-8.686436 0,0 -0.73063,0.892998 -1.66422,2.029541 0,0 -0.0812,2.96313 -0.12178,6.859849 0,0 -2.59781,0 -5.15503,0.08118 0,0 -0.0406,-13.354382 -0.20295,-30.402528 z m -7.98244,12.745519 c -2.27309,-0.202954 -4.992674,-0.568272 -4.992674,-0.568272 0.690044,-4.789717 -2.151314,-7.38753 -6.250987,-7.38753 -3.369039,0 -5.479762,2.47604 -5.479762,4.830308 0,4.302628 5.520352,4.667945 10.107116,6.088624 3.287857,1.014771 6.048037,2.638404 6.048037,6.656895 0,4.099674 -2.881953,7.915211 -10.310074,7.915211 -5.601534,0 -10.79716,-2.922539 -10.918932,-9.295299 2.638404,0 5.560943,-0.04059 5.560943,-0.04059 0.202954,2.760176 2.354268,5.033262 5.723306,5.033262 2.881949,0 4.180855,-1.542451 4.180855,-3.247266 0,-3.328448 -5.560943,-3.369039 -10.188297,-5.195626 -3.247266,-1.298906 -6.048033,-3.45022 -6.048033,-8.280528 0,-5.195626 4.018492,-9.051754 10.715978,-9.051754 7.590485,0 13.354384,4.302627 11.852524,12.542565 z M 267.4972,26.237621 c -5.02356,0.179413 -7.40077,1.883834 -7.44564,8.56696 -0.0449,3.453695 0,8.028722 0,8.028722 -2.2875,0.134559 -5.78605,0.179412 -5.78605,0.179412 -0.0449,-8.252987 -0.44853,-22.561156 -0.44853,-22.561156 2.06325,0 5.24782,0.08971 5.24782,0.08971 -0.13456,1.928687 -0.26911,4.126494 -0.26911,4.126494 1.79412,-2.511779 4.79928,-3.947081 8.56695,-3.991934 0.0449,2.242659 0.13456,5.561796 0.13456,5.561796 z m -27.2287,-6.503713 c 6.59343,0 11.1236,4.844145 11.1236,11.437564 0,0.627945 -0.0449,1.255889 -0.13456,1.883834 -9.50888,0.224266 -15.87803,0.627945 -15.87803,0.627945 0.0897,2.870605 2.55663,4.933851 5.42724,4.933851 2.60148,0 4.26105,-1.435303 5.15811,-3.543402 0,0 2.10811,0.269119 5.65151,0.627944 -1.30075,4.575026 -5.4721,7.625043 -10.67506,7.625043 -7.13166,0 -11.84124,-4.261052 -11.84124,-11.258151 0,-7.311071 4.66472,-12.334628 11.16843,-12.334628 z m -5.38237,9.55373 c 0,0 6.36915,0.04485 10.6302,-0.08971 -0.26911,-2.825751 -2.46692,-4.888998 -5.11326,-4.888998 -3.22944,0 -5.02356,2.601485 -5.51694,4.978704 z m -14.8352,-18.165543 c 3.27429,0 6.18974,0.179413 6.18974,0.179413 -0.13456,13.680223 -0.26911,31.397234 -0.26911,31.397234 -3.18458,0 -5.78607,0.0897 -5.78607,0.0897 0,-8.387547 -0.13456,-31.666354 -0.13456,-31.666354 z m -9.81164,0 c 3.27429,0 6.18975,0.179413 6.18975,0.179413 -0.13456,13.680223 -0.26912,31.397234 -0.26912,31.397234 -3.18458,0 -5.78606,0.0897 -5.78606,0.0897 0,-8.387547 -0.13457,-31.666354 -0.13457,-31.666354 z m -23.01178,16.640534 c 1.07648,-4.395613 4.48532,-7.580189 9.82286,-7.580189 5.87574,0 9.86769,3.408842 10.00226,10.405941 0.0897,5.023557 0.13456,11.52727 0.13456,11.52727 0,0 -2.46691,0.0897 -4.9787,0.0897 0,0 -0.0897,-1.12133 -0.22426,-2.197806 -2.06324,2.825751 -5.06841,3.677961 -7.26622,3.677961 -3.22943,0 -7.62505,-1.659568 -7.62505,-6.593419 0,-6.010328 7.93902,-7.983869 14.03906,-7.983869 -0.22429,-2.242659 -1.21103,-4.08164 -3.94708,-4.08164 -2.19781,0 -3.67797,1.480155 -4.26105,3.498549 0,0 -2.46693,-0.403679 -5.69636,-0.762504 z m 14.48757,5.023558 c -0.44852,-0.04485 -0.85219,-0.04485 -1.30073,-0.04485 -3.99194,0 -7.22137,1.794127 -7.22137,3.991934 0,1.659568 1.48016,2.332367 2.69119,2.332367 2.51179,0 5.83091,-2.287514 5.83091,-6.279448 z M 168.73047,11.525773 c 11.21329,-0.358825 22.11263,-0.717651 22.11263,-0.717651 -0.0897,3.722815 -0.0449,6.279448 -0.0449,6.279448 -3.00516,-0.08971 -7.80445,-0.13456 -7.80445,-0.13456 -0.22427,12.78316 -0.31397,26.373677 -0.31397,26.373677 -2.42208,0 -6.2346,-0.134559 -6.2346,-0.134559 0.31397,-13.90449 0.58309,-25.70088 0.58309,-25.70088 -2.55663,0 -8.4324,0.224266 -8.4324,0.224266 0.0448,-2.018394 0.13456,-6.189741 0.13456,-6.189741 z"
     clip-path="url(#clipPath4683)"
     inkscape:connector-curvature="0"
     transform="translate(-6.5000113,-7.5581297)" />
</svg>
