<?xml version="1.0" encoding="UTF-8" standalone="no"?>
<!-- Created with Inkscape (http://www.inkscape.org/) -->

<svg
   xmlns:dc="http://purl.org/dc/elements/1.1/"
   xmlns:cc="http://creativecommons.org/ns#"
   xmlns:rdf="http://www.w3.org/1999/02/22-rdf-syntax-ns#"
   xmlns:svg="http://www.w3.org/2000/svg"
   xmlns="http://www.w3.org/2000/svg"
   xmlns:xlink="http://www.w3.org/1999/xlink"
   xmlns:sodipodi="http://sodipodi.sourceforge.net/DTD/sodipodi-0.dtd"
   xmlns:inkscape="http://www.inkscape.org/namespaces/inkscape"
   width="282.48038"
   height="58.357376"
   viewBox="0 0 282.48037 58.357376"
   version="1.1"
   id="main-svg"
   inkscape:export-filename="D:\c\Qoph\DataFiles\Objectionable Ranking\Graphics\Power of Achievement.png"
   inkscape:version="0.92.3 (2405546, 2018-03-11)"
   sodipodi:docname="Power of Sudoku.svg"
   inkscape:export-xdpi="600"
   inkscape:export-ydpi="600">
  <metadata
     id="metadata7">
    <rdf:RDF>
      <cc:Work
         rdf:about="">
        <dc:format>image/svg+xml</dc:format>
        <dc:type
           rdf:resource="http://purl.org/dc/dcmitype/StillImage" />
        <dc:title></dc:title>
      </cc:Work>
    </rdf:RDF>
  </metadata>
  <defs
     id="defs5">
    <linearGradient
       id="linearGradient4667"
       inkscape:collect="always">
      <stop
         id="stop4663"
         offset="0"
         style="stop-color:#004889;stop-opacity:1" />
      <stop
         id="stop4665"
         offset="1"
         style="stop-color:#36b1ff;stop-opacity:1" />
    </linearGradient>
    <linearGradient
       id="linearGradient4641"
       inkscape:collect="always">
      <stop
         id="stop4637"
         offset="0"
         style="stop-color:#007300;stop-opacity:1" />
      <stop
         id="stop4639"
         offset="1"
         style="stop-color:#00b00d;stop-opacity:1" />
    </linearGradient>
    <clipPath
       clipPathUnits="userSpaceOnUse"
       id="clipPath4683">
      <path
         id="path4685"
         style="font-style:normal;font-variant:normal;font-weight:normal;font-stretch:normal;font-size:medium;line-height:100%;font-family:Shag;-inkscape-font-specification:Shag;font-variant-ligatures:normal;font-variant-position:normal;font-variant-caps:normal;font-variant-numeric:normal;font-variant-alternates:normal;font-feature-settings:normal;text-indent:0;text-align:start;text-decoration:none;text-decoration-line:none;text-decoration-style:solid;text-decoration-color:#000000;letter-spacing:0px;word-spacing:0px;text-transform:none;writing-mode:lr-tb;direction:ltr;text-orientation:mixed;dominant-baseline:auto;baseline-shift:baseline;text-anchor:start;white-space:normal;shape-padding:0;fill:none;fill-opacity:1;stroke:#000900;stroke-width:5;stroke-linecap:butt;stroke-linejoin:round;stroke-miterlimit:4;stroke-dasharray:none;stroke-dashoffset:0;stroke-opacity:1;paint-order:stroke fill markers"
         d="m 277.74958,49.005052 c -0.56827,-7.996393 4.54617,-12.055475 11.5278,-12.055475 6.04803,0 11.56838,3.490811 11.56838,9.37648 0,5.114444 -3.32845,8.442892 -9.49825,9.214118 0,0 0,0.690044 0.0406,1.907768 0,0 -2.71959,0 -6.12922,0.08118 0,0 0.12178,-2.394859 0.16237,-5.682715 5.64212,-0.121773 9.41707,-1.623633 9.41707,-5.560944 0,-2.678994 -2.35427,-4.383809 -5.47976,-4.383809 -3.61259,0 -5.88567,2.557222 -5.84508,6.656896 0,0 -1.38009,0.162363 -5.7639,0.446499 z m 6.53512,13.80088 c 0,-2.273086 1.98895,-3.734356 4.26204,-3.734356 2.15131,0 4.09967,1.420679 4.09967,3.734356 0,2.313678 -1.90777,3.856129 -4.22144,3.856129 -2.35427,0 -4.14027,-1.542451 -4.14027,-3.856129 z m -8.28433,-11.32484 c -4.54617,0.162363 -6.69749,1.704815 -6.73808,7.752848 -0.0406,3.125493 0,7.265758 0,7.265758 -2.07013,0.121772 -5.23621,0.162363 -5.23621,0.162363 -0.0406,-7.468712 -0.40591,-20.417185 -0.40591,-20.417185 1.86718,0 4.74912,0.08118 4.74912,0.08118 -0.12177,1.745406 -0.24354,3.734356 -0.24354,3.734356 1.62363,-2.273086 4.34322,-3.571992 7.75285,-3.612583 0.0406,2.029541 0.12177,5.033262 0.12177,5.033263 z m -24.64117,-5.88567 c 5.96685,0 10.06653,4.38381 10.06653,10.350661 0,0.568271 -0.0406,1.136543 -0.12178,1.704815 -8.60525,0.202954 -14.36915,0.568271 -14.36915,0.568271 0.0812,2.597813 2.31368,4.464991 4.91149,4.464991 2.35427,0 3.85613,-1.298906 4.66795,-3.206675 0,0 1.90777,0.243545 5.11444,0.568271 -1.17713,4.140265 -4.95208,6.900441 -9.66062,6.900441 -6.45394,0 -10.71597,-3.856129 -10.71597,-10.188298 0,-6.616304 4.22144,-11.162477 10.10711,-11.162477 z m -4.8709,8.645846 c 0,0 5.7639,0.04059 9.62003,-0.08118 -0.24355,-2.557222 -2.2325,-4.4244 -4.62736,-4.4244 -2.92254,0 -4.54617,2.354267 -4.99267,4.50558 z M 219.74211,45.96074 c 0,0 1.86718,0.08118 4.83031,0.121772 l -0.0812,2.191905 c 1.46127,-1.217725 3.61258,-2.029541 5.80449,-2.029541 5.39858,0 9.05177,4.4244 9.05177,10.594205 0,6.210396 -3.49083,10.188297 -8.84882,10.188297 -2.35427,0 -4.4244,-0.730635 -5.60153,-1.664224 0,0 0.0406,3.450221 0.16236,9.214118 0,0 -2.59781,-0.08118 -5.52035,-0.08118 0,0 0.16236,-15.383923 0.20295,-28.53535 z m 4.83031,10.634796 c 0,3.653174 1.786,6.048033 4.8709,6.048033 2.76019,0 4.4244,-2.719585 4.4244,-5.763897 0,-3.409629 -1.82659,-6.169806 -4.62736,-6.169806 -3.0849,0 -4.66794,2.43545 -4.66794,5.88567 z M 198.99831,52.86118 c 0.97417,-3.977901 4.05908,-6.859849 8.88939,-6.859849 5.31739,0 8.92998,3.084902 9.05175,9.417071 0.0812,4.546173 0.12177,10.431842 0.12177,10.431842 0,0 -2.23249,0.08118 -4.50558,0.08118 0,0 -0.0812,-1.014771 -0.20295,-1.98895 -1.86718,2.557222 -4.58677,3.328447 -6.57572,3.328447 -2.92254,0 -6.90044,-1.50186 -6.90044,-5.966851 0,-5.439171 7.18458,-7.225167 12.70493,-7.225167 -0.20295,-2.029541 -1.09595,-3.693765 -3.57199,-3.693765 -1.98895,0 -3.32845,1.339497 -3.85613,3.166084 0,0 -2.2325,-0.365317 -5.15503,-0.690044 z m 13.11083,4.546173 c -0.40591,-0.04059 -0.77122,-0.04059 -1.17713,-0.04059 -3.61259,0 -6.53513,1.623633 -6.53513,3.612583 0,1.501861 1.3395,2.110723 2.43545,2.110723 2.27309,0 5.27681,-2.070132 5.27681,-5.682716 z M 197.5142,51.481092 c -4.54617,0.162363 -6.69748,1.704815 -6.73807,7.752848 -0.0406,3.125493 0,7.265758 0,7.265758 -2.07014,0.121772 -5.23622,0.162363 -5.23622,0.162363 -0.0406,-7.468712 -0.40591,-20.417185 -0.40591,-20.417185 1.86718,0 4.74913,0.08118 4.74913,0.08118 -0.12177,1.745406 -0.24355,3.734356 -0.24355,3.734356 1.62364,-2.273086 4.34322,-3.571992 7.75285,-3.612583 0.0406,2.029541 0.12177,5.033262 0.12177,5.033263 z M 173.14195,45.96074 c 4.58676,0 8.23994,2.678994 9.37648,7.671666 0,0 -1.86718,0 -5.56094,0.08118 -0.36532,-1.867178 -1.62364,-3.490811 -3.61259,-3.490811 -2.67899,0 -4.34321,3.044311 -4.34321,6.494532 0,3.693765 2.1919,5.804488 4.74912,5.804488 1.62363,0 3.28786,-1.055362 3.85613,-3.369039 0,0 2.47604,0.162363 5.72331,0.284136 -0.85241,4.789717 -4.70854,7.590484 -9.57944,7.590484 -6.41335,0 -10.35066,-4.343218 -10.35066,-10.066524 0,-6.941032 4.66795,-11.000114 9.7418,-11.000114 z m -10.93226,7.225167 c 0,0 -2.2325,0.284136 -4.83031,0.527681 -0.48709,-2.719586 -2.84136,-3.89672 -4.95208,-3.89672 -1.82659,0 -3.49081,0.892998 -3.57199,2.43545 0,2.47604 4.14026,2.47604 7.63107,3.45022 2.59782,0.730635 4.99267,2.029541 4.99267,5.276807 0,4.059083 -3.93731,6.169806 -8.11816,6.169806 -4.38381,0 -9.01116,-2.313677 -9.66062,-7.103395 0,0 1.58305,-0.04059 5.03327,-0.243545 0.52768,2.110723 2.80076,3.125494 4.62735,3.125494 1.46127,0 2.6384,-0.608862 2.6384,-1.745406 0,-2.151313 -4.38381,-2.151313 -7.9558,-3.369038 -2.43545,-0.852407 -4.50558,-2.273086 -4.50558,-5.39858 0,-4.627354 4.18086,-6.981622 8.60526,-6.981622 4.62735,0 9.53884,2.597813 10.06652,7.752848 z m -39.18537,-6.575714 c 0,0 2.31368,-0.771226 5.39858,-1.623633 0,0 2.15132,8.686437 4.62736,17.454055 0,0 2.31367,-8.118165 4.50558,-16.195739 0,0 2.27308,0.649453 5.2768,1.380088 -7.18457,21.513137 -8.36171,27.317625 -15.26215,27.317625 -1.70481,0 -3.12549,-0.48709 -4.05908,-0.97418 0,0 0.40591,-2.273086 0.77123,-4.789717 1.05536,0.365317 2.11072,0.608862 3.00372,0.608862 1.3395,0 2.39486,-0.487089 2.84136,-1.745405 0,0 -3.45022,-10.391251 -7.1034,-21.431956 z m -12.51909,-9.660616 c 0,0 -0.0812,7.225166 -0.16236,17.454055 0,0 3.32844,-3.40963 8.19934,-8.686437 0,0 1.66423,1.745405 3.69377,3.856128 0,0 -3.28786,3.166085 -6.04803,5.845079 0,0 2.35426,2.96313 6.77866,8.564664 0,0 -1.94835,1.177134 -4.62735,3.044312 0,0 -2.80077,-3.977901 -6.33217,-8.686436 0,0 -0.73063,0.892998 -1.66422,2.029541 0,0 -0.0812,2.96313 -0.12178,6.859849 0,0 -2.59781,0 -5.15503,0.08118 0,0 -0.0406,-13.354382 -0.20295,-30.402528 z m -7.98244,12.745519 c -2.27309,-0.202954 -4.992674,-0.568272 -4.992674,-0.568272 0.690044,-4.789717 -2.151314,-7.38753 -6.250987,-7.38753 -3.369039,0 -5.479762,2.47604 -5.479762,4.830308 0,4.302628 5.520352,4.667945 10.107116,6.088624 3.287857,1.014771 6.048037,2.638404 6.048037,6.656895 0,4.099674 -2.881953,7.915211 -10.310074,7.915211 -5.601534,0 -10.79716,-2.922539 -10.918932,-9.295299 2.638404,0 5.560943,-0.04059 5.560943,-0.04059 0.202954,2.760176 2.354268,5.033262 5.723306,5.033262 2.881949,0 4.180855,-1.542451 4.180855,-3.247266 0,-3.328448 -5.560943,-3.369039 -10.188297,-5.195626 -3.247266,-1.298906 -6.048033,-3.45022 -6.048033,-8.280528 0,-5.195626 4.018492,-9.051754 10.715978,-9.051754 7.590485,0 13.354384,4.302627 11.852524,12.542565 z M 267.4972,26.237621 c -5.02356,0.179413 -7.40077,1.883834 -7.44564,8.56696 -0.0449,3.453695 0,8.028722 0,8.028722 -2.2875,0.134559 -5.78605,0.179412 -5.78605,0.179412 -0.0449,-8.252987 -0.44853,-22.561156 -0.44853,-22.561156 2.06325,0 5.24782,0.08971 5.24782,0.08971 -0.13456,1.928687 -0.26911,4.126494 -0.26911,4.126494 1.79412,-2.511779 4.79928,-3.947081 8.56695,-3.991934 0.0449,2.242659 0.13456,5.561796 0.13456,5.561796 z m -27.2287,-6.503713 c 6.59343,0 11.1236,4.844145 11.1236,11.437564 0,0.627945 -0.0449,1.255889 -0.13456,1.883834 -9.50888,0.224266 -15.87803,0.627945 -15.87803,0.627945 0.0897,2.870605 2.55663,4.933851 5.42724,4.933851 2.60148,0 4.26105,-1.435303 5.15811,-3.543402 0,0 2.10811,0.269119 5.65151,0.627944 -1.30075,4.575026 -5.4721,7.625043 -10.67506,7.625043 -7.13166,0 -11.84124,-4.261052 -11.84124,-11.258151 0,-7.311071 4.66472,-12.334628 11.16843,-12.334628 z m -5.38237,9.55373 c 0,0 6.36915,0.04485 10.6302,-0.08971 -0.26911,-2.825751 -2.46692,-4.888998 -5.11326,-4.888998 -3.22944,0 -5.02356,2.601485 -5.51694,4.978704 z m -14.8352,-18.165543 c 3.27429,0 6.18974,0.179413 6.18974,0.179413 -0.13456,13.680223 -0.26911,31.397234 -0.26911,31.397234 -3.18458,0 -5.78607,0.0897 -5.78607,0.0897 0,-8.387547 -0.13456,-31.666354 -0.13456,-31.666354 z m -9.81164,0 c 3.27429,0 6.18975,0.179413 6.18975,0.179413 -0.13456,13.680223 -0.26912,31.397234 -0.26912,31.397234 -3.18458,0 -5.78606,0.0897 -5.78606,0.0897 0,-8.387547 -0.13457,-31.666354 -0.13457,-31.666354 z m -23.01178,16.640534 c 1.07648,-4.395613 4.48532,-7.580189 9.82286,-7.580189 5.87574,0 9.86769,3.408842 10.00226,10.405941 0.0897,5.023557 0.13456,11.52727 0.13456,11.52727 0,0 -2.46691,0.0897 -4.9787,0.0897 0,0 -0.0897,-1.12133 -0.22426,-2.197806 -2.06324,2.825751 -5.06841,3.677961 -7.26622,3.677961 -3.22943,0 -7.62505,-1.659568 -7.62505,-6.593419 0,-6.010328 7.93902,-7.983869 14.03906,-7.983869 -0.22429,-2.242659 -1.21103,-4.08164 -3.94708,-4.08164 -2.19781,0 -3.67797,1.480155 -4.26105,3.498549 0,0 -2.46693,-0.403679 -5.69636,-0.762504 z m 14.48757,5.023558 c -0.44852,-0.04485 -0.85219,-0.04485 -1.30073,-0.04485 -3.99194,0 -7.22137,1.794127 -7.22137,3.991934 0,1.659568 1.48016,2.332367 2.69119,2.332367 2.51179,0 5.83091,-2.287514 5.83091,-6.279448 z M 168.73047,11.525773 c 11.21329,-0.358825 22.11263,-0.717651 22.11263,-0.717651 -0.0897,3.722815 -0.0449,6.279448 -0.0449,6.279448 -3.00516,-0.08971 -7.80445,-0.13456 -7.80445,-0.13456 -0.22427,12.78316 -0.31397,26.373677 -0.31397,26.373677 -2.42208,0 -6.2346,-0.134559 -6.2346,-0.134559 0.31397,-13.90449 0.58309,-25.70088 0.58309,-25.70088 -2.55663,0 -8.4324,0.224266 -8.4324,0.224266 0.0448,-2.018394 0.13456,-6.189741 0.13456,-6.189741 z"
         inkscape:connector-curvature="0" />
    </clipPath>
    <linearGradient
       gradientTransform="translate(79.954288,10.808122)"
       inkscape:collect="always"
       xlink:href="#linearGradient4667"
       id="linearGradient4661-3"
       x1="154.97974"
       y1="78.957268"
       x2="154.97974"
       y2="8.2465887"
       gradientUnits="userSpaceOnUse" />
    <clipPath
       clipPathUnits="userSpaceOnUse"
       id="clipPath4683-5">
      <path
         id="path4685-3"
         style="font-style:normal;font-variant:normal;font-weight:normal;font-stretch:normal;font-size:medium;line-height:100%;font-family:Shag;-inkscape-font-specification:Shag;font-variant-ligatures:normal;font-variant-position:normal;font-variant-caps:normal;font-variant-numeric:normal;font-variant-alternates:normal;font-feature-settings:normal;text-indent:0;text-align:start;text-decoration:none;text-decoration-line:none;text-decoration-style:solid;text-decoration-color:#000000;letter-spacing:0px;word-spacing:0px;text-transform:none;writing-mode:lr-tb;direction:ltr;text-orientation:mixed;dominant-baseline:auto;baseline-shift:baseline;text-anchor:start;white-space:normal;shape-padding:0;fill:none;fill-opacity:1;stroke:#000900;stroke-width:5;stroke-linecap:butt;stroke-linejoin:round;stroke-miterlimit:4;stroke-dasharray:none;stroke-dashoffset:0;stroke-opacity:1;paint-order:stroke fill markers"
         d="m 277.74958,49.005052 c -0.56827,-7.996393 4.54617,-12.055475 11.5278,-12.055475 6.04803,0 11.56838,3.490811 11.56838,9.37648 0,5.114444 -3.32845,8.442892 -9.49825,9.214118 0,0 0,0.690044 0.0406,1.907768 0,0 -2.71959,0 -6.12922,0.08118 0,0 0.12178,-2.394859 0.16237,-5.682715 5.64212,-0.121773 9.41707,-1.623633 9.41707,-5.560944 0,-2.678994 -2.35427,-4.383809 -5.47976,-4.383809 -3.61259,0 -5.88567,2.557222 -5.84508,6.656896 0,0 -1.38009,0.162363 -5.7639,0.446499 z m 6.53512,13.80088 c 0,-2.273086 1.98895,-3.734356 4.26204,-3.734356 2.15131,0 4.09967,1.420679 4.09967,3.734356 0,2.313678 -1.90777,3.856129 -4.22144,3.856129 -2.35427,0 -4.14027,-1.542451 -4.14027,-3.856129 z m -8.28433,-11.32484 c -4.54617,0.162363 -6.69749,1.704815 -6.73808,7.752848 -0.0406,3.125493 0,7.265758 0,7.265758 -2.07013,0.121772 -5.23621,0.162363 -5.23621,0.162363 -0.0406,-7.468712 -0.40591,-20.417185 -0.40591,-20.417185 1.86718,0 4.74912,0.08118 4.74912,0.08118 -0.12177,1.745406 -0.24354,3.734356 -0.24354,3.734356 1.62363,-2.273086 4.34322,-3.571992 7.75285,-3.612583 0.0406,2.029541 0.12177,5.033262 0.12177,5.033263 z m -24.64117,-5.88567 c 5.96685,0 10.06653,4.38381 10.06653,10.350661 0,0.568271 -0.0406,1.136543 -0.12178,1.704815 -8.60525,0.202954 -14.36915,0.568271 -14.36915,0.568271 0.0812,2.597813 2.31368,4.464991 4.91149,4.464991 2.35427,0 3.85613,-1.298906 4.66795,-3.206675 0,0 1.90777,0.243545 5.11444,0.568271 -1.17713,4.140265 -4.95208,6.900441 -9.66062,6.900441 -6.45394,0 -10.71597,-3.856129 -10.71597,-10.188298 0,-6.616304 4.22144,-11.162477 10.10711,-11.162477 z m -4.8709,8.645846 c 0,0 5.7639,0.04059 9.62003,-0.08118 -0.24355,-2.557222 -2.2325,-4.4244 -4.62736,-4.4244 -2.92254,0 -4.54617,2.354267 -4.99267,4.50558 z M 219.74211,45.96074 c 0,0 1.86718,0.08118 4.83031,0.121772 l -0.0812,2.191905 c 1.46127,-1.217725 3.61258,-2.029541 5.80449,-2.029541 5.39858,0 9.05177,4.4244 9.05177,10.594205 0,6.210396 -3.49083,10.188297 -8.84882,10.188297 -2.35427,0 -4.4244,-0.730635 -5.60153,-1.664224 0,0 0.0406,3.450221 0.16236,9.214118 0,0 -2.59781,-0.08118 -5.52035,-0.08118 0,0 0.16236,-15.383923 0.20295,-28.53535 z m 4.83031,10.634796 c 0,3.653174 1.786,6.048033 4.8709,6.048033 2.76019,0 4.4244,-2.719585 4.4244,-5.763897 0,-3.409629 -1.82659,-6.169806 -4.62736,-6.169806 -3.0849,0 -4.66794,2.43545 -4.66794,5.88567 z M 198.99831,52.86118 c 0.97417,-3.977901 4.05908,-6.859849 8.88939,-6.859849 5.31739,0 8.92998,3.084902 9.05175,9.417071 0.0812,4.546173 0.12177,10.431842 0.12177,10.431842 0,0 -2.23249,0.08118 -4.50558,0.08118 0,0 -0.0812,-1.014771 -0.20295,-1.98895 -1.86718,2.557222 -4.58677,3.328447 -6.57572,3.328447 -2.92254,0 -6.90044,-1.50186 -6.90044,-5.966851 0,-5.439171 7.18458,-7.225167 12.70493,-7.225167 -0.20295,-2.029541 -1.09595,-3.693765 -3.57199,-3.693765 -1.98895,0 -3.32845,1.339497 -3.85613,3.166084 0,0 -2.2325,-0.365317 -5.15503,-0.690044 z m 13.11083,4.546173 c -0.40591,-0.04059 -0.77122,-0.04059 -1.17713,-0.04059 -3.61259,0 -6.53513,1.623633 -6.53513,3.612583 0,1.501861 1.3395,2.110723 2.43545,2.110723 2.27309,0 5.27681,-2.070132 5.27681,-5.682716 z M 197.5142,51.481092 c -4.54617,0.162363 -6.69748,1.704815 -6.73807,7.752848 -0.0406,3.125493 0,7.265758 0,7.265758 -2.07014,0.121772 -5.23622,0.162363 -5.23622,0.162363 -0.0406,-7.468712 -0.40591,-20.417185 -0.40591,-20.417185 1.86718,0 4.74913,0.08118 4.74913,0.08118 -0.12177,1.745406 -0.24355,3.734356 -0.24355,3.734356 1.62364,-2.273086 4.34322,-3.571992 7.75285,-3.612583 0.0406,2.029541 0.12177,5.033262 0.12177,5.033263 z M 173.14195,45.96074 c 4.58676,0 8.23994,2.678994 9.37648,7.671666 0,0 -1.86718,0 -5.56094,0.08118 -0.36532,-1.867178 -1.62364,-3.490811 -3.61259,-3.490811 -2.67899,0 -4.34321,3.044311 -4.34321,6.494532 0,3.693765 2.1919,5.804488 4.74912,5.804488 1.62363,0 3.28786,-1.055362 3.85613,-3.369039 0,0 2.47604,0.162363 5.72331,0.284136 -0.85241,4.789717 -4.70854,7.590484 -9.57944,7.590484 -6.41335,0 -10.35066,-4.343218 -10.35066,-10.066524 0,-6.941032 4.66795,-11.000114 9.7418,-11.000114 z m -10.93226,7.225167 c 0,0 -2.2325,0.284136 -4.83031,0.527681 -0.48709,-2.719586 -2.84136,-3.89672 -4.95208,-3.89672 -1.82659,0 -3.49081,0.892998 -3.57199,2.43545 0,2.47604 4.14026,2.47604 7.63107,3.45022 2.59782,0.730635 4.99267,2.029541 4.99267,5.276807 0,4.059083 -3.93731,6.169806 -8.11816,6.169806 -4.38381,0 -9.01116,-2.313677 -9.66062,-7.103395 0,0 1.58305,-0.04059 5.03327,-0.243545 0.52768,2.110723 2.80076,3.125494 4.62735,3.125494 1.46127,0 2.6384,-0.608862 2.6384,-1.745406 0,-2.151313 -4.38381,-2.151313 -7.9558,-3.369038 -2.43545,-0.852407 -4.50558,-2.273086 -4.50558,-5.39858 0,-4.627354 4.18086,-6.981622 8.60526,-6.981622 4.62735,0 9.53884,2.597813 10.06652,7.752848 z m -39.18537,-6.575714 c 0,0 2.31368,-0.771226 5.39858,-1.623633 0,0 2.15132,8.686437 4.62736,17.454055 0,0 2.31367,-8.118165 4.50558,-16.195739 0,0 2.27308,0.649453 5.2768,1.380088 -7.18457,21.513137 -8.36171,27.317625 -15.26215,27.317625 -1.70481,0 -3.12549,-0.48709 -4.05908,-0.97418 0,0 0.40591,-2.273086 0.77123,-4.789717 1.05536,0.365317 2.11072,0.608862 3.00372,0.608862 1.3395,0 2.39486,-0.487089 2.84136,-1.745405 0,0 -3.45022,-10.391251 -7.1034,-21.431956 z m -12.51909,-9.660616 c 0,0 -0.0812,7.225166 -0.16236,17.454055 0,0 3.32844,-3.40963 8.19934,-8.686437 0,0 1.66423,1.745405 3.69377,3.856128 0,0 -3.28786,3.166085 -6.04803,5.845079 0,0 2.35426,2.96313 6.77866,8.564664 0,0 -1.94835,1.177134 -4.62735,3.044312 0,0 -2.80077,-3.977901 -6.33217,-8.686436 0,0 -0.73063,0.892998 -1.66422,2.029541 0,0 -0.0812,2.96313 -0.12178,6.859849 0,0 -2.59781,0 -5.15503,0.08118 0,0 -0.0406,-13.354382 -0.20295,-30.402528 z m -7.98244,12.745519 c -2.27309,-0.202954 -4.992674,-0.568272 -4.992674,-0.568272 0.690044,-4.789717 -2.151314,-7.38753 -6.250987,-7.38753 -3.369039,0 -5.479762,2.47604 -5.479762,4.830308 0,4.302628 5.520352,4.667945 10.107116,6.088624 3.287857,1.014771 6.048037,2.638404 6.048037,6.656895 0,4.099674 -2.881953,7.915211 -10.310074,7.915211 -5.601534,0 -10.79716,-2.922539 -10.918932,-9.295299 2.638404,0 5.560943,-0.04059 5.560943,-0.04059 0.202954,2.760176 2.354268,5.033262 5.723306,5.033262 2.881949,0 4.180855,-1.542451 4.180855,-3.247266 0,-3.328448 -5.560943,-3.369039 -10.188297,-5.195626 -3.247266,-1.298906 -6.048033,-3.45022 -6.048033,-8.280528 0,-5.195626 4.018492,-9.051754 10.715978,-9.051754 7.590485,0 13.354384,4.302627 11.852524,12.542565 z M 267.4972,26.237621 c -5.02356,0.179413 -7.40077,1.883834 -7.44564,8.56696 -0.0449,3.453695 0,8.028722 0,8.028722 -2.2875,0.134559 -5.78605,0.179412 -5.78605,0.179412 -0.0449,-8.252987 -0.44853,-22.561156 -0.44853,-22.561156 2.06325,0 5.24782,0.08971 5.24782,0.08971 -0.13456,1.928687 -0.26911,4.126494 -0.26911,4.126494 1.79412,-2.511779 4.79928,-3.947081 8.56695,-3.991934 0.0449,2.242659 0.13456,5.561796 0.13456,5.561796 z m -27.2287,-6.503713 c 6.59343,0 11.1236,4.844145 11.1236,11.437564 0,0.627945 -0.0449,1.255889 -0.13456,1.883834 -9.50888,0.224266 -15.87803,0.627945 -15.87803,0.627945 0.0897,2.870605 2.55663,4.933851 5.42724,4.933851 2.60148,0 4.26105,-1.435303 5.15811,-3.543402 0,0 2.10811,0.269119 5.65151,0.627944 -1.30075,4.575026 -5.4721,7.625043 -10.67506,7.625043 -7.13166,0 -11.84124,-4.261052 -11.84124,-11.258151 0,-7.311071 4.66472,-12.334628 11.16843,-12.334628 z m -5.38237,9.55373 c 0,0 6.36915,0.04485 10.6302,-0.08971 -0.26911,-2.825751 -2.46692,-4.888998 -5.11326,-4.888998 -3.22944,0 -5.02356,2.601485 -5.51694,4.978704 z m -14.8352,-18.165543 c 3.27429,0 6.18974,0.179413 6.18974,0.179413 -0.13456,13.680223 -0.26911,31.397234 -0.26911,31.397234 -3.18458,0 -5.78607,0.0897 -5.78607,0.0897 0,-8.387547 -0.13456,-31.666354 -0.13456,-31.666354 z m -9.81164,0 c 3.27429,0 6.18975,0.179413 6.18975,0.179413 -0.13456,13.680223 -0.26912,31.397234 -0.26912,31.397234 -3.18458,0 -5.78606,0.0897 -5.78606,0.0897 0,-8.387547 -0.13457,-31.666354 -0.13457,-31.666354 z m -23.01178,16.640534 c 1.07648,-4.395613 4.48532,-7.580189 9.82286,-7.580189 5.87574,0 9.86769,3.408842 10.00226,10.405941 0.0897,5.023557 0.13456,11.52727 0.13456,11.52727 0,0 -2.46691,0.0897 -4.9787,0.0897 0,0 -0.0897,-1.12133 -0.22426,-2.197806 -2.06324,2.825751 -5.06841,3.677961 -7.26622,3.677961 -3.22943,0 -7.62505,-1.659568 -7.62505,-6.593419 0,-6.010328 7.93902,-7.983869 14.03906,-7.983869 -0.22429,-2.242659 -1.21103,-4.08164 -3.94708,-4.08164 -2.19781,0 -3.67797,1.480155 -4.26105,3.498549 0,0 -2.46693,-0.403679 -5.69636,-0.762504 z m 14.48757,5.023558 c -0.44852,-0.04485 -0.85219,-0.04485 -1.30073,-0.04485 -3.99194,0 -7.22137,1.794127 -7.22137,3.991934 0,1.659568 1.48016,2.332367 2.69119,2.332367 2.51179,0 5.83091,-2.287514 5.83091,-6.279448 z M 168.73047,11.525773 c 11.21329,-0.358825 22.11263,-0.717651 22.11263,-0.717651 -0.0897,3.722815 -0.0449,6.279448 -0.0449,6.279448 -3.00516,-0.08971 -7.80445,-0.13456 -7.80445,-0.13456 -0.22427,12.78316 -0.31397,26.373677 -0.31397,26.373677 -2.42208,0 -6.2346,-0.134559 -6.2346,-0.134559 0.31397,-13.90449 0.58309,-25.70088 0.58309,-25.70088 -2.55663,0 -8.4324,0.224266 -8.4324,0.224266 0.0448,-2.018394 0.13456,-6.189741 0.13456,-6.189741 z"
         inkscape:connector-curvature="0" />
    </clipPath>
    <clipPath
       clipPathUnits="userSpaceOnUse"
       id="clipPath4811">
      <text
         xml:space="preserve"
         style="font-style:normal;font-variant:normal;font-weight:normal;font-stretch:normal;font-size:49.54705048px;line-height:100%;font-family:Shag;-inkscape-font-specification:Shag;font-variant-ligatures:normal;font-variant-position:normal;font-variant-caps:normal;font-variant-numeric:normal;font-variant-alternates:normal;font-feature-settings:normal;text-indent:0;text-align:start;text-decoration:none;text-decoration-line:none;text-decoration-style:solid;text-decoration-color:#000000;letter-spacing:0px;word-spacing:0px;text-transform:none;writing-mode:lr-tb;direction:ltr;text-orientation:mixed;dominant-baseline:auto;baseline-shift:baseline;text-anchor:start;white-space:normal;shape-padding:0;opacity:1;vector-effect:none;fill:#000000;fill-opacity:1;stroke:none;stroke-width:1px;stroke-linecap:butt;stroke-linejoin:miter;stroke-miterlimit:4;stroke-dasharray:none;stroke-dashoffset:0;stroke-opacity:1"
         x="75.503624"
         y="69.302551"
         id="text4815"><tspan
           sodipodi:role="line"
           id="tspan4813"
           x="75.503624"
           y="69.302551"
           style="stroke-width:1px">Sudoku</tspan></text>
    </clipPath>
    <clipPath
       clipPathUnits="userSpaceOnUse"
       id="clipPath4811-0">
      <text
         xml:space="preserve"
         style="font-style:normal;font-variant:normal;font-weight:normal;font-stretch:normal;font-size:49.54705048px;line-height:100%;font-family:Shag;-inkscape-font-specification:Shag;font-variant-ligatures:normal;font-variant-position:normal;font-variant-caps:normal;font-variant-numeric:normal;font-variant-alternates:normal;font-feature-settings:normal;text-indent:0;text-align:start;text-decoration:none;text-decoration-line:none;text-decoration-style:solid;text-decoration-color:#000000;letter-spacing:0px;word-spacing:0px;text-transform:none;writing-mode:lr-tb;direction:ltr;text-orientation:mixed;dominant-baseline:auto;baseline-shift:baseline;text-anchor:start;white-space:normal;shape-padding:0;opacity:1;vector-effect:none;fill:#000000;fill-opacity:1;stroke:none;stroke-width:1px;stroke-linecap:butt;stroke-linejoin:miter;stroke-miterlimit:4;stroke-dasharray:none;stroke-dashoffset:0;stroke-opacity:1"
         x="75.503624"
         y="69.302551"
         id="text4815-7"><tspan
           sodipodi:role="line"
           id="tspan4813-4"
           x="75.503624"
           y="69.302551"
           style="stroke-width:1px">Sudoku</tspan></text>
    </clipPath>
    <clipPath
       clipPathUnits="userSpaceOnUse"
       id="clipPath4671">
      <path
         style="font-style:normal;font-variant:normal;font-weight:normal;font-stretch:normal;font-size:medium;line-height:100%;font-family:Shag;-inkscape-font-specification:Shag;font-variant-ligatures:normal;font-variant-position:normal;font-variant-caps:normal;font-variant-numeric:normal;font-variant-alternates:normal;font-feature-settings:normal;text-indent:0;text-align:start;text-decoration:none;text-decoration-line:none;text-decoration-style:solid;text-decoration-color:#000000;letter-spacing:0px;word-spacing:0px;text-transform:none;writing-mode:lr-tb;direction:ltr;text-orientation:mixed;dominant-baseline:auto;baseline-shift:baseline;text-anchor:start;white-space:normal;shape-padding:0;opacity:1;vector-effect:none;fill:none;fill-opacity:1;stroke:#000900;stroke-width:4.5;stroke-linecap:butt;stroke-linejoin:round;stroke-miterlimit:4;stroke-dasharray:none;stroke-dashoffset:0;stroke-opacity:1;paint-order:stroke fill markers"
         d="m 41.21875,105.89844 c -2.600845,0 -4.751953,1.85143 -4.751953,4.65234 0,2.95096 1.999528,4.70117 4.650391,4.70117 2.550829,0 4.501953,-1.84982 4.501953,-4.80078 0,-2.55083 -1.899578,-4.55273 -4.400391,-4.55273 z M 10.785156,107.5 c 0.121444,5 0.251953,14.10495 0.251953,37.3125 3.201039,-0.10003 6.601563,-0.30078 6.601563,-0.30078 -0.100032,-2.4508 -0.201172,-5.55123 -0.201172,-7.75195 0,-8.90289 2.00184,-12.1543 5.953125,-12.1543 4.151349,0 3.900391,5.95258 3.900391,10.00391 0,2.65085 -0.09876,4.69985 -0.298828,7.55078 3.551154,0.20008 6.601562,0.25195 6.601562,0.25195 0.250081,-4.45145 0.30044,-9.45438 0.150391,-14.00586 -0.150049,-5.75187 -3.901402,-9.50195 -9.203125,-9.50195 -2.900944,0 -5.151352,1.0987 -7.001954,2.69922 0.100032,-7.7025 0.298829,-14.00391 0.298829,-14.00391 -3.801236,0 -7.052735,-0.0996 -7.052735,-0.0996 z m -54.875,1.09961 c 0,0 0.05002,3.15078 0,6.75195 0,0 5.351579,-0.10003 6.501953,0 0,0 -3.701481,14.60491 -7.552734,28.35938 0,0 3.402051,0.8013 6.703125,1.60156 0,0 1.299772,-5.10151 2,-7.65234 0,0 6.402509,-0.0499 11.904297,-0.25 0,0 1.40057,4.15084 2.050781,6.35156 0,0 3.251563,-0.70016 5.652344,-1.40039 0,0 -4.452833,-16.40513 -7.753906,-27.0586 0,0 4.152637,0.0492 6.853515,0.19922 0,0 -4.23e-4,-3.85159 0.09961,-6.15234 0,0 -14.805196,-0.39988 -26.458985,-0.75 z m 265.828124,4.25195 c -4.55148,0.15005 -6.85351,0.15039 -6.85351,0.15039 -0.05,4.75154 -0.0996,6.25196 -0.0996,6.25196 -2.25074,-0.05 -3.20118,-0.0996 -3.20118,-0.0996 -0.05,3.4011 -0.15039,5.55078 -0.15039,5.55078 2.00065,0.10003 3.40235,0.20117 3.40235,0.20117 0,0 -0.10156,4.8506 -0.10156,9.00195 0,7.20234 4.00117,10.20313 8.80273,10.20313 2.40078,0 4.95196,-0.74917 7.30273,-2.09961 l -1.80078,-5.50195 c -1.60052,0.80026 -3.05037,1.25 -4.30078,1.25 -2.10068,0 -3.50195,-1.35101 -3.50195,-4.25196 0,-2.85092 0.15039,-8.80273 0.15039,-8.80273 4.70153,0.15005 8.60351,0.25 8.60351,0.25 -0.05,-3.50114 -0.0508,-6.10156 -0.0508,-6.10156 -5.70185,0 -8.40234,-0.0508 -8.40234,-0.0508 0.10003,-4.05132 0.20117,-5.95117 0.20117,-5.95117 z m -253.324218,1.93164 c 0.125041,-0.006 0.299935,-0.005 0.5,0.0195 0,0 2.701872,9.75308 4.152344,17.10547 0,0 -5.353061,0.14922 -9.154297,0.19922 0,0 2.302085,-10.00232 4.302735,-17.30469 0,0 0.07418,-0.0133 0.199218,-0.0195 z m 110.121094,2.91992 c 0,0 -3.55057,0.80012 -6.601562,1.6504 0,0 3.849757,11.70365 8.201172,24.50781 0,0 5.503614,-0.64912 8.804687,-0.94922 0,0 3.850766,-11.10418 7.501953,-22.25781 0,0 -3.801921,-1.0006 -6.302734,-1.55078 0,0 -2.749789,9.45232 -5.800781,19.10546 0,0 -3.101857,-10.75267 -5.802735,-20.50586 z m -18.896484,0.4004 c -7.252358,0 -12.455078,5.60125 -12.455078,13.7539 0,7.80253 5.252492,12.55469 13.205078,12.55469 5.801886,0 10.453825,-3.40225 11.904297,-8.50391 -3.951285,-0.40013 -6.302735,-0.69922 -6.302735,-0.69922 -1.000325,2.35076 -2.85101,3.95118 -5.751953,3.95118 -3.201041,0 -5.952701,-2.30092 -6.052734,-5.50196 0,0 7.103583,-0.44913 17.707031,-0.69922 0.100029,-0.70022 0.150391,-1.40133 0.150391,-2.10156 0,-7.35239 -5.051907,-12.7539 -12.404297,-12.7539 z m 48.894528,0 c -7.25236,0 -12.453122,5.60125 -12.453122,13.7539 0,7.80253 5.250532,12.55469 13.203122,12.55469 5.80188,0 10.45383,-3.40225 11.9043,-8.50391 -3.95129,-0.40013 -6.30273,-0.69922 -6.30273,-0.69922 -1.00033,2.35076 -2.85102,3.95118 -5.75196,3.95118 -3.20104,0 -5.95075,-2.30092 -6.05078,-5.50196 0,0 7.10163,-0.44913 17.70508,-0.69922 0.10005,-0.70022 0.15039,-1.40133 0.15039,-2.10156 0,-7.35239 -5.05191,-12.7539 -12.4043,-12.7539 z m 64.69141,0 c -7.25236,0 -12.45313,5.60125 -12.45313,13.7539 0,7.80253 5.25055,12.55469 13.20313,12.55469 5.80189,0 10.45383,-3.40225 11.9043,-8.50391 -3.95128,-0.40013 -6.30274,-0.69922 -6.30274,-0.69922 -1.00032,2.35076 -2.84905,3.95118 -5.75,3.95118 -3.20104,0 -5.9527,-2.30092 -6.05273,-5.50196 0,0 7.10163,-0.44913 17.70508,-0.69922 0.10005,-0.70022 0.15039,-1.40133 0.15039,-2.10156 0,-7.35239 -5.05191,-12.7539 -12.4043,-12.7539 z m -36.96484,0.25 c -2.7509,0 -5.25063,1.45095 -6.95118,3.35156 -0.05,-1.70055 -0.0508,-3.10156 -0.0508,-3.10156 -3.7012,0.10005 -6.00195,0.15039 -6.00195,0.15039 0.35011,13.80448 0.5,26.00781 0.5,26.00781 3.10101,-0.20006 6.55273,-0.34961 6.55273,-0.34961 -0.15006,-2.25073 -0.20117,-4.75225 -0.20117,-7.45313 0,-3.55115 -0.45016,-13.20312 4.85156,-13.20312 2.4508,0 3.30079,2.99953 3.30079,5.65039 0,4.90159 -0.0988,8.10374 -0.29883,12.20508 3.20104,0.05 6.30078,0.0488 6.30078,0.0488 -0.10003,-10.85353 0.10018,-17.00391 4.35156,-17.00391 2.50082,0 3.70117,1.84984 3.70117,5.95117 0,4.85158 -0.34911,8.80355 -0.69922,12.30469 3.40111,0 6.45118,0.25 6.45118,0.25 0.35011,-3.55115 0.70117,-9.30459 0.70117,-14.40625 0,-6.152 -3.70108,-9.35156 -8.80274,-9.35156 -2.95096,0 -5.35294,1.34981 -7.10351,3.15039 -1.35043,-2.40078 -3.10042,-4.20117 -6.60156,-4.20117 z m -139.9140669,0.19921 c -6.2520358,0 -12.0039061,5.00191 -12.0039061,13.55469 0,7.05229 4.851334,12.4043 12.7539061,12.4043 6.0019514,0 10.7523929,-3.4516 11.8027344,-9.35352 -4.001301,-0.15005 -7.0507813,-0.34961 -7.0507813,-0.34961 -0.7002275,2.85092 -2.75130259,4.15235 -4.7519531,4.15235 -3.1510245,0 -5.8515625,-2.60087 -5.8515625,-7.15235 0,-4.25138 2.0504892,-8.0039 5.3515625,-8.0039 2.45079691,0 4.00102564,2.00198 4.4511719,4.30273 4.55148,-0.10004 6.8515625,-0.10156 6.8515625,-0.10156 -1.4004553,-6.152 -5.9008969,-9.45313 -11.5527344,-9.45313 z m 41.5703129,0.35157 c 0,9.75318 -0.199219,24.9082 -0.199219,24.9082 2.950959,0 6.601562,-0.10156 6.601562,-0.10156 0.05002,-15.00488 0.25,-24.70703 0.25,-24.70703 -3.501139,0 -6.652343,-0.0996 -6.652343,-0.0996 z m 163.636714,0 c -3.10101,0 -6.25291,1.69968 -8.10351,3.90039 0,0 0.0504,-1.80098 0.15039,-3.60157 0,0 -2.90145,-0.0496 -5.65234,-0.0996 0,0 0.40073,14.15446 0.55078,25.6582 2.00065,0 3.90111,-4.2e-4 6.50195,0.0996 -0.15005,-4.20136 -0.25042,-8.30229 -0.15039,-12.10352 0.10004,-4.55148 2.15112,-8.10309 5.90234,-8.20312 2.35077,-0.05 3.55036,1.70045 3.65039,5.10156 0.10003,4.3014 0.10045,6.7523 -0.0996,12.9043 0,0 3.551,0.10156 6.50196,0.10156 0,0 0.19922,-7.35249 0.19922,-12.9043 0,-7.85255 -4.09944,-10.85351 -9.45118,-10.85351 z m -141.763668,4.30078 c 2.95096,0 5.401075,2.30014 5.701172,5.45117 -4.751545,0.15003 -11.853515,0.0996 -11.853515,0.0996 0.550179,-2.65086 2.551173,-5.55078 6.152343,-5.55078 z m 48.894528,0 c 2.95096,0 5.40108,2.30014 5.70118,5.45117 -4.75155,0.15003 -11.85352,0.0996 -11.85352,0.0996 0.55018,-2.65086 2.55117,-5.55078 6.15234,-5.55078 z m 64.69141,0 c 2.95096,0 5.40107,2.30014 5.70117,5.45117 -4.75154,0.15003 -11.85351,0.0996 -11.85351,0.0996 0.55018,-2.65086 2.55117,-5.55078 6.15234,-5.55078 z"
         id="path4673"
         inkscape:connector-curvature="0" />
    </clipPath>
    <linearGradient
       inkscape:collect="always"
       xlink:href="#linearGradient4667"
       id="linearGradient4675"
       gradientUnits="userSpaceOnUse"
       x1="154.97974"
       y1="147.64764"
       x2="154.97974"
       y2="104.81718" />
    <linearGradient
       inkscape:collect="always"
       xlink:href="#linearGradient4641"
       id="linearGradient4740-8"
       gradientUnits="userSpaceOnUse"
       x1="123.35396"
       y1="42.426712"
       x2="123.35396"
       y2="16.162745"
       gradientTransform="matrix(1.0888818,0,0,1.1079673,-129.28974,-19.248176)" />
    <linearGradient
       inkscape:collect="always"
       xlink:href="#linearGradient4641"
       id="linearGradient4721"
       gradientUnits="userSpaceOnUse"
       gradientTransform="matrix(1.0888818,0,0,1.1079673,-8.1652969,-107.59611)"
       x1="157.72736"
       y1="125.9774"
       x2="157.72736"
       y2="97.392578" />
  </defs>
  <sodipodi:namedview
     id="base"
     pagecolor="#d2f0ed"
     bordercolor="#666666"
     borderopacity="1.0"
     inkscape:pageopacity="0"
     inkscape:pageshadow="2"
     inkscape:zoom="3.5"
     inkscape:cx="126.42996"
     inkscape:cy="34.175836"
     inkscape:document-units="px"
     showgrid="true"
     units="px"
     inkscape:current-layer="main-svg"
     inkscape:snap-global="false"
     fit-margin-top="1"
     fit-margin-left="1"
     fit-margin-right="1"
     fit-margin-bottom="1" />
  <path
     style="font-style:normal;font-variant:normal;font-weight:normal;font-stretch:normal;font-size:medium;line-height:100%;font-family:Shag;-inkscape-font-specification:Shag;font-variant-ligatures:normal;font-variant-position:normal;font-variant-caps:normal;font-variant-numeric:normal;font-variant-alternates:normal;font-feature-settings:normal;text-indent:0;text-align:start;text-decoration:none;text-decoration-line:none;text-decoration-style:solid;text-decoration-color:#000000;letter-spacing:0px;word-spacing:0px;text-transform:none;writing-mode:lr-tb;direction:ltr;text-orientation:mixed;dominant-baseline:auto;baseline-shift:baseline;text-anchor:start;white-space:normal;shape-padding:0;vector-effect:none;fill:url(#linearGradient4721);fill-opacity:1;stroke:#003200;stroke-width:5;stroke-linecap:butt;stroke-linejoin:round;stroke-miterlimit:4;stroke-dasharray:none;stroke-dashoffset:0;stroke-opacity:0.98857141;paint-order:stroke fill markers"
     d="m 135.4062,3.5 c -1.58226,0 -3.07885,0.172198 -4.28711,0.402344 0,0 -0.14396,13.842428 -0.43164,24.429138 0,0 2.70575,-0.11574 4.23046,-0.14454 0,0 -0.0298,-6.73571 -0.0586,-8.43304 5.37966,0.28769 10.5586,-1.29447 10.5586,-8.28515 C 145.41792,5.082206 140.09542,3.5 135.4062,3.5 Z m 102.30078,0.0293 c -3.59603,0 -5.20558,2.359692 -5.23438,6.416012 -1.29457,0 -2.04297,-0.0293 -2.04297,-0.0293 0,0 0.0273,2.12861 0.0273,2.96289 0,0 1.12287,-0.0566 2.38867,-0.0566 0,0 0.0575,6.27069 0,11.9668 0,0 1.63979,-0.001 3.82617,-0.0586 -0.0863,-7.42221 -0.11523,-11.50586 -0.11523,-11.50586 0,0 0.97836,-0.0577 3.30859,-0.11524 0,0 8.6e-4,-1.98441 -0.0566,-3.04883 l -3.56836,0.14258 c 0,-1.869928 0.48944,-3.193353 2.35937,-3.193353 0.48906,0 1.09278,0.115028 1.78321,0.316406 0,0 0.0584,-1.006239 0.25976,-3.365234 C 239.54932,3.673288 238.57002,3.52933 237.70697,3.52933 Z M 135.94526,6.964844 c 3.06432,-0.04759 5.53125,1.267319 5.53125,4.388668 0,4.08509 -2.90588,5.69752 -6.81836,5.17969 0.0288,-2.73298 0.0297,-4.86193 -0.0566,-9.464842 0.45669,-0.06113 0.90599,-0.09672 1.34375,-0.103516 z m 54.125,2.460937 c -4.17139,0 -7.16407,3.222891 -7.16407,7.912111 1e-5,4.48785 3.02156,7.2207 7.59571,7.2207 3.33711,0 6.01143,-1.95626 6.8457,-4.89062 -2.27269,-0.23015 -3.625,-0.40235 -3.625,-0.40235 -0.57537,1.35211 -1.64003,2.27344 -3.30859,2.27344 -1.84117,0 -3.42297,-1.32484 -3.48047,-3.16602 0,10e-6 4.08472,-0.2585 10.18359,-0.40234 0.0575,-0.40275 0.0879,-0.80623 0.0879,-1.20898 0,-4.22893 -2.90583,-7.335941 -7.13476,-7.335941 z m -36.6875,0.0293 c -4.11386,0 -7.33594,3.107821 -7.33594,7.912111 0,3.94125 2.56073,7.27734 7.56641,7.27734 4.63168,0 7.45117,-3.13463 7.45117,-7.91016 0,-4.17139 -3.13626,-7.279291 -7.68164,-7.279291 z m 68.83008,0 c -4.11386,0 -7.33594,3.107821 -7.33594,7.912111 0,3.94125 2.56073,7.27734 7.5664,7.27734 4.63169,0 7.45118,-3.13463 7.45118,-7.91016 0,-4.17139 -3.13626,-7.279291 -7.68164,-7.279291 z M 165.22455,9.68555 c -2.50284,0.316452 -3.76953,0.402342 -3.76953,0.402342 1.78363,8.25648 3.16407,14.38476 3.16407,14.38476 2.56038,-0.0288 5.12109,-0.14453 5.12109,-0.14453 1.55348,-5.86872 2.50391,-9.26367 2.50391,-9.26367 1.3521,5.03444 2.18554,8.63086 2.18554,8.63086 2.61791,0.14388 4.83203,0.20117 4.83203,0.20117 2.07131,-8.65924 2.99219,-12.85937 2.99219,-12.85937 -2.15762,-0.28768 -3.79687,-0.54688 -3.79687,-0.54688 -1.00688,5.69611 -1.75391,9.92578 -1.75391,9.92578 -1.40964,-5.29335 -2.38867,-9.08984 -2.38867,-9.08984 -2.50284,0 -4.11328,-0.0879 -4.11328,-0.0879 -1.52471,5.78241 -2.79102,10.07031 -2.79102,10.07031 -1.40964,-6.99068 -2.18555,-11.623042 -2.18555,-11.623042 z m 33.53516,0.201172 c 0,0 0.25831,9.17735 0.28711,14.4707 0,0 2.24376,-0.0289 3.71094,-0.11523 0,0 -0.0288,-2.93328 0,-5.14844 0.0288,-4.28646 1.55334,-5.38102 4.77539,-5.4961 0,0 -0.0571,-2.12799 -0.0859,-3.5664 -2.41653,0.0288 -4.34341,0.94953 -5.49414,2.56055 0,-10e-6 0.0856,-1.40946 0.17188,-2.64649 0,0 -2.0419,-0.0586 -3.36524,-0.0586 z m -8.60352,2.47461 c 1.69732,0 3.1067,1.32236 3.2793,3.13476 -2.73298,0.0863 -6.81836,0.0586 -6.81836,0.0586 0.31645,-1.52471 1.46775,-3.19336 3.53906,-3.19336 z m -36.6289,0.11523 c 2.21516,0 3.625,2.12855 3.625,4.66016 0,2.24392 -1.38161,4.42968 -3.6543,4.42968 -2.30145,0 -3.53906,-2.07069 -3.53906,-4.42968 0,-2.359 1.29567,-4.60266 3.56836,-4.66016 z m 68.83008,0 c 2.21515,0 3.625,2.12855 3.625,4.66016 0,2.24392 -1.38161,4.42968 -3.6543,4.42968 -2.30146,0 -3.53906,-2.07069 -3.53906,-4.42968 0,-2.359 1.29567,-4.60266 3.56836,-4.66016 z"
     id="path4706"
     inkscape:connector-curvature="0"
     sodipodi:nodetypes="sccccsssccccccccccsccsssccsscsccsccsssssssssssscccccccccccccccccccccccsccscsssccsssc" />
  <path
     id="path4616"
     d="m 89.60932,15.693362 c -2.600845,0 -4.751953,1.85143 -4.751953,4.65234 0,2.95096 1.999528,4.70117 4.650391,4.70117 2.550829,0 4.501953,-1.84982 4.501953,-4.80078 0,-2.55083 -1.899578,-4.55273 -4.400391,-4.55273 z m -30.433594,1.60156 c 0.121444,5 0.251953,14.10495 0.251953,37.3125 3.201039,-0.10003 6.601563,-0.30078 6.601563,-0.30078 -0.100032,-2.4508 -0.201172,-5.55123 -0.201172,-7.75195 0,-8.90289 2.00184,-12.1543 5.953125,-12.1543 4.151349,0 3.900391,5.95258 3.900391,10.00391 0,2.65085 -0.09876,4.69985 -0.298828,7.55078 3.551154,0.20008 6.601562,0.25195 6.601562,0.25195 0.250081,-4.45145 0.30044,-9.45438 0.150391,-14.00586 -0.150049,-5.75187 -3.901402,-9.50195 -9.203125,-9.50195 -2.900944,0 -5.151352,1.0987 -7.001954,2.69922 0.100032,-7.7025 0.298829,-14.00391 0.298829,-14.00391 -3.801236,0 -7.052735,-0.0996 -7.052735,-0.0996 z m -54.8749999,1.09961 c 0,0 0.05002,3.15078 0,6.75195 0,0 5.351579,-0.10003 6.5019529,0 0,0 -3.7014809,14.60491 -7.5527339,28.35938 0,0 3.402051,0.8013 6.703125,1.60156 0,0 1.2997719,-5.10151 1.9999999,-7.65234 0,0 6.402509,-0.0499 11.904297,-0.25 0,0 1.40057,4.15084 2.050781,6.35156 0,0 3.251563,-0.70016 5.652344,-1.40039 0,0 -4.452833,-16.40513 -7.753906,-27.0586 0,0 4.152637,0.0492 6.853515,0.19922 0,0 -4.23e-4,-3.85159 0.09961,-6.15234 0,0 -14.805196,-0.39988 -26.4589849,-0.75 z m 265.8281239,4.25195 c -4.55148,0.15005 -6.85351,0.15039 -6.85351,0.15039 -0.05,4.75154 -0.0996,6.25196 -0.0996,6.25196 -2.25074,-0.05 -3.20118,-0.0996 -3.20118,-0.0996 -0.05,3.4011 -0.15039,5.55078 -0.15039,5.55078 2.00065,0.10003 3.40235,0.20117 3.40235,0.20117 0,0 -0.10156,4.8506 -0.10156,9.00195 0,7.20234 4.00117,10.20313 8.80273,10.20313 2.40078,0 4.95196,-0.74917 7.30273,-2.09961 l -1.80078,-5.50195 c -1.60052,0.80026 -3.05037,1.25 -4.30078,1.25 -2.10068,0 -3.50195,-1.35101 -3.50195,-4.25196 0,-2.85092 0.15039,-8.80273 0.15039,-8.80273 4.70153,0.15005 8.60351,0.25 8.60351,0.25 -0.05,-3.50114 -0.0508,-6.10156 -0.0508,-6.10156 -5.70185,0 -8.40234,-0.0508 -8.40234,-0.0508 0.10003,-4.05132 0.20117,-5.95117 0.20117,-5.95117 z m -253.324218,1.93164 c 0.125041,-0.006 0.299935,-0.005 0.5,0.0195 0,0 2.701872,9.75308 4.152344,17.10547 0,0 -5.353061,0.14922 -9.154297,0.19922 0,0 2.302085,-10.00232 4.302735,-17.30469 0,0 0.07418,-0.0133 0.199218,-0.0195 z m 110.121098,2.91992 c 0,0 -3.55057,0.80012 -6.60157,1.6504 0,0 3.84976,11.70365 8.20118,24.50781 0,0 5.50361,-0.64912 8.80468,-0.94922 0,0 3.85077,-11.10418 7.50196,-22.25781 0,0 -3.80192,-1.0006 -6.30274,-1.55078 0,0 -2.74979,9.45232 -5.80078,19.10546 0,0 -3.10186,-10.75267 -5.80273,-20.50586 z m -18.89649,0.4004 c -7.25236,0 -12.455076,5.60125 -12.455076,13.7539 0,7.80253 5.252496,12.55469 13.205076,12.55469 5.80189,0 10.45383,-3.40225 11.9043,-8.50391 -3.95129,-0.40013 -6.30274,-0.69922 -6.30274,-0.69922 -1.00032,2.35076 -2.85101,3.95118 -5.75195,3.95118 -3.20104,0 -5.9527,-2.30092 -6.05273,-5.50196 0,0 7.10358,-0.44913 17.70703,-0.69922 0.10003,-0.70022 0.15039,-1.40133 0.15039,-2.10156 0,-7.35239 -5.05191,-12.7539 -12.4043,-12.7539 z m 48.89453,0 c -7.25236,0 -12.45312,5.60125 -12.45312,13.7539 0,7.80253 5.25053,12.55469 13.20312,12.55469 5.80188,0 10.45383,-3.40225 11.9043,-8.50391 -3.95129,-0.40013 -6.30273,-0.69922 -6.30273,-0.69922 -1.00033,2.35076 -2.85102,3.95118 -5.75196,3.95118 -3.20104,0 -5.95075,-2.30092 -6.05078,-5.50196 0,0 7.10163,-0.44913 17.70508,-0.69922 0.10005,-0.70022 0.15039,-1.40133 0.15039,-2.10156 0,-7.35239 -5.05191,-12.7539 -12.4043,-12.7539 z m 64.69141,0 c -7.25236,0 -12.45313,5.60125 -12.45313,13.7539 0,7.80253 5.25055,12.55469 13.20313,12.55469 5.80189,0 10.45383,-3.40225 11.9043,-8.50391 -3.95128,-0.40013 -6.30274,-0.69922 -6.30274,-0.69922 -1.00032,2.35076 -2.84905,3.95118 -5.75,3.95118 -3.20104,0 -5.9527,-2.30092 -6.05273,-5.50196 0,0 7.10163,-0.44913 17.70508,-0.69922 0.10005,-0.70022 0.15039,-1.40133 0.15039,-2.10156 0,-7.35239 -5.05191,-12.7539 -12.4043,-12.7539 z m -36.96484,0.25 c -2.7509,0 -5.25063,1.45095 -6.95118,3.35156 -0.05,-1.70055 -0.0508,-3.10156 -0.0508,-3.10156 -3.7012,0.10005 -6.00195,0.15039 -6.00195,0.15039 0.35011,13.80448 0.5,26.00781 0.5,26.00781 3.10101,-0.20006 6.55273,-0.34961 6.55273,-0.34961 -0.15006,-2.25073 -0.20117,-4.75225 -0.20117,-7.45313 0,-3.55115 -0.45016,-13.20312 4.85156,-13.20312 2.4508,0 3.30079,2.99953 3.30079,5.65039 0,4.90159 -0.0988,8.10374 -0.29883,12.20508 3.20104,0.05 6.30078,0.0488 6.30078,0.0488 -0.10003,-10.85353 0.10018,-17.00391 4.35156,-17.00391 2.50082,0 3.70117,1.84984 3.70117,5.95117 0,4.85158 -0.34911,8.80355 -0.69922,12.30469 3.40111,0 6.45118,0.25 6.45118,0.25 0.35011,-3.55115 0.70117,-9.30459 0.70117,-14.40625 0,-6.152 -3.70108,-9.35156 -8.80274,-9.35156 -2.95096,0 -5.35294,1.34981 -7.10351,3.15039 -1.35043,-2.40078 -3.10042,-4.20117 -6.60156,-4.20117 z m -139.914067,0.19921 c -6.252036,0 -12.003906,5.00191 -12.003906,13.55469 0,7.05229 4.851334,12.4043 12.753906,12.4043 6.001952,0 10.752393,-3.4516 11.802735,-9.35352 -4.001301,-0.15005 -7.050782,-0.34961 -7.050782,-0.34961 -0.700227,2.85092 -2.751302,4.15235 -4.751953,4.15235 -3.151024,0 -5.851562,-2.60087 -5.851562,-7.15235 0,-4.25138 2.050489,-8.0039 5.351562,-8.0039 2.450797,0 4.001026,2.00198 4.451172,4.30273 4.55148,-0.10004 6.851563,-0.10156 6.851563,-0.10156 -1.400456,-6.152 -5.900897,-9.45313 -11.552735,-9.45313 z m 41.570313,0.35157 c 0,9.75318 -0.199219,24.9082 -0.199219,24.9082 2.950959,0 6.601562,-0.10156 6.601562,-0.10156 0.05002,-15.00488 0.25,-24.70703 0.25,-24.70703 -3.501139,0 -6.652343,-0.0996 -6.652343,-0.0996 z m 163.636714,0 c -3.10101,0 -6.25291,1.69968 -8.10351,3.90039 0,0 0.0504,-1.80098 0.15039,-3.60157 0,0 -2.90145,-0.0496 -5.65234,-0.0996 0,0 0.40073,14.15446 0.55078,25.6582 2.00065,0 3.90111,-4.2e-4 6.50195,0.0996 -0.15005,-4.20136 -0.25042,-8.30229 -0.15039,-12.10352 0.10004,-4.55148 2.15112,-8.10309 5.90234,-8.20312 2.35077,-0.05 3.55036,1.70045 3.65039,5.10156 0.10003,4.3014 0.10045,6.7523 -0.0996,12.9043 0,0 3.551,0.10156 6.50196,0.10156 0,0 0.19922,-7.35249 0.19922,-12.9043 0,-7.85255 -4.09944,-10.85351 -9.45118,-10.85351 z m -141.76367,4.30078 c 2.95096,0 5.40108,2.30014 5.70117,5.45117 -4.75154,0.15003 -11.85351,0.0996 -11.85351,0.0996 0.55018,-2.65086 2.55117,-5.55078 6.15234,-5.55078 z m 48.89453,0 c 2.95096,0 5.40108,2.30014 5.70118,5.45117 -4.75155,0.15003 -11.85352,0.0996 -11.85352,0.0996 0.55018,-2.65086 2.55117,-5.55078 6.15234,-5.55078 z m 64.69141,0 c 2.95096,0 5.40107,2.30014 5.70117,5.45117 -4.75154,0.15003 -11.85351,0.0996 -11.85351,0.0996 0.55018,-2.65086 2.55117,-5.55078 6.15234,-5.55078 z"
     style="font-style:normal;font-variant:normal;font-weight:normal;font-stretch:normal;font-size:medium;line-height:100%;font-family:Shag;-inkscape-font-specification:Shag;font-variant-ligatures:normal;font-variant-position:normal;font-variant-caps:normal;font-variant-numeric:normal;font-variant-alternates:normal;font-feature-settings:normal;text-indent:0;text-align:start;text-decoration:none;text-decoration-line:none;text-decoration-style:solid;text-decoration-color:#000000;letter-spacing:0px;word-spacing:0px;text-transform:none;writing-mode:lr-tb;direction:ltr;text-orientation:mixed;dominant-baseline:auto;baseline-shift:baseline;text-anchor:start;white-space:normal;shape-padding:0;opacity:1;vector-effect:none;fill:none;fill-opacity:1;stroke:#000900;stroke-width:4.5;stroke-linecap:butt;stroke-linejoin:round;stroke-miterlimit:4;stroke-dasharray:none;stroke-dashoffset:0;stroke-opacity:1;paint-order:stroke fill markers"
     inkscape:connector-curvature="0" />
  <path
     style="font-style:normal;font-variant:normal;font-weight:normal;font-stretch:normal;font-size:medium;line-height:100%;font-family:Shag;-inkscape-font-specification:Shag;font-variant-ligatures:normal;font-variant-position:normal;font-variant-caps:normal;font-variant-numeric:normal;font-variant-alternates:normal;font-feature-settings:normal;text-indent:0;text-align:start;text-decoration:none;text-decoration-line:none;text-decoration-style:solid;text-decoration-color:#000000;letter-spacing:0px;word-spacing:0px;text-transform:none;writing-mode:lr-tb;direction:ltr;text-orientation:mixed;dominant-baseline:auto;baseline-shift:baseline;text-anchor:start;white-space:normal;shape-padding:0;opacity:1;vector-effect:none;fill:url(#linearGradient4675);fill-opacity:1;stroke:#6fcbfc;stroke-width:1.5;stroke-linecap:butt;stroke-linejoin:round;stroke-miterlimit:4;stroke-dasharray:none;stroke-dashoffset:0;stroke-opacity:1;paint-order:normal"
     d="m 41.21875,105.89844 c -2.600845,0 -4.751953,1.85143 -4.751953,4.65234 0,2.95096 1.999528,4.70117 4.650391,4.70117 2.550829,0 4.501953,-1.84982 4.501953,-4.80078 0,-2.55083 -1.899578,-4.55273 -4.400391,-4.55273 z M 10.785156,107.5 c 0.121444,5 0.251953,14.10495 0.251953,37.3125 3.201039,-0.10003 6.601563,-0.30078 6.601563,-0.30078 -0.100032,-2.4508 -0.201172,-5.55123 -0.201172,-7.75195 0,-8.90289 2.00184,-12.1543 5.953125,-12.1543 4.151349,0 3.900391,5.95258 3.900391,10.00391 0,2.65085 -0.09876,4.69985 -0.298828,7.55078 3.551154,0.20008 6.601562,0.25195 6.601562,0.25195 0.250081,-4.45145 0.30044,-9.45438 0.150391,-14.00586 -0.150049,-5.75187 -3.901402,-9.50195 -9.203125,-9.50195 -2.900944,0 -5.151352,1.0987 -7.001954,2.69922 0.100032,-7.7025 0.298829,-14.00391 0.298829,-14.00391 -3.801236,0 -7.052735,-0.0996 -7.052735,-0.0996 z m -54.875,1.09961 c 0,0 0.05002,3.15078 0,6.75195 0,0 5.351579,-0.10003 6.501953,0 0,0 -3.701481,14.60491 -7.552734,28.35938 0,0 3.402051,0.8013 6.703125,1.60156 0,0 1.299772,-5.10151 2,-7.65234 0,0 6.402509,-0.0499 11.904297,-0.25 0,0 1.40057,4.15084 2.050781,6.35156 0,0 3.251563,-0.70016 5.652344,-1.40039 0,0 -4.452833,-16.40513 -7.753906,-27.0586 0,0 4.152637,0.0492 6.853515,0.19922 0,0 -4.23e-4,-3.85159 0.09961,-6.15234 0,0 -14.805196,-0.39988 -26.458985,-0.75 z m 265.828124,4.25195 c -4.55148,0.15005 -6.85351,0.15039 -6.85351,0.15039 -0.05,4.75154 -0.0996,6.25196 -0.0996,6.25196 -2.25074,-0.05 -3.20118,-0.0996 -3.20118,-0.0996 -0.05,3.4011 -0.15039,5.55078 -0.15039,5.55078 2.00065,0.10003 3.40235,0.20117 3.40235,0.20117 0,0 -0.10156,4.8506 -0.10156,9.00195 0,7.20234 4.00117,10.20313 8.80273,10.20313 2.40078,0 4.95196,-0.74917 7.30273,-2.09961 l -1.80078,-5.50195 c -1.60052,0.80026 -3.05037,1.25 -4.30078,1.25 -2.10068,0 -3.50195,-1.35101 -3.50195,-4.25196 0,-2.85092 0.15039,-8.80273 0.15039,-8.80273 4.70153,0.15005 8.60351,0.25 8.60351,0.25 -0.05,-3.50114 -0.0508,-6.10156 -0.0508,-6.10156 -5.70185,0 -8.40234,-0.0508 -8.40234,-0.0508 0.10003,-4.05132 0.20117,-5.95117 0.20117,-5.95117 z m -253.324218,1.93164 c 0.125041,-0.006 0.299935,-0.005 0.5,0.0195 0,0 2.701872,9.75308 4.152344,17.10547 0,0 -5.353061,0.14922 -9.154297,0.19922 0,0 2.302085,-10.00232 4.302735,-17.30469 0,0 0.07418,-0.0133 0.199218,-0.0195 z m 110.121094,2.91992 c 0,0 -3.55057,0.80012 -6.601562,1.6504 0,0 3.849757,11.70365 8.201172,24.50781 0,0 5.503614,-0.64912 8.804687,-0.94922 0,0 3.850766,-11.10418 7.501953,-22.25781 0,0 -3.801921,-1.0006 -6.302734,-1.55078 0,0 -2.749789,9.45232 -5.800781,19.10546 0,0 -3.101857,-10.75267 -5.802735,-20.50586 z m -18.896484,0.4004 c -7.252358,0 -12.455078,5.60125 -12.455078,13.7539 0,7.80253 5.252492,12.55469 13.205078,12.55469 5.801886,0 10.453825,-3.40225 11.904297,-8.50391 -3.951285,-0.40013 -6.302735,-0.69922 -6.302735,-0.69922 -1.000325,2.35076 -2.85101,3.95118 -5.751953,3.95118 -3.201041,0 -5.952701,-2.30092 -6.052734,-5.50196 0,0 7.103583,-0.44913 17.707031,-0.69922 0.100029,-0.70022 0.150391,-1.40133 0.150391,-2.10156 0,-7.35239 -5.051907,-12.7539 -12.404297,-12.7539 z m 48.894528,0 c -7.25236,0 -12.453122,5.60125 -12.453122,13.7539 0,7.80253 5.250532,12.55469 13.203122,12.55469 5.80188,0 10.45383,-3.40225 11.9043,-8.50391 -3.95129,-0.40013 -6.30273,-0.69922 -6.30273,-0.69922 -1.00033,2.35076 -2.85102,3.95118 -5.75196,3.95118 -3.20104,0 -5.95075,-2.30092 -6.05078,-5.50196 0,0 7.10163,-0.44913 17.70508,-0.69922 0.10005,-0.70022 0.15039,-1.40133 0.15039,-2.10156 0,-7.35239 -5.05191,-12.7539 -12.4043,-12.7539 z m 64.69141,0 c -7.25236,0 -12.45313,5.60125 -12.45313,13.7539 0,7.80253 5.25055,12.55469 13.20313,12.55469 5.80189,0 10.45383,-3.40225 11.9043,-8.50391 -3.95128,-0.40013 -6.30274,-0.69922 -6.30274,-0.69922 -1.00032,2.35076 -2.84905,3.95118 -5.75,3.95118 -3.20104,0 -5.9527,-2.30092 -6.05273,-5.50196 0,0 7.10163,-0.44913 17.70508,-0.69922 0.10005,-0.70022 0.15039,-1.40133 0.15039,-2.10156 0,-7.35239 -5.05191,-12.7539 -12.4043,-12.7539 z m -36.96484,0.25 c -2.7509,0 -5.25063,1.45095 -6.95118,3.35156 -0.05,-1.70055 -0.0508,-3.10156 -0.0508,-3.10156 -3.7012,0.10005 -6.00195,0.15039 -6.00195,0.15039 0.35011,13.80448 0.5,26.00781 0.5,26.00781 3.10101,-0.20006 6.55273,-0.34961 6.55273,-0.34961 -0.15006,-2.25073 -0.20117,-4.75225 -0.20117,-7.45313 0,-3.55115 -0.45016,-13.20312 4.85156,-13.20312 2.4508,0 3.30079,2.99953 3.30079,5.65039 0,4.90159 -0.0988,8.10374 -0.29883,12.20508 3.20104,0.05 6.30078,0.0488 6.30078,0.0488 -0.10003,-10.85353 0.10018,-17.00391 4.35156,-17.00391 2.50082,0 3.70117,1.84984 3.70117,5.95117 0,4.85158 -0.34911,8.80355 -0.69922,12.30469 3.40111,0 6.45118,0.25 6.45118,0.25 0.35011,-3.55115 0.70117,-9.30459 0.70117,-14.40625 0,-6.152 -3.70108,-9.35156 -8.80274,-9.35156 -2.95096,0 -5.35294,1.34981 -7.10351,3.15039 -1.35043,-2.40078 -3.10042,-4.20117 -6.60156,-4.20117 z m -139.9140669,0.19921 c -6.2520358,0 -12.0039061,5.00191 -12.0039061,13.55469 0,7.05229 4.851334,12.4043 12.7539061,12.4043 6.0019514,0 10.7523929,-3.4516 11.8027344,-9.35352 -4.001301,-0.15005 -7.0507813,-0.34961 -7.0507813,-0.34961 -0.7002275,2.85092 -2.75130259,4.15235 -4.7519531,4.15235 -3.1510245,0 -5.8515625,-2.60087 -5.8515625,-7.15235 0,-4.25138 2.0504892,-8.0039 5.3515625,-8.0039 2.45079691,0 4.00102564,2.00198 4.4511719,4.30273 4.55148,-0.10004 6.8515625,-0.10156 6.8515625,-0.10156 -1.4004553,-6.152 -5.9008969,-9.45313 -11.5527344,-9.45313 z m 41.5703129,0.35157 c 0,9.75318 -0.199219,24.9082 -0.199219,24.9082 2.950959,0 6.601562,-0.10156 6.601562,-0.10156 0.05002,-15.00488 0.25,-24.70703 0.25,-24.70703 -3.501139,0 -6.652343,-0.0996 -6.652343,-0.0996 z m 163.636714,0 c -3.10101,0 -6.25291,1.69968 -8.10351,3.90039 0,0 0.0504,-1.80098 0.15039,-3.60157 0,0 -2.90145,-0.0496 -5.65234,-0.0996 0,0 0.40073,14.15446 0.55078,25.6582 2.00065,0 3.90111,-4.2e-4 6.50195,0.0996 -0.15005,-4.20136 -0.25042,-8.30229 -0.15039,-12.10352 0.10004,-4.55148 2.15112,-8.10309 5.90234,-8.20312 2.35077,-0.05 3.55036,1.70045 3.65039,5.10156 0.10003,4.3014 0.10045,6.7523 -0.0996,12.9043 0,0 3.551,0.10156 6.50196,0.10156 0,0 0.19922,-7.35249 0.19922,-12.9043 0,-7.85255 -4.09944,-10.85351 -9.45118,-10.85351 z m -141.763668,4.30078 c 2.95096,0 5.401075,2.30014 5.701172,5.45117 -4.751545,0.15003 -11.853515,0.0996 -11.853515,0.0996 0.550179,-2.65086 2.551173,-5.55078 6.152343,-5.55078 z m 48.894528,0 c 2.95096,0 5.40108,2.30014 5.70118,5.45117 -4.75155,0.15003 -11.85352,0.0996 -11.85352,0.0996 0.55018,-2.65086 2.55117,-5.55078 6.15234,-5.55078 z m 64.69141,0 c 2.95096,0 5.40107,2.30014 5.70117,5.45117 -4.75154,0.15003 -11.85351,0.0996 -11.85351,0.0996 0.55018,-2.65086 2.55117,-5.55078 6.15234,-5.55078 z"
     id="path4571"
     clip-path="url(#clipPath4671)"
     inkscape:connector-curvature="0"
     transform="translate(48.39057,-90.205078)" />
</svg>
