<?xml version="1.0" encoding="UTF-8" standalone="no"?>
<!-- Created with Inkscape (http://www.inkscape.org/) -->

<svg
   xmlns:dc="http://purl.org/dc/elements/1.1/"
   xmlns:cc="http://creativecommons.org/ns#"
   xmlns:rdf="http://www.w3.org/1999/02/22-rdf-syntax-ns#"
   xmlns:svg="http://www.w3.org/2000/svg"
   xmlns="http://www.w3.org/2000/svg"
   xmlns:xlink="http://www.w3.org/1999/xlink"
   xmlns:sodipodi="http://sodipodi.sourceforge.net/DTD/sodipodi-0.dtd"
   xmlns:inkscape="http://www.inkscape.org/namespaces/inkscape"
   width="162.44702"
   height="56.817619"
   viewBox="0 0 162.44702 56.817619"
   version="1.1"
   id="main-svg"
   inkscape:export-filename="D:\c\Qoph\DataFiles\Objectionable Ranking\Graphics\Power of Sudoku.png"
   inkscape:version="0.92.3 (2405546, 2018-03-11)"
   sodipodi:docname="Power of Sudoku.svg"
   inkscape:export-xdpi="600"
   inkscape:export-ydpi="600">
  <metadata
     id="metadata7">
    <rdf:RDF>
      <cc:Work
         rdf:about="">
        <dc:format>image/svg+xml</dc:format>
        <dc:type
           rdf:resource="http://purl.org/dc/dcmitype/StillImage" />
        <dc:title></dc:title>
      </cc:Work>
    </rdf:RDF>
  </metadata>
  <defs
     id="defs5">
    <linearGradient
       id="linearGradient4667"
       inkscape:collect="always">
      <stop
         id="stop4663"
         offset="0"
         style="stop-color:#004889;stop-opacity:1" />
      <stop
         id="stop4665"
         offset="1"
         style="stop-color:#36b1ff;stop-opacity:1" />
    </linearGradient>
    <linearGradient
       id="linearGradient4641"
       inkscape:collect="always">
      <stop
         id="stop4637"
         offset="0"
         style="stop-color:#007300;stop-opacity:1" />
      <stop
         id="stop4639"
         offset="1"
         style="stop-color:#00b00d;stop-opacity:1" />
    </linearGradient>
    <linearGradient
       inkscape:collect="always"
       xlink:href="#linearGradient4667"
       id="linearGradient4661"
       x1="154.97974"
       y1="72.088234"
       x2="154.97974"
       y2="32.086189"
       gradientUnits="userSpaceOnUse" />
    <clipPath
       clipPathUnits="userSpaceOnUse"
       id="clipPath4683">
      <path
         id="path4685"
         style="font-style:normal;font-variant:normal;font-weight:normal;font-stretch:normal;font-size:medium;line-height:100%;font-family:Shag;-inkscape-font-specification:Shag;font-variant-ligatures:normal;font-variant-position:normal;font-variant-caps:normal;font-variant-numeric:normal;font-variant-alternates:normal;font-feature-settings:normal;text-indent:0;text-align:start;text-decoration:none;text-decoration-line:none;text-decoration-style:solid;text-decoration-color:#000000;letter-spacing:0px;word-spacing:0px;text-transform:none;writing-mode:lr-tb;direction:ltr;text-orientation:mixed;dominant-baseline:auto;baseline-shift:baseline;text-anchor:start;white-space:normal;shape-padding:0;fill:none;fill-opacity:1;stroke:#000900;stroke-width:5;stroke-linecap:butt;stroke-linejoin:round;stroke-miterlimit:4;stroke-dasharray:none;stroke-dashoffset:0;stroke-opacity:1;paint-order:stroke fill markers"
         d="m 277.74958,49.005052 c -0.56827,-7.996393 4.54617,-12.055475 11.5278,-12.055475 6.04803,0 11.56838,3.490811 11.56838,9.37648 0,5.114444 -3.32845,8.442892 -9.49825,9.214118 0,0 0,0.690044 0.0406,1.907768 0,0 -2.71959,0 -6.12922,0.08118 0,0 0.12178,-2.394859 0.16237,-5.682715 5.64212,-0.121773 9.41707,-1.623633 9.41707,-5.560944 0,-2.678994 -2.35427,-4.383809 -5.47976,-4.383809 -3.61259,0 -5.88567,2.557222 -5.84508,6.656896 0,0 -1.38009,0.162363 -5.7639,0.446499 z m 6.53512,13.80088 c 0,-2.273086 1.98895,-3.734356 4.26204,-3.734356 2.15131,0 4.09967,1.420679 4.09967,3.734356 0,2.313678 -1.90777,3.856129 -4.22144,3.856129 -2.35427,0 -4.14027,-1.542451 -4.14027,-3.856129 z m -8.28433,-11.32484 c -4.54617,0.162363 -6.69749,1.704815 -6.73808,7.752848 -0.0406,3.125493 0,7.265758 0,7.265758 -2.07013,0.121772 -5.23621,0.162363 -5.23621,0.162363 -0.0406,-7.468712 -0.40591,-20.417185 -0.40591,-20.417185 1.86718,0 4.74912,0.08118 4.74912,0.08118 -0.12177,1.745406 -0.24354,3.734356 -0.24354,3.734356 1.62363,-2.273086 4.34322,-3.571992 7.75285,-3.612583 0.0406,2.029541 0.12177,5.033262 0.12177,5.033263 z m -24.64117,-5.88567 c 5.96685,0 10.06653,4.38381 10.06653,10.350661 0,0.568271 -0.0406,1.136543 -0.12178,1.704815 -8.60525,0.202954 -14.36915,0.568271 -14.36915,0.568271 0.0812,2.597813 2.31368,4.464991 4.91149,4.464991 2.35427,0 3.85613,-1.298906 4.66795,-3.206675 0,0 1.90777,0.243545 5.11444,0.568271 -1.17713,4.140265 -4.95208,6.900441 -9.66062,6.900441 -6.45394,0 -10.71597,-3.856129 -10.71597,-10.188298 0,-6.616304 4.22144,-11.162477 10.10711,-11.162477 z m -4.8709,8.645846 c 0,0 5.7639,0.04059 9.62003,-0.08118 -0.24355,-2.557222 -2.2325,-4.4244 -4.62736,-4.4244 -2.92254,0 -4.54617,2.354267 -4.99267,4.50558 z M 219.74211,45.96074 c 0,0 1.86718,0.08118 4.83031,0.121772 l -0.0812,2.191905 c 1.46127,-1.217725 3.61258,-2.029541 5.80449,-2.029541 5.39858,0 9.05177,4.4244 9.05177,10.594205 0,6.210396 -3.49083,10.188297 -8.84882,10.188297 -2.35427,0 -4.4244,-0.730635 -5.60153,-1.664224 0,0 0.0406,3.450221 0.16236,9.214118 0,0 -2.59781,-0.08118 -5.52035,-0.08118 0,0 0.16236,-15.383923 0.20295,-28.53535 z m 4.83031,10.634796 c 0,3.653174 1.786,6.048033 4.8709,6.048033 2.76019,0 4.4244,-2.719585 4.4244,-5.763897 0,-3.409629 -1.82659,-6.169806 -4.62736,-6.169806 -3.0849,0 -4.66794,2.43545 -4.66794,5.88567 z M 198.99831,52.86118 c 0.97417,-3.977901 4.05908,-6.859849 8.88939,-6.859849 5.31739,0 8.92998,3.084902 9.05175,9.417071 0.0812,4.546173 0.12177,10.431842 0.12177,10.431842 0,0 -2.23249,0.08118 -4.50558,0.08118 0,0 -0.0812,-1.014771 -0.20295,-1.98895 -1.86718,2.557222 -4.58677,3.328447 -6.57572,3.328447 -2.92254,0 -6.90044,-1.50186 -6.90044,-5.966851 0,-5.439171 7.18458,-7.225167 12.70493,-7.225167 -0.20295,-2.029541 -1.09595,-3.693765 -3.57199,-3.693765 -1.98895,0 -3.32845,1.339497 -3.85613,3.166084 0,0 -2.2325,-0.365317 -5.15503,-0.690044 z m 13.11083,4.546173 c -0.40591,-0.04059 -0.77122,-0.04059 -1.17713,-0.04059 -3.61259,0 -6.53513,1.623633 -6.53513,3.612583 0,1.501861 1.3395,2.110723 2.43545,2.110723 2.27309,0 5.27681,-2.070132 5.27681,-5.682716 z M 197.5142,51.481092 c -4.54617,0.162363 -6.69748,1.704815 -6.73807,7.752848 -0.0406,3.125493 0,7.265758 0,7.265758 -2.07014,0.121772 -5.23622,0.162363 -5.23622,0.162363 -0.0406,-7.468712 -0.40591,-20.417185 -0.40591,-20.417185 1.86718,0 4.74913,0.08118 4.74913,0.08118 -0.12177,1.745406 -0.24355,3.734356 -0.24355,3.734356 1.62364,-2.273086 4.34322,-3.571992 7.75285,-3.612583 0.0406,2.029541 0.12177,5.033262 0.12177,5.033263 z M 173.14195,45.96074 c 4.58676,0 8.23994,2.678994 9.37648,7.671666 0,0 -1.86718,0 -5.56094,0.08118 -0.36532,-1.867178 -1.62364,-3.490811 -3.61259,-3.490811 -2.67899,0 -4.34321,3.044311 -4.34321,6.494532 0,3.693765 2.1919,5.804488 4.74912,5.804488 1.62363,0 3.28786,-1.055362 3.85613,-3.369039 0,0 2.47604,0.162363 5.72331,0.284136 -0.85241,4.789717 -4.70854,7.590484 -9.57944,7.590484 -6.41335,0 -10.35066,-4.343218 -10.35066,-10.066524 0,-6.941032 4.66795,-11.000114 9.7418,-11.000114 z m -10.93226,7.225167 c 0,0 -2.2325,0.284136 -4.83031,0.527681 -0.48709,-2.719586 -2.84136,-3.89672 -4.95208,-3.89672 -1.82659,0 -3.49081,0.892998 -3.57199,2.43545 0,2.47604 4.14026,2.47604 7.63107,3.45022 2.59782,0.730635 4.99267,2.029541 4.99267,5.276807 0,4.059083 -3.93731,6.169806 -8.11816,6.169806 -4.38381,0 -9.01116,-2.313677 -9.66062,-7.103395 0,0 1.58305,-0.04059 5.03327,-0.243545 0.52768,2.110723 2.80076,3.125494 4.62735,3.125494 1.46127,0 2.6384,-0.608862 2.6384,-1.745406 0,-2.151313 -4.38381,-2.151313 -7.9558,-3.369038 -2.43545,-0.852407 -4.50558,-2.273086 -4.50558,-5.39858 0,-4.627354 4.18086,-6.981622 8.60526,-6.981622 4.62735,0 9.53884,2.597813 10.06652,7.752848 z m -39.18537,-6.575714 c 0,0 2.31368,-0.771226 5.39858,-1.623633 0,0 2.15132,8.686437 4.62736,17.454055 0,0 2.31367,-8.118165 4.50558,-16.195739 0,0 2.27308,0.649453 5.2768,1.380088 -7.18457,21.513137 -8.36171,27.317625 -15.26215,27.317625 -1.70481,0 -3.12549,-0.48709 -4.05908,-0.97418 0,0 0.40591,-2.273086 0.77123,-4.789717 1.05536,0.365317 2.11072,0.608862 3.00372,0.608862 1.3395,0 2.39486,-0.487089 2.84136,-1.745405 0,0 -3.45022,-10.391251 -7.1034,-21.431956 z m -12.51909,-9.660616 c 0,0 -0.0812,7.225166 -0.16236,17.454055 0,0 3.32844,-3.40963 8.19934,-8.686437 0,0 1.66423,1.745405 3.69377,3.856128 0,0 -3.28786,3.166085 -6.04803,5.845079 0,0 2.35426,2.96313 6.77866,8.564664 0,0 -1.94835,1.177134 -4.62735,3.044312 0,0 -2.80077,-3.977901 -6.33217,-8.686436 0,0 -0.73063,0.892998 -1.66422,2.029541 0,0 -0.0812,2.96313 -0.12178,6.859849 0,0 -2.59781,0 -5.15503,0.08118 0,0 -0.0406,-13.354382 -0.20295,-30.402528 z m -7.98244,12.745519 c -2.27309,-0.202954 -4.992674,-0.568272 -4.992674,-0.568272 0.690044,-4.789717 -2.151314,-7.38753 -6.250987,-7.38753 -3.369039,0 -5.479762,2.47604 -5.479762,4.830308 0,4.302628 5.520352,4.667945 10.107116,6.088624 3.287857,1.014771 6.048037,2.638404 6.048037,6.656895 0,4.099674 -2.881953,7.915211 -10.310074,7.915211 -5.601534,0 -10.79716,-2.922539 -10.918932,-9.295299 2.638404,0 5.560943,-0.04059 5.560943,-0.04059 0.202954,2.760176 2.354268,5.033262 5.723306,5.033262 2.881949,0 4.180855,-1.542451 4.180855,-3.247266 0,-3.328448 -5.560943,-3.369039 -10.188297,-5.195626 -3.247266,-1.298906 -6.048033,-3.45022 -6.048033,-8.280528 0,-5.195626 4.018492,-9.051754 10.715978,-9.051754 7.590485,0 13.354384,4.302627 11.852524,12.542565 z M 267.4972,26.237621 c -5.02356,0.179413 -7.40077,1.883834 -7.44564,8.56696 -0.0449,3.453695 0,8.028722 0,8.028722 -2.2875,0.134559 -5.78605,0.179412 -5.78605,0.179412 -0.0449,-8.252987 -0.44853,-22.561156 -0.44853,-22.561156 2.06325,0 5.24782,0.08971 5.24782,0.08971 -0.13456,1.928687 -0.26911,4.126494 -0.26911,4.126494 1.79412,-2.511779 4.79928,-3.947081 8.56695,-3.991934 0.0449,2.242659 0.13456,5.561796 0.13456,5.561796 z m -27.2287,-6.503713 c 6.59343,0 11.1236,4.844145 11.1236,11.437564 0,0.627945 -0.0449,1.255889 -0.13456,1.883834 -9.50888,0.224266 -15.87803,0.627945 -15.87803,0.627945 0.0897,2.870605 2.55663,4.933851 5.42724,4.933851 2.60148,0 4.26105,-1.435303 5.15811,-3.543402 0,0 2.10811,0.269119 5.65151,0.627944 -1.30075,4.575026 -5.4721,7.625043 -10.67506,7.625043 -7.13166,0 -11.84124,-4.261052 -11.84124,-11.258151 0,-7.311071 4.66472,-12.334628 11.16843,-12.334628 z m -5.38237,9.55373 c 0,0 6.36915,0.04485 10.6302,-0.08971 -0.26911,-2.825751 -2.46692,-4.888998 -5.11326,-4.888998 -3.22944,0 -5.02356,2.601485 -5.51694,4.978704 z m -14.8352,-18.165543 c 3.27429,0 6.18974,0.179413 6.18974,0.179413 -0.13456,13.680223 -0.26911,31.397234 -0.26911,31.397234 -3.18458,0 -5.78607,0.0897 -5.78607,0.0897 0,-8.387547 -0.13456,-31.666354 -0.13456,-31.666354 z m -9.81164,0 c 3.27429,0 6.18975,0.179413 6.18975,0.179413 -0.13456,13.680223 -0.26912,31.397234 -0.26912,31.397234 -3.18458,0 -5.78606,0.0897 -5.78606,0.0897 0,-8.387547 -0.13457,-31.666354 -0.13457,-31.666354 z m -23.01178,16.640534 c 1.07648,-4.395613 4.48532,-7.580189 9.82286,-7.580189 5.87574,0 9.86769,3.408842 10.00226,10.405941 0.0897,5.023557 0.13456,11.52727 0.13456,11.52727 0,0 -2.46691,0.0897 -4.9787,0.0897 0,0 -0.0897,-1.12133 -0.22426,-2.197806 -2.06324,2.825751 -5.06841,3.677961 -7.26622,3.677961 -3.22943,0 -7.62505,-1.659568 -7.62505,-6.593419 0,-6.010328 7.93902,-7.983869 14.03906,-7.983869 -0.22429,-2.242659 -1.21103,-4.08164 -3.94708,-4.08164 -2.19781,0 -3.67797,1.480155 -4.26105,3.498549 0,0 -2.46693,-0.403679 -5.69636,-0.762504 z m 14.48757,5.023558 c -0.44852,-0.04485 -0.85219,-0.04485 -1.30073,-0.04485 -3.99194,0 -7.22137,1.794127 -7.22137,3.991934 0,1.659568 1.48016,2.332367 2.69119,2.332367 2.51179,0 5.83091,-2.287514 5.83091,-6.279448 z M 168.73047,11.525773 c 11.21329,-0.358825 22.11263,-0.717651 22.11263,-0.717651 -0.0897,3.722815 -0.0449,6.279448 -0.0449,6.279448 -3.00516,-0.08971 -7.80445,-0.13456 -7.80445,-0.13456 -0.22427,12.78316 -0.31397,26.373677 -0.31397,26.373677 -2.42208,0 -6.2346,-0.134559 -6.2346,-0.134559 0.31397,-13.90449 0.58309,-25.70088 0.58309,-25.70088 -2.55663,0 -8.4324,0.224266 -8.4324,0.224266 0.0448,-2.018394 0.13456,-6.189741 0.13456,-6.189741 z"
         inkscape:connector-curvature="0" />
    </clipPath>
    <linearGradient
       inkscape:collect="always"
       xlink:href="#linearGradient4641"
       id="linearGradient4740"
       gradientUnits="userSpaceOnUse"
       x1="123.35396"
       y1="42.426712"
       x2="123.35396"
       y2="16.162745"
       gradientTransform="matrix(1.0888818,0,0,1.1079673,-88.270139,-18.248176)" />
    <linearGradient
       gradientTransform="translate(79.954288,10.808122)"
       inkscape:collect="always"
       xlink:href="#linearGradient4667"
       id="linearGradient4661-3"
       x1="154.97974"
       y1="78.957268"
       x2="154.97974"
       y2="8.2465887"
       gradientUnits="userSpaceOnUse" />
    <clipPath
       clipPathUnits="userSpaceOnUse"
       id="clipPath4683-5">
      <path
         id="path4685-3"
         style="font-style:normal;font-variant:normal;font-weight:normal;font-stretch:normal;font-size:medium;line-height:100%;font-family:Shag;-inkscape-font-specification:Shag;font-variant-ligatures:normal;font-variant-position:normal;font-variant-caps:normal;font-variant-numeric:normal;font-variant-alternates:normal;font-feature-settings:normal;text-indent:0;text-align:start;text-decoration:none;text-decoration-line:none;text-decoration-style:solid;text-decoration-color:#000000;letter-spacing:0px;word-spacing:0px;text-transform:none;writing-mode:lr-tb;direction:ltr;text-orientation:mixed;dominant-baseline:auto;baseline-shift:baseline;text-anchor:start;white-space:normal;shape-padding:0;fill:none;fill-opacity:1;stroke:#000900;stroke-width:5;stroke-linecap:butt;stroke-linejoin:round;stroke-miterlimit:4;stroke-dasharray:none;stroke-dashoffset:0;stroke-opacity:1;paint-order:stroke fill markers"
         d="m 277.74958,49.005052 c -0.56827,-7.996393 4.54617,-12.055475 11.5278,-12.055475 6.04803,0 11.56838,3.490811 11.56838,9.37648 0,5.114444 -3.32845,8.442892 -9.49825,9.214118 0,0 0,0.690044 0.0406,1.907768 0,0 -2.71959,0 -6.12922,0.08118 0,0 0.12178,-2.394859 0.16237,-5.682715 5.64212,-0.121773 9.41707,-1.623633 9.41707,-5.560944 0,-2.678994 -2.35427,-4.383809 -5.47976,-4.383809 -3.61259,0 -5.88567,2.557222 -5.84508,6.656896 0,0 -1.38009,0.162363 -5.7639,0.446499 z m 6.53512,13.80088 c 0,-2.273086 1.98895,-3.734356 4.26204,-3.734356 2.15131,0 4.09967,1.420679 4.09967,3.734356 0,2.313678 -1.90777,3.856129 -4.22144,3.856129 -2.35427,0 -4.14027,-1.542451 -4.14027,-3.856129 z m -8.28433,-11.32484 c -4.54617,0.162363 -6.69749,1.704815 -6.73808,7.752848 -0.0406,3.125493 0,7.265758 0,7.265758 -2.07013,0.121772 -5.23621,0.162363 -5.23621,0.162363 -0.0406,-7.468712 -0.40591,-20.417185 -0.40591,-20.417185 1.86718,0 4.74912,0.08118 4.74912,0.08118 -0.12177,1.745406 -0.24354,3.734356 -0.24354,3.734356 1.62363,-2.273086 4.34322,-3.571992 7.75285,-3.612583 0.0406,2.029541 0.12177,5.033262 0.12177,5.033263 z m -24.64117,-5.88567 c 5.96685,0 10.06653,4.38381 10.06653,10.350661 0,0.568271 -0.0406,1.136543 -0.12178,1.704815 -8.60525,0.202954 -14.36915,0.568271 -14.36915,0.568271 0.0812,2.597813 2.31368,4.464991 4.91149,4.464991 2.35427,0 3.85613,-1.298906 4.66795,-3.206675 0,0 1.90777,0.243545 5.11444,0.568271 -1.17713,4.140265 -4.95208,6.900441 -9.66062,6.900441 -6.45394,0 -10.71597,-3.856129 -10.71597,-10.188298 0,-6.616304 4.22144,-11.162477 10.10711,-11.162477 z m -4.8709,8.645846 c 0,0 5.7639,0.04059 9.62003,-0.08118 -0.24355,-2.557222 -2.2325,-4.4244 -4.62736,-4.4244 -2.92254,0 -4.54617,2.354267 -4.99267,4.50558 z M 219.74211,45.96074 c 0,0 1.86718,0.08118 4.83031,0.121772 l -0.0812,2.191905 c 1.46127,-1.217725 3.61258,-2.029541 5.80449,-2.029541 5.39858,0 9.05177,4.4244 9.05177,10.594205 0,6.210396 -3.49083,10.188297 -8.84882,10.188297 -2.35427,0 -4.4244,-0.730635 -5.60153,-1.664224 0,0 0.0406,3.450221 0.16236,9.214118 0,0 -2.59781,-0.08118 -5.52035,-0.08118 0,0 0.16236,-15.383923 0.20295,-28.53535 z m 4.83031,10.634796 c 0,3.653174 1.786,6.048033 4.8709,6.048033 2.76019,0 4.4244,-2.719585 4.4244,-5.763897 0,-3.409629 -1.82659,-6.169806 -4.62736,-6.169806 -3.0849,0 -4.66794,2.43545 -4.66794,5.88567 z M 198.99831,52.86118 c 0.97417,-3.977901 4.05908,-6.859849 8.88939,-6.859849 5.31739,0 8.92998,3.084902 9.05175,9.417071 0.0812,4.546173 0.12177,10.431842 0.12177,10.431842 0,0 -2.23249,0.08118 -4.50558,0.08118 0,0 -0.0812,-1.014771 -0.20295,-1.98895 -1.86718,2.557222 -4.58677,3.328447 -6.57572,3.328447 -2.92254,0 -6.90044,-1.50186 -6.90044,-5.966851 0,-5.439171 7.18458,-7.225167 12.70493,-7.225167 -0.20295,-2.029541 -1.09595,-3.693765 -3.57199,-3.693765 -1.98895,0 -3.32845,1.339497 -3.85613,3.166084 0,0 -2.2325,-0.365317 -5.15503,-0.690044 z m 13.11083,4.546173 c -0.40591,-0.04059 -0.77122,-0.04059 -1.17713,-0.04059 -3.61259,0 -6.53513,1.623633 -6.53513,3.612583 0,1.501861 1.3395,2.110723 2.43545,2.110723 2.27309,0 5.27681,-2.070132 5.27681,-5.682716 z M 197.5142,51.481092 c -4.54617,0.162363 -6.69748,1.704815 -6.73807,7.752848 -0.0406,3.125493 0,7.265758 0,7.265758 -2.07014,0.121772 -5.23622,0.162363 -5.23622,0.162363 -0.0406,-7.468712 -0.40591,-20.417185 -0.40591,-20.417185 1.86718,0 4.74913,0.08118 4.74913,0.08118 -0.12177,1.745406 -0.24355,3.734356 -0.24355,3.734356 1.62364,-2.273086 4.34322,-3.571992 7.75285,-3.612583 0.0406,2.029541 0.12177,5.033262 0.12177,5.033263 z M 173.14195,45.96074 c 4.58676,0 8.23994,2.678994 9.37648,7.671666 0,0 -1.86718,0 -5.56094,0.08118 -0.36532,-1.867178 -1.62364,-3.490811 -3.61259,-3.490811 -2.67899,0 -4.34321,3.044311 -4.34321,6.494532 0,3.693765 2.1919,5.804488 4.74912,5.804488 1.62363,0 3.28786,-1.055362 3.85613,-3.369039 0,0 2.47604,0.162363 5.72331,0.284136 -0.85241,4.789717 -4.70854,7.590484 -9.57944,7.590484 -6.41335,0 -10.35066,-4.343218 -10.35066,-10.066524 0,-6.941032 4.66795,-11.000114 9.7418,-11.000114 z m -10.93226,7.225167 c 0,0 -2.2325,0.284136 -4.83031,0.527681 -0.48709,-2.719586 -2.84136,-3.89672 -4.95208,-3.89672 -1.82659,0 -3.49081,0.892998 -3.57199,2.43545 0,2.47604 4.14026,2.47604 7.63107,3.45022 2.59782,0.730635 4.99267,2.029541 4.99267,5.276807 0,4.059083 -3.93731,6.169806 -8.11816,6.169806 -4.38381,0 -9.01116,-2.313677 -9.66062,-7.103395 0,0 1.58305,-0.04059 5.03327,-0.243545 0.52768,2.110723 2.80076,3.125494 4.62735,3.125494 1.46127,0 2.6384,-0.608862 2.6384,-1.745406 0,-2.151313 -4.38381,-2.151313 -7.9558,-3.369038 -2.43545,-0.852407 -4.50558,-2.273086 -4.50558,-5.39858 0,-4.627354 4.18086,-6.981622 8.60526,-6.981622 4.62735,0 9.53884,2.597813 10.06652,7.752848 z m -39.18537,-6.575714 c 0,0 2.31368,-0.771226 5.39858,-1.623633 0,0 2.15132,8.686437 4.62736,17.454055 0,0 2.31367,-8.118165 4.50558,-16.195739 0,0 2.27308,0.649453 5.2768,1.380088 -7.18457,21.513137 -8.36171,27.317625 -15.26215,27.317625 -1.70481,0 -3.12549,-0.48709 -4.05908,-0.97418 0,0 0.40591,-2.273086 0.77123,-4.789717 1.05536,0.365317 2.11072,0.608862 3.00372,0.608862 1.3395,0 2.39486,-0.487089 2.84136,-1.745405 0,0 -3.45022,-10.391251 -7.1034,-21.431956 z m -12.51909,-9.660616 c 0,0 -0.0812,7.225166 -0.16236,17.454055 0,0 3.32844,-3.40963 8.19934,-8.686437 0,0 1.66423,1.745405 3.69377,3.856128 0,0 -3.28786,3.166085 -6.04803,5.845079 0,0 2.35426,2.96313 6.77866,8.564664 0,0 -1.94835,1.177134 -4.62735,3.044312 0,0 -2.80077,-3.977901 -6.33217,-8.686436 0,0 -0.73063,0.892998 -1.66422,2.029541 0,0 -0.0812,2.96313 -0.12178,6.859849 0,0 -2.59781,0 -5.15503,0.08118 0,0 -0.0406,-13.354382 -0.20295,-30.402528 z m -7.98244,12.745519 c -2.27309,-0.202954 -4.992674,-0.568272 -4.992674,-0.568272 0.690044,-4.789717 -2.151314,-7.38753 -6.250987,-7.38753 -3.369039,0 -5.479762,2.47604 -5.479762,4.830308 0,4.302628 5.520352,4.667945 10.107116,6.088624 3.287857,1.014771 6.048037,2.638404 6.048037,6.656895 0,4.099674 -2.881953,7.915211 -10.310074,7.915211 -5.601534,0 -10.79716,-2.922539 -10.918932,-9.295299 2.638404,0 5.560943,-0.04059 5.560943,-0.04059 0.202954,2.760176 2.354268,5.033262 5.723306,5.033262 2.881949,0 4.180855,-1.542451 4.180855,-3.247266 0,-3.328448 -5.560943,-3.369039 -10.188297,-5.195626 -3.247266,-1.298906 -6.048033,-3.45022 -6.048033,-8.280528 0,-5.195626 4.018492,-9.051754 10.715978,-9.051754 7.590485,0 13.354384,4.302627 11.852524,12.542565 z M 267.4972,26.237621 c -5.02356,0.179413 -7.40077,1.883834 -7.44564,8.56696 -0.0449,3.453695 0,8.028722 0,8.028722 -2.2875,0.134559 -5.78605,0.179412 -5.78605,0.179412 -0.0449,-8.252987 -0.44853,-22.561156 -0.44853,-22.561156 2.06325,0 5.24782,0.08971 5.24782,0.08971 -0.13456,1.928687 -0.26911,4.126494 -0.26911,4.126494 1.79412,-2.511779 4.79928,-3.947081 8.56695,-3.991934 0.0449,2.242659 0.13456,5.561796 0.13456,5.561796 z m -27.2287,-6.503713 c 6.59343,0 11.1236,4.844145 11.1236,11.437564 0,0.627945 -0.0449,1.255889 -0.13456,1.883834 -9.50888,0.224266 -15.87803,0.627945 -15.87803,0.627945 0.0897,2.870605 2.55663,4.933851 5.42724,4.933851 2.60148,0 4.26105,-1.435303 5.15811,-3.543402 0,0 2.10811,0.269119 5.65151,0.627944 -1.30075,4.575026 -5.4721,7.625043 -10.67506,7.625043 -7.13166,0 -11.84124,-4.261052 -11.84124,-11.258151 0,-7.311071 4.66472,-12.334628 11.16843,-12.334628 z m -5.38237,9.55373 c 0,0 6.36915,0.04485 10.6302,-0.08971 -0.26911,-2.825751 -2.46692,-4.888998 -5.11326,-4.888998 -3.22944,0 -5.02356,2.601485 -5.51694,4.978704 z m -14.8352,-18.165543 c 3.27429,0 6.18974,0.179413 6.18974,0.179413 -0.13456,13.680223 -0.26911,31.397234 -0.26911,31.397234 -3.18458,0 -5.78607,0.0897 -5.78607,0.0897 0,-8.387547 -0.13456,-31.666354 -0.13456,-31.666354 z m -9.81164,0 c 3.27429,0 6.18975,0.179413 6.18975,0.179413 -0.13456,13.680223 -0.26912,31.397234 -0.26912,31.397234 -3.18458,0 -5.78606,0.0897 -5.78606,0.0897 0,-8.387547 -0.13457,-31.666354 -0.13457,-31.666354 z m -23.01178,16.640534 c 1.07648,-4.395613 4.48532,-7.580189 9.82286,-7.580189 5.87574,0 9.86769,3.408842 10.00226,10.405941 0.0897,5.023557 0.13456,11.52727 0.13456,11.52727 0,0 -2.46691,0.0897 -4.9787,0.0897 0,0 -0.0897,-1.12133 -0.22426,-2.197806 -2.06324,2.825751 -5.06841,3.677961 -7.26622,3.677961 -3.22943,0 -7.62505,-1.659568 -7.62505,-6.593419 0,-6.010328 7.93902,-7.983869 14.03906,-7.983869 -0.22429,-2.242659 -1.21103,-4.08164 -3.94708,-4.08164 -2.19781,0 -3.67797,1.480155 -4.26105,3.498549 0,0 -2.46693,-0.403679 -5.69636,-0.762504 z m 14.48757,5.023558 c -0.44852,-0.04485 -0.85219,-0.04485 -1.30073,-0.04485 -3.99194,0 -7.22137,1.794127 -7.22137,3.991934 0,1.659568 1.48016,2.332367 2.69119,2.332367 2.51179,0 5.83091,-2.287514 5.83091,-6.279448 z M 168.73047,11.525773 c 11.21329,-0.358825 22.11263,-0.717651 22.11263,-0.717651 -0.0897,3.722815 -0.0449,6.279448 -0.0449,6.279448 -3.00516,-0.08971 -7.80445,-0.13456 -7.80445,-0.13456 -0.22427,12.78316 -0.31397,26.373677 -0.31397,26.373677 -2.42208,0 -6.2346,-0.134559 -6.2346,-0.134559 0.31397,-13.90449 0.58309,-25.70088 0.58309,-25.70088 -2.55663,0 -8.4324,0.224266 -8.4324,0.224266 0.0448,-2.018394 0.13456,-6.189741 0.13456,-6.189741 z"
         inkscape:connector-curvature="0" />
    </clipPath>
    <clipPath
       clipPathUnits="userSpaceOnUse"
       id="clipPath4811">
      <text
         xml:space="preserve"
         style="font-style:normal;font-variant:normal;font-weight:normal;font-stretch:normal;font-size:49.54705048px;line-height:100%;font-family:Shag;-inkscape-font-specification:Shag;font-variant-ligatures:normal;font-variant-position:normal;font-variant-caps:normal;font-variant-numeric:normal;font-variant-alternates:normal;font-feature-settings:normal;text-indent:0;text-align:start;text-decoration:none;text-decoration-line:none;text-decoration-style:solid;text-decoration-color:#000000;letter-spacing:0px;word-spacing:0px;text-transform:none;writing-mode:lr-tb;direction:ltr;text-orientation:mixed;dominant-baseline:auto;baseline-shift:baseline;text-anchor:start;white-space:normal;shape-padding:0;opacity:1;vector-effect:none;fill:#000000;fill-opacity:1;stroke:none;stroke-width:1px;stroke-linecap:butt;stroke-linejoin:miter;stroke-miterlimit:4;stroke-dasharray:none;stroke-dashoffset:0;stroke-opacity:1"
         x="75.503624"
         y="69.302551"
         id="text4815"><tspan
           sodipodi:role="line"
           id="tspan4813"
           x="75.503624"
           y="69.302551"
           style="stroke-width:1px">Sudoku</tspan></text>
    </clipPath>
  </defs>
  <sodipodi:namedview
     id="base"
     pagecolor="#3ab1fd"
     bordercolor="#666666"
     borderopacity="1.0"
     inkscape:pageopacity="0"
     inkscape:pageshadow="2"
     inkscape:zoom="4.9497474"
     inkscape:cx="24.524988"
     inkscape:cy="28.987294"
     inkscape:document-units="px"
     showgrid="true"
     units="px"
     inkscape:current-layer="main-svg"
     inkscape:snap-global="false"
     fit-margin-top="1"
     fit-margin-left="1"
     fit-margin-right="1"
     fit-margin-bottom="1" />
  <path
     id="path4703"
     style="font-style:normal;font-variant:normal;font-weight:normal;font-stretch:normal;font-size:medium;line-height:100%;font-family:Shag;-inkscape-font-specification:Shag;font-variant-ligatures:normal;font-variant-position:normal;font-variant-caps:normal;font-variant-numeric:normal;font-variant-alternates:normal;font-feature-settings:normal;text-indent:0;text-align:start;text-decoration:none;text-decoration-line:none;text-decoration-style:solid;text-decoration-color:#000000;letter-spacing:0px;word-spacing:0px;text-transform:none;writing-mode:lr-tb;direction:ltr;text-orientation:mixed;dominant-baseline:auto;baseline-shift:baseline;text-anchor:start;white-space:normal;shape-padding:0;vector-effect:none;fill:url(#linearGradient4740);fill-opacity:1;stroke:#003200;stroke-width:5;stroke-linecap:butt;stroke-linejoin:round;stroke-miterlimit:4;stroke-dasharray:none;stroke-dashoffset:0;stroke-opacity:0.98857141;paint-order:stroke fill markers"
     d="m 142.91541,24.124316 c -1.98612,0.05318 -3.47571,0.05318 -3.47571,0.05318 0.0523,-5.265061 0,-11.061947 0,-11.061947 -1.14986,0 -2.16906,0.05318 -2.16906,0.05318 0,-0.771146 -0.0261,-2.738896 -0.0261,-2.738896 0,0 0.67946,0.02659 1.85545,0.02659 0.0261,-3.749362 1.48959,-5.929841 4.75624,-5.929841 0.784,0 1.67252,0.132956 2.66558,0.398868 -0.18293,2.18048 -0.2352,3.111172 -0.2352,3.111172 -0.62719,-0.186138 -1.17599,-0.292503 -1.62025,-0.292503 -1.69866,0 -2.14292,1.223196 -2.14292,2.951625 l 3.24051,-0.132957 c 0.0523,0.983875 0.0523,2.81867 0.0523,2.81867 -2.11679,0.05318 -3.00532,0.106365 -3.00532,0.106365 0,0 0.0261,3.775953 0.10454,10.636486 z M 130.66099,10.00438 c 4.12904,0 6.97755,2.871851 6.97755,6.727579 0,4.414141 -2.56105,7.312584 -6.76849,7.312584 -4.54717,0 -6.87302,-3.084581 -6.87302,-6.727578 0,-4.440734 2.92692,-7.312585 6.66396,-7.312585 z m 0.13066,2.792078 c -2.06452,0.05318 -3.24051,2.127298 -3.24051,4.307778 0,2.180479 1.12373,4.095047 3.21438,4.095047 2.06452,0 3.31891,-2.020933 3.31891,-4.095047 0,-2.340027 -1.28052,-4.307778 -3.29278,-4.307778 z m -16.46552,0.03706 c -2.92692,0.106365 -4.31197,1.116831 -4.33811,5.078922 -0.0261,2.047524 0,4.759828 0,4.759828 -1.33279,0.07977 -3.37117,0.106365 -3.37117,0.106365 -0.0261,-4.892784 -0.26134,-13.375383 -0.26134,-13.375383 1.20213,0 3.05758,0.05318 3.05758,0.05318 -0.0784,1.143422 -0.15679,2.446391 -0.15679,2.446391 1.04532,-1.489108 2.79624,-2.340027 4.99143,-2.366618 0.0261,1.329561 0.0784,3.297312 0.0784,3.297312 z M 98.46167,6.977791 c 3.84157,0 6.48102,2.871851 6.48102,6.780761 0,0.372277 -0.0261,0.744554 -0.0784,1.116831 -5.54023,0.132956 -9.25114,0.372277 -9.25114,0.372277 0.0523,1.701838 1.48959,2.925033 3.16211,2.925033 1.51573,0 2.48265,-0.850918 3.00532,-2.100706 0,0 1.22826,0.159548 3.29278,0.372277 -0.75787,2.712304 -3.18825,4.520507 -6.2197,4.520507 -4.15517,0 -6.89915,-2.526165 -6.89915,-6.674395 0,-4.334369 2.71785,-7.312585 6.50716,-7.312585 z m -3.13598,5.66393 c 0,0 3.7109,0.02659 6.19356,-0.05318 -0.1568,-1.675246 -1.43733,-2.898443 -2.97919,-2.898443 -1.88158,0 -2.92691,1.542291 -3.21437,2.951626 z M 72.468159,4.589389 c 0,0 1.14986,-0.07977 3.42345,-0.372277 0,0 0.70559,2.281186 1.98612,8.742852 1.1945,-2.347601 1.66946,-3.352047 2.53491,-6.306927 0,0 1.46346,0.07977 3.73705,0.07977 0,0 0.88851,3.510041 2.16904,8.402825 0,0 0.67946,-3.908909 1.59412,-9.17397 0,0 1.48959,0.239321 3.449581,0.505233 0,0 -0.836261,3.882318 -2.717851,11.886274 0,0 -2.01225,-0.05318 -4.39036,-0.186138 0,0 -0.75786,-3.323902 -1.98612,-7.977365 0,0 -1.3624,2.923477 -2.27359,5.562371 0,0 -2.32585,0.106365 -4.6517,0.132956 0,0 -1.25439,-3.663928 -2.87465,-11.295608 z m -7.3328,2.414993 c 4.12904,0 6.97755,2.871851 6.97755,6.727579 0,4.414141 -2.56105,7.312584 -6.76848,7.312584 -4.54718,0 -6.87303,-3.084581 -6.87303,-6.727578 0,-4.440734 2.92692,-7.312585 6.66396,-7.312585 z m 0.13067,2.792078 c -2.06452,0.05318 -3.24052,2.127298 -3.24052,4.307778 0,2.180479 1.12373,4.095047 3.21438,4.095047 2.06452,0 3.31891,-2.020933 3.31891,-4.095047 0,-2.340027 -1.28052,-4.307778 -3.29277,-4.307778 z m -17.95716,8.727578 c 0.0261,1.568882 0.0523,4.360959 0.0523,4.360959 -1.38506,0.02659 -3.84158,0.132956 -3.84158,0.132956 0.26133,-9.785567 0.392,-19.145676 0.392,-19.145676 C 45.009179,3.659548 46.368109,3.5 47.805429,3.5 c 4.25971,0 9.09434,1.462517 9.09434,7.365767 0,6.461666 -4.70397,7.924183 -9.59087,7.658271 z m -0.2352,-11.726727 c 0.0784,4.254595 0.0784,6.222346 0.0523,8.748511 3.55411,0.478642 6.19356,-1.010466 6.19356,-4.78642 0,-3.297311 -2.92692,-4.414142 -6.24583,-3.962091 z"
     inkscape:connector-curvature="0"
     sodipodi:nodetypes="ccccccsccsccccccssssscssscccccccccccssccsccsssccscccccccccccccccccssssscssscccccssccccscc" />
  <text
     xml:space="preserve"
     style="font-style:normal;font-variant:normal;font-weight:normal;font-stretch:normal;font-size:49.54705048px;line-height:100%;font-family:Shag;-inkscape-font-specification:Shag;font-variant-ligatures:normal;font-variant-position:normal;font-variant-caps:normal;font-variant-numeric:normal;font-variant-alternates:normal;font-feature-settings:normal;text-indent:0;text-align:start;text-decoration:none;text-decoration-line:none;text-decoration-style:solid;text-decoration-color:#000000;letter-spacing:0px;word-spacing:0px;text-transform:none;writing-mode:lr-tb;direction:ltr;text-orientation:mixed;dominant-baseline:auto;baseline-shift:baseline;text-anchor:start;white-space:normal;shape-padding:0;opacity:1;vector-effect:none;fill:none;fill-opacity:1;stroke:#000900;stroke-width:4.5;stroke-linecap:butt;stroke-linejoin:round;stroke-miterlimit:4;stroke-dasharray:none;stroke-dashoffset:0;stroke-opacity:1;paint-order:stroke fill markers"
     x="2.3581531"
     y="52.229851"
     id="text4766"><tspan
       sodipodi:role="line"
       id="tspan4764"
       x="2.3581531"
       y="52.229851"
       style="vector-effect:none;fill:none;fill-opacity:1;stroke:#000900;stroke-width:4.5;stroke-linecap:butt;stroke-linejoin:round;stroke-miterlimit:4;stroke-dasharray:none;stroke-dashoffset:0;stroke-opacity:1;paint-order:stroke fill markers">Sudoku</tspan></text>
  <text
     id="text4762"
     y="69.302551"
     x="75.503624"
     style="font-style:normal;font-variant:normal;font-weight:normal;font-stretch:normal;font-size:49.54705048px;line-height:100%;font-family:Shag;-inkscape-font-specification:Shag;font-variant-ligatures:normal;font-variant-position:normal;font-variant-caps:normal;font-variant-numeric:normal;font-variant-alternates:normal;font-feature-settings:normal;text-indent:0;text-align:start;text-decoration:none;text-decoration-line:none;text-decoration-style:solid;text-decoration-color:#000000;letter-spacing:0px;word-spacing:0px;text-transform:none;writing-mode:lr-tb;direction:ltr;text-orientation:mixed;dominant-baseline:auto;baseline-shift:baseline;text-anchor:start;white-space:normal;shape-padding:0;opacity:1;vector-effect:none;fill:url(#linearGradient4661);fill-opacity:1;stroke:#6fcbfc;stroke-width:1.5;stroke-linecap:butt;stroke-linejoin:round;stroke-miterlimit:4;stroke-dasharray:none;stroke-dashoffset:0;stroke-opacity:1;paint-order:normal"
     xml:space="preserve"
     clip-path="url(#clipPath4811)"
     transform="translate(-73.145471,-17.0727)"><tspan
       style="vector-effect:none;fill:url(#linearGradient4661);fill-opacity:1;stroke:#6fcbfc;stroke-width:1.5;stroke-linecap:butt;stroke-linejoin:round;stroke-miterlimit:4;stroke-dasharray:none;stroke-dashoffset:0;stroke-opacity:1;paint-order:normal"
       y="69.302551"
       x="75.503624"
       id="tspan4760"
       sodipodi:role="line">Sudoku</tspan></text>
</svg>
