<?xml version="1.0" encoding="UTF-8" standalone="no"?>
<!-- Created with Inkscape (http://www.inkscape.org/) -->

<svg
   xmlns:dc="http://purl.org/dc/elements/1.1/"
   xmlns:cc="http://creativecommons.org/ns#"
   xmlns:rdf="http://www.w3.org/1999/02/22-rdf-syntax-ns#"
   xmlns:svg="http://www.w3.org/2000/svg"
   xmlns="http://www.w3.org/2000/svg"
   xmlns:xlink="http://www.w3.org/1999/xlink"
   xmlns:sodipodi="http://sodipodi.sourceforge.net/DTD/sodipodi-0.dtd"
   xmlns:inkscape="http://www.inkscape.org/namespaces/inkscape"
   width="140.66541"
   height="92.871841"
   viewBox="0 0 140.6654 92.87184"
   version="1.1"
   id="main-svg"
   inkscape:export-filename="D:\c\Qoph\DataFiles\Objectionable Ranking\Graphics\Take The Light alt.png"
   inkscape:version="0.92.3 (2405546, 2018-03-11)"
   sodipodi:docname="Take the Light alt.svg"
   inkscape:export-xdpi="600.04413"
   inkscape:export-ydpi="600.04413">
  <metadata
     id="metadata7">
    <rdf:RDF>
      <cc:Work
         rdf:about="">
        <dc:format>image/svg+xml</dc:format>
        <dc:type
           rdf:resource="http://purl.org/dc/dcmitype/StillImage" />
        <dc:title></dc:title>
      </cc:Work>
    </rdf:RDF>
  </metadata>
  <defs
     id="defs5">
    <linearGradient
       id="linearGradient4667"
       inkscape:collect="always">
      <stop
         id="stop4663"
         offset="0"
         style="stop-color:#004889;stop-opacity:1" />
      <stop
         id="stop4665"
         offset="1"
         style="stop-color:#36b1ff;stop-opacity:1" />
    </linearGradient>
    <linearGradient
       id="linearGradient4641"
       inkscape:collect="always">
      <stop
         id="stop4637"
         offset="0"
         style="stop-color:#007300;stop-opacity:1" />
      <stop
         id="stop4639"
         offset="1"
         style="stop-color:#00b00d;stop-opacity:1" />
    </linearGradient>
    <linearGradient
       inkscape:collect="always"
       xlink:href="#linearGradient4667"
       id="linearGradient4661"
       x1="154.97974"
       y1="78.957268"
       x2="154.97974"
       y2="8.2465887"
       gradientUnits="userSpaceOnUse" />
    <clipPath
       clipPathUnits="userSpaceOnUse"
       id="clipPath4683">
      <path
         id="path4685"
         style="font-style:normal;font-variant:normal;font-weight:normal;font-stretch:normal;font-size:medium;line-height:100%;font-family:Shag;-inkscape-font-specification:Shag;font-variant-ligatures:normal;font-variant-position:normal;font-variant-caps:normal;font-variant-numeric:normal;font-variant-alternates:normal;font-feature-settings:normal;text-indent:0;text-align:start;text-decoration:none;text-decoration-line:none;text-decoration-style:solid;text-decoration-color:#000000;letter-spacing:0px;word-spacing:0px;text-transform:none;writing-mode:lr-tb;direction:ltr;text-orientation:mixed;dominant-baseline:auto;baseline-shift:baseline;text-anchor:start;white-space:normal;shape-padding:0;fill:none;fill-opacity:1;stroke:#000900;stroke-width:5;stroke-linecap:butt;stroke-linejoin:round;stroke-miterlimit:4;stroke-dasharray:none;stroke-dashoffset:0;stroke-opacity:1;paint-order:stroke fill markers"
         d="m 277.74958,49.005052 c -0.56827,-7.996393 4.54617,-12.055475 11.5278,-12.055475 6.04803,0 11.56838,3.490811 11.56838,9.37648 0,5.114444 -3.32845,8.442892 -9.49825,9.214118 0,0 0,0.690044 0.0406,1.907768 0,0 -2.71959,0 -6.12922,0.08118 0,0 0.12178,-2.394859 0.16237,-5.682715 5.64212,-0.121773 9.41707,-1.623633 9.41707,-5.560944 0,-2.678994 -2.35427,-4.383809 -5.47976,-4.383809 -3.61259,0 -5.88567,2.557222 -5.84508,6.656896 0,0 -1.38009,0.162363 -5.7639,0.446499 z m 6.53512,13.80088 c 0,-2.273086 1.98895,-3.734356 4.26204,-3.734356 2.15131,0 4.09967,1.420679 4.09967,3.734356 0,2.313678 -1.90777,3.856129 -4.22144,3.856129 -2.35427,0 -4.14027,-1.542451 -4.14027,-3.856129 z m -8.28433,-11.32484 c -4.54617,0.162363 -6.69749,1.704815 -6.73808,7.752848 -0.0406,3.125493 0,7.265758 0,7.265758 -2.07013,0.121772 -5.23621,0.162363 -5.23621,0.162363 -0.0406,-7.468712 -0.40591,-20.417185 -0.40591,-20.417185 1.86718,0 4.74912,0.08118 4.74912,0.08118 -0.12177,1.745406 -0.24354,3.734356 -0.24354,3.734356 1.62363,-2.273086 4.34322,-3.571992 7.75285,-3.612583 0.0406,2.029541 0.12177,5.033262 0.12177,5.033263 z m -24.64117,-5.88567 c 5.96685,0 10.06653,4.38381 10.06653,10.350661 0,0.568271 -0.0406,1.136543 -0.12178,1.704815 -8.60525,0.202954 -14.36915,0.568271 -14.36915,0.568271 0.0812,2.597813 2.31368,4.464991 4.91149,4.464991 2.35427,0 3.85613,-1.298906 4.66795,-3.206675 0,0 1.90777,0.243545 5.11444,0.568271 -1.17713,4.140265 -4.95208,6.900441 -9.66062,6.900441 -6.45394,0 -10.71597,-3.856129 -10.71597,-10.188298 0,-6.616304 4.22144,-11.162477 10.10711,-11.162477 z m -4.8709,8.645846 c 0,0 5.7639,0.04059 9.62003,-0.08118 -0.24355,-2.557222 -2.2325,-4.4244 -4.62736,-4.4244 -2.92254,0 -4.54617,2.354267 -4.99267,4.50558 z M 219.74211,45.96074 c 0,0 1.86718,0.08118 4.83031,0.121772 l -0.0812,2.191905 c 1.46127,-1.217725 3.61258,-2.029541 5.80449,-2.029541 5.39858,0 9.05177,4.4244 9.05177,10.594205 0,6.210396 -3.49083,10.188297 -8.84882,10.188297 -2.35427,0 -4.4244,-0.730635 -5.60153,-1.664224 0,0 0.0406,3.450221 0.16236,9.214118 0,0 -2.59781,-0.08118 -5.52035,-0.08118 0,0 0.16236,-15.383923 0.20295,-28.53535 z m 4.83031,10.634796 c 0,3.653174 1.786,6.048033 4.8709,6.048033 2.76019,0 4.4244,-2.719585 4.4244,-5.763897 0,-3.409629 -1.82659,-6.169806 -4.62736,-6.169806 -3.0849,0 -4.66794,2.43545 -4.66794,5.88567 z M 198.99831,52.86118 c 0.97417,-3.977901 4.05908,-6.859849 8.88939,-6.859849 5.31739,0 8.92998,3.084902 9.05175,9.417071 0.0812,4.546173 0.12177,10.431842 0.12177,10.431842 0,0 -2.23249,0.08118 -4.50558,0.08118 0,0 -0.0812,-1.014771 -0.20295,-1.98895 -1.86718,2.557222 -4.58677,3.328447 -6.57572,3.328447 -2.92254,0 -6.90044,-1.50186 -6.90044,-5.966851 0,-5.439171 7.18458,-7.225167 12.70493,-7.225167 -0.20295,-2.029541 -1.09595,-3.693765 -3.57199,-3.693765 -1.98895,0 -3.32845,1.339497 -3.85613,3.166084 0,0 -2.2325,-0.365317 -5.15503,-0.690044 z m 13.11083,4.546173 c -0.40591,-0.04059 -0.77122,-0.04059 -1.17713,-0.04059 -3.61259,0 -6.53513,1.623633 -6.53513,3.612583 0,1.501861 1.3395,2.110723 2.43545,2.110723 2.27309,0 5.27681,-2.070132 5.27681,-5.682716 z M 197.5142,51.481092 c -4.54617,0.162363 -6.69748,1.704815 -6.73807,7.752848 -0.0406,3.125493 0,7.265758 0,7.265758 -2.07014,0.121772 -5.23622,0.162363 -5.23622,0.162363 -0.0406,-7.468712 -0.40591,-20.417185 -0.40591,-20.417185 1.86718,0 4.74913,0.08118 4.74913,0.08118 -0.12177,1.745406 -0.24355,3.734356 -0.24355,3.734356 1.62364,-2.273086 4.34322,-3.571992 7.75285,-3.612583 0.0406,2.029541 0.12177,5.033262 0.12177,5.033263 z M 173.14195,45.96074 c 4.58676,0 8.23994,2.678994 9.37648,7.671666 0,0 -1.86718,0 -5.56094,0.08118 -0.36532,-1.867178 -1.62364,-3.490811 -3.61259,-3.490811 -2.67899,0 -4.34321,3.044311 -4.34321,6.494532 0,3.693765 2.1919,5.804488 4.74912,5.804488 1.62363,0 3.28786,-1.055362 3.85613,-3.369039 0,0 2.47604,0.162363 5.72331,0.284136 -0.85241,4.789717 -4.70854,7.590484 -9.57944,7.590484 -6.41335,0 -10.35066,-4.343218 -10.35066,-10.066524 0,-6.941032 4.66795,-11.000114 9.7418,-11.000114 z m -10.93226,7.225167 c 0,0 -2.2325,0.284136 -4.83031,0.527681 -0.48709,-2.719586 -2.84136,-3.89672 -4.95208,-3.89672 -1.82659,0 -3.49081,0.892998 -3.57199,2.43545 0,2.47604 4.14026,2.47604 7.63107,3.45022 2.59782,0.730635 4.99267,2.029541 4.99267,5.276807 0,4.059083 -3.93731,6.169806 -8.11816,6.169806 -4.38381,0 -9.01116,-2.313677 -9.66062,-7.103395 0,0 1.58305,-0.04059 5.03327,-0.243545 0.52768,2.110723 2.80076,3.125494 4.62735,3.125494 1.46127,0 2.6384,-0.608862 2.6384,-1.745406 0,-2.151313 -4.38381,-2.151313 -7.9558,-3.369038 -2.43545,-0.852407 -4.50558,-2.273086 -4.50558,-5.39858 0,-4.627354 4.18086,-6.981622 8.60526,-6.981622 4.62735,0 9.53884,2.597813 10.06652,7.752848 z m -39.18537,-6.575714 c 0,0 2.31368,-0.771226 5.39858,-1.623633 0,0 2.15132,8.686437 4.62736,17.454055 0,0 2.31367,-8.118165 4.50558,-16.195739 0,0 2.27308,0.649453 5.2768,1.380088 -7.18457,21.513137 -8.36171,27.317625 -15.26215,27.317625 -1.70481,0 -3.12549,-0.48709 -4.05908,-0.97418 0,0 0.40591,-2.273086 0.77123,-4.789717 1.05536,0.365317 2.11072,0.608862 3.00372,0.608862 1.3395,0 2.39486,-0.487089 2.84136,-1.745405 0,0 -3.45022,-10.391251 -7.1034,-21.431956 z m -12.51909,-9.660616 c 0,0 -0.0812,7.225166 -0.16236,17.454055 0,0 3.32844,-3.40963 8.19934,-8.686437 0,0 1.66423,1.745405 3.69377,3.856128 0,0 -3.28786,3.166085 -6.04803,5.845079 0,0 2.35426,2.96313 6.77866,8.564664 0,0 -1.94835,1.177134 -4.62735,3.044312 0,0 -2.80077,-3.977901 -6.33217,-8.686436 0,0 -0.73063,0.892998 -1.66422,2.029541 0,0 -0.0812,2.96313 -0.12178,6.859849 0,0 -2.59781,0 -5.15503,0.08118 0,0 -0.0406,-13.354382 -0.20295,-30.402528 z m -7.98244,12.745519 c -2.27309,-0.202954 -4.992674,-0.568272 -4.992674,-0.568272 0.690044,-4.789717 -2.151314,-7.38753 -6.250987,-7.38753 -3.369039,0 -5.479762,2.47604 -5.479762,4.830308 0,4.302628 5.520352,4.667945 10.107116,6.088624 3.287857,1.014771 6.048037,2.638404 6.048037,6.656895 0,4.099674 -2.881953,7.915211 -10.310074,7.915211 -5.601534,0 -10.79716,-2.922539 -10.918932,-9.295299 2.638404,0 5.560943,-0.04059 5.560943,-0.04059 0.202954,2.760176 2.354268,5.033262 5.723306,5.033262 2.881949,0 4.180855,-1.542451 4.180855,-3.247266 0,-3.328448 -5.560943,-3.369039 -10.188297,-5.195626 -3.247266,-1.298906 -6.048033,-3.45022 -6.048033,-8.280528 0,-5.195626 4.018492,-9.051754 10.715978,-9.051754 7.590485,0 13.354384,4.302627 11.852524,12.542565 z M 267.4972,26.237621 c -5.02356,0.179413 -7.40077,1.883834 -7.44564,8.56696 -0.0449,3.453695 0,8.028722 0,8.028722 -2.2875,0.134559 -5.78605,0.179412 -5.78605,0.179412 -0.0449,-8.252987 -0.44853,-22.561156 -0.44853,-22.561156 2.06325,0 5.24782,0.08971 5.24782,0.08971 -0.13456,1.928687 -0.26911,4.126494 -0.26911,4.126494 1.79412,-2.511779 4.79928,-3.947081 8.56695,-3.991934 0.0449,2.242659 0.13456,5.561796 0.13456,5.561796 z m -27.2287,-6.503713 c 6.59343,0 11.1236,4.844145 11.1236,11.437564 0,0.627945 -0.0449,1.255889 -0.13456,1.883834 -9.50888,0.224266 -15.87803,0.627945 -15.87803,0.627945 0.0897,2.870605 2.55663,4.933851 5.42724,4.933851 2.60148,0 4.26105,-1.435303 5.15811,-3.543402 0,0 2.10811,0.269119 5.65151,0.627944 -1.30075,4.575026 -5.4721,7.625043 -10.67506,7.625043 -7.13166,0 -11.84124,-4.261052 -11.84124,-11.258151 0,-7.311071 4.66472,-12.334628 11.16843,-12.334628 z m -5.38237,9.55373 c 0,0 6.36915,0.04485 10.6302,-0.08971 -0.26911,-2.825751 -2.46692,-4.888998 -5.11326,-4.888998 -3.22944,0 -5.02356,2.601485 -5.51694,4.978704 z m -14.8352,-18.165543 c 3.27429,0 6.18974,0.179413 6.18974,0.179413 -0.13456,13.680223 -0.26911,31.397234 -0.26911,31.397234 -3.18458,0 -5.78607,0.0897 -5.78607,0.0897 0,-8.387547 -0.13456,-31.666354 -0.13456,-31.666354 z m -9.81164,0 c 3.27429,0 6.18975,0.179413 6.18975,0.179413 -0.13456,13.680223 -0.26912,31.397234 -0.26912,31.397234 -3.18458,0 -5.78606,0.0897 -5.78606,0.0897 0,-8.387547 -0.13457,-31.666354 -0.13457,-31.666354 z m -23.01178,16.640534 c 1.07648,-4.395613 4.48532,-7.580189 9.82286,-7.580189 5.87574,0 9.86769,3.408842 10.00226,10.405941 0.0897,5.023557 0.13456,11.52727 0.13456,11.52727 0,0 -2.46691,0.0897 -4.9787,0.0897 0,0 -0.0897,-1.12133 -0.22426,-2.197806 -2.06324,2.825751 -5.06841,3.677961 -7.26622,3.677961 -3.22943,0 -7.62505,-1.659568 -7.62505,-6.593419 0,-6.010328 7.93902,-7.983869 14.03906,-7.983869 -0.22429,-2.242659 -1.21103,-4.08164 -3.94708,-4.08164 -2.19781,0 -3.67797,1.480155 -4.26105,3.498549 0,0 -2.46693,-0.403679 -5.69636,-0.762504 z m 14.48757,5.023558 c -0.44852,-0.04485 -0.85219,-0.04485 -1.30073,-0.04485 -3.99194,0 -7.22137,1.794127 -7.22137,3.991934 0,1.659568 1.48016,2.332367 2.69119,2.332367 2.51179,0 5.83091,-2.287514 5.83091,-6.279448 z M 168.73047,11.525773 c 11.21329,-0.358825 22.11263,-0.717651 22.11263,-0.717651 -0.0897,3.722815 -0.0449,6.279448 -0.0449,6.279448 -3.00516,-0.08971 -7.80445,-0.13456 -7.80445,-0.13456 -0.22427,12.78316 -0.31397,26.373677 -0.31397,26.373677 -2.42208,0 -6.2346,-0.134559 -6.2346,-0.134559 0.31397,-13.90449 0.58309,-25.70088 0.58309,-25.70088 -2.55663,0 -8.4324,0.224266 -8.4324,0.224266 0.0448,-2.018394 0.13456,-6.189741 0.13456,-6.189741 z"
         inkscape:connector-curvature="0" />
    </clipPath>
    <linearGradient
       gradientTransform="translate(79.954288,10.808122)"
       inkscape:collect="always"
       xlink:href="#linearGradient4667"
       id="linearGradient4661-3"
       x1="154.97974"
       y1="78.957268"
       x2="154.97974"
       y2="8.2465887"
       gradientUnits="userSpaceOnUse" />
    <clipPath
       clipPathUnits="userSpaceOnUse"
       id="clipPath4683-5">
      <path
         id="path4685-3"
         style="font-style:normal;font-variant:normal;font-weight:normal;font-stretch:normal;font-size:medium;line-height:100%;font-family:Shag;-inkscape-font-specification:Shag;font-variant-ligatures:normal;font-variant-position:normal;font-variant-caps:normal;font-variant-numeric:normal;font-variant-alternates:normal;font-feature-settings:normal;text-indent:0;text-align:start;text-decoration:none;text-decoration-line:none;text-decoration-style:solid;text-decoration-color:#000000;letter-spacing:0px;word-spacing:0px;text-transform:none;writing-mode:lr-tb;direction:ltr;text-orientation:mixed;dominant-baseline:auto;baseline-shift:baseline;text-anchor:start;white-space:normal;shape-padding:0;fill:none;fill-opacity:1;stroke:#000900;stroke-width:5;stroke-linecap:butt;stroke-linejoin:round;stroke-miterlimit:4;stroke-dasharray:none;stroke-dashoffset:0;stroke-opacity:1;paint-order:stroke fill markers"
         d="m 277.74958,49.005052 c -0.56827,-7.996393 4.54617,-12.055475 11.5278,-12.055475 6.04803,0 11.56838,3.490811 11.56838,9.37648 0,5.114444 -3.32845,8.442892 -9.49825,9.214118 0,0 0,0.690044 0.0406,1.907768 0,0 -2.71959,0 -6.12922,0.08118 0,0 0.12178,-2.394859 0.16237,-5.682715 5.64212,-0.121773 9.41707,-1.623633 9.41707,-5.560944 0,-2.678994 -2.35427,-4.383809 -5.47976,-4.383809 -3.61259,0 -5.88567,2.557222 -5.84508,6.656896 0,0 -1.38009,0.162363 -5.7639,0.446499 z m 6.53512,13.80088 c 0,-2.273086 1.98895,-3.734356 4.26204,-3.734356 2.15131,0 4.09967,1.420679 4.09967,3.734356 0,2.313678 -1.90777,3.856129 -4.22144,3.856129 -2.35427,0 -4.14027,-1.542451 -4.14027,-3.856129 z m -8.28433,-11.32484 c -4.54617,0.162363 -6.69749,1.704815 -6.73808,7.752848 -0.0406,3.125493 0,7.265758 0,7.265758 -2.07013,0.121772 -5.23621,0.162363 -5.23621,0.162363 -0.0406,-7.468712 -0.40591,-20.417185 -0.40591,-20.417185 1.86718,0 4.74912,0.08118 4.74912,0.08118 -0.12177,1.745406 -0.24354,3.734356 -0.24354,3.734356 1.62363,-2.273086 4.34322,-3.571992 7.75285,-3.612583 0.0406,2.029541 0.12177,5.033262 0.12177,5.033263 z m -24.64117,-5.88567 c 5.96685,0 10.06653,4.38381 10.06653,10.350661 0,0.568271 -0.0406,1.136543 -0.12178,1.704815 -8.60525,0.202954 -14.36915,0.568271 -14.36915,0.568271 0.0812,2.597813 2.31368,4.464991 4.91149,4.464991 2.35427,0 3.85613,-1.298906 4.66795,-3.206675 0,0 1.90777,0.243545 5.11444,0.568271 -1.17713,4.140265 -4.95208,6.900441 -9.66062,6.900441 -6.45394,0 -10.71597,-3.856129 -10.71597,-10.188298 0,-6.616304 4.22144,-11.162477 10.10711,-11.162477 z m -4.8709,8.645846 c 0,0 5.7639,0.04059 9.62003,-0.08118 -0.24355,-2.557222 -2.2325,-4.4244 -4.62736,-4.4244 -2.92254,0 -4.54617,2.354267 -4.99267,4.50558 z M 219.74211,45.96074 c 0,0 1.86718,0.08118 4.83031,0.121772 l -0.0812,2.191905 c 1.46127,-1.217725 3.61258,-2.029541 5.80449,-2.029541 5.39858,0 9.05177,4.4244 9.05177,10.594205 0,6.210396 -3.49083,10.188297 -8.84882,10.188297 -2.35427,0 -4.4244,-0.730635 -5.60153,-1.664224 0,0 0.0406,3.450221 0.16236,9.214118 0,0 -2.59781,-0.08118 -5.52035,-0.08118 0,0 0.16236,-15.383923 0.20295,-28.53535 z m 4.83031,10.634796 c 0,3.653174 1.786,6.048033 4.8709,6.048033 2.76019,0 4.4244,-2.719585 4.4244,-5.763897 0,-3.409629 -1.82659,-6.169806 -4.62736,-6.169806 -3.0849,0 -4.66794,2.43545 -4.66794,5.88567 z M 198.99831,52.86118 c 0.97417,-3.977901 4.05908,-6.859849 8.88939,-6.859849 5.31739,0 8.92998,3.084902 9.05175,9.417071 0.0812,4.546173 0.12177,10.431842 0.12177,10.431842 0,0 -2.23249,0.08118 -4.50558,0.08118 0,0 -0.0812,-1.014771 -0.20295,-1.98895 -1.86718,2.557222 -4.58677,3.328447 -6.57572,3.328447 -2.92254,0 -6.90044,-1.50186 -6.90044,-5.966851 0,-5.439171 7.18458,-7.225167 12.70493,-7.225167 -0.20295,-2.029541 -1.09595,-3.693765 -3.57199,-3.693765 -1.98895,0 -3.32845,1.339497 -3.85613,3.166084 0,0 -2.2325,-0.365317 -5.15503,-0.690044 z m 13.11083,4.546173 c -0.40591,-0.04059 -0.77122,-0.04059 -1.17713,-0.04059 -3.61259,0 -6.53513,1.623633 -6.53513,3.612583 0,1.501861 1.3395,2.110723 2.43545,2.110723 2.27309,0 5.27681,-2.070132 5.27681,-5.682716 z M 197.5142,51.481092 c -4.54617,0.162363 -6.69748,1.704815 -6.73807,7.752848 -0.0406,3.125493 0,7.265758 0,7.265758 -2.07014,0.121772 -5.23622,0.162363 -5.23622,0.162363 -0.0406,-7.468712 -0.40591,-20.417185 -0.40591,-20.417185 1.86718,0 4.74913,0.08118 4.74913,0.08118 -0.12177,1.745406 -0.24355,3.734356 -0.24355,3.734356 1.62364,-2.273086 4.34322,-3.571992 7.75285,-3.612583 0.0406,2.029541 0.12177,5.033262 0.12177,5.033263 z M 173.14195,45.96074 c 4.58676,0 8.23994,2.678994 9.37648,7.671666 0,0 -1.86718,0 -5.56094,0.08118 -0.36532,-1.867178 -1.62364,-3.490811 -3.61259,-3.490811 -2.67899,0 -4.34321,3.044311 -4.34321,6.494532 0,3.693765 2.1919,5.804488 4.74912,5.804488 1.62363,0 3.28786,-1.055362 3.85613,-3.369039 0,0 2.47604,0.162363 5.72331,0.284136 -0.85241,4.789717 -4.70854,7.590484 -9.57944,7.590484 -6.41335,0 -10.35066,-4.343218 -10.35066,-10.066524 0,-6.941032 4.66795,-11.000114 9.7418,-11.000114 z m -10.93226,7.225167 c 0,0 -2.2325,0.284136 -4.83031,0.527681 -0.48709,-2.719586 -2.84136,-3.89672 -4.95208,-3.89672 -1.82659,0 -3.49081,0.892998 -3.57199,2.43545 0,2.47604 4.14026,2.47604 7.63107,3.45022 2.59782,0.730635 4.99267,2.029541 4.99267,5.276807 0,4.059083 -3.93731,6.169806 -8.11816,6.169806 -4.38381,0 -9.01116,-2.313677 -9.66062,-7.103395 0,0 1.58305,-0.04059 5.03327,-0.243545 0.52768,2.110723 2.80076,3.125494 4.62735,3.125494 1.46127,0 2.6384,-0.608862 2.6384,-1.745406 0,-2.151313 -4.38381,-2.151313 -7.9558,-3.369038 -2.43545,-0.852407 -4.50558,-2.273086 -4.50558,-5.39858 0,-4.627354 4.18086,-6.981622 8.60526,-6.981622 4.62735,0 9.53884,2.597813 10.06652,7.752848 z m -39.18537,-6.575714 c 0,0 2.31368,-0.771226 5.39858,-1.623633 0,0 2.15132,8.686437 4.62736,17.454055 0,0 2.31367,-8.118165 4.50558,-16.195739 0,0 2.27308,0.649453 5.2768,1.380088 -7.18457,21.513137 -8.36171,27.317625 -15.26215,27.317625 -1.70481,0 -3.12549,-0.48709 -4.05908,-0.97418 0,0 0.40591,-2.273086 0.77123,-4.789717 1.05536,0.365317 2.11072,0.608862 3.00372,0.608862 1.3395,0 2.39486,-0.487089 2.84136,-1.745405 0,0 -3.45022,-10.391251 -7.1034,-21.431956 z m -12.51909,-9.660616 c 0,0 -0.0812,7.225166 -0.16236,17.454055 0,0 3.32844,-3.40963 8.19934,-8.686437 0,0 1.66423,1.745405 3.69377,3.856128 0,0 -3.28786,3.166085 -6.04803,5.845079 0,0 2.35426,2.96313 6.77866,8.564664 0,0 -1.94835,1.177134 -4.62735,3.044312 0,0 -2.80077,-3.977901 -6.33217,-8.686436 0,0 -0.73063,0.892998 -1.66422,2.029541 0,0 -0.0812,2.96313 -0.12178,6.859849 0,0 -2.59781,0 -5.15503,0.08118 0,0 -0.0406,-13.354382 -0.20295,-30.402528 z m -7.98244,12.745519 c -2.27309,-0.202954 -4.992674,-0.568272 -4.992674,-0.568272 0.690044,-4.789717 -2.151314,-7.38753 -6.250987,-7.38753 -3.369039,0 -5.479762,2.47604 -5.479762,4.830308 0,4.302628 5.520352,4.667945 10.107116,6.088624 3.287857,1.014771 6.048037,2.638404 6.048037,6.656895 0,4.099674 -2.881953,7.915211 -10.310074,7.915211 -5.601534,0 -10.79716,-2.922539 -10.918932,-9.295299 2.638404,0 5.560943,-0.04059 5.560943,-0.04059 0.202954,2.760176 2.354268,5.033262 5.723306,5.033262 2.881949,0 4.180855,-1.542451 4.180855,-3.247266 0,-3.328448 -5.560943,-3.369039 -10.188297,-5.195626 -3.247266,-1.298906 -6.048033,-3.45022 -6.048033,-8.280528 0,-5.195626 4.018492,-9.051754 10.715978,-9.051754 7.590485,0 13.354384,4.302627 11.852524,12.542565 z M 267.4972,26.237621 c -5.02356,0.179413 -7.40077,1.883834 -7.44564,8.56696 -0.0449,3.453695 0,8.028722 0,8.028722 -2.2875,0.134559 -5.78605,0.179412 -5.78605,0.179412 -0.0449,-8.252987 -0.44853,-22.561156 -0.44853,-22.561156 2.06325,0 5.24782,0.08971 5.24782,0.08971 -0.13456,1.928687 -0.26911,4.126494 -0.26911,4.126494 1.79412,-2.511779 4.79928,-3.947081 8.56695,-3.991934 0.0449,2.242659 0.13456,5.561796 0.13456,5.561796 z m -27.2287,-6.503713 c 6.59343,0 11.1236,4.844145 11.1236,11.437564 0,0.627945 -0.0449,1.255889 -0.13456,1.883834 -9.50888,0.224266 -15.87803,0.627945 -15.87803,0.627945 0.0897,2.870605 2.55663,4.933851 5.42724,4.933851 2.60148,0 4.26105,-1.435303 5.15811,-3.543402 0,0 2.10811,0.269119 5.65151,0.627944 -1.30075,4.575026 -5.4721,7.625043 -10.67506,7.625043 -7.13166,0 -11.84124,-4.261052 -11.84124,-11.258151 0,-7.311071 4.66472,-12.334628 11.16843,-12.334628 z m -5.38237,9.55373 c 0,0 6.36915,0.04485 10.6302,-0.08971 -0.26911,-2.825751 -2.46692,-4.888998 -5.11326,-4.888998 -3.22944,0 -5.02356,2.601485 -5.51694,4.978704 z m -14.8352,-18.165543 c 3.27429,0 6.18974,0.179413 6.18974,0.179413 -0.13456,13.680223 -0.26911,31.397234 -0.26911,31.397234 -3.18458,0 -5.78607,0.0897 -5.78607,0.0897 0,-8.387547 -0.13456,-31.666354 -0.13456,-31.666354 z m -9.81164,0 c 3.27429,0 6.18975,0.179413 6.18975,0.179413 -0.13456,13.680223 -0.26912,31.397234 -0.26912,31.397234 -3.18458,0 -5.78606,0.0897 -5.78606,0.0897 0,-8.387547 -0.13457,-31.666354 -0.13457,-31.666354 z m -23.01178,16.640534 c 1.07648,-4.395613 4.48532,-7.580189 9.82286,-7.580189 5.87574,0 9.86769,3.408842 10.00226,10.405941 0.0897,5.023557 0.13456,11.52727 0.13456,11.52727 0,0 -2.46691,0.0897 -4.9787,0.0897 0,0 -0.0897,-1.12133 -0.22426,-2.197806 -2.06324,2.825751 -5.06841,3.677961 -7.26622,3.677961 -3.22943,0 -7.62505,-1.659568 -7.62505,-6.593419 0,-6.010328 7.93902,-7.983869 14.03906,-7.983869 -0.22429,-2.242659 -1.21103,-4.08164 -3.94708,-4.08164 -2.19781,0 -3.67797,1.480155 -4.26105,3.498549 0,0 -2.46693,-0.403679 -5.69636,-0.762504 z m 14.48757,5.023558 c -0.44852,-0.04485 -0.85219,-0.04485 -1.30073,-0.04485 -3.99194,0 -7.22137,1.794127 -7.22137,3.991934 0,1.659568 1.48016,2.332367 2.69119,2.332367 2.51179,0 5.83091,-2.287514 5.83091,-6.279448 z M 168.73047,11.525773 c 11.21329,-0.358825 22.11263,-0.717651 22.11263,-0.717651 -0.0897,3.722815 -0.0449,6.279448 -0.0449,6.279448 -3.00516,-0.08971 -7.80445,-0.13456 -7.80445,-0.13456 -0.22427,12.78316 -0.31397,26.373677 -0.31397,26.373677 -2.42208,0 -6.2346,-0.134559 -6.2346,-0.134559 0.31397,-13.90449 0.58309,-25.70088 0.58309,-25.70088 -2.55663,0 -8.4324,0.224266 -8.4324,0.224266 0.0448,-2.018394 0.13456,-6.189741 0.13456,-6.189741 z"
         inkscape:connector-curvature="0" />
    </clipPath>
    <clipPath
       clipPathUnits="userSpaceOnUse"
       id="clipPath4811">
      <text
         xml:space="preserve"
         style="font-style:normal;font-variant:normal;font-weight:normal;font-stretch:normal;font-size:49.54705048px;line-height:100%;font-family:Shag;-inkscape-font-specification:Shag;font-variant-ligatures:normal;font-variant-position:normal;font-variant-caps:normal;font-variant-numeric:normal;font-variant-alternates:normal;font-feature-settings:normal;text-indent:0;text-align:start;text-decoration:none;text-decoration-line:none;text-decoration-style:solid;text-decoration-color:#000000;letter-spacing:0px;word-spacing:0px;text-transform:none;writing-mode:lr-tb;direction:ltr;text-orientation:mixed;dominant-baseline:auto;baseline-shift:baseline;text-anchor:start;white-space:normal;shape-padding:0;opacity:1;vector-effect:none;fill:#000000;fill-opacity:1;stroke:none;stroke-width:1px;stroke-linecap:butt;stroke-linejoin:miter;stroke-miterlimit:4;stroke-dasharray:none;stroke-dashoffset:0;stroke-opacity:1"
         x="75.503624"
         y="69.302551"
         id="text4815"><tspan
           sodipodi:role="line"
           id="tspan4813"
           x="75.503624"
           y="69.302551"
           style="stroke-width:1px">Sudoku</tspan></text>
    </clipPath>
    <linearGradient
       inkscape:collect="always"
       xlink:href="#linearGradient4641"
       id="linearGradient4740-0"
       gradientUnits="userSpaceOnUse"
       x1="123.35396"
       y1="42.426712"
       x2="123.35396"
       y2="16.162745"
       gradientTransform="matrix(1.0888818,0,0,1.1079673,-129.28974,-19.248176)" />
    <linearGradient
       inkscape:collect="always"
       xlink:href="#linearGradient4667"
       id="linearGradient4661-7"
       x1="154.97974"
       y1="78.957268"
       x2="154.97974"
       y2="8.2465887"
       gradientUnits="userSpaceOnUse" />
    <clipPath
       clipPathUnits="userSpaceOnUse"
       id="clipPath4811-6">
      <text
         xml:space="preserve"
         style="font-style:normal;font-variant:normal;font-weight:normal;font-stretch:normal;font-size:49.54705048px;line-height:100%;font-family:Shag;-inkscape-font-specification:Shag;font-variant-ligatures:normal;font-variant-position:normal;font-variant-caps:normal;font-variant-numeric:normal;font-variant-alternates:normal;font-feature-settings:normal;text-indent:0;text-align:start;text-decoration:none;text-decoration-line:none;text-decoration-style:solid;text-decoration-color:#000000;letter-spacing:0px;word-spacing:0px;text-transform:none;writing-mode:lr-tb;direction:ltr;text-orientation:mixed;dominant-baseline:auto;baseline-shift:baseline;text-anchor:start;white-space:normal;shape-padding:0;opacity:1;vector-effect:none;fill:#000000;fill-opacity:1;stroke:none;stroke-width:1px;stroke-linecap:butt;stroke-linejoin:miter;stroke-miterlimit:4;stroke-dasharray:none;stroke-dashoffset:0;stroke-opacity:1"
         x="75.503624"
         y="69.302551"
         id="text4815-5"><tspan
           sodipodi:role="line"
           id="tspan4813-5"
           x="75.503624"
           y="69.302551"
           style="stroke-width:1px">Sudoku</tspan></text>
    </clipPath>
    <clipPath
       clipPathUnits="userSpaceOnUse"
       id="clipPath5589">
      <g
         aria-label="Light"
         style="font-style:normal;font-variant:normal;font-weight:normal;font-stretch:normal;font-size:59.08234406px;line-height:100%;font-family:Shag;-inkscape-font-specification:Shag;font-variant-ligatures:normal;font-variant-position:normal;font-variant-caps:normal;font-variant-numeric:normal;font-variant-alternates:normal;font-feature-settings:normal;text-indent:0;text-align:start;text-decoration:none;text-decoration-line:none;text-decoration-style:solid;text-decoration-color:#000000;letter-spacing:0px;word-spacing:0px;text-transform:none;writing-mode:lr-tb;direction:ltr;text-orientation:mixed;dominant-baseline:auto;baseline-shift:baseline;text-anchor:start;white-space:normal;shape-padding:0;opacity:1;vector-effect:none;fill:none;fill-opacity:1;stroke:#000900;stroke-width:4.5;stroke-linecap:butt;stroke-linejoin:round;stroke-miterlimit:4;stroke-dasharray:none;stroke-dashoffset:0;stroke-opacity:1;paint-order:stroke fill markers"
         id="g5601">
        <path
           d="m 31.86144,23.694894 c 3.958517,0.177247 8.33061,0.23633 8.33061,0.23633 -0.531741,18.551856 -0.886235,34.385924 -0.886235,34.385924 7.089881,0.118165 16.365809,0.118165 16.365809,0.118165 -0.236329,3.485858 -0.413576,7.444375 -0.413576,7.444375 C 44.327814,65.761523 31.329699,65.407029 31.329699,65.407029 31.447863,45.968938 31.86144,23.694894 31.86144,23.694894 Z"
           style="vector-effect:none;fill:none;fill-opacity:1;stroke:#000900;stroke-width:4.5;stroke-linecap:butt;stroke-linejoin:round;stroke-miterlimit:4;stroke-dasharray:none;stroke-dashoffset:0;stroke-opacity:1;paint-order:stroke fill markers"
           id="path5591"
           inkscape:connector-curvature="0" />
        <path
           d="m 59.739074,36.161269 c 0,0 3.722188,0.118165 7.857952,0.118165 0,0 -0.236329,11.461974 -0.295412,29.186677 0,0 -4.313011,0.118165 -7.798869,0.118165 0,0 0.236329,-17.90195 0.236329,-29.423007 z m 3.899435,-15.36141 c 2.954117,0 5.199246,2.363294 5.199246,5.376494 0,3.485858 -2.304211,5.671905 -5.317411,5.671905 -3.131364,0 -5.494658,-2.067882 -5.494658,-5.553741 0,-3.308611 2.540541,-5.494658 5.612823,-5.494658 z"
           style="vector-effect:none;fill:none;fill-opacity:1;stroke:#000900;stroke-width:4.5;stroke-linecap:butt;stroke-linejoin:round;stroke-miterlimit:4;stroke-dasharray:none;stroke-dashoffset:0;stroke-opacity:1;paint-order:stroke fill markers"
           id="path5593"
           inkscape:connector-curvature="0" />
        <path
           d="m 76.42522,55.067619 c -1.122564,1.181647 -1.654305,2.835952 -1.654305,4.372093 0,1.063483 0.236329,2.0088 0.708988,2.776871 -2.954117,1.595223 -5.021999,4.017599 -5.021999,7.503457 0,5.317411 5.021999,10.043999 16.070397,10.043999 7.621623,0 13.943429,-3.308612 13.943429,-10.162163 0,-6.144564 -7.148959,-9.394093 -15.47957,-9.394093 -1.949717,0 -2.481458,0.05908 -3.485858,0.177247 -0.23633,-0.472659 -0.354494,-0.945318 -0.354494,-1.477059 0,-0.590823 0.118164,-1.240729 0.472659,-1.77247 1.595223,0.354494 3.249528,0.531741 5.021999,0.531741 7.089881,-0.177247 12.879951,-3.78127 12.879951,-10.871151 0,-2.717788 -1.063482,-4.903835 -2.658706,-6.617223 3.0132,-4.372093 5.730989,-8.035199 5.730989,-8.035199 -3.308613,-2.245129 -5.671906,-3.54494 -5.671906,-3.54494 -2.304212,3.54494 -5.258329,8.035199 -5.258329,8.035199 -2.126964,-0.886236 -4.490258,-1.417977 -6.79447,-1.417977 -8.153363,0 -13.470774,4.667506 -13.411692,11.048399 0.05908,4.017599 2.126965,6.971716 4.962917,8.803269 z m 8.862352,-14.238845 c 3.899435,0.05908 6.499058,2.422376 6.499058,5.730987 0,3.367694 -2.245129,5.849152 -5.967317,5.849152 -3.78127,0 -6.439976,-2.363293 -6.439976,-6.085481 0.118165,-3.072282 2.481459,-5.494658 5.908235,-5.494658 z m 0,24.637337 c 4.194846,0.05908 7.267128,1.890635 7.267128,4.135765 0,2.77687 -3.131364,4.194846 -6.971716,4.194846 -4.549341,0 -7.267129,-1.831553 -7.267129,-4.372093 0,-1.772471 1.595224,-4.0176 6.971717,-3.958518 z"
           style="vector-effect:none;fill:none;fill-opacity:1;stroke:#000900;stroke-width:4.5;stroke-linecap:butt;stroke-linejoin:round;stroke-miterlimit:4;stroke-dasharray:none;stroke-dashoffset:0;stroke-opacity:1;paint-order:stroke fill markers"
           id="path5595"
           inkscape:connector-curvature="0" />
        <path
           d="m 112.52823,22.808659 c 0,0 -0.23633,7.444375 -0.3545,16.543056 2.18605,-1.890635 4.84476,-3.190446 8.27153,-3.190446 6.26273,0 10.69391,4.431176 10.87115,11.225645 0.17725,5.376494 0.11817,11.284728 -0.17724,16.543057 0,0 -3.60403,-0.05908 -7.79887,-0.295412 0.23633,-3.367694 0.35449,-5.79007 0.35449,-8.921434 0,-4.78567 0.29541,-11.816469 -4.60842,-11.816469 -4.66751,0 -7.0308,3.840352 -7.0308,14.35701 0,2.599623 0.11816,6.262728 0.23633,9.157763 0,0 -4.0176,0.236329 -7.79887,0.354494 0,-27.414208 -0.23633,-44.075429 -0.29541,-44.075429 0,0 3.84035,0.118165 8.33061,0.118165 z"
           style="vector-effect:none;fill:none;fill-opacity:1;stroke:#000900;stroke-width:4.5;stroke-linecap:butt;stroke-linejoin:round;stroke-miterlimit:4;stroke-dasharray:none;stroke-dashoffset:0;stroke-opacity:1;paint-order:stroke fill markers"
           id="path5597"
           inkscape:connector-curvature="0" />
        <path
           d="m 137.66407,29.189552 c 0,0 2.71779,0 8.09428,-0.177247 0,0 -0.11816,2.245129 -0.23633,7.030799 0,0 3.19045,0.05908 9.92583,0.05908 0,0 0,3.072282 0.0591,7.208046 0,0 -4.60843,-0.118164 -10.16217,-0.295411 0,0 -0.17724,7.030799 -0.17724,10.398492 0,3.426776 1.6543,5.022 4.13576,5.022 1.47706,0 3.19045,-0.531742 5.08108,-1.477059 l 2.12697,6.499058 c -2.77687,1.595223 -5.79007,2.481458 -8.62603,2.481458 -5.6719,0 -10.39849,-3.54494 -10.39849,-12.052798 0,-4.903835 0.11817,-10.634822 0.11817,-10.634822 0,0 -1.65431,-0.118165 -4.0176,-0.236329 0,0 0.11816,-2.540541 0.17724,-6.55814 0,0 1.12257,0.05908 3.78127,0.118164 0,0 0.0591,-1.77247 0.11817,-7.385293 z"
           style="vector-effect:none;fill:none;fill-opacity:1;stroke:#000900;stroke-width:4.5;stroke-linecap:butt;stroke-linejoin:round;stroke-miterlimit:4;stroke-dasharray:none;stroke-dashoffset:0;stroke-opacity:1;paint-order:stroke fill markers"
           id="path5599"
           inkscape:connector-curvature="0" />
      </g>
    </clipPath>
    <linearGradient
       inkscape:collect="always"
       xlink:href="#linearGradient4641"
       id="linearGradient5624"
       gradientUnits="userSpaceOnUse"
       gradientTransform="matrix(1.1558763,0,0,1.1841607,-119.53076,-9.0386957)"
       x1="123.35396"
       y1="42.426712"
       x2="123.35396"
       y2="16.162745" />
    <linearGradient
       inkscape:collect="always"
       xlink:href="#linearGradient4641"
       id="linearGradient5630"
       gradientUnits="userSpaceOnUse"
       gradientTransform="matrix(1.2070498,0,0,1.2377573,-124.22823,-5.4803907)"
       x1="123.35396"
       y1="42.426712"
       x2="123.35396"
       y2="16.162745" />
    <linearGradient
       inkscape:collect="always"
       xlink:href="#linearGradient4667"
       id="linearGradient6804"
       gradientUnits="userSpaceOnUse"
       x1="154.97974"
       y1="78.957268"
       x2="154.97974"
       y2="8.2465887" />
    <linearGradient
       inkscape:collect="always"
       xlink:href="#linearGradient4667"
       id="linearGradient6806"
       gradientUnits="userSpaceOnUse"
       x1="154.97974"
       y1="78.957268"
       x2="154.97974"
       y2="8.2465887" />
    <linearGradient
       inkscape:collect="always"
       xlink:href="#linearGradient4667"
       id="linearGradient6808"
       gradientUnits="userSpaceOnUse"
       x1="154.97974"
       y1="78.957268"
       x2="154.97974"
       y2="8.2465887" />
    <linearGradient
       inkscape:collect="always"
       xlink:href="#linearGradient4667"
       id="linearGradient6810"
       gradientUnits="userSpaceOnUse"
       x1="154.97974"
       y1="78.957268"
       x2="154.97974"
       y2="8.2465887" />
    <linearGradient
       inkscape:collect="always"
       xlink:href="#linearGradient4667"
       id="linearGradient6812"
       gradientUnits="userSpaceOnUse"
       x1="154.97974"
       y1="78.957268"
       x2="154.97974"
       y2="8.2465887" />
  </defs>
  <sodipodi:namedview
     id="base"
     pagecolor="#3ab1fd"
     bordercolor="#666666"
     borderopacity="1.0"
     inkscape:pageopacity="0"
     inkscape:pageshadow="2"
     inkscape:zoom="3.5"
     inkscape:cx="-1.4318085"
     inkscape:cy="61.483105"
     inkscape:document-units="px"
     showgrid="true"
     units="px"
     inkscape:current-layer="main-svg"
     inkscape:snap-global="false"
     fit-margin-top="1"
     fit-margin-left="1"
     fit-margin-right="1"
     fit-margin-bottom="1" />
  <path
     id="path5609"
     style="font-style:normal;font-variant:normal;font-weight:normal;font-stretch:normal;font-size:medium;line-height:100%;font-family:Shag;-inkscape-font-specification:Shag;font-variant-ligatures:normal;font-variant-position:normal;font-variant-caps:normal;font-variant-numeric:normal;font-variant-alternates:normal;font-feature-settings:normal;text-indent:0;text-align:start;text-decoration:none;text-decoration-line:none;text-decoration-style:solid;text-decoration-color:#000000;letter-spacing:0px;word-spacing:0px;text-transform:none;writing-mode:lr-tb;direction:ltr;text-orientation:mixed;dominant-baseline:auto;baseline-shift:baseline;text-anchor:start;white-space:normal;shape-padding:0;vector-effect:none;fill:url(#linearGradient5624);fill-opacity:1;stroke:#003200;stroke-width:5;stroke-linecap:butt;stroke-linejoin:round;stroke-miterlimit:4;stroke-dasharray:none;stroke-dashoffset:0;stroke-opacity:0.98857141;paint-order:stroke fill markers"
     d="m 65.522077,15.251596 c 4.953568,0 8.357043,3.664187 8.357043,8.651553 0,0.474988 -0.0337,0.949975 -0.10105,1.424963 -7.143931,0.169638 -11.929011,0.474987 -11.929011,0.474987 0.0674,2.17137 1.920771,3.732043 4.077428,3.732043 1.954469,0 3.201285,-1.085685 3.875241,-2.680286 0,0 1.583797,0.203566 4.245922,0.474988 -0.97724,3.460621 -4.111132,5.767702 -8.02007,5.767702 -5.357942,0 -8.896205,-3.223128 -8.896205,-8.515843 0,-5.53021 3.504565,-9.330107 8.390738,-9.330107 z m -4.043729,7.226592 c 0,0 4.78508,0.03393 7.986366,-0.06786 -0.202186,-2.137443 -1.853376,-3.698116 -3.841543,-3.698116 -2.426238,0 -3.774148,1.967805 -4.144823,3.765972 z M 45.732019,6.0250034 c 0,0 -0.0674,6.0391246 -0.134791,14.5888956 0,0 2.763216,-2.849924 6.806945,-7.26052 0,0 1.381608,1.458889 3.066496,3.223128 0,0 -2.729518,2.646357 -5.020965,4.885583 0,0 1.954469,2.476719 5.627524,7.158737 0,0 -1.617491,0.983902 -3.841543,2.544574 0,0 -2.325145,-3.324911 -5.256849,-7.260519 0,0 -0.606559,0.746408 -1.381608,1.696383 0,0 -0.0674,2.476719 -0.101089,5.733774 0,0 -2.156656,0 -4.279613,0.06786 0,0 -0.0337,-11.162201 -0.16849,-25.4118206 z M 23.961694,16.324648 c 0.808746,-3.324912 3.369774,-5.733776 7.379807,-5.733776 4.414405,0 7.413505,2.578502 7.514598,7.871218 0.0674,3.799898 0.10109,8.719409 0.10109,8.719409 0,0 -1.853376,0.06786 -3.74045,0.06786 0,0 -0.0674,-0.848191 -0.168489,-1.662455 -1.550096,2.137443 -3.807846,2.782069 -5.459035,2.782069 -2.426238,0 -5.728617,-1.255324 -5.728617,-4.987367 0,-4.546307 5.964501,-6.039123 10.547395,-6.039123 -0.168489,-1.696384 -0.909839,-3.087418 -2.965402,-3.087418 -1.65119,0 -2.763215,1.119613 -3.201287,2.646357 0,0 -1.853375,-0.305348 -4.279613,-0.576769 z m 10.884373,3.799897 c -0.336978,-0.03393 -0.640257,-0.03393 -0.977235,-0.03393 -2.9991,0 -5.425338,1.357107 -5.425338,3.019562 0,1.255324 1.112026,1.764239 2.021866,1.764239 1.887073,0 4.380707,-1.730311 4.380707,-4.749873 z M 10.065058,4.0428334 c 8.424437,-0.271421 16.61299,-0.542842 16.61299,-0.542842 -0.0674,2.815996 -0.03369,4.749873 -0.03369,4.749873 -2.25775,-0.06786 -5.863409,-0.101779 -5.863409,-0.101779 -0.168491,9.6693826 -0.235886,25.9494646 -0.235886,25.9494646 -1.819679,0 -4.683988,-0.101778 -4.683988,-0.101778 0.235885,-10.517576 0.438071,-25.4405496 0.438071,-25.4405496 -1.920771,0 -6.3351773,0.169638 -6.3351773,0.169638 0.0337,-1.526746 0.1010893,-4.682018 0.1010893,-4.682018 z"
     inkscape:connector-curvature="0"
     sodipodi:nodetypes="csccsccssccccsccccccccccccccccsccccsscsccccssscccccccccccc" />
  <path
     id="path5615"
     style="font-style:normal;font-variant:normal;font-weight:normal;font-stretch:normal;font-size:medium;line-height:100%;font-family:Shag;-inkscape-font-specification:Shag;font-variant-ligatures:normal;font-variant-position:normal;font-variant-caps:normal;font-variant-numeric:normal;font-variant-alternates:normal;font-feature-settings:normal;text-indent:0;text-align:start;text-decoration:none;text-decoration-line:none;text-decoration-style:solid;text-decoration-color:#000000;letter-spacing:0px;word-spacing:0px;text-transform:none;writing-mode:lr-tb;direction:ltr;text-orientation:mixed;dominant-baseline:auto;baseline-shift:baseline;text-anchor:start;white-space:normal;shape-padding:0;vector-effect:none;fill:url(#linearGradient5630);fill-opacity:1;stroke:#003200;stroke-width:5;stroke-linecap:butt;stroke-linejoin:round;stroke-miterlimit:4;stroke-dasharray:none;stroke-dashoffset:0;stroke-opacity:0.98857141;paint-order:stroke fill markers"
     d="m 128.26242,23.045093 c 5.17287,0 8.72703,3.830033 8.72703,9.043133 0,0.496487 -0.0352,0.992973 -0.1055,1.489458 -7.4602,0.177316 -12.45713,0.496486 -12.45713,0.496486 0.0704,2.26965 2.00582,3.900959 4.25794,3.900959 2.04101,0 3.34303,-1.134823 4.04682,-2.801598 0,0 1.65391,0.21278 4.43389,0.496486 -1.02051,3.617254 -4.29314,6.028757 -8.37513,6.028757 -5.59516,0 -9.29007,-3.369012 -9.29007,-8.901282 0,-5.780514 3.65973,-9.752399 8.76223,-9.752399 z m -4.22276,7.553676 c 0,0 4.99693,0.03547 8.33994,-0.07092 -0.21113,-2.234186 -1.93543,-3.865496 -4.01162,-3.865496 -2.53364,0 -3.94124,2.056869 -4.32832,3.936422 z m -17.6102,-17.235248 c 0,0 -0.14077,4.468372 -0.21114,9.929716 1.30202,-1.134824 2.88554,-1.915016 4.92654,-1.915016 3.73011,0 6.36932,2.659745 6.47489,6.738022 0.10551,3.227156 0.0704,4.539199 -0.1055,7.69543 0,0 -2.14656,-0.03546 -4.64503,-0.177316 0.14076,-2.021407 0.21115,-1.241116 0.21115,-3.120669 0,-2.872525 0.17593,-7.092654 -2.7448,-7.092654 -2.77998,0 -4.18756,2.305112 -4.18756,8.617574 0,1.560384 0.0704,3.759106 0.14074,5.496807 0,0 -2.39288,0.141853 -4.64502,0.212779 0,-16.454957 -0.14076,-26.455599 -0.17595,-26.455599 0,0 2.28732,0.07093 4.96174,0.07093 z M 88.54762,19.42784 c 0,0 1.61873,0 4.82099,-0.106386 0,0 -0.0704,1.347604 -0.14076,4.22013 0,0 1.90024,0.03546 5.91186,0.03546 0,0 0,1.84409 0.0352,4.32652 0,0 -2.74478,-0.07093 -6.05262,-0.177316 0,0 -0.1055,4.220129 -0.1055,6.241535 0,2.05687 0.98531,3.014378 2.46328,3.014378 0.87974,0 1.90024,-0.319169 3.0263,-0.886583 l 1.26683,3.900961 c -1.65392,0.957508 -3.44858,1.489457 -5.13769,1.489457 -3.3782,0 -6.19337,-2.127797 -6.19337,-7.234507 0,-2.943451 0.0703,-6.383388 0.0703,-6.383388 0,0 -0.98531,-0.07093 -2.39289,-0.141853 0,0 0.0703,-1.524922 0.10551,-3.936424 0,0 0.6686,0.03546 2.25213,0.07093 0,0 0.0353,-1.063898 0.0704,-4.432908 z"
     inkscape:connector-curvature="0"
     sodipodi:nodetypes="csccsccssccccsccccscccssscccccccccccssccsscccccc" />
  <path
     id="path5494"
     style="font-style:normal;font-variant:normal;font-weight:normal;font-stretch:normal;font-size:medium;line-height:100%;font-family:Shag;-inkscape-font-specification:Shag;font-variant-ligatures:normal;font-variant-position:normal;font-variant-caps:normal;font-variant-numeric:normal;font-variant-alternates:normal;font-feature-settings:normal;text-indent:0;text-align:start;text-decoration:none;text-decoration-line:none;text-decoration-style:solid;text-decoration-color:#000000;letter-spacing:0px;word-spacing:0px;text-transform:none;writing-mode:lr-tb;direction:ltr;text-orientation:mixed;dominant-baseline:auto;baseline-shift:baseline;text-anchor:start;white-space:normal;shape-padding:0;opacity:1;vector-effect:none;fill:none;fill-opacity:1;stroke:#000900;stroke-width:4.5;stroke-linecap:butt;stroke-linejoin:round;stroke-miterlimit:4;stroke-dasharray:none;stroke-dashoffset:0;stroke-opacity:1;paint-order:stroke fill markers"
     d="m 109.58437,39.047355 c 0,0 2.71779,0 8.09428,-0.177247 0,0 -0.11816,2.245129 -0.23633,7.030799 0,0 3.19045,0.05908 9.92583,0.05908 0,0 0,3.072282 0.0591,7.208046 0,0 -4.60843,-0.118164 -10.16217,-0.295411 0,0 -0.17724,7.030799 -0.17724,10.398492 0,3.426776 1.6543,5.022 4.13576,5.022 1.47706,0 3.19045,-0.531742 5.08108,-1.477059 l 2.12697,6.499058 c -2.77687,1.595223 -5.79007,2.481458 -8.62603,2.481458 -5.6719,0 -10.39849,-3.54494 -10.39849,-12.052798 0,-4.903835 0.11817,-10.634822 0.11817,-10.634822 0,0 -1.65431,-0.118165 -4.0176,-0.236329 0,0 0.11816,-2.540541 0.17724,-6.55814 0,0 1.12257,0.05908 3.78127,0.118164 0,0 0.0591,-1.77247 0.11817,-7.385293 z M 84.44853,32.666462 c 0,0 -0.23633,7.444375 -0.3545,16.543056 2.18605,-1.890635 4.84476,-3.190446 8.27153,-3.190446 6.26273,0 10.69391,4.431176 10.87115,11.225645 0.17725,5.376494 0.11817,11.284728 -0.17724,16.543057 0,0 -3.60403,-0.05908 -7.79887,-0.295412 0.23633,-3.367694 0.35449,-5.79007 0.35449,-8.921434 0,-4.78567 0.29541,-11.816469 -4.60842,-11.816469 -4.66751,0 -7.0308,3.840352 -7.0308,14.35701 0,2.599623 0.11816,6.262728 0.23633,9.157763 0,0 -4.0176,0.236329 -7.79887,0.354494 0,-27.414208 -0.23633,-44.075429 -0.29541,-44.075429 0,0 3.84035,0.118165 8.33061,0.118165 z m -36.10301,32.25896 c -1.122564,1.181647 -1.654305,2.835952 -1.654305,4.372093 0,1.063483 0.236329,2.0088 0.708988,2.776871 -2.954117,1.595223 -5.021999,4.017599 -5.021999,7.503457 0,5.317411 5.021999,10.043999 16.070397,10.043999 7.621623,0 13.943429,-3.308612 13.943429,-10.162163 0,-6.144564 -7.148959,-9.394093 -15.47957,-9.394093 -1.949717,0 -2.481458,0.05908 -3.485858,0.177247 -0.23633,-0.472659 -0.354494,-0.945318 -0.354494,-1.477059 0,-0.590823 0.118164,-1.240729 0.472659,-1.77247 1.595223,0.354494 3.249528,0.531741 5.021999,0.531741 7.089881,-0.177247 12.879951,-3.78127 12.879951,-10.871151 0,-2.717788 -1.063482,-4.903835 -2.658706,-6.617223 3.0132,-4.372093 5.730989,-8.035199 5.730989,-8.035199 -3.308613,-2.245129 -5.671906,-3.54494 -5.671906,-3.54494 -2.304212,3.54494 -5.258329,8.035199 -5.258329,8.035199 -2.126964,-0.886236 -4.490258,-1.417977 -6.79447,-1.417977 -8.153363,0 -13.470774,4.667506 -13.411692,11.048399 0.05908,4.017599 2.126965,6.971716 4.962917,8.803269 z m 8.862352,-14.238845 c 3.899435,0.05908 6.499058,2.422376 6.499058,5.730987 0,3.367694 -2.245129,5.849152 -5.967317,5.849152 -3.78127,0 -6.439976,-2.363293 -6.439976,-6.085481 0.118165,-3.072282 2.481459,-5.494658 5.908235,-5.494658 z m 0,24.637337 c 4.194846,0.05908 7.267128,1.890635 7.267128,4.135765 0,2.77687 -3.131364,4.194846 -6.971716,4.194846 -4.549341,0 -7.267129,-1.831553 -7.267129,-4.372093 0,-1.772471 1.595224,-4.0176 6.971717,-3.958518 z M 31.659374,46.019072 c 0,0 3.722188,0.118165 7.857952,0.118165 0,0 -0.236329,11.461974 -0.295412,29.186677 0,0 -4.313011,0.118165 -7.798869,0.118165 0,0 0.236329,-17.90195 0.236329,-29.423007 z m 3.899435,-15.36141 c 2.954117,0 5.199246,2.363294 5.199246,5.376494 0,3.485858 -2.304211,5.671905 -5.317411,5.671905 -3.131364,0 -5.494658,-2.067882 -5.494658,-5.553741 0,-3.308611 2.540541,-5.494658 5.612823,-5.494658 z M 3.7817397,33.552697 c 3.958517,0.177247 8.3306103,0.23633 8.3306103,0.23633 -0.531741,18.551856 -0.886235,34.385924 -0.886235,34.385924 7.089881,0.118165 16.365809,0.118165 16.365809,0.118165 -0.236329,3.485858 -0.413576,7.444375 -0.413576,7.444375 C 16.248114,75.619326 3.2499987,75.264832 3.2499987,75.264832 3.3681627,55.826741 3.7817397,33.552697 3.7817397,33.552697 Z"
     inkscape:connector-curvature="0" />
  <g
     aria-label="Light"
     style="font-style:normal;font-variant:normal;font-weight:normal;font-stretch:normal;font-size:59.08234406px;line-height:100%;font-family:Shag;-inkscape-font-specification:Shag;font-variant-ligatures:normal;font-variant-position:normal;font-variant-caps:normal;font-variant-numeric:normal;font-variant-alternates:normal;font-feature-settings:normal;text-indent:0;text-align:start;text-decoration:none;text-decoration-line:none;text-decoration-style:solid;text-decoration-color:#000000;letter-spacing:0px;word-spacing:0px;text-transform:none;writing-mode:lr-tb;direction:ltr;text-orientation:mixed;dominant-baseline:auto;baseline-shift:baseline;text-anchor:start;white-space:normal;shape-padding:0;opacity:1;vector-effect:none;fill:url(#linearGradient4661);fill-opacity:1;stroke:#6fcbfc;stroke-width:1.5;stroke-linecap:butt;stroke-linejoin:round;stroke-miterlimit:4;stroke-dasharray:none;stroke-dashoffset:0;stroke-opacity:1;paint-order:normal"
     id="text5443"
     clip-path="url(#clipPath5589)"
     transform="translate(-28.0797,9.8578034)">
    <path
       d="m 31.86144,23.694894 c 3.958517,0.177247 8.33061,0.23633 8.33061,0.23633 -0.531741,18.551856 -0.886235,34.385924 -0.886235,34.385924 7.089881,0.118165 16.365809,0.118165 16.365809,0.118165 -0.236329,3.485858 -0.413576,7.444375 -0.413576,7.444375 C 44.327814,65.761523 31.329699,65.407029 31.329699,65.407029 31.447863,45.968938 31.86144,23.694894 31.86144,23.694894 Z"
       style="vector-effect:none;fill:url(#linearGradient6804);fill-opacity:1;stroke:#6fcbfc;stroke-width:1.5;stroke-linecap:butt;stroke-linejoin:round;stroke-miterlimit:4;stroke-dasharray:none;stroke-dashoffset:0;stroke-opacity:1;paint-order:normal"
       id="path5557"
       inkscape:connector-curvature="0" />
    <path
       d="m 59.739074,36.161269 c 0,0 3.722188,0.118165 7.857952,0.118165 0,0 -0.236329,11.461974 -0.295412,29.186677 0,0 -4.313011,0.118165 -7.798869,0.118165 0,0 0.236329,-17.90195 0.236329,-29.423007 z m 3.899435,-15.36141 c 2.954117,0 5.199246,2.363294 5.199246,5.376494 0,3.485858 -2.304211,5.671905 -5.317411,5.671905 -3.131364,0 -5.494658,-2.067882 -5.494658,-5.553741 0,-3.308611 2.540541,-5.494658 5.612823,-5.494658 z"
       style="vector-effect:none;fill:url(#linearGradient6806);fill-opacity:1;stroke:#6fcbfc;stroke-width:1.5;stroke-linecap:butt;stroke-linejoin:round;stroke-miterlimit:4;stroke-dasharray:none;stroke-dashoffset:0;stroke-opacity:1;paint-order:normal"
       id="path5559"
       inkscape:connector-curvature="0" />
    <path
       d="m 76.42522,55.067619 c -1.122564,1.181647 -1.654305,2.835952 -1.654305,4.372093 0,1.063483 0.236329,2.0088 0.708988,2.776871 -2.954117,1.595223 -5.021999,4.017599 -5.021999,7.503457 0,5.317411 5.021999,10.043999 16.070397,10.043999 7.621623,0 13.943429,-3.308612 13.943429,-10.162163 0,-6.144564 -7.148959,-9.394093 -15.47957,-9.394093 -1.949717,0 -2.481458,0.05908 -3.485858,0.177247 -0.23633,-0.472659 -0.354494,-0.945318 -0.354494,-1.477059 0,-0.590823 0.118164,-1.240729 0.472659,-1.77247 1.595223,0.354494 3.249528,0.531741 5.021999,0.531741 7.089881,-0.177247 12.879951,-3.78127 12.879951,-10.871151 0,-2.717788 -1.063482,-4.903835 -2.658706,-6.617223 3.0132,-4.372093 5.730989,-8.035199 5.730989,-8.035199 -3.308613,-2.245129 -5.671906,-3.54494 -5.671906,-3.54494 -2.304212,3.54494 -5.258329,8.035199 -5.258329,8.035199 -2.126964,-0.886236 -4.490258,-1.417977 -6.79447,-1.417977 -8.153363,0 -13.470774,4.667506 -13.411692,11.048399 0.05908,4.017599 2.126965,6.971716 4.962917,8.803269 z m 8.862352,-14.238845 c 3.899435,0.05908 6.499058,2.422376 6.499058,5.730987 0,3.367694 -2.245129,5.849152 -5.967317,5.849152 -3.78127,0 -6.439976,-2.363293 -6.439976,-6.085481 0.118165,-3.072282 2.481459,-5.494658 5.908235,-5.494658 z m 0,24.637337 c 4.194846,0.05908 7.267128,1.890635 7.267128,4.135765 0,2.77687 -3.131364,4.194846 -6.971716,4.194846 -4.549341,0 -7.267129,-1.831553 -7.267129,-4.372093 0,-1.772471 1.595224,-4.0176 6.971717,-3.958518 z"
       style="vector-effect:none;fill:url(#linearGradient6808);fill-opacity:1;stroke:#6fcbfc;stroke-width:1.5;stroke-linecap:butt;stroke-linejoin:round;stroke-miterlimit:4;stroke-dasharray:none;stroke-dashoffset:0;stroke-opacity:1;paint-order:normal"
       id="path5561"
       inkscape:connector-curvature="0" />
    <path
       d="m 112.52823,22.808659 c 0,0 -0.23633,7.444375 -0.3545,16.543056 2.18605,-1.890635 4.84476,-3.190446 8.27153,-3.190446 6.26273,0 10.69391,4.431176 10.87115,11.225645 0.17725,5.376494 0.11817,11.284728 -0.17724,16.543057 0,0 -3.60403,-0.05908 -7.79887,-0.295412 0.23633,-3.367694 0.35449,-5.79007 0.35449,-8.921434 0,-4.78567 0.29541,-11.816469 -4.60842,-11.816469 -4.66751,0 -7.0308,3.840352 -7.0308,14.35701 0,2.599623 0.11816,6.262728 0.23633,9.157763 0,0 -4.0176,0.236329 -7.79887,0.354494 0,-27.414208 -0.23633,-44.075429 -0.29541,-44.075429 0,0 3.84035,0.118165 8.33061,0.118165 z"
       style="vector-effect:none;fill:url(#linearGradient6810);fill-opacity:1;stroke:#6fcbfc;stroke-width:1.5;stroke-linecap:butt;stroke-linejoin:round;stroke-miterlimit:4;stroke-dasharray:none;stroke-dashoffset:0;stroke-opacity:1;paint-order:normal"
       id="path5563"
       inkscape:connector-curvature="0" />
    <path
       d="m 137.66407,29.189552 c 0,0 2.71779,0 8.09428,-0.177247 0,0 -0.11816,2.245129 -0.23633,7.030799 0,0 3.19045,0.05908 9.92583,0.05908 0,0 0,3.072282 0.0591,7.208046 0,0 -4.60843,-0.118164 -10.16217,-0.295411 0,0 -0.17724,7.030799 -0.17724,10.398492 0,3.426776 1.6543,5.022 4.13576,5.022 1.47706,0 3.19045,-0.531742 5.08108,-1.477059 l 2.12697,6.499058 c -2.77687,1.595223 -5.79007,2.481458 -8.62603,2.481458 -5.6719,0 -10.39849,-3.54494 -10.39849,-12.052798 0,-4.903835 0.11817,-10.634822 0.11817,-10.634822 0,0 -1.65431,-0.118165 -4.0176,-0.236329 0,0 0.11816,-2.540541 0.17724,-6.55814 0,0 1.12257,0.05908 3.78127,0.118164 0,0 0.0591,-1.77247 0.11817,-7.385293 z"
       style="vector-effect:none;fill:url(#linearGradient6812);fill-opacity:1;stroke:#6fcbfc;stroke-width:1.5;stroke-linecap:butt;stroke-linejoin:round;stroke-miterlimit:4;stroke-dasharray:none;stroke-dashoffset:0;stroke-opacity:1;paint-order:normal"
       id="path5565"
       inkscape:connector-curvature="0" />
  </g>
</svg>
