<?xml version="1.0" encoding="UTF-8" standalone="no"?>
<!-- Created with Inkscape (http://www.inkscape.org/) -->

<svg
   xmlns:dc="http://purl.org/dc/elements/1.1/"
   xmlns:cc="http://creativecommons.org/ns#"
   xmlns:rdf="http://www.w3.org/1999/02/22-rdf-syntax-ns#"
   xmlns:svg="http://www.w3.org/2000/svg"
   xmlns="http://www.w3.org/2000/svg"
   xmlns:sodipodi="http://sodipodi.sourceforge.net/DTD/sodipodi-0.dtd"
   xmlns:inkscape="http://www.inkscape.org/namespaces/inkscape"
   width="103.7612"
   height="32.224609"
   viewBox="0 0 103.7612 32.224609"
   version="1.1"
   id="main-svg"
   inkscape:export-filename="D:\c\Qoph\DataFiles\Logo.png"
   inkscape:version="0.92.3 (2405546, 2018-03-11)"
   sodipodi:docname="Logo.svg"
   inkscape:export-xdpi="960"
   inkscape:export-ydpi="960">
  <metadata
     id="metadata7">
    <rdf:RDF>
      <cc:Work
         rdf:about="">
        <dc:format>image/svg+xml</dc:format>
        <dc:type
           rdf:resource="http://purl.org/dc/dcmitype/StillImage" />
        <dc:title></dc:title>
      </cc:Work>
    </rdf:RDF>
  </metadata>
  <defs
     id="defs5" />
  <sodipodi:namedview
     id="base"
     pagecolor="#0b3178"
     bordercolor="#666666"
     borderopacity="1.0"
     inkscape:pageopacity="0"
     inkscape:pageshadow="2"
     inkscape:zoom="23.823934"
     inkscape:cx="90.953332"
     inkscape:cy="18.482892"
     inkscape:document-units="px"
     showgrid="false"
     units="px"
     inkscape:current-layer="main-svg"
     inkscape:snap-global="false"
     fit-margin-top="2"
     fit-margin-left="3"
     fit-margin-right="3"
     fit-margin-bottom="2"
     showguides="false">
    <inkscape:grid
       type="xygrid"
       id="main-grid"
       spacingx="10"
       spacingy="10"
       originx="-5.872316"
       originy="-39.959136" />
  </sodipodi:namedview>
  <path
     style="opacity:1;vector-effect:none;fill:#f1dd89;fill-opacity:1;stroke:none;stroke-width:2;stroke-linecap:butt;stroke-linejoin:miter;stroke-miterlimit:4;stroke-dasharray:none;stroke-dashoffset:0;stroke-opacity:0.31372549;marker:none;paint-order:normal"
     d="M 29.915094,29.224491 H 17.112245 C 9.848062,29.224491 4,23.37643 4,16.112246 4,8.8480621 9.848062,3.0000002 17.112245,3.0000002 L 35.778425,3 Z"
     id="path908"
     inkscape:connector-curvature="0"
     sodipodi:nodetypes="cssccc" />
  <path
     style="opacity:1;vector-effect:none;fill:#a0d0f5;fill-opacity:1;stroke:none;stroke-width:2;stroke-linecap:butt;stroke-linejoin:miter;stroke-miterlimit:4;stroke-dasharray:none;stroke-dashoffset:0;stroke-opacity:0.31372549;marker:none;paint-order:normal"
     d="m 37.830779,3.0000003 48.818738,-10e-8 c 7.264184,0 13.112246,5.8480619 13.112246,13.1122458 0,7.264184 -5.848062,13.112245 -13.112246,13.112245 H 31.96745 Z"
     id="rect906"
     inkscape:connector-curvature="0"
     sodipodi:nodetypes="cssscc" />
  <path
     style="font-style:italic;font-variant:normal;font-weight:bold;font-stretch:normal;font-size:medium;line-height:100%;font-family:'Proxima Nova';-inkscape-font-specification:'Proxima Nova Bold Italic';font-variant-ligatures:normal;font-variant-position:normal;font-variant-caps:normal;font-variant-numeric:normal;font-variant-alternates:normal;font-feature-settings:normal;text-indent:0;text-align:start;text-decoration:none;text-decoration-line:none;text-decoration-style:solid;text-decoration-color:#000000;letter-spacing:-0.75px;word-spacing:0.5px;text-transform:none;writing-mode:lr-tb;direction:ltr;text-orientation:mixed;dominant-baseline:auto;baseline-shift:baseline;text-anchor:start;white-space:normal;shape-padding:0;fill:#000000;fill-opacity:1;stroke:none;stroke-width:1px;stroke-linecap:butt;stroke-linejoin:miter;stroke-miterlimit:4;stroke-dasharray:none;stroke-dashoffset:0;stroke-opacity:1"
     d="m 70.272376,5.1269533 -0.394756,1.79634 h -1.08857 l -0.340925,1.4972821 h 1.088569 l -0.733688,3.3614086 c -0.04083,0.163325 -0.05583,0.353312 -0.05583,0.448587 0,0.979951 0.789326,1.429495 1.959824,1.429495 0.421924,0 0.831966,-0.108166 1.090565,-0.285102 l -0.06978,-1.389621 c -0.08166,0.06806 -0.297569,0.137567 -0.474505,0.137567 -0.435534,0 -0.639983,-0.218325 -0.639983,-0.572197 0,-0.08166 0.0123,-0.191477 0.02592,-0.273139 l 0.626027,-2.8569986 h 1.333798 l 0.354885,-1.4972821 h -1.333798 l 0.394756,-1.79634 z M 43.755927,6.7598084 c -2.245724,0 -3.471063,2.1917082 -3.471063,4.1788326 0,1.742137 1.006962,2.721425 2.50411,2.721425 0.789407,0 1.415751,-0.325613 1.97378,-0.978915 l -0.749637,3.31954 h 1.74251 L 47.769281,6.9232933 H 46.028766 L 45.851325,7.794548 C 45.415791,7.1412465 44.626995,6.7598084 43.755927,6.7598084 Z m 13.993907,0 c -2.245724,0 -3.471064,2.1917082 -3.471064,4.1788326 0,1.742137 1.006962,2.721425 2.50411,2.721425 0.789407,0 1.415753,-0.325613 1.973781,-0.978915 l -0.191397,0.815431 h 1.74251 L 61.763187,6.9232933 H 60.022672 L 59.845231,7.794548 C 59.409697,7.1412465 58.620902,6.7598084 57.749834,6.7598084 Z m 8.399533,0 c -0.966341,0 -1.673899,0.5171973 -2.191096,1.0207836 l 0.191397,-0.8572987 h -1.728553 l -1.457408,6.5732887 h 1.728554 L 63.67317,9.060559 c 0.381092,-0.3674821 0.953024,-0.763594 1.660766,-0.763594 0.517198,0 1.006828,0.2328662 1.006828,0.8453364 0,0.1361051 -0.04057,0.3121364 -0.06779,0.4346304 l -0.871255,3.9196502 h 1.728554 l 1.006831,-4.5177655 c 0.02722,-0.1361042 0.06779,-0.421791 0.06779,-0.544285 0,-1.0071735 -0.789751,-1.6747231 -2.055523,-1.6747231 z m 17.558674,0 c -0.966342,0 -1.63421,0.6260803 -2.001692,1.0207836 l 0.191397,-0.8572987 h -1.728554 l -1.457408,6.5732887 h 1.728553 l 0.98091,-4.436023 c 0.326651,-0.3674821 0.828562,-0.763594 1.345759,-0.763594 0.612471,0 0.953344,0.3277144 0.966954,0.7496379 0,0.1769355 -0.04057,0.3403935 -0.06779,0.4764986 l -0.885212,3.9734805 h 1.74251 l 0.966957,-4.436023 c 0.340262,-0.3810923 0.842864,-0.763594 1.373672,-0.763594 0.503586,0 0.939041,0.285926 0.939041,0.7895123 0,0.1633254 -0.04022,0.3549616 -0.05383,0.4366242 l -0.885211,3.9734805 h 1.742509 l 0.992873,-4.5177655 c 0.02722,-0.1088829 0.06978,-0.3673495 0.06978,-0.544285 0,-1.0752251 -0.88452,-1.6747231 -1.878082,-1.6747231 -1.007174,0 -1.757634,0.5724891 -2.274832,1.2121805 v -0.027912 c 0,-0.2449882 -0.515311,-1.1842685 -1.808304,-1.1842685 z M 48.387334,6.9232933 47.392468,11.441058 c -0.02722,0.122494 -0.06779,0.42344 -0.06779,0.532322 0,1.020784 0.789752,1.686686 2.055523,1.686686 0.966343,0 1.673899,-0.530807 2.191096,-1.020783 l -0.189402,0.857299 h 1.728553 l 1.455414,-6.5732887 h -1.728553 l -0.98091,4.4240597 c -0.381093,0.367482 -0.952598,0.775557 -1.565069,0.775557 -0.61247,0 -1.102525,-0.246477 -1.102525,-0.845336 0,-0.122494 0.02861,-0.272263 0.05583,-0.394757 l 0.883217,-3.9595237 z m 24.955367,0 -0.992871,4.5177647 c -0.02722,0.122494 -0.06779,0.42344 -0.06779,0.532322 0,1.020784 0.789752,1.686686 2.055523,1.686686 0.966342,0 1.673899,-0.530807 2.191096,-1.020783 l -0.191397,0.857299 h 1.728553 l 1.457413,-6.5732887 h -1.728553 l -0.98091,4.4240597 c -0.381093,0.367482 -0.952599,0.775557 -1.565069,0.775557 -0.61247,0 -1.102526,-0.246477 -1.102526,-0.845336 0,-0.122494 0.02661,-0.272263 0.05383,-0.394757 L 75.085208,6.9232933 Z M 44.027072,8.296965 c 0.694133,0 1.251338,0.3280603 1.537158,0.763594 l -0.502418,2.286794 c -0.353872,0.449145 -0.898768,0.775557 -1.511238,0.775557 -0.830237,0 -1.455414,-0.60003 -1.455414,-1.539151 0,-1.2113297 0.802245,-2.286794 1.931912,-2.286794 z m 13.993907,0 c 0.694133,0 1.253331,0.3280603 1.53915,0.763594 l -0.50441,2.286794 c -0.353872,0.449145 -0.898768,0.775557 -1.511238,0.775557 -0.830237,0 -1.455414,-0.60003 -1.455414,-1.539151 0,-1.2113297 0.802245,-2.286794 1.931912,-2.286794 z"
     id="path818"
     inkscape:connector-curvature="0" />
  <text
     xml:space="preserve"
     style="font-style:italic;font-variant:normal;font-weight:300;font-stretch:normal;font-size:12px;line-height:100%;font-family:'Proxima Nova ScOsf';-inkscape-font-specification:'Proxima Nova ScOsf Light Italic';font-variant-ligatures:normal;font-variant-position:normal;font-variant-caps:normal;font-variant-numeric:normal;font-variant-alternates:normal;font-feature-settings:normal;text-indent:0;text-align:start;text-decoration:none;text-decoration-line:none;text-decoration-style:solid;text-decoration-color:#000000;letter-spacing:0px;word-spacing:0px;text-transform:none;writing-mode:lr-tb;direction:ltr;text-orientation:mixed;dominant-baseline:auto;baseline-shift:baseline;text-anchor:start;white-space:normal;shape-padding:0;opacity:1;vector-effect:none;fill:#000000;fill-opacity:1;stroke:none;stroke-width:1px;stroke-linecap:butt;stroke-linejoin:miter;stroke-miterlimit:4;stroke-dasharray:none;stroke-dashoffset:0;stroke-opacity:1"
     x="51.085972"
     y="21.083864"
     id="text842"><tspan
       sodipodi:role="line"
       id="tspan840"
       x="51.085972"
       y="21.083864">online</tspan></text>
  <path
     inkscape:connector-curvature="0"
     id="path850"
     style="font-style:italic;font-variant:normal;font-weight:600;font-stretch:normal;font-size:medium;line-height:100%;font-family:'Proxima Nova ScOsf';-inkscape-font-specification:'Proxima Nova ScOsf Semi-Bold Italic';font-variant-ligatures:normal;font-variant-position:normal;font-variant-caps:normal;font-variant-numeric:normal;font-variant-alternates:normal;font-feature-settings:normal;text-indent:0;text-align:end;text-decoration:none;text-decoration-line:none;text-decoration-style:solid;text-decoration-color:#000000;letter-spacing:0px;word-spacing:0px;text-transform:none;writing-mode:lr-tb;direction:ltr;text-orientation:mixed;dominant-baseline:auto;baseline-shift:baseline;text-anchor:end;white-space:normal;shape-padding:0;fill:#000000;fill-opacity:1;stroke:none;stroke-width:1px;stroke-linecap:butt;stroke-linejoin:miter;stroke-miterlimit:4;stroke-dasharray:none;stroke-dashoffset:0;stroke-opacity:1"
     d="m 50.054517,26.128888 c 1.129333,0 1.635333,-0.616 1.87,-1.672 l 0.542666,-2.449333 h -0.806666 l -0.528,2.383333 c -0.139334,0.66 -0.476667,1.034 -1.092667,1.034 -0.594,0 -0.982667,-0.278666 -0.982667,-0.799333 0,-0.07333 0.0073,-0.154 0.022,-0.234667 l 0.528,-2.383333 h -0.806666 l -0.542667,2.449333 c -0.022,0.11 -0.03667,0.227334 -0.03667,0.322667 0,0.792 0.638,1.349333 1.833334,1.349333 z" />
  <path
     inkscape:connector-curvature="0"
     id="path852"
     style="font-style:italic;font-variant:normal;font-weight:600;font-stretch:normal;font-size:medium;line-height:100%;font-family:'Proxima Nova ScOsf';-inkscape-font-specification:'Proxima Nova ScOsf Semi-Bold Italic';font-variant-ligatures:normal;font-variant-position:normal;font-variant-caps:normal;font-variant-numeric:normal;font-variant-alternates:normal;font-feature-settings:normal;text-indent:0;text-align:end;text-decoration:none;text-decoration-line:none;text-decoration-style:solid;text-decoration-color:#000000;letter-spacing:0px;word-spacing:0px;text-transform:none;writing-mode:lr-tb;direction:ltr;text-orientation:mixed;dominant-baseline:auto;baseline-shift:baseline;text-anchor:end;white-space:normal;shape-padding:0;fill:#000000;fill-opacity:1;stroke:none;stroke-width:1px;stroke-linecap:butt;stroke-linejoin:miter;stroke-miterlimit:4;stroke-dasharray:none;stroke-dashoffset:0;stroke-opacity:1"
     d="m 55.625788,26.040888 0.154,-0.704 h -2.156 l 2.713333,-2.742666 0.132,-0.586667 h -3.219333 l -0.154,0.704 h 2.104667 l -2.713334,2.742667 -0.132,0.586666 z" />
  <path
     inkscape:connector-curvature="0"
     id="path854"
     style="font-style:italic;font-variant:normal;font-weight:600;font-stretch:normal;font-size:medium;line-height:100%;font-family:'Proxima Nova ScOsf';-inkscape-font-specification:'Proxima Nova ScOsf Semi-Bold Italic';font-variant-ligatures:normal;font-variant-position:normal;font-variant-caps:normal;font-variant-numeric:normal;font-variant-alternates:normal;font-feature-settings:normal;text-indent:0;text-align:end;text-decoration:none;text-decoration-line:none;text-decoration-style:solid;text-decoration-color:#000000;letter-spacing:0px;word-spacing:0px;text-transform:none;writing-mode:lr-tb;direction:ltr;text-orientation:mixed;dominant-baseline:auto;baseline-shift:baseline;text-anchor:end;white-space:normal;shape-padding:0;fill:#000000;fill-opacity:1;stroke:none;stroke-width:1px;stroke-linecap:butt;stroke-linejoin:miter;stroke-miterlimit:4;stroke-dasharray:none;stroke-dashoffset:0;stroke-opacity:1"
     d="m 59.450007,26.040888 0.154,-0.704 h -2.156 l 2.713333,-2.742666 0.132,-0.586667 h -3.219333 l -0.154,0.704 h 2.104666 l -2.713333,2.742667 -0.132,0.586666 z" />
  <path
     inkscape:connector-curvature="0"
     id="path856"
     style="font-style:italic;font-variant:normal;font-weight:600;font-stretch:normal;font-size:medium;line-height:100%;font-family:'Proxima Nova ScOsf';-inkscape-font-specification:'Proxima Nova ScOsf Semi-Bold Italic';font-variant-ligatures:normal;font-variant-position:normal;font-variant-caps:normal;font-variant-numeric:normal;font-variant-alternates:normal;font-feature-settings:normal;text-indent:0;text-align:end;text-decoration:none;text-decoration-line:none;text-decoration-style:solid;text-decoration-color:#000000;letter-spacing:0px;word-spacing:0px;text-transform:none;writing-mode:lr-tb;direction:ltr;text-orientation:mixed;dominant-baseline:auto;baseline-shift:baseline;text-anchor:end;white-space:normal;shape-padding:0;fill:#000000;fill-opacity:1;stroke:none;stroke-width:1px;stroke-linecap:butt;stroke-linejoin:miter;stroke-miterlimit:4;stroke-dasharray:none;stroke-dashoffset:0;stroke-opacity:1"
     d="m 62.885559,26.040888 0.154,-0.696666 h -1.855333 l 0.740666,-3.336667 h -0.806667 l -0.887333,4.033333 z" />
  <path
     inkscape:connector-curvature="0"
     id="path858"
     style="font-style:italic;font-variant:normal;font-weight:600;font-stretch:normal;font-size:medium;line-height:100%;font-family:'Proxima Nova ScOsf';-inkscape-font-specification:'Proxima Nova ScOsf Semi-Bold Italic';font-variant-ligatures:normal;font-variant-position:normal;font-variant-caps:normal;font-variant-numeric:normal;font-variant-alternates:normal;font-feature-settings:normal;text-indent:0;text-align:end;text-decoration:none;text-decoration-line:none;text-decoration-style:solid;text-decoration-color:#000000;letter-spacing:0px;word-spacing:0px;text-transform:none;writing-mode:lr-tb;direction:ltr;text-orientation:mixed;dominant-baseline:auto;baseline-shift:baseline;text-anchor:end;white-space:normal;shape-padding:0;fill:#000000;fill-opacity:1;stroke:none;stroke-width:1px;stroke-linecap:butt;stroke-linejoin:miter;stroke-miterlimit:4;stroke-dasharray:none;stroke-dashoffset:0;stroke-opacity:1"
     d="m 66.580412,26.040888 0.154,-0.696666 h -2.141333 l 0.227333,-1.012 h 2.097334 l 0.154,-0.696667 h -2.097334 l 0.205334,-0.931333 h 2.134 l 0.154,-0.696667 h -2.940667 l -0.887333,4.033333 z" />
  <path
     inkscape:connector-curvature="0"
     id="path860"
     style="font-style:italic;font-variant:normal;font-weight:600;font-stretch:normal;font-size:medium;line-height:100%;font-family:'Proxima Nova ScOsf';-inkscape-font-specification:'Proxima Nova ScOsf Semi-Bold Italic';font-variant-ligatures:normal;font-variant-position:normal;font-variant-caps:normal;font-variant-numeric:normal;font-variant-alternates:normal;font-feature-settings:normal;text-indent:0;text-align:end;text-decoration:none;text-decoration-line:none;text-decoration-style:solid;text-decoration-color:#000000;letter-spacing:0px;word-spacing:0px;text-transform:none;writing-mode:lr-tb;direction:ltr;text-orientation:mixed;dominant-baseline:auto;baseline-shift:baseline;text-anchor:end;white-space:normal;shape-padding:0;fill:#000000;fill-opacity:1;stroke:none;stroke-width:1px;stroke-linecap:butt;stroke-linejoin:miter;stroke-miterlimit:4;stroke-dasharray:none;stroke-dashoffset:0;stroke-opacity:1"
     d="m 73.036954,26.040888 0.887333,-4.033333 h -0.792 l -0.359333,1.613333 h -2.126667 l 0.359334,-1.613333 h -0.806667 l -0.887333,4.033333 h 0.806666 l 0.374,-1.723333 h 2.126667 l -0.374,1.723333 z" />
  <path
     inkscape:connector-curvature="0"
     id="path862"
     style="font-style:italic;font-variant:normal;font-weight:600;font-stretch:normal;font-size:medium;line-height:100%;font-family:'Proxima Nova ScOsf';-inkscape-font-specification:'Proxima Nova ScOsf Semi-Bold Italic';font-variant-ligatures:normal;font-variant-position:normal;font-variant-caps:normal;font-variant-numeric:normal;font-variant-alternates:normal;font-feature-settings:normal;text-indent:0;text-align:end;text-decoration:none;text-decoration-line:none;text-decoration-style:solid;text-decoration-color:#000000;letter-spacing:0px;word-spacing:0px;text-transform:none;writing-mode:lr-tb;direction:ltr;text-orientation:mixed;dominant-baseline:auto;baseline-shift:baseline;text-anchor:end;white-space:normal;shape-padding:0;fill:#000000;fill-opacity:1;stroke:none;stroke-width:1px;stroke-linecap:butt;stroke-linejoin:miter;stroke-miterlimit:4;stroke-dasharray:none;stroke-dashoffset:0;stroke-opacity:1"
     d="m 76.03666,26.128888 c 1.129333,0 1.635333,-0.616 1.87,-1.672 l 0.542666,-2.449333 H 77.64266 l -0.528,2.383333 c -0.139334,0.66 -0.476667,1.034 -1.092667,1.034 -0.594,0 -0.982667,-0.278666 -0.982667,-0.799333 0,-0.07333 0.0073,-0.154 0.022,-0.234667 l 0.528,-2.383333 H 74.78266 l -0.542667,2.449333 c -0.022,0.11 -0.03667,0.227334 -0.03667,0.322667 0,0.792 0.638,1.349333 1.833334,1.349333 z" />
  <path
     inkscape:connector-curvature="0"
     id="path864"
     style="font-style:italic;font-variant:normal;font-weight:600;font-stretch:normal;font-size:medium;line-height:100%;font-family:'Proxima Nova ScOsf';-inkscape-font-specification:'Proxima Nova ScOsf Semi-Bold Italic';font-variant-ligatures:normal;font-variant-position:normal;font-variant-caps:normal;font-variant-numeric:normal;font-variant-alternates:normal;font-feature-settings:normal;text-indent:0;text-align:end;text-decoration:none;text-decoration-line:none;text-decoration-style:solid;text-decoration-color:#000000;letter-spacing:0px;word-spacing:0px;text-transform:none;writing-mode:lr-tb;direction:ltr;text-orientation:mixed;dominant-baseline:auto;baseline-shift:baseline;text-anchor:end;white-space:normal;shape-padding:0;fill:#000000;fill-opacity:1;stroke:none;stroke-width:1px;stroke-linecap:butt;stroke-linejoin:miter;stroke-miterlimit:4;stroke-dasharray:none;stroke-dashoffset:0;stroke-opacity:1"
     d="m 82.132405,26.040888 0.887334,-4.033333 h -0.799334 l -0.623333,2.801333 -1.43,-2.801333 h -0.858 l -0.887333,4.033333 h 0.799333 l 0.638,-2.882 1.459333,2.882 z" />
  <path
     inkscape:connector-curvature="0"
     id="path866"
     style="font-style:italic;font-variant:normal;font-weight:600;font-stretch:normal;font-size:medium;line-height:100%;font-family:'Proxima Nova ScOsf';-inkscape-font-specification:'Proxima Nova ScOsf Semi-Bold Italic';font-variant-ligatures:normal;font-variant-position:normal;font-variant-caps:normal;font-variant-numeric:normal;font-variant-alternates:normal;font-feature-settings:normal;text-indent:0;text-align:end;text-decoration:none;text-decoration-line:none;text-decoration-style:solid;text-decoration-color:#000000;letter-spacing:0px;word-spacing:0px;text-transform:none;writing-mode:lr-tb;direction:ltr;text-orientation:mixed;dominant-baseline:auto;baseline-shift:baseline;text-anchor:end;white-space:normal;shape-padding:0;fill:#000000;fill-opacity:1;stroke:none;stroke-width:1px;stroke-linecap:butt;stroke-linejoin:miter;stroke-miterlimit:4;stroke-dasharray:none;stroke-dashoffset:0;stroke-opacity:1"
     d="m 84.594566,26.040888 0.733333,-3.336666 h 1.188 l 0.154,-0.696667 h -3.182667 l -0.154,0.696667 h 1.195334 l -0.733334,3.336666 z" />
  <g
     aria-label="P"
     style="font-style:italic;font-variant:normal;font-weight:normal;font-stretch:normal;font-size:14.74079323px;line-height:100%;font-family:'Proxima Nova';-inkscape-font-specification:'Proxima Nova Italic';font-variant-ligatures:normal;font-variant-position:normal;font-variant-caps:normal;font-variant-numeric:normal;font-variant-alternates:normal;font-feature-settings:normal;text-indent:0;text-align:start;text-decoration:none;text-decoration-line:none;text-decoration-style:solid;text-decoration-color:#000000;letter-spacing:0px;word-spacing:0px;text-transform:none;writing-mode:lr-tb;direction:ltr;text-orientation:mixed;dominant-baseline:auto;baseline-shift:baseline;text-anchor:start;white-space:normal;shape-padding:0;opacity:1;vector-effect:none;fill:#000000;fill-opacity:1;stroke:none;stroke-width:1.06762135px;stroke-linecap:butt;stroke-linejoin:miter;stroke-miterlimit:4;stroke-dasharray:none;stroke-dashoffset:0;stroke-opacity:1"
     id="text899"
     transform="matrix(0.93666165,0,0,0.93666165,17.177745,1.7756855)">
    <path
       d="m 27.482261,26 0.854966,-3.90631 h 2.100061 c 2.756528,0 3.758902,-1.886822 3.758902,-3.375642 0,-1.370894 -1.031855,-2.550157 -2.727046,-2.550157 H 28.425672 L 26.258775,26 Z m 1.090819,-4.997129 0.840225,-3.744161 h 1.864208 c 0.958152,0 1.636228,0.707558 1.636228,1.547783 0,1.179263 -0.825484,2.196378 -2.373267,2.196378 z"
       style="stroke-width:1.06762135px"
       id="path901"
       inkscape:connector-curvature="0"
       sodipodi:nodetypes="ccssscccccsssc" />
  </g>
  <g
     id="g943"
     transform="translate(0,-0.36627789)">
    <path
       sodipodi:nodetypes="csccscc"
       inkscape:connector-curvature="0"
       id="path849"
       d="m 19.509979,16.415476 c -2.543175,0 -4.604825,-2.054509 -4.604825,-4.588874 0,-2.534365 2.061651,-4.5888733 4.604825,-4.5888732 h 0.758442 c 2.543174,-1e-7 4.604825,2.0545082 4.604825,4.5888732 0,2.534365 -2.06165,4.588874 -4.604825,4.588874 z"
       style="opacity:1;vector-effect:none;fill:none;fill-opacity:1;stroke:#000000;stroke-width:1.5;stroke-linecap:butt;stroke-linejoin:round;stroke-miterlimit:4;stroke-dasharray:none;stroke-dashoffset:0;stroke-opacity:1;marker:none;paint-order:normal" />
    <path
       sodipodi:nodetypes="cc"
       inkscape:connector-curvature="0"
       id="path890"
       d="M 19.889202,6.6123181 V 26.469318"
       style="opacity:1;vector-effect:none;fill:none;fill-opacity:1;fill-rule:evenodd;stroke:#000000;stroke-width:1.5;stroke-linecap:butt;stroke-linejoin:round;stroke-miterlimit:4;stroke-dasharray:none;stroke-dashoffset:0;stroke-opacity:1;marker:none;paint-order:normal" />
    <path
       style="opacity:1;vector-effect:none;fill:none;fill-opacity:1;fill-rule:evenodd;stroke:#000000;stroke-width:1;stroke-linecap:butt;stroke-linejoin:round;stroke-miterlimit:4;stroke-dasharray:none;stroke-dashoffset:0;stroke-opacity:1;marker:none;paint-order:normal"
       d="m 22.889202,21.331684 v 5.137634"
       id="path921"
       inkscape:connector-curvature="0"
       sodipodi:nodetypes="cc" />
    <path
       sodipodi:nodetypes="cc"
       inkscape:connector-curvature="0"
       id="path923"
       d="M 22.835958,23.900501 H 19.897959"
       style="opacity:1;vector-effect:none;fill:none;fill-opacity:1;fill-rule:evenodd;stroke:#000000;stroke-width:1;stroke-linecap:butt;stroke-linejoin:round;stroke-miterlimit:4;stroke-dasharray:none;stroke-dashoffset:0;stroke-opacity:1;marker:none;paint-order:normal" />
  </g>
  <path
     style="color:#000000;font-style:normal;font-variant:normal;font-weight:normal;font-stretch:normal;font-size:medium;line-height:normal;font-family:sans-serif;font-variant-ligatures:normal;font-variant-position:normal;font-variant-caps:normal;font-variant-numeric:normal;font-variant-alternates:normal;font-feature-settings:normal;text-indent:0;text-align:start;text-decoration:none;text-decoration-line:none;text-decoration-style:solid;text-decoration-color:#000000;letter-spacing:normal;word-spacing:normal;text-transform:none;writing-mode:lr-tb;direction:ltr;text-orientation:mixed;dominant-baseline:auto;baseline-shift:baseline;text-anchor:start;white-space:normal;shape-padding:0;clip-rule:nonzero;display:inline;overflow:visible;visibility:visible;opacity:1;isolation:auto;mix-blend-mode:normal;color-interpolation:sRGB;color-interpolation-filters:linearRGB;solid-color:#000000;solid-opacity:1;vector-effect:none;fill:#504000;fill-opacity:0.31372549;fill-rule:nonzero;stroke:none;stroke-width:2;stroke-linecap:butt;stroke-linejoin:miter;stroke-miterlimit:4;stroke-dasharray:none;stroke-dashoffset:0;stroke-opacity:1;marker:none;paint-order:normal;color-rendering:auto;image-rendering:auto;shape-rendering:auto;text-rendering:auto;enable-background:accumulate"
     d="M 30.716797,30.224609 37.027344,2 34.529297,4 29.113281,28.224609 17.111914,28.223359 C 9.3197634,28.22211 3.0025015,22.800502 3.0012508,16.11236 3,23.906228 9.318381,30.224609 17.111913,30.224609 Z"
     id="path927"
     inkscape:connector-curvature="0"
     sodipodi:nodetypes="cccccccc" />
  <path
     style="opacity:1;vector-effect:none;fill:#ffffff;fill-opacity:0.3137255;stroke:none;stroke-width:0.02;stroke-linecap:butt;stroke-linejoin:miter;stroke-miterlimit:4;stroke-dasharray:none;stroke-dashoffset:0;stroke-opacity:1;marker:none;paint-order:normal"
     d="M 17.112499,28.22211 C 10.424331,28.22211 5.0024996,22.800502 5.0012498,16.111969 5,9.383847 10.383848,4 17.111328,4 H 34.529297 L 37.027344,2 H 17.111328 C 9.3104422,2 3,8.3104414 3.0012508,16.111969 3.0025015,22.800502 9.3197634,28.22211 17.112501,28.22211"
     id="ellipse4551"
     inkscape:connector-curvature="0"
     sodipodi:nodetypes="ccsccscc" />
  <path
     style="opacity:1;vector-effect:none;fill:#ffffff;fill-opacity:0.31372549;stroke:none;stroke-width:2;stroke-linecap:butt;stroke-linejoin:miter;stroke-miterlimit:4;stroke-dasharray:none;stroke-dashoffset:0;stroke-opacity:1;marker:none;paint-order:normal;font-variant-east_asian:normal"
     d="m 98.750998,16.11211 c 0,-7.7885951 -5.418473,-14.1024992 -12.10181,-14.1073049 L 37.028782,2 l -6.310547,28.224609 2.498047,-2 L 38.632298,4 l 48.01689,0.00481 c 6.683337,0.00481 12.10181,5.4232792 12.10181,12.1073049 z"
     id="circle4598"
     inkscape:connector-curvature="0"
     sodipodi:nodetypes="cccccccc" />
  <path
     style="opacity:1;vector-effect:none;fill:#002d50;fill-opacity:0.31372549;stroke:none;stroke-width:2;stroke-linecap:butt;stroke-linejoin:miter;stroke-miterlimit:4;stroke-dasharray:none;stroke-dashoffset:0;stroke-opacity:1;marker:none;paint-order:normal;font-variant-east_asian:normal"
     d="m 86.648598,2.0096102 c 6.683927,6e-7 12.1024,6.3139047 12.107503,14.1021088 0.0051,6.72709 -5.378744,12.11289 -12.106225,12.11289 H 33.216282 l -2.498047,2 h 55.931641 c 7.800887,0 14.111324,-6.312394 14.106324,-14.11289 C 100.7512,8.3235132 94.437294,2.0096085 86.648598,2.0096102 Z"
     id="ellipse4617"
     inkscape:connector-curvature="0"
     sodipodi:nodetypes="ccsccscc" />
</svg>
