<?xml version="1.0" encoding="UTF-8" standalone="no"?>
<!-- Created with Inkscape (http://www.inkscape.org/) -->

<svg
   xmlns:dc="http://purl.org/dc/elements/1.1/"
   xmlns:cc="http://creativecommons.org/ns#"
   xmlns:rdf="http://www.w3.org/1999/02/22-rdf-syntax-ns#"
   xmlns:svg="http://www.w3.org/2000/svg"
   xmlns="http://www.w3.org/2000/svg"
   xmlns:sodipodi="http://sodipodi.sourceforge.net/DTD/sodipodi-0.dtd"
   xmlns:inkscape="http://www.inkscape.org/namespaces/inkscape"
   width="103.56501"
   height="32.224491"
   viewBox="0 0 103.56501 32.224491"
   version="1.1"
   id="main-svg"
   inkscape:export-filename="D:\c\Qoph\DataFiles\Logo 2.png"
   inkscape:version="0.92.3 (2405546, 2018-03-11)"
   sodipodi:docname="Logo 2.svg"
   inkscape:export-xdpi="960"
   inkscape:export-ydpi="960">
  <metadata
     id="metadata7">
    <rdf:RDF>
      <cc:Work
         rdf:about="">
        <dc:format>image/svg+xml</dc:format>
        <dc:type
           rdf:resource="http://purl.org/dc/dcmitype/StillImage" />
        <dc:title></dc:title>
      </cc:Work>
    </rdf:RDF>
  </metadata>
  <defs
     id="defs5" />
  <sodipodi:namedview
     id="base"
     pagecolor="#ffffff"
     bordercolor="#666666"
     borderopacity="1.0"
     inkscape:pageopacity="0"
     inkscape:pageshadow="2"
     inkscape:zoom="9.8000001"
     inkscape:cx="48.763494"
     inkscape:cy="30.570189"
     inkscape:document-units="px"
     showgrid="false"
     units="px"
     inkscape:current-layer="main-svg"
     inkscape:snap-global="false"
     fit-margin-top="2"
     fit-margin-left="3"
     fit-margin-right="3"
     fit-margin-bottom="2"
     showguides="false">
    <inkscape:grid
       type="xygrid"
       id="main-grid"
       spacingx="10"
       spacingy="10"
       originx="-5.872316"
       originy="-39.959254" />
  </sodipodi:namedview>
  <path
     style="opacity:1;vector-effect:none;fill:#f1dd89;fill-opacity:1;stroke:#504000;stroke-width:2;stroke-linecap:butt;stroke-linejoin:miter;stroke-miterlimit:4;stroke-dasharray:none;stroke-dashoffset:0;stroke-opacity:0.31372549;marker:none;paint-order:normal"
     d="M 29.915094,29.224491 H 17.112245 C 9.848062,29.224491 4,23.37643 4,16.112246 4,8.8480621 9.848062,3.0000002 17.112245,3.0000002 L 35.778425,3 Z"
     id="path908"
     inkscape:connector-curvature="0"
     sodipodi:nodetypes="cssccc" />
  <path
     style="opacity:1;vector-effect:none;fill:#a0d0f5;fill-opacity:1;stroke:#002d50;stroke-width:2;stroke-linecap:butt;stroke-linejoin:miter;stroke-miterlimit:4;stroke-dasharray:none;stroke-dashoffset:0;stroke-opacity:0.31372549;marker:none;paint-order:normal"
     d="m 37.634028,3.0000003 48.818738,-10e-8 c 7.264184,0 13.112246,5.8480619 13.112246,13.1122458 0,7.264184 -5.848062,13.112245 -13.112246,13.112245 H 31.770699 Z"
     id="rect906"
     inkscape:connector-curvature="0"
     sodipodi:nodetypes="cssscc" />
  <path
     inkscape:connector-curvature="0"
     id="path818"
     style="font-style:italic;font-variant:normal;font-weight:bold;font-stretch:normal;font-size:medium;line-height:100%;font-family:'Proxima Nova';-inkscape-font-specification:'Proxima Nova Bold Italic';font-variant-ligatures:normal;font-variant-position:normal;font-variant-caps:normal;font-variant-numeric:normal;font-variant-alternates:normal;font-feature-settings:normal;text-indent:0;text-align:start;text-decoration:none;text-decoration-line:none;text-decoration-style:solid;text-decoration-color:#000000;letter-spacing:-0.75px;word-spacing:0.5px;text-transform:none;writing-mode:lr-tb;direction:ltr;text-orientation:mixed;dominant-baseline:auto;baseline-shift:baseline;text-anchor:start;white-space:normal;shape-padding:0;fill:#000000;fill-opacity:1;stroke:none;stroke-width:1px;stroke-linecap:butt;stroke-linejoin:miter;stroke-miterlimit:4;stroke-dasharray:none;stroke-dashoffset:0;stroke-opacity:1"
     d="m 44.730041,6.7266011 c -2.2,0 -3.4,2.146667 -3.4,4.0933329 0,1.706667 0.986667,2.666667 2.453333,2.666667 0.773334,0 1.386667,-0.32 1.933334,-0.96 l -0.733334,3.253333 h 1.706667 l 1.973333,-8.8933329 h -1.706667 l -0.173333,0.853333 c -0.426666,-0.64 -1.2,-1.013333 -2.053333,-1.013333 z m 0.266667,1.506667 c 0.68,0 1.226666,0.32 1.506666,0.746666 l -0.493333,2.2399999 c -0.346667,0.44 -0.88,0.76 -1.48,0.76 -0.813333,0 -1.426667,-0.586666 -1.426667,-1.506666 0,-1.1866669 0.786667,-2.2399999 1.893334,-2.2399999 z" />
  <path
     inkscape:connector-curvature="0"
     id="path820"
     style="font-style:italic;font-variant:normal;font-weight:bold;font-stretch:normal;font-size:medium;line-height:100%;font-family:'Proxima Nova';-inkscape-font-specification:'Proxima Nova Bold Italic';font-variant-ligatures:normal;font-variant-position:normal;font-variant-caps:normal;font-variant-numeric:normal;font-variant-alternates:normal;font-feature-settings:normal;text-indent:0;text-align:start;text-decoration:none;text-decoration-line:none;text-decoration-style:solid;text-decoration-color:#000000;letter-spacing:-0.75px;word-spacing:0.5px;text-transform:none;writing-mode:lr-tb;direction:ltr;text-orientation:mixed;dominant-baseline:auto;baseline-shift:baseline;text-anchor:start;white-space:normal;shape-padding:0;fill:#000000;fill-opacity:1;stroke:none;stroke-width:1px;stroke-linecap:butt;stroke-linejoin:miter;stroke-miterlimit:4;stroke-dasharray:none;stroke-dashoffset:0;stroke-opacity:1"
     d="m 49.267452,6.8866011 -0.973334,4.4266669 c -0.02667,0.12 -0.06667,0.413333 -0.06667,0.519999 0,1 0.773333,1.653334 2.013333,1.653334 0.946667,0 1.64,-0.52 2.146667,-1 l -0.186667,0.84 h 1.693333 l 1.426667,-6.4399999 h -1.693329 l -0.96,4.3333329 c -0.373334,0.36 -0.933334,0.76 -1.533334,0.76 -0.6,0 -1.08,-0.24 -1.08,-0.826666 0,-0.12 0.02667,-0.266667 0.05333,-0.386667 l 0.866666,-3.8799999 z" />
  <path
     inkscape:connector-curvature="0"
     id="path822"
     style="font-style:italic;font-variant:normal;font-weight:bold;font-stretch:normal;font-size:medium;line-height:100%;font-family:'Proxima Nova';-inkscape-font-specification:'Proxima Nova Bold Italic';font-variant-ligatures:normal;font-variant-position:normal;font-variant-caps:normal;font-variant-numeric:normal;font-variant-alternates:normal;font-feature-settings:normal;text-indent:0;text-align:start;text-decoration:none;text-decoration-line:none;text-decoration-style:solid;text-decoration-color:#000000;letter-spacing:-0.75px;word-spacing:0.5px;text-transform:none;writing-mode:lr-tb;direction:ltr;text-orientation:mixed;dominant-baseline:auto;baseline-shift:baseline;text-anchor:start;white-space:normal;shape-padding:0;fill:#000000;fill-opacity:1;stroke:none;stroke-width:1px;stroke-linecap:butt;stroke-linejoin:miter;stroke-miterlimit:4;stroke-dasharray:none;stroke-dashoffset:0;stroke-opacity:1"
     d="m 58.439118,6.7266011 c -2.2,0 -3.4,2.146667 -3.4,4.0933329 0,1.706667 0.986667,2.666667 2.453333,2.666667 0.773334,0 1.386667,-0.32 1.933334,-0.96 l -0.186667,0.8 h 1.706667 l 1.426666,-6.4399999 h -1.706666 l -0.173334,0.853333 c -0.426666,-0.64 -1.2,-1.013333 -2.053333,-1.013333 z m 0.266667,1.506667 c 0.68,0 1.226666,0.32 1.506666,0.746666 l -0.493333,2.2399999 c -0.346667,0.44 -0.88,0.76 -1.48,0.76 -0.813333,0 -1.426667,-0.586666 -1.426667,-1.506666 0,-1.1866669 0.786667,-2.2399999 1.893334,-2.2399999 z" />
  <path
     inkscape:connector-curvature="0"
     id="path824"
     style="font-style:italic;font-variant:normal;font-weight:bold;font-stretch:normal;font-size:medium;line-height:100%;font-family:'Proxima Nova';-inkscape-font-specification:'Proxima Nova Bold Italic';font-variant-ligatures:normal;font-variant-position:normal;font-variant-caps:normal;font-variant-numeric:normal;font-variant-alternates:normal;font-feature-settings:normal;text-indent:0;text-align:start;text-decoration:none;text-decoration-line:none;text-decoration-style:solid;text-decoration-color:#000000;letter-spacing:-0.75px;word-spacing:0.5px;text-transform:none;writing-mode:lr-tb;direction:ltr;text-orientation:mixed;dominant-baseline:auto;baseline-shift:baseline;text-anchor:start;white-space:normal;shape-padding:0;fill:#000000;fill-opacity:1;stroke:none;stroke-width:1px;stroke-linecap:butt;stroke-linejoin:miter;stroke-miterlimit:4;stroke-dasharray:none;stroke-dashoffset:0;stroke-opacity:1"
     d="m 67.629237,13.326601 0.986667,-4.4266669 c 0.02667,-0.133333 0.06667,-0.413333 0.06667,-0.533333 0,-0.986667 -0.773333,-1.64 -2.013333,-1.64 -0.946666,0 -1.64,0.506667 -2.146666,1 l 0.186666,-0.84 h -1.693333 l -1.426667,6.4399999 h 1.693334 l 0.96,-4.3466669 c 0.373333,-0.36 0.933333,-0.746666 1.626666,-0.746666 0.506667,0 0.986667,0.226666 0.986667,0.826666 0,0.133334 -0.04,0.306667 -0.06667,0.426667 l -0.853333,3.8399999 z" />
  <path
     inkscape:connector-curvature="0"
     id="path826"
     style="font-style:italic;font-variant:normal;font-weight:bold;font-stretch:normal;font-size:medium;line-height:100%;font-family:'Proxima Nova';-inkscape-font-specification:'Proxima Nova Bold Italic';font-variant-ligatures:normal;font-variant-position:normal;font-variant-caps:normal;font-variant-numeric:normal;font-variant-alternates:normal;font-feature-settings:normal;text-indent:0;text-align:start;text-decoration:none;text-decoration-line:none;text-decoration-style:solid;text-decoration-color:#000000;letter-spacing:-0.75px;word-spacing:0.5px;text-transform:none;writing-mode:lr-tb;direction:ltr;text-orientation:mixed;dominant-baseline:auto;baseline-shift:baseline;text-anchor:start;white-space:normal;shape-padding:0;fill:#000000;fill-opacity:1;stroke:none;stroke-width:1px;stroke-linecap:butt;stroke-linejoin:miter;stroke-miterlimit:4;stroke-dasharray:none;stroke-dashoffset:0;stroke-opacity:1"
     d="m 71.134238,13.486601 c 0.413333,0 0.813333,-0.106667 1.066667,-0.28 l -0.06667,-1.36 c -0.08,0.06667 -0.293333,0.133333 -0.466667,0.133333 -0.426666,0 -0.626666,-0.213333 -0.626666,-0.56 0,-0.08 0.01333,-0.186666 0.02667,-0.266666 l 0.613334,-2.7999999 h 1.306666 l 0.346666,-1.466667 h -1.306667 l 0.386667,-1.76 h -1.706667 l -0.386666,1.76 h -1.066667 l -0.333333,1.466667 h 1.066666 l -0.72,3.2933329 c -0.04,0.16 -0.05333,0.346666 -0.05333,0.44 0,0.96 0.773333,1.4 1.92,1.4 z" />
  <path
     inkscape:connector-curvature="0"
     id="path828"
     style="font-style:italic;font-variant:normal;font-weight:bold;font-stretch:normal;font-size:medium;line-height:100%;font-family:'Proxima Nova';-inkscape-font-specification:'Proxima Nova Bold Italic';font-variant-ligatures:normal;font-variant-position:normal;font-variant-caps:normal;font-variant-numeric:normal;font-variant-alternates:normal;font-feature-settings:normal;text-indent:0;text-align:start;text-decoration:none;text-decoration-line:none;text-decoration-style:solid;text-decoration-color:#000000;letter-spacing:-0.75px;word-spacing:0.5px;text-transform:none;writing-mode:lr-tb;direction:ltr;text-orientation:mixed;dominant-baseline:auto;baseline-shift:baseline;text-anchor:start;white-space:normal;shape-padding:0;fill:#000000;fill-opacity:1;stroke:none;stroke-width:1px;stroke-linecap:butt;stroke-linejoin:miter;stroke-miterlimit:4;stroke-dasharray:none;stroke-dashoffset:0;stroke-opacity:1"
     d="m 73.716112,6.8866011 -0.973334,4.4266669 c -0.02667,0.12 -0.06667,0.413333 -0.06667,0.519999 0,1 0.773333,1.653334 2.013333,1.653334 0.946667,0 1.64,-0.52 2.146667,-1 l -0.186667,0.84 h 1.693333 l 1.426667,-6.4399999 h -1.693333 l -0.96,4.3333329 c -0.373334,0.36 -0.933334,0.76 -1.533334,0.76 -0.6,0 -1.08,-0.24 -1.08,-0.826666 0,-0.12 0.02667,-0.266667 0.05333,-0.386667 L 75.42277,6.8866011 Z" />
  <path
     inkscape:connector-curvature="0"
     id="path830"
     style="font-style:italic;font-variant:normal;font-weight:bold;font-stretch:normal;font-size:medium;line-height:100%;font-family:'Proxima Nova';-inkscape-font-specification:'Proxima Nova Bold Italic';font-variant-ligatures:normal;font-variant-position:normal;font-variant-caps:normal;font-variant-numeric:normal;font-variant-alternates:normal;font-feature-settings:normal;text-indent:0;text-align:start;text-decoration:none;text-decoration-line:none;text-decoration-style:solid;text-decoration-color:#000000;letter-spacing:-0.75px;word-spacing:0.5px;text-transform:none;writing-mode:lr-tb;direction:ltr;text-orientation:mixed;dominant-baseline:auto;baseline-shift:baseline;text-anchor:start;white-space:normal;shape-padding:0;fill:#000000;fill-opacity:1;stroke:none;stroke-width:1px;stroke-linecap:butt;stroke-linejoin:miter;stroke-miterlimit:4;stroke-dasharray:none;stroke-dashoffset:0;stroke-opacity:1"
     d="m 88.66873,13.326601 0.973333,-4.4266669 c 0.02667,-0.106666 0.06667,-0.36 0.06667,-0.533333 0,-1.053333 -0.866666,-1.64 -1.839999,-1.64 -0.986667,0 -1.72,0.56 -2.226667,1.186667 0,-0.01333 0,0 0,-0.02667 0,-0.24 -0.506667,-1.16 -1.773333,-1.16 -0.946667,0 -1.6,0.613333 -1.96,1 l 0.186666,-0.84 H 80.402067 L 78.9754,13.326598 h 1.693334 l 0.96,-4.3466669 c 0.32,-0.36 0.813333,-0.746666 1.32,-0.746666 0.6,0 0.933333,0.32 0.946666,0.733333 0,0.173333 -0.04,0.333333 -0.06667,0.466667 l -0.866667,3.8933329 h 1.706667 l 0.946666,-4.3466669 c 0.333334,-0.373333 0.826667,-0.746666 1.346667,-0.746666 0.493333,0 0.92,0.28 0.92,0.773333 0,0.16 -0.04,0.346667 -0.05333,0.426667 l -0.866667,3.8933329 z" />
  <text
     xml:space="preserve"
     style="font-style:italic;font-variant:normal;font-weight:300;font-stretch:normal;font-size:12px;line-height:100%;font-family:'Proxima Nova ScOsf';-inkscape-font-specification:'Proxima Nova ScOsf Light Italic';font-variant-ligatures:normal;font-variant-position:normal;font-variant-caps:normal;font-variant-numeric:normal;font-variant-alternates:normal;font-feature-settings:normal;text-indent:0;text-align:start;text-decoration:none;text-decoration-line:none;text-decoration-style:solid;text-decoration-color:#000000;letter-spacing:0px;word-spacing:0px;text-transform:none;writing-mode:lr-tb;direction:ltr;text-orientation:mixed;dominant-baseline:auto;baseline-shift:baseline;text-anchor:start;white-space:normal;shape-padding:0;opacity:1;vector-effect:none;fill:#000000;fill-opacity:1;stroke:none;stroke-width:1px;stroke-linecap:butt;stroke-linejoin:miter;stroke-miterlimit:4;stroke-dasharray:none;stroke-dashoffset:0;stroke-opacity:1"
     x="51.126236"
     y="21.000074"
     id="text842"><tspan
       sodipodi:role="line"
       id="tspan840"
       x="51.126236"
       y="21.000074">online</tspan></text>
  <path
     inkscape:connector-curvature="0"
     id="path850"
     style="font-style:italic;font-variant:normal;font-weight:600;font-stretch:normal;font-size:medium;line-height:100%;font-family:'Proxima Nova ScOsf';-inkscape-font-specification:'Proxima Nova ScOsf Semi-Bold Italic';font-variant-ligatures:normal;font-variant-position:normal;font-variant-caps:normal;font-variant-numeric:normal;font-variant-alternates:normal;font-feature-settings:normal;text-indent:0;text-align:end;text-decoration:none;text-decoration-line:none;text-decoration-style:solid;text-decoration-color:#000000;letter-spacing:0px;word-spacing:0px;text-transform:none;writing-mode:lr-tb;direction:ltr;text-orientation:mixed;dominant-baseline:auto;baseline-shift:baseline;text-anchor:end;white-space:normal;shape-padding:0;fill:#000000;fill-opacity:1;stroke:none;stroke-width:1px;stroke-linecap:butt;stroke-linejoin:miter;stroke-miterlimit:4;stroke-dasharray:none;stroke-dashoffset:0;stroke-opacity:1"
     d="m 50.094762,26.128888 c 1.129333,0 1.635333,-0.616 1.87,-1.672 l 0.542666,-2.449333 h -0.806666 l -0.528,2.383333 c -0.139334,0.66 -0.476667,1.034 -1.092667,1.034 -0.594,0 -0.982667,-0.278666 -0.982667,-0.799333 0,-0.07333 0.0073,-0.154 0.022,-0.234667 l 0.528,-2.383333 h -0.806666 l -0.542667,2.449333 c -0.022,0.11 -0.03667,0.227334 -0.03667,0.322667 0,0.792 0.638,1.349333 1.833334,1.349333 z" />
  <path
     inkscape:connector-curvature="0"
     id="path852"
     style="font-style:italic;font-variant:normal;font-weight:600;font-stretch:normal;font-size:medium;line-height:100%;font-family:'Proxima Nova ScOsf';-inkscape-font-specification:'Proxima Nova ScOsf Semi-Bold Italic';font-variant-ligatures:normal;font-variant-position:normal;font-variant-caps:normal;font-variant-numeric:normal;font-variant-alternates:normal;font-feature-settings:normal;text-indent:0;text-align:end;text-decoration:none;text-decoration-line:none;text-decoration-style:solid;text-decoration-color:#000000;letter-spacing:0px;word-spacing:0px;text-transform:none;writing-mode:lr-tb;direction:ltr;text-orientation:mixed;dominant-baseline:auto;baseline-shift:baseline;text-anchor:end;white-space:normal;shape-padding:0;fill:#000000;fill-opacity:1;stroke:none;stroke-width:1px;stroke-linecap:butt;stroke-linejoin:miter;stroke-miterlimit:4;stroke-dasharray:none;stroke-dashoffset:0;stroke-opacity:1"
     d="m 55.666033,26.040888 0.154,-0.704 h -2.156 l 2.713333,-2.742666 0.132,-0.586667 h -3.219333 l -0.154,0.704 H 55.2407 l -2.713334,2.742667 -0.132,0.586666 z" />
  <path
     inkscape:connector-curvature="0"
     id="path854"
     style="font-style:italic;font-variant:normal;font-weight:600;font-stretch:normal;font-size:medium;line-height:100%;font-family:'Proxima Nova ScOsf';-inkscape-font-specification:'Proxima Nova ScOsf Semi-Bold Italic';font-variant-ligatures:normal;font-variant-position:normal;font-variant-caps:normal;font-variant-numeric:normal;font-variant-alternates:normal;font-feature-settings:normal;text-indent:0;text-align:end;text-decoration:none;text-decoration-line:none;text-decoration-style:solid;text-decoration-color:#000000;letter-spacing:0px;word-spacing:0px;text-transform:none;writing-mode:lr-tb;direction:ltr;text-orientation:mixed;dominant-baseline:auto;baseline-shift:baseline;text-anchor:end;white-space:normal;shape-padding:0;fill:#000000;fill-opacity:1;stroke:none;stroke-width:1px;stroke-linecap:butt;stroke-linejoin:miter;stroke-miterlimit:4;stroke-dasharray:none;stroke-dashoffset:0;stroke-opacity:1"
     d="m 59.490252,26.040888 0.154,-0.704 h -2.156 l 2.713333,-2.742666 0.132,-0.586667 h -3.219333 l -0.154,0.704 h 2.104666 l -2.713333,2.742667 -0.132,0.586666 z" />
  <path
     inkscape:connector-curvature="0"
     id="path856"
     style="font-style:italic;font-variant:normal;font-weight:600;font-stretch:normal;font-size:medium;line-height:100%;font-family:'Proxima Nova ScOsf';-inkscape-font-specification:'Proxima Nova ScOsf Semi-Bold Italic';font-variant-ligatures:normal;font-variant-position:normal;font-variant-caps:normal;font-variant-numeric:normal;font-variant-alternates:normal;font-feature-settings:normal;text-indent:0;text-align:end;text-decoration:none;text-decoration-line:none;text-decoration-style:solid;text-decoration-color:#000000;letter-spacing:0px;word-spacing:0px;text-transform:none;writing-mode:lr-tb;direction:ltr;text-orientation:mixed;dominant-baseline:auto;baseline-shift:baseline;text-anchor:end;white-space:normal;shape-padding:0;fill:#000000;fill-opacity:1;stroke:none;stroke-width:1px;stroke-linecap:butt;stroke-linejoin:miter;stroke-miterlimit:4;stroke-dasharray:none;stroke-dashoffset:0;stroke-opacity:1"
     d="m 62.925804,26.040888 0.154,-0.696666 h -1.855333 l 0.740666,-3.336667 H 61.15847 l -0.887333,4.033333 z" />
  <path
     inkscape:connector-curvature="0"
     id="path858"
     style="font-style:italic;font-variant:normal;font-weight:600;font-stretch:normal;font-size:medium;line-height:100%;font-family:'Proxima Nova ScOsf';-inkscape-font-specification:'Proxima Nova ScOsf Semi-Bold Italic';font-variant-ligatures:normal;font-variant-position:normal;font-variant-caps:normal;font-variant-numeric:normal;font-variant-alternates:normal;font-feature-settings:normal;text-indent:0;text-align:end;text-decoration:none;text-decoration-line:none;text-decoration-style:solid;text-decoration-color:#000000;letter-spacing:0px;word-spacing:0px;text-transform:none;writing-mode:lr-tb;direction:ltr;text-orientation:mixed;dominant-baseline:auto;baseline-shift:baseline;text-anchor:end;white-space:normal;shape-padding:0;fill:#000000;fill-opacity:1;stroke:none;stroke-width:1px;stroke-linecap:butt;stroke-linejoin:miter;stroke-miterlimit:4;stroke-dasharray:none;stroke-dashoffset:0;stroke-opacity:1"
     d="m 66.620657,26.040888 0.154,-0.696666 h -2.141333 l 0.227333,-1.012 h 2.097334 l 0.154,-0.696667 h -2.097334 l 0.205334,-0.931333 h 2.134 l 0.154,-0.696667 h -2.940667 l -0.887333,4.033333 z" />
  <path
     inkscape:connector-curvature="0"
     id="path860"
     style="font-style:italic;font-variant:normal;font-weight:600;font-stretch:normal;font-size:medium;line-height:100%;font-family:'Proxima Nova ScOsf';-inkscape-font-specification:'Proxima Nova ScOsf Semi-Bold Italic';font-variant-ligatures:normal;font-variant-position:normal;font-variant-caps:normal;font-variant-numeric:normal;font-variant-alternates:normal;font-feature-settings:normal;text-indent:0;text-align:end;text-decoration:none;text-decoration-line:none;text-decoration-style:solid;text-decoration-color:#000000;letter-spacing:0px;word-spacing:0px;text-transform:none;writing-mode:lr-tb;direction:ltr;text-orientation:mixed;dominant-baseline:auto;baseline-shift:baseline;text-anchor:end;white-space:normal;shape-padding:0;fill:#000000;fill-opacity:1;stroke:none;stroke-width:1px;stroke-linecap:butt;stroke-linejoin:miter;stroke-miterlimit:4;stroke-dasharray:none;stroke-dashoffset:0;stroke-opacity:1"
     d="m 73.077199,26.040888 0.887333,-4.033333 h -0.792 l -0.359333,1.613333 h -2.126667 l 0.359334,-1.613333 h -0.806667 l -0.887333,4.033333 h 0.806666 l 0.374,-1.723333 h 2.126667 l -0.374,1.723333 z" />
  <path
     inkscape:connector-curvature="0"
     id="path862"
     style="font-style:italic;font-variant:normal;font-weight:600;font-stretch:normal;font-size:medium;line-height:100%;font-family:'Proxima Nova ScOsf';-inkscape-font-specification:'Proxima Nova ScOsf Semi-Bold Italic';font-variant-ligatures:normal;font-variant-position:normal;font-variant-caps:normal;font-variant-numeric:normal;font-variant-alternates:normal;font-feature-settings:normal;text-indent:0;text-align:end;text-decoration:none;text-decoration-line:none;text-decoration-style:solid;text-decoration-color:#000000;letter-spacing:0px;word-spacing:0px;text-transform:none;writing-mode:lr-tb;direction:ltr;text-orientation:mixed;dominant-baseline:auto;baseline-shift:baseline;text-anchor:end;white-space:normal;shape-padding:0;fill:#000000;fill-opacity:1;stroke:none;stroke-width:1px;stroke-linecap:butt;stroke-linejoin:miter;stroke-miterlimit:4;stroke-dasharray:none;stroke-dashoffset:0;stroke-opacity:1"
     d="m 76.076905,26.128888 c 1.129333,0 1.635333,-0.616 1.87,-1.672 l 0.542666,-2.449333 h -0.806666 l -0.528,2.383333 c -0.139334,0.66 -0.476667,1.034 -1.092667,1.034 -0.594,0 -0.982667,-0.278666 -0.982667,-0.799333 0,-0.07333 0.0073,-0.154 0.022,-0.234667 l 0.528,-2.383333 h -0.806666 l -0.542667,2.449333 c -0.022,0.11 -0.03667,0.227334 -0.03667,0.322667 0,0.792 0.638,1.349333 1.833334,1.349333 z" />
  <path
     inkscape:connector-curvature="0"
     id="path864"
     style="font-style:italic;font-variant:normal;font-weight:600;font-stretch:normal;font-size:medium;line-height:100%;font-family:'Proxima Nova ScOsf';-inkscape-font-specification:'Proxima Nova ScOsf Semi-Bold Italic';font-variant-ligatures:normal;font-variant-position:normal;font-variant-caps:normal;font-variant-numeric:normal;font-variant-alternates:normal;font-feature-settings:normal;text-indent:0;text-align:end;text-decoration:none;text-decoration-line:none;text-decoration-style:solid;text-decoration-color:#000000;letter-spacing:0px;word-spacing:0px;text-transform:none;writing-mode:lr-tb;direction:ltr;text-orientation:mixed;dominant-baseline:auto;baseline-shift:baseline;text-anchor:end;white-space:normal;shape-padding:0;fill:#000000;fill-opacity:1;stroke:none;stroke-width:1px;stroke-linecap:butt;stroke-linejoin:miter;stroke-miterlimit:4;stroke-dasharray:none;stroke-dashoffset:0;stroke-opacity:1"
     d="m 82.17265,26.040888 0.887334,-4.033333 H 82.26065 l -0.623333,2.801333 -1.43,-2.801333 h -0.858 l -0.887333,4.033333 h 0.799333 l 0.638,-2.882 1.459333,2.882 z" />
  <path
     inkscape:connector-curvature="0"
     id="path866"
     style="font-style:italic;font-variant:normal;font-weight:600;font-stretch:normal;font-size:medium;line-height:100%;font-family:'Proxima Nova ScOsf';-inkscape-font-specification:'Proxima Nova ScOsf Semi-Bold Italic';font-variant-ligatures:normal;font-variant-position:normal;font-variant-caps:normal;font-variant-numeric:normal;font-variant-alternates:normal;font-feature-settings:normal;text-indent:0;text-align:end;text-decoration:none;text-decoration-line:none;text-decoration-style:solid;text-decoration-color:#000000;letter-spacing:0px;word-spacing:0px;text-transform:none;writing-mode:lr-tb;direction:ltr;text-orientation:mixed;dominant-baseline:auto;baseline-shift:baseline;text-anchor:end;white-space:normal;shape-padding:0;fill:#000000;fill-opacity:1;stroke:none;stroke-width:1px;stroke-linecap:butt;stroke-linejoin:miter;stroke-miterlimit:4;stroke-dasharray:none;stroke-dashoffset:0;stroke-opacity:1"
     d="m 84.634811,26.040888 0.733333,-3.336666 h 1.188 l 0.154,-0.696667 h -3.182667 l -0.154,0.696667 h 1.195334 l -0.733334,3.336666 z" />
  <g
     aria-label="P"
     style="font-style:italic;font-variant:normal;font-weight:normal;font-stretch:normal;font-size:14.74079323px;line-height:100%;font-family:'Proxima Nova';-inkscape-font-specification:'Proxima Nova Italic';font-variant-ligatures:normal;font-variant-position:normal;font-variant-caps:normal;font-variant-numeric:normal;font-variant-alternates:normal;font-feature-settings:normal;text-indent:0;text-align:start;text-decoration:none;text-decoration-line:none;text-decoration-style:solid;text-decoration-color:#000000;letter-spacing:0px;word-spacing:0px;text-transform:none;writing-mode:lr-tb;direction:ltr;text-orientation:mixed;dominant-baseline:auto;baseline-shift:baseline;text-anchor:start;white-space:normal;shape-padding:0;opacity:1;vector-effect:none;fill:#000000;fill-opacity:1;stroke:none;stroke-width:1px;stroke-linecap:butt;stroke-linejoin:miter;stroke-miterlimit:4;stroke-dasharray:none;stroke-dashoffset:0;stroke-opacity:1"
     id="text899"
     transform="translate(15.554803,0.12888841)">
    <path
       d="m 27.482261,26 0.854966,-3.90631 h 2.100061 c 2.756528,0 3.758902,-1.886822 3.758902,-3.375642 0,-1.370894 -1.031855,-2.550157 -2.727046,-2.550157 H 28.425672 L 26.258775,26 Z m 1.090819,-4.997129 0.840225,-3.744161 h 1.864208 c 0.958152,0 1.636228,0.707558 1.636228,1.547783 0,1.179263 -0.825484,2.196378 -2.373267,2.196378 z"
       style="stroke-width:1px"
       id="path901"
       inkscape:connector-curvature="0"
       sodipodi:nodetypes="ccssscccccsssc" />
  </g>
  <g
     id="g943"
     transform="translate(0,-0.36627789)">
    <path
       sodipodi:nodetypes="csccscc"
       inkscape:connector-curvature="0"
       id="path849"
       d="m 19.509979,16.415476 c -2.543175,0 -4.604825,-2.054509 -4.604825,-4.588874 0,-2.534365 2.061651,-4.5888733 4.604825,-4.5888732 h 0.758442 c 2.543174,-1e-7 4.604825,2.0545082 4.604825,4.5888732 0,2.534365 -2.06165,4.588874 -4.604825,4.588874 z"
       style="opacity:1;vector-effect:none;fill:none;fill-opacity:1;stroke:#000000;stroke-width:1.5;stroke-linecap:butt;stroke-linejoin:round;stroke-miterlimit:4;stroke-dasharray:none;stroke-dashoffset:0;stroke-opacity:1;marker:none;paint-order:normal" />
    <path
       sodipodi:nodetypes="cc"
       inkscape:connector-curvature="0"
       id="path890"
       d="M 19.889202,6.6123181 V 26.469318"
       style="opacity:1;vector-effect:none;fill:none;fill-opacity:1;fill-rule:evenodd;stroke:#000000;stroke-width:1.5;stroke-linecap:butt;stroke-linejoin:round;stroke-miterlimit:4;stroke-dasharray:none;stroke-dashoffset:0;stroke-opacity:1;marker:none;paint-order:normal" />
    <path
       style="opacity:1;vector-effect:none;fill:none;fill-opacity:1;fill-rule:evenodd;stroke:#000000;stroke-width:1;stroke-linecap:butt;stroke-linejoin:round;stroke-miterlimit:4;stroke-dasharray:none;stroke-dashoffset:0;stroke-opacity:1;marker:none;paint-order:normal"
       d="m 22.889202,21.331684 v 5.137634"
       id="path921"
       inkscape:connector-curvature="0"
       sodipodi:nodetypes="cc" />
    <path
       sodipodi:nodetypes="cc"
       inkscape:connector-curvature="0"
       id="path923"
       d="M 22.835958,23.900501 H 19.897959"
       style="opacity:1;vector-effect:none;fill:none;fill-opacity:1;fill-rule:evenodd;stroke:#000000;stroke-width:1;stroke-linecap:butt;stroke-linejoin:round;stroke-miterlimit:4;stroke-dasharray:none;stroke-dashoffset:0;stroke-opacity:1;marker:none;paint-order:normal" />
  </g>
</svg>
