<?xml version="1.0" encoding="UTF-8" standalone="no"?>
<!-- Created with Inkscape (http://www.inkscape.org/) -->

<svg
   xmlns:dc="http://purl.org/dc/elements/1.1/"
   xmlns:cc="http://creativecommons.org/ns#"
   xmlns:rdf="http://www.w3.org/1999/02/22-rdf-syntax-ns#"
   xmlns:svg="http://www.w3.org/2000/svg"
   xmlns="http://www.w3.org/2000/svg"
   xmlns:sodipodi="http://sodipodi.sourceforge.net/DTD/sodipodi-0.dtd"
   xmlns:inkscape="http://www.inkscape.org/namespaces/inkscape"
   width="103.7612"
   height="32.224609"
   viewBox="0 0 103.7612 32.224609"
   version="1.1"
   id="main-svg"
   inkscape:export-filename="D:\c\Qoph\DataFiles\Logo.png"
   inkscape:version="0.92.3 (2405546, 2018-03-11)"
   sodipodi:docname="Logo.svg"
   inkscape:export-xdpi="960"
   inkscape:export-ydpi="960">
  <metadata
     id="metadata7">
    <rdf:RDF>
      <cc:Work
         rdf:about="">
        <dc:format>image/svg+xml</dc:format>
        <dc:type
           rdf:resource="http://purl.org/dc/dcmitype/StillImage" />
        <dc:title></dc:title>
      </cc:Work>
    </rdf:RDF>
  </metadata>
  <defs
     id="defs5" />
  <sodipodi:namedview
     id="base"
     pagecolor="#0b3178"
     bordercolor="#666666"
     borderopacity="1.0"
     inkscape:pageopacity="0"
     inkscape:pageshadow="2"
     inkscape:zoom="33.69213"
     inkscape:cx="20.223183"
     inkscape:cy="15.259781"
     inkscape:document-units="px"
     showgrid="false"
     units="px"
     inkscape:current-layer="main-svg"
     inkscape:snap-global="false"
     fit-margin-top="2"
     fit-margin-left="3"
     fit-margin-right="3"
     fit-margin-bottom="2"
     showguides="false">
    <inkscape:grid
       type="xygrid"
       id="main-grid"
       spacingx="10"
       spacingy="10"
       originx="-5.872316"
       originy="-39.959136" />
  </sodipodi:namedview>
  <path
     style="opacity:1;vector-effect:none;fill:#f1dd89;fill-opacity:1;stroke:none;stroke-width:2;stroke-linecap:butt;stroke-linejoin:miter;stroke-miterlimit:4;stroke-dasharray:none;stroke-dashoffset:0;stroke-opacity:0.31372549;marker:none;paint-order:normal"
     d="M 29.915094,29.224491 H 17.112245 C 9.848062,29.224491 4,23.37643 4,16.112246 4,8.8480621 9.848062,3.0000002 17.112245,3.0000002 L 35.778425,3 Z"
     id="path908"
     inkscape:connector-curvature="0"
     sodipodi:nodetypes="cssccc" />
  <path
     style="opacity:1;vector-effect:none;fill:#a0d0f5;fill-opacity:1;stroke:none;stroke-width:2;stroke-linecap:butt;stroke-linejoin:miter;stroke-miterlimit:4;stroke-dasharray:none;stroke-dashoffset:0;stroke-opacity:0.31372549;marker:none;paint-order:normal"
     d="m 37.830779,3.0000003 48.818738,-10e-8 c 7.264184,0 13.112246,5.8480619 13.112246,13.1122458 0,7.264184 -5.848062,13.112245 -13.112246,13.112245 H 31.96745 Z"
     id="rect906"
     inkscape:connector-curvature="0"
     sodipodi:nodetypes="cssscc" />
  <path
     style="font-style:italic;font-variant:normal;font-weight:bold;font-stretch:normal;font-size:medium;line-height:100%;font-family:'Proxima Nova';-inkscape-font-specification:'Proxima Nova Bold Italic';font-variant-ligatures:normal;font-variant-position:normal;font-variant-caps:normal;font-variant-numeric:normal;font-variant-alternates:normal;font-feature-settings:normal;text-indent:0;text-align:start;text-decoration:none;text-decoration-line:none;text-decoration-style:solid;text-decoration-color:#000000;letter-spacing:-0.75px;word-spacing:0.5px;text-transform:none;writing-mode:lr-tb;direction:ltr;text-orientation:mixed;dominant-baseline:auto;baseline-shift:baseline;text-anchor:start;white-space:normal;shape-padding:0;fill:#000000;fill-opacity:1;stroke:none;stroke-width:1px;stroke-linecap:butt;stroke-linejoin:miter;stroke-miterlimit:4;stroke-dasharray:none;stroke-dashoffset:0;stroke-opacity:1"
     d="M 70.271484 5.1269531 L 69.876953 6.9238281 L 68.789062 6.9238281 L 68.447266 8.4199219 L 69.537109 8.4199219 L 68.802734 11.78125 C 68.761904 11.944575 68.748047 12.135194 68.748047 12.230469 C 68.748047 13.21042 69.536533 13.660156 70.707031 13.660156 C 71.128955 13.660156 71.538276 13.551936 71.796875 13.375 L 71.728516 11.984375 C 71.646856 12.052435 71.430842 12.123047 71.253906 12.123047 C 70.818372 12.123047 70.613281 11.904653 70.613281 11.550781 C 70.613281 11.469121 70.625052 11.359006 70.638672 11.277344 L 71.265625 8.4199219 L 72.599609 8.4199219 L 72.953125 6.9238281 L 71.621094 6.9238281 L 72.015625 5.1269531 L 70.271484 5.1269531 z M 43.755859 6.7597656 C 41.510135 6.7597656 40.285156 8.9523289 40.285156 10.939453 C 40.285156 12.68159 41.291916 13.660156 42.789062 13.660156 C 43.578469 13.660156 44.205643 13.334943 44.763672 12.681641 L 44.013672 16 L 45.755859 16 L 47.769531 6.9238281 L 46.029297 6.9238281 L 45.851562 7.7949219 C 45.416028 7.1416204 44.626927 6.7597656 43.755859 6.7597656 z M 57.75 6.7597656 C 55.504276 6.7597656 54.279297 8.9523289 54.279297 10.939453 C 54.279297 12.68159 55.286055 13.660156 56.783203 13.660156 C 57.57261 13.660156 58.197831 13.334943 58.755859 12.681641 L 58.564453 13.496094 L 60.308594 13.496094 L 61.763672 6.9238281 L 60.023438 6.9238281 L 59.845703 7.7949219 C 59.410169 7.1416204 58.621068 6.7597656 57.75 6.7597656 z M 66.148438 6.7597656 C 65.182097 6.7597656 64.476181 7.2776637 63.958984 7.78125 L 64.150391 6.9238281 L 62.421875 6.9238281 L 60.962891 13.496094 L 62.691406 13.496094 L 63.673828 9.0605469 C 64.05492 8.6930648 64.626242 8.296875 65.333984 8.296875 C 65.851182 8.296875 66.339844 8.5301079 66.339844 9.1425781 C 66.339844 9.2786832 66.300657 9.4536779 66.273438 9.5761719 L 65.402344 13.496094 L 67.130859 13.496094 L 68.136719 8.9785156 C 68.163939 8.8424114 68.205078 8.5560875 68.205078 8.4335938 C 68.205078 7.42642 67.414207 6.7597656 66.148438 6.7597656 z M 83.708984 6.7597656 C 82.742642 6.7597656 82.074513 7.3865467 81.707031 7.78125 L 81.898438 6.9238281 L 80.169922 6.9238281 L 78.710938 13.496094 L 80.439453 13.496094 L 81.421875 9.0605469 C 81.748526 8.6930648 82.250381 8.296875 82.767578 8.296875 C 83.380049 8.296875 83.720765 8.6249515 83.734375 9.046875 C 83.734375 9.2238105 83.693236 9.3873324 83.666016 9.5234375 L 82.78125 13.496094 L 84.523438 13.496094 L 85.490234 9.0605469 C 85.830496 8.6794546 86.332473 8.296875 86.863281 8.296875 C 87.366867 8.296875 87.802734 8.5823512 87.802734 9.0859375 C 87.802734 9.2492629 87.76361 9.4417749 87.75 9.5234375 L 86.863281 13.496094 L 88.607422 13.496094 L 89.599609 8.9785156 C 89.626829 8.8696327 89.669922 8.6105292 89.669922 8.4335938 C 89.669922 7.3583685 88.784578 6.7597656 87.791016 6.7597656 C 86.783842 6.7597656 86.032823 7.332965 85.515625 7.9726562 L 85.515625 7.9433594 C 85.515625 7.6983712 85.001977 6.7597656 83.708984 6.7597656 z M 48.386719 6.9238281 L 47.392578 11.441406 C 47.365358 11.5639 47.324219 11.863774 47.324219 11.972656 C 47.324219 12.99344 48.115088 13.660156 49.380859 13.660156 C 50.347202 13.660156 51.055069 13.128648 51.572266 12.638672 L 51.382812 13.496094 L 53.111328 13.496094 L 54.566406 6.9238281 L 52.837891 6.9238281 L 51.855469 11.347656 C 51.474376 11.715138 50.903487 12.123047 50.291016 12.123047 C 49.678546 12.123047 49.189453 11.876203 49.189453 11.277344 C 49.189453 11.15485 49.216921 11.005306 49.244141 10.882812 L 50.126953 6.9238281 L 48.386719 6.9238281 z M 73.341797 6.9238281 L 72.349609 11.441406 C 72.322389 11.5639 72.28125 11.863774 72.28125 11.972656 C 72.28125 12.99344 73.07212 13.660156 74.337891 13.660156 C 75.304233 13.660156 76.0121 13.128648 76.529297 12.638672 L 76.337891 13.496094 L 78.066406 13.496094 L 79.523438 6.9238281 L 77.794922 6.9238281 L 76.814453 11.347656 C 76.43336 11.715138 75.860517 12.123047 75.248047 12.123047 C 74.635577 12.123047 74.146484 11.876203 74.146484 11.277344 C 74.146484 11.15485 74.171999 11.005306 74.199219 10.882812 L 75.085938 6.9238281 L 73.341797 6.9238281 z M 44.027344 8.296875 C 44.721477 8.296875 45.278633 8.6250132 45.564453 9.0605469 L 45.0625 11.347656 C 44.708628 11.796801 44.163251 12.123047 43.550781 12.123047 C 42.720544 12.123047 42.095703 11.523105 42.095703 10.583984 C 42.095703 9.3726555 42.897677 8.296875 44.027344 8.296875 z M 58.021484 8.296875 C 58.715617 8.296875 59.274728 8.6250132 59.560547 9.0605469 L 59.056641 11.347656 C 58.702769 11.796801 58.157392 12.123047 57.544922 12.123047 C 56.714685 12.123047 56.089844 11.523105 56.089844 10.583984 C 56.089844 9.3726555 56.891817 8.296875 58.021484 8.296875 z M 55.466797 14.339844 C 53.318797 14.339844 51.734375 16.200516 51.734375 18.228516 C 51.734375 19.968516 52.885797 21.228516 54.841797 21.228516 C 56.977797 21.228516 58.574219 19.367844 58.574219 17.339844 C 58.574219 15.599844 57.422797 14.339844 55.466797 14.339844 z M 60.853516 14.484375 L 59.402344 21.083984 L 60.0625 21.083984 L 61.298828 15.431641 L 64.310547 21.083984 L 64.958984 21.083984 L 66.410156 14.484375 L 65.75 14.484375 L 64.525391 20.052734 L 61.525391 14.484375 L 60.853516 14.484375 z M 68.353516 14.484375 L 66.902344 21.083984 L 70.886719 21.083984 L 71.017578 20.496094 L 67.681641 20.496094 L 69.013672 14.484375 L 68.353516 14.484375 z M 73.791016 14.484375 L 72.339844 21.083984 L 73 21.083984 L 74.451172 14.484375 L 73.791016 14.484375 z M 76.392578 14.484375 L 74.941406 21.083984 L 75.601562 21.083984 L 76.837891 15.431641 L 79.849609 21.083984 L 80.498047 21.083984 L 81.949219 14.484375 L 81.289062 14.484375 L 80.064453 20.052734 L 77.064453 14.484375 L 76.392578 14.484375 z M 83.892578 14.484375 L 82.441406 21.083984 L 86.857422 21.083984 L 86.976562 20.496094 L 83.220703 20.496094 L 83.773438 17.988281 L 87.46875 17.988281 L 87.601562 17.400391 L 83.904297 17.400391 L 84.433594 15.072266 L 88.177734 15.072266 L 88.308594 14.484375 L 83.892578 14.484375 z M 55.453125 14.927734 C 57.001125 14.927734 57.890625 15.983281 57.890625 17.363281 C 57.890625 19.067281 56.665797 20.640625 54.841797 20.640625 C 53.293797 20.640625 52.40625 19.583125 52.40625 18.203125 C 52.40625 16.499125 53.641125 14.927734 55.453125 14.927734 z M 43.802734 16.919922 L 41.773438 26.128906 L 42.919922 26.128906 L 43.720703 22.470703 L 45.6875 22.470703 C 48.269434 22.470703 49.207031 20.703115 49.207031 19.308594 C 49.207031 18.02453 48.242118 16.919922 46.654297 16.919922 L 43.802734 16.919922 z M 44.728516 17.941406 L 46.474609 17.941406 C 47.372073 17.941406 48.005859 18.603619 48.005859 19.390625 C 48.005859 20.495196 47.232952 21.449219 45.783203 21.449219 L 43.941406 21.449219 L 44.728516 17.941406 z M 48.800781 22.007812 L 48.257812 24.457031 C 48.235813 24.567031 48.220703 24.683964 48.220703 24.779297 C 48.220703 25.571297 48.859352 26.128906 50.054688 26.128906 C 51.184021 26.128906 51.689161 25.513031 51.923828 24.457031 L 52.466797 22.007812 L 51.660156 22.007812 L 51.132812 24.390625 C 50.993479 25.050625 50.655062 25.425781 50.039062 25.425781 C 49.445062 25.425781 49.056641 25.145667 49.056641 24.625 C 49.056641 24.55167 49.065378 24.471292 49.080078 24.390625 L 49.607422 22.007812 L 48.800781 22.007812 z M 53.25 22.007812 L 53.095703 22.710938 L 55.201172 22.710938 L 52.486328 25.455078 L 52.355469 26.041016 L 55.625 26.041016 L 55.779297 25.335938 L 53.623047 25.335938 L 56.337891 22.59375 L 56.46875 22.007812 L 53.25 22.007812 z M 57.074219 22.007812 L 56.919922 22.710938 L 59.025391 22.710938 L 56.310547 25.455078 L 56.179688 26.041016 L 59.449219 26.041016 L 59.603516 25.335938 L 57.447266 25.335938 L 60.162109 22.59375 L 60.292969 22.007812 L 57.074219 22.007812 z M 61.119141 22.007812 L 60.230469 26.041016 L 62.884766 26.041016 L 63.039062 25.34375 L 61.183594 25.34375 L 61.925781 22.007812 L 61.119141 22.007812 z M 64.527344 22.007812 L 63.640625 26.041016 L 66.580078 26.041016 L 66.734375 25.34375 L 64.59375 25.34375 L 64.820312 24.332031 L 66.917969 24.332031 L 67.072266 23.634766 L 64.974609 23.634766 L 65.179688 22.705078 L 67.314453 22.705078 L 67.466797 22.007812 L 64.527344 22.007812 z M 70.199219 22.007812 L 69.3125 26.041016 L 70.119141 26.041016 L 70.492188 24.318359 L 72.619141 24.318359 L 72.244141 26.041016 L 73.037109 26.041016 L 73.923828 22.007812 L 73.132812 22.007812 L 72.773438 23.621094 L 70.646484 23.621094 L 71.005859 22.007812 L 70.199219 22.007812 z M 74.783203 22.007812 L 74.240234 24.457031 C 74.218234 24.567031 74.203125 24.683964 74.203125 24.779297 C 74.203125 25.571297 74.841775 26.128906 76.037109 26.128906 C 77.166442 26.128906 77.671583 25.513031 77.90625 24.457031 L 78.449219 22.007812 L 77.642578 22.007812 L 77.115234 24.390625 C 76.9759 25.050625 76.637484 25.425781 76.021484 25.425781 C 75.427484 25.425781 75.039063 25.145667 75.039062 24.625 C 75.039062 24.55167 75.045847 24.471292 75.060547 24.390625 L 75.589844 22.007812 L 74.783203 22.007812 z M 79.308594 22.007812 L 78.421875 26.041016 L 79.220703 26.041016 L 79.859375 23.158203 L 81.318359 26.041016 L 82.132812 26.041016 L 83.019531 22.007812 L 82.220703 22.007812 L 81.597656 24.808594 L 80.167969 22.007812 L 79.308594 22.007812 z M 83.486328 22.007812 L 83.333984 22.705078 L 84.529297 22.705078 L 83.794922 26.041016 L 84.59375 26.041016 L 85.328125 22.705078 L 86.515625 22.705078 L 86.669922 22.007812 L 83.486328 22.007812 z "
     id="path818" />
  <path
     style="color:#000000;font-style:normal;font-variant:normal;font-weight:normal;font-stretch:normal;font-size:medium;line-height:normal;font-family:sans-serif;font-variant-ligatures:normal;font-variant-position:normal;font-variant-caps:normal;font-variant-numeric:normal;font-variant-alternates:normal;font-feature-settings:normal;text-indent:0;text-align:start;text-decoration:none;text-decoration-line:none;text-decoration-style:solid;text-decoration-color:#000000;letter-spacing:normal;word-spacing:normal;text-transform:none;writing-mode:lr-tb;direction:ltr;text-orientation:mixed;dominant-baseline:auto;baseline-shift:baseline;text-anchor:start;white-space:normal;shape-padding:0;clip-rule:nonzero;display:inline;overflow:visible;visibility:visible;opacity:1;isolation:auto;mix-blend-mode:normal;color-interpolation:sRGB;color-interpolation-filters:linearRGB;solid-color:#000000;solid-opacity:1;vector-effect:none;fill:#000000;fill-opacity:1;fill-rule:nonzero;stroke:none;stroke-width:1.5;stroke-linecap:butt;stroke-linejoin:round;stroke-miterlimit:4;stroke-dasharray:none;stroke-dashoffset:0;stroke-opacity:1;marker:none;paint-order:normal;color-rendering:auto;image-rendering:auto;shape-rendering:auto;text-rendering:auto;enable-background:accumulate"
     d="M 19.509766 6.1210938 C 16.562666 6.1210936 14.154297 8.5198329 14.154297 11.460938 C 14.154297 14.276844 16.36418 16.587144 19.138672 16.779297 L 19.138672 26.103516 L 20.638672 26.103516 L 20.638672 24.035156 L 22.388672 24.035156 L 22.388672 26.103516 L 23.388672 26.103516 L 23.388672 20.964844 L 22.388672 20.964844 L 22.388672 23.035156 L 20.638672 23.035156 L 20.638672 16.779297 C 23.413164 16.587144 25.623047 14.276844 25.623047 11.460938 C 25.623047 8.5198329 23.214678 6.1210936 20.267578 6.1210938 L 19.509766 6.1210938 z M 19.138672 7.6582031 L 19.138672 15.261719 C 17.178427 15.074548 15.654297 13.461922 15.654297 11.460938 C 15.654297 9.4599526 17.178427 7.84558 19.138672 7.6582031 z M 20.638672 7.6582031 C 22.598916 7.84558 24.123047 9.4599526 24.123047 11.460938 C 24.123047 13.461922 22.598917 15.074548 20.638672 15.261719 L 20.638672 7.6582031 z "
     id="path849" />
  <path
     style="color:#000000;font-style:normal;font-variant:normal;font-weight:normal;font-stretch:normal;font-size:medium;line-height:normal;font-family:sans-serif;font-variant-ligatures:normal;font-variant-position:normal;font-variant-caps:normal;font-variant-numeric:normal;font-variant-alternates:normal;font-feature-settings:normal;text-indent:0;text-align:start;text-decoration:none;text-decoration-line:none;text-decoration-style:solid;text-decoration-color:#000000;letter-spacing:normal;word-spacing:normal;text-transform:none;writing-mode:lr-tb;direction:ltr;text-orientation:mixed;dominant-baseline:auto;baseline-shift:baseline;text-anchor:start;white-space:normal;shape-padding:0;clip-rule:nonzero;display:inline;overflow:visible;visibility:visible;opacity:1;isolation:auto;mix-blend-mode:normal;color-interpolation:sRGB;color-interpolation-filters:linearRGB;solid-color:#000000;solid-opacity:1;vector-effect:none;fill:#504000;fill-opacity:0.31372549;fill-rule:nonzero;stroke:none;stroke-width:2;stroke-linecap:butt;stroke-linejoin:miter;stroke-miterlimit:4;stroke-dasharray:none;stroke-dashoffset:0;stroke-opacity:1;marker:none;paint-order:normal;color-rendering:auto;image-rendering:auto;shape-rendering:auto;text-rendering:auto;enable-background:accumulate"
     d="M 30.716797,30.224609 37.027344,2 34.529297,4 29.113281,28.224609 17.111914,28.223359 C 9.3197634,28.22211 3.0025015,22.800502 3.0012508,16.11236 3,23.906228 9.318381,30.224609 17.111913,30.224609 Z"
     id="path927"
     inkscape:connector-curvature="0"
     sodipodi:nodetypes="cccccccc" />
  <path
     style="opacity:1;vector-effect:none;fill:#ffffff;fill-opacity:0.3137255;stroke:none;stroke-width:0.02;stroke-linecap:butt;stroke-linejoin:miter;stroke-miterlimit:4;stroke-dasharray:none;stroke-dashoffset:0;stroke-opacity:1;marker:none;paint-order:normal"
     d="M 17.112499,28.22211 C 10.424331,28.22211 5.0024996,22.800502 5.0012498,16.111969 5,9.383847 10.383848,4 17.111328,4 H 34.529297 L 37.027344,2 H 17.111328 C 9.3104422,2 3,8.3104414 3.0012508,16.111969 3.0025015,22.800502 9.3197634,28.22211 17.112501,28.22211"
     id="ellipse4551"
     inkscape:connector-curvature="0"
     sodipodi:nodetypes="ccsccscc" />
  <path
     style="opacity:1;vector-effect:none;fill:#ffffff;fill-opacity:0.31372549;stroke:none;stroke-width:2;stroke-linecap:butt;stroke-linejoin:miter;stroke-miterlimit:4;stroke-dasharray:none;stroke-dashoffset:0;stroke-opacity:1;marker:none;paint-order:normal;font-variant-east_asian:normal"
     d="m 98.750998,16.11211 c 0,-7.7885951 -5.418473,-14.1024992 -12.10181,-14.1073049 L 37.028782,2 l -6.310547,28.224609 2.498047,-2 L 38.632298,4 l 48.01689,0.00481 c 6.683337,0.00481 12.10181,5.4232792 12.10181,12.1073049 z"
     id="circle4598"
     inkscape:connector-curvature="0"
     sodipodi:nodetypes="cccccccc" />
  <path
     style="opacity:1;vector-effect:none;fill:#002d50;fill-opacity:0.31372549;stroke:none;stroke-width:2;stroke-linecap:butt;stroke-linejoin:miter;stroke-miterlimit:4;stroke-dasharray:none;stroke-dashoffset:0;stroke-opacity:1;marker:none;paint-order:normal;font-variant-east_asian:normal"
     d="m 86.648598,2.0096102 c 6.683927,6e-7 12.1024,6.3139047 12.107503,14.1021088 0.0051,6.72709 -5.378744,12.11289 -12.106225,12.11289 H 33.216282 l -2.498047,2 h 55.931641 c 7.800887,0 14.111324,-6.312394 14.106324,-14.11289 C 100.7512,8.3235132 94.437294,2.0096085 86.648598,2.0096102 Z"
     id="ellipse4617"
     inkscape:connector-curvature="0"
     sodipodi:nodetypes="ccsccscc" />
</svg>
