<?xml version="1.0" encoding="UTF-8" standalone="no"?>
<!-- Created with Inkscape (http://www.inkscape.org/) -->

<svg
   xmlns:dc="http://purl.org/dc/elements/1.1/"
   xmlns:cc="http://creativecommons.org/ns#"
   xmlns:rdf="http://www.w3.org/1999/02/22-rdf-syntax-ns#"
   xmlns:svg="http://www.w3.org/2000/svg"
   xmlns="http://www.w3.org/2000/svg"
   xmlns:sodipodi="http://sodipodi.sourceforge.net/DTD/sodipodi-0.dtd"
   xmlns:inkscape="http://www.inkscape.org/namespaces/inkscape"
   id="svg2"
   sodipodi:version="0.32"
   inkscape:version="0.92.3 (2405546, 2018-03-11)"
   width="300"
   height="600"
   sodipodi:docname="astro.svg"
   version="1.0">
  <metadata
     id="metadata7">
    <rdf:RDF>
      <cc:Work
         rdf:about="">
        <dc:format>image/svg+xml</dc:format>
        <dc:type
           rdf:resource="http://purl.org/dc/dcmitype/StillImage" />
        <dc:title></dc:title>
      </cc:Work>
    </rdf:RDF>
  </metadata>
  <defs
     id="defs5">
    <marker
       inkscape:stockid="Arrow2Mend"
       orient="auto"
       refY="0"
       refX="0"
       id="Arrow2Mend"
       style="overflow:visible"
       inkscape:isstock="true">
      <path
         id="path1044"
         style="fill:#d61a1a;fill-opacity:1;fill-rule:evenodd;stroke:#d61a1a;stroke-width:0.625;stroke-linejoin:round;stroke-opacity:1"
         d="M 8.7185878,4.0337352 -2.2072895,0.01601326 8.7185884,-4.0017078 c -1.7454984,2.3720609 -1.7354408,5.6174519 -6e-7,8.035443 z"
         transform="scale(-0.6)"
         inkscape:connector-curvature="0" />
    </marker>
    <marker
       inkscape:stockid="Arrow1Lend"
       orient="auto"
       refY="0"
       refX="0"
       id="Arrow1Lend"
       style="overflow:visible"
       inkscape:isstock="true">
      <path
         id="path1020"
         d="M 0,0 5,-5 -12.5,0 5,5 Z"
         style="fill:#000000;fill-opacity:1;fill-rule:evenodd;stroke:#000000;stroke-width:1.00000003pt;stroke-opacity:1"
         transform="matrix(-0.8,0,0,-0.8,-10,0)"
         inkscape:connector-curvature="0" />
    </marker>
    <marker
       inkscape:stockid="Arrow1Lstart"
       orient="auto"
       refY="0"
       refX="0"
       id="Arrow1Lstart"
       style="overflow:visible"
       inkscape:isstock="true">
      <path
         id="path1017"
         d="M 0,0 5,-5 -12.5,0 5,5 Z"
         style="fill:#000000;fill-opacity:1;fill-rule:evenodd;stroke:#000000;stroke-width:1.00000003pt;stroke-opacity:1"
         transform="matrix(0.8,0,0,0.8,10,0)"
         inkscape:connector-curvature="0" />
    </marker>
  </defs>
  <sodipodi:namedview
     inkscape:window-height="978"
     inkscape:window-width="1280"
     inkscape:pageshadow="2"
     inkscape:pageopacity="0.0"
     borderopacity="1.0"
     bordercolor="#666666"
     pagecolor="#ffffff"
     id="base"
     inkscape:grid-bbox="false"
     inkscape:grid-points="true"
     showgrid="true"
     gridtolerance="3.4px"
     inkscape:zoom="0.84922138"
     inkscape:cx="-140.2698"
     inkscape:cy="168.85872"
     inkscape:window-x="-4"
     inkscape:window-y="-4"
     inkscape:current-layer="svg2"
     inkscape:window-maximized="0"
     inkscape:pagecheckerboard="true"
     inkscape:snap-center="true"
     inkscape:snap-global="true"
     inkscape:snap-text-baseline="true"
     inkscape:object-paths="false"
     inkscape:snap-intersection-paths="true"
     inkscape:snap-smooth-nodes="true"
     inkscape:snap-midpoints="true">
    <inkscape:grid
       type="xygrid"
       id="grid907"
       empspacing="5" />
  </sodipodi:namedview>
  <rect
     style="opacity:1;vector-effect:none;fill:#ffffff;fill-opacity:1;stroke:#000000;stroke-width:1;stroke-linecap:butt;stroke-linejoin:miter;stroke-miterlimit:4;stroke-dasharray:none;stroke-dashoffset:0;stroke-opacity:1;marker:none;paint-order:normal"
     id="rect905"
     width="50"
     height="50"
     x="0"
     y="550"
     ry="0" />
  <g
     id="g865"
     transform="matrix(1.1211743,0,0,1.1113446,-77.710323,3.3055457)"
     style="stroke-width:0.89585775">
    <circle
       transform="matrix(0.96,0,0,0.96,3.52,0.96)"
       id="path3058"
       style="color:#000000;display:inline;overflow:visible;visibility:visible;opacity:1;fill:none;fill-opacity:1;fill-rule:evenodd;stroke:#000000;stroke-width:1.8663702;stroke-linecap:butt;stroke-linejoin:miter;stroke-miterlimit:4;stroke-dasharray:none;stroke-dashoffset:0;stroke-opacity:1;marker:none;marker-start:none;marker-mid:none;marker-end:none"
       cx="100.5"
       cy="36.5"
       r="11.5" />
    <path
       sodipodi:open="true"
       sodipodi:end="3.0464463"
       sodipodi:start="0.096136028"
       transform="matrix(0.96,0,0,0.96,3.56,-22.08)"
       d="M 111.9469,37.603862 A 11.5,11.5 0 0 1 100.49431,47.999999 11.5,11.5 0 0 1 89.052015,37.592533"
       sodipodi:ry="11.5"
       sodipodi:rx="11.5"
       sodipodi:cy="36.5"
       sodipodi:cx="100.5"
       id="path3060"
       style="color:#000000;display:inline;overflow:visible;visibility:visible;opacity:1;fill:none;fill-opacity:1;fill-rule:evenodd;stroke:#000000;stroke-width:1.8663702;stroke-linecap:butt;stroke-linejoin:miter;stroke-miterlimit:4;stroke-dasharray:none;stroke-dashoffset:0;stroke-opacity:1;marker:none;marker-start:none;marker-mid:none;marker-end:none"
       sodipodi:type="arc" />
    <path
       id="path3062"
       d="M 100,47 V 59"
       style="fill:none;fill-opacity:0.75;fill-rule:evenodd;stroke:#000000;stroke-width:1.7917155;stroke-linecap:butt;stroke-linejoin:miter;stroke-miterlimit:4;stroke-dasharray:none;stroke-opacity:1"
       inkscape:connector-curvature="0" />
    <path
       id="path3937"
       d="m 95,54 h 10"
       style="fill:none;fill-opacity:0.75;fill-rule:evenodd;stroke:#000000;stroke-width:1.7917155;stroke-linecap:butt;stroke-linejoin:miter;stroke-miterlimit:4;stroke-dasharray:none;stroke-opacity:1"
       inkscape:connector-curvature="0" />
  </g>
  <g
     id="g870"
     transform="matrix(1.1212109,0,0,1.1141964,-79.999798,0.9753584)"
     style="stroke-width:0.89469594">
    <circle
       id="path3939"
       style="color:#000000;display:inline;overflow:visible;visibility:visible;opacity:1;fill:none;fill-opacity:1;fill-rule:evenodd;stroke:#000000;stroke-width:1.78939188;stroke-linecap:butt;stroke-linejoin:miter;stroke-miterlimit:4;stroke-dasharray:none;stroke-dashoffset:0;stroke-opacity:1;marker:none;marker-start:none;marker-mid:none;marker-end:none"
       cx="165"
       cy="33"
       r="11" />
    <path
       id="path3941"
       d="M 165,44 V 58"
       style="fill:none;fill-opacity:0.75;fill-rule:evenodd;stroke:#000000;stroke-width:1.78939188;stroke-linecap:butt;stroke-linejoin:miter;stroke-miterlimit:4;stroke-dasharray:none;stroke-opacity:1"
       inkscape:connector-curvature="0" />
    <path
       id="path4816"
       d="m 159,52 h 12"
       style="fill:none;fill-opacity:0.75;fill-rule:evenodd;stroke:#000000;stroke-width:1.78939188;stroke-linecap:butt;stroke-linejoin:miter;stroke-miterlimit:4;stroke-dasharray:none;stroke-opacity:1"
       inkscape:connector-curvature="0" />
  </g>
  <g
     id="g891"
     transform="matrix(1.1169579,0,0,1.114113,-102.43249,-16.465671)"
     style="stroke-width:0.89643127">
    <path
       id="path6570"
       d="m 226,98 v 29"
       style="fill:none;fill-opacity:0.75;fill-rule:evenodd;stroke:#000000;stroke-width:1.79286253;stroke-linecap:butt;stroke-linejoin:miter;stroke-miterlimit:4;stroke-dasharray:none;stroke-opacity:1"
       inkscape:connector-curvature="0" />
    <path
       id="path6572"
       d="m 222,104 h 12"
       style="color:#000000;display:inline;overflow:visible;visibility:visible;opacity:1;fill:none;fill-opacity:0.75;fill-rule:evenodd;stroke:#000000;stroke-width:1.79286253;stroke-linecap:butt;stroke-linejoin:miter;stroke-miterlimit:4;stroke-dasharray:none;stroke-dashoffset:0;stroke-opacity:1;marker:none;marker-start:none;marker-mid:none;marker-end:none"
       inkscape:connector-curvature="0" />
    <path
       sodipodi:nodetypes="czzzzsz"
       id="path6574"
       d="m 240,133 c -1,1 -2,2 -3,2 -1,0 -3,-1 -3,-3 0,-2 1,-4 3,-6 2,-2 4,-6 4,-10 0,-4 -2,-8 -6,-8 -3.78319,0 -7,2 -9,6"
       style="fill:none;fill-opacity:0.75;fill-rule:evenodd;stroke:#000000;stroke-width:1.79286253;stroke-linecap:butt;stroke-linejoin:miter;stroke-miterlimit:4;stroke-dasharray:none;stroke-opacity:1"
       inkscape:connector-curvature="0" />
  </g>
  <g
     id="g886"
     transform="matrix(1.1149414,0,0,1.11111,-80.689453,-12.234432)"
     style="stroke-width:0.89845318">
    <path
       id="path6576"
       d="m 174,95 v 39"
       style="color:#000000;display:inline;overflow:visible;visibility:visible;opacity:1;fill:none;fill-opacity:0.75;fill-rule:evenodd;stroke:#000000;stroke-width:1.79690635;stroke-linecap:butt;stroke-linejoin:miter;stroke-miterlimit:4;stroke-dasharray:none;stroke-dashoffset:0;stroke-opacity:1;marker:none;marker-start:none;marker-mid:none;marker-end:none"
       inkscape:connector-curvature="0" />
    <path
       id="path6578"
       d="M 180,124 H 151"
       style="color:#000000;display:inline;overflow:visible;visibility:visible;opacity:1;fill:none;fill-opacity:0.75;fill-rule:evenodd;stroke:#000000;stroke-width:1.79690635;stroke-linecap:butt;stroke-linejoin:miter;stroke-miterlimit:4;stroke-dasharray:none;stroke-dashoffset:0;stroke-opacity:1;marker:none;marker-start:none;marker-mid:none;marker-end:none"
       inkscape:connector-curvature="0" />
    <path
       sodipodi:nodetypes="czzzz"
       id="path6580"
       d="m 154,109 c -1,0 -3,-1 -3,-5 0,-4 4,-8 8,-8 4,0 8,3 8,10 0,7 -5,18 -15,18"
       style="color:#000000;display:inline;overflow:visible;visibility:visible;opacity:1;fill:none;fill-opacity:0.75;fill-rule:evenodd;stroke:#000000;stroke-width:1.79690635;stroke-linecap:butt;stroke-linejoin:miter;stroke-miterlimit:4;stroke-dasharray:none;stroke-dashoffset:0;stroke-opacity:1;marker:none;marker-start:none;marker-mid:none;marker-end:none"
       inkscape:connector-curvature="0" />
    <circle
       transform="matrix(3.85432,0,0,3.99998,-445.3468,-329.9978)"
       id="path6582"
       style="color:#000000;display:inline;overflow:visible;visibility:visible;opacity:1;fill:#000000;fill-opacity:1;fill-rule:evenodd;stroke:none;stroke-width:1.79690635;stroke-linecap:butt;stroke-linejoin:miter;stroke-miterlimit:4;stroke-dasharray:none;stroke-dashoffset:0;stroke-opacity:1;marker:none;marker-start:none;marker-mid:none;marker-end:none"
       cx="155.5"
       cy="109.5"
       r="0.5" />
  </g>
  <g
     id="g875"
     transform="matrix(1.1178439,0,0,1.1178439,119.10781,-90.244523)"
     style="stroke-width:0.89457923">
    <circle
       transform="matrix(1.030303,0,0,1.030303,-0.515152,-3.030303)"
       id="path6772"
       style="color:#000000;display:inline;overflow:visible;visibility:visible;opacity:1;fill:none;fill-opacity:1;fill-rule:evenodd;stroke:#000000;stroke-width:1.73653615;stroke-linecap:butt;stroke-linejoin:miter;stroke-miterlimit:4;stroke-dasharray:none;stroke-dashoffset:0;stroke-opacity:1;marker:none;marker-start:none;marker-mid:none;marker-end:none"
       cx="33.5"
       cy="116.5"
       r="15.5" />
    <path
       id="path6774"
       d="M 18,117 H 50"
       style="color:#000000;display:inline;overflow:visible;visibility:visible;opacity:1;fill:none;fill-opacity:0.75;fill-rule:evenodd;stroke:#000000;stroke-width:1.78915846;stroke-linecap:butt;stroke-linejoin:miter;stroke-miterlimit:4;stroke-dasharray:none;stroke-dashoffset:0;stroke-opacity:1;marker:none;marker-start:none;marker-mid:none;marker-end:none"
       inkscape:connector-curvature="0" />
    <path
       id="path6776"
       d="m 34,101 v 32"
       style="color:#000000;display:inline;overflow:visible;visibility:visible;opacity:1;fill:none;fill-opacity:0.75;fill-rule:evenodd;stroke:#000000;stroke-width:1.78915846;stroke-linecap:butt;stroke-linejoin:miter;stroke-miterlimit:4;stroke-dasharray:none;stroke-dashoffset:0;stroke-opacity:1;marker:none;marker-start:none;marker-mid:none;marker-end:none"
       inkscape:connector-curvature="0" />
  </g>
  <g
     id="g898"
     transform="matrix(1.11111,0,0,1.1142846,167.22225,-106.77086)"
     style="stroke-width:0.89871794">
    <path
       id="path6778"
       d="m 25,204 h -7 v -1 l 5,-1 v -20 l -5,-1 v -1 h 7 z"
       style="fill:#000000;fill-opacity:1;fill-rule:evenodd;stroke:none;stroke-width:0.89871794px;stroke-linecap:butt;stroke-linejoin:miter;stroke-opacity:1"
       inkscape:connector-curvature="0" />
    <path
       id="path6780"
       d="m 47,204 h 7 v -1 l -5,-1 v -20 l 5,-1 v -1 h -7 z"
       style="fill:#000000;fill-opacity:1;fill-rule:evenodd;stroke:none;stroke-width:0.89871794px;stroke-linecap:butt;stroke-linejoin:miter;stroke-opacity:1"
       inkscape:connector-curvature="0" />
    <path
       id="path6782"
       d="M 24,192 H 48"
       style="fill:none;fill-opacity:0.75;fill-rule:evenodd;stroke:#000000;stroke-width:1.79743588;stroke-linecap:butt;stroke-linejoin:miter;stroke-miterlimit:4;stroke-dasharray:none;stroke-opacity:1"
       inkscape:connector-curvature="0" />
    <path
       id="path6784"
       d="m 36,180 v 26"
       style="color:#000000;display:inline;overflow:visible;visibility:visible;opacity:1;fill:none;fill-opacity:0.75;fill-rule:evenodd;stroke:#000000;stroke-width:1.79743588;stroke-linecap:butt;stroke-linejoin:miter;stroke-miterlimit:4;stroke-dasharray:none;stroke-dashoffset:0;stroke-opacity:1;marker:none;marker-start:none;marker-mid:none;marker-end:none"
       inkscape:connector-curvature="0" />
    <circle
       id="path6786"
       style="color:#000000;display:inline;overflow:visible;visibility:visible;opacity:1;fill:none;fill-opacity:0.75;fill-rule:evenodd;stroke:#000000;stroke-width:1.79743588;stroke-linecap:butt;stroke-linejoin:miter;stroke-miterlimit:4;stroke-dasharray:none;stroke-dashoffset:0;stroke-opacity:1;marker:none;marker-start:none;marker-mid:none;marker-end:none"
       cx="36"
       cy="211"
       r="4" />
  </g>
  <g
     id="g903"
     transform="matrix(1.119874,0,0,1.1115326,-73.107274,-101.19499)"
     style="stroke-width:0.89630193">
    <path
       sodipodi:nodetypes="czz"
       id="path6788"
       d="m 89,176 c -3,20 2,23 12,23 10,0 15,-3 12,-23"
       style="color:#000000;display:inline;overflow:visible;visibility:visible;opacity:1;fill:none;fill-opacity:0.75;fill-rule:evenodd;stroke:#000000;stroke-width:1.79260385;stroke-linecap:butt;stroke-linejoin:miter;stroke-miterlimit:4;stroke-dasharray:none;stroke-dashoffset:0;stroke-opacity:1;marker:none;marker-start:none;marker-mid:none;marker-end:none"
       inkscape:connector-curvature="0" />
    <path
       id="path6790"
       d="m 101,178 v 37"
       style="color:#000000;display:inline;overflow:visible;visibility:visible;opacity:1;fill:none;fill-opacity:0.75;fill-rule:evenodd;stroke:#000000;stroke-width:1.79260385;stroke-linecap:butt;stroke-linejoin:miter;stroke-miterlimit:4;stroke-dasharray:none;stroke-dashoffset:0;stroke-opacity:1;marker:none;marker-start:none;marker-mid:none;marker-end:none"
       inkscape:connector-curvature="0" />
    <path
       id="path6792"
       d="m 93,207 h 16"
       style="color:#000000;display:inline;overflow:visible;visibility:visible;opacity:1;fill:none;fill-opacity:0.75;fill-rule:evenodd;stroke:#000000;stroke-width:1.79260385;stroke-linecap:butt;stroke-linejoin:miter;stroke-miterlimit:4;stroke-dasharray:none;stroke-dashoffset:0;stroke-opacity:1;marker:none;marker-start:none;marker-mid:none;marker-end:none"
       inkscape:connector-curvature="0" />
  </g>
  <g
     id="g880"
     transform="matrix(1.1190692,0,0,1.1200558,94.953459,-90.590153)"
     style="stroke-width:0.89320618">
    <circle
       transform="matrix(1.04,0,0,1.04,-3.44,-4.12)"
       id="path6584"
       style="color:#000000;display:inline;overflow:visible;visibility:visible;opacity:1;fill:none;fill-opacity:1;fill-rule:evenodd;stroke:#000000;stroke-width:1.71770406;stroke-linecap:butt;stroke-linejoin:miter;stroke-miterlimit:4;stroke-dasharray:none;stroke-dashoffset:0;stroke-opacity:1;marker:none;marker-start:none;marker-mid:none;marker-end:none"
       cx="98.5"
       cy="115.5"
       r="11.5" />
    <path
       id="path1361"
       d="m 109.63106,110.4341 8.85926,-4.63826"
       style="color:#000000;display:inline;overflow:visible;visibility:visible;opacity:1;fill:none;fill-opacity:1;fill-rule:evenodd;stroke:#000000;stroke-width:1.78641164;stroke-linecap:butt;stroke-linejoin:miter;stroke-miterlimit:4;stroke-dasharray:none;stroke-dashoffset:0;stroke-opacity:1;marker:none;marker-start:none;marker-mid:none;marker-end:none"
       inkscape:connector-curvature="0" />
    <path
       id="path1365"
       d="m 111.74156,103.68534 6.74876,2.1105 -2.1105,6.74876"
       style="color:#000000;display:inline;overflow:visible;visibility:visible;opacity:1;fill:none;fill-opacity:1;fill-rule:evenodd;stroke:#000000;stroke-width:1.78641164;stroke-linecap:butt;stroke-linejoin:miter;stroke-miterlimit:4;stroke-dasharray:none;stroke-dashoffset:0;stroke-opacity:1;marker:none;marker-start:none;marker-mid:none;marker-end:none"
       inkscape:connector-curvature="0" />
  </g>
  <g
     id="g915"
     transform="rotate(-90,117.5,77.5)">
    <path
       inkscape:connector-curvature="0"
       id="path909"
       d="m 25,207 10,23 H 15 Z"
       style="fill:#ff0000;fill-opacity:1;fill-rule:evenodd;stroke:#000000;stroke-width:1px;stroke-linecap:butt;stroke-linejoin:round;stroke-opacity:1" />
    <path
       inkscape:transform-center-y="11.5"
       style="fill:#ffffff;fill-opacity:1;fill-rule:evenodd;stroke:#000000;stroke-width:1px;stroke-linecap:butt;stroke-linejoin:round;stroke-opacity:1"
       d="M 25,253 15,230 h 20 z"
       id="path911"
       inkscape:connector-curvature="0" />
  </g>
  <g
     id="g936"
     transform="translate(247.89225,-118.4121)">
    <circle
       r="10"
       cy="220"
       cx="15"
       id="path919"
       style="opacity:1;vector-effect:none;fill:none;fill-opacity:1;stroke:#000000;stroke-width:5;stroke-linecap:butt;stroke-linejoin:round;stroke-miterlimit:4;stroke-dasharray:none;stroke-dashoffset:0;stroke-opacity:1;marker:none;paint-order:normal" />
    <path
       id="path931"
       d="M 21.138447,227.88892 37.10775,248.4121 45,242.27106"
       style="fill:none;fill-rule:evenodd;stroke:#000000;stroke-width:5;stroke-linecap:butt;stroke-linejoin:miter;stroke-miterlimit:4;stroke-dasharray:none;stroke-opacity:1"
       inkscape:connector-curvature="0" />
    <path
       id="path923"
       d="m 30.966708,240.51985 6.3138,-4.91283"
       style="fill:none;fill-rule:evenodd;stroke:#000000;stroke-width:5;stroke-linecap:butt;stroke-linejoin:miter;stroke-miterlimit:4;stroke-dasharray:none;stroke-opacity:1"
       inkscape:connector-curvature="0" />
  </g>
  <g
     id="g993"
     transform="translate(182,-65)">
    <path
       d="m 40,218 h 3 v 3 h -3 z m -21,-9 v 3 h -6 v 3 h -3 v 3 H 7 v 9 H 4 v 24 h 3 v -3 h 3 v -3 h 3 v 3 h 3 v 3 h 6 v -6 h 6 v 6 h 6 v -3 h 3 v -3 h 3 v 3 h 3 v 3 h 3 v -24 h -3 l -1,2 -2,1 v 3 h -6 v -3 h -3 v -9 h 3 v -3 h 6 v -3 h -3 v -3 h -6 v -3 z m -3,9 h 6 v 3 h 3 v 3 l -3,6 v 3 h -6 v -3 h -3 v -9 h 3 z"
       style="opacity:1;vector-effect:none;fill:#f79c01;fill-opacity:1;fill-rule:evenodd;stroke:none;stroke-width:1px;stroke-linecap:butt;stroke-linejoin:miter;stroke-miterlimit:4;stroke-dasharray:none;stroke-dashoffset:0;stroke-opacity:1"
       id="path879"
       inkscape:connector-curvature="0" />
    <path
       sodipodi:nodetypes="ccccccccccccc"
       inkscape:connector-curvature="0"
       id="path908"
       d="m 13,221 h 3 v -3 h 6 v 3 h 3 l 0.01335,8.99771 L 22,230 v 3 h -6 v -3 h -3 z"
       style="opacity:1;vector-effect:none;fill:#ffffff;fill-opacity:1;fill-rule:evenodd;stroke:none;stroke-width:1px;stroke-linecap:butt;stroke-linejoin:miter;stroke-miterlimit:4;stroke-dasharray:none;stroke-dashoffset:0;stroke-opacity:1" />
    <path
       inkscape:connector-curvature="0"
       id="path908-4"
       d="m 31,221.00029 h 3 v -3 h 6 v 3 h 3 L 43.01335,229.998 40,230 v 3 h -6 v -3 h -3 z"
       style="opacity:1;vector-effect:none;fill:#ffffff;fill-opacity:1;fill-rule:evenodd;stroke:none;stroke-width:1px;stroke-linecap:butt;stroke-linejoin:miter;stroke-miterlimit:4;stroke-dasharray:none;stroke-dashoffset:0;stroke-opacity:1" />
    <path
       inkscape:connector-curvature="0"
       id="path886-7"
       d="m 37,224 h 6 l 0.01335,5.99771 L 37,230 Z"
       style="opacity:1;vector-effect:none;fill:#3e5fac;fill-opacity:1;fill-rule:evenodd;stroke:none;stroke-width:1px;stroke-linecap:butt;stroke-linejoin:miter;stroke-miterlimit:4;stroke-dasharray:none;stroke-dashoffset:0;stroke-opacity:1" />
    <path
       sodipodi:nodetypes="ccccc"
       inkscape:connector-curvature="0"
       id="path886"
       d="m 19,224 h 6 l 0.01335,5.99771 L 19,230 Z"
       style="opacity:1;vector-effect:none;fill:#3e5fac;fill-opacity:1;fill-rule:evenodd;stroke:none;stroke-width:1px;stroke-linecap:butt;stroke-linejoin:miter;stroke-miterlimit:4;stroke-dasharray:none;stroke-dashoffset:0;stroke-opacity:1" />
  </g>
  <g
     transform="translate(63,-58)"
     id="g1299">
    <text
       id="text997"
       y="240"
       x="25"
       style="font-style:normal;font-variant:normal;font-weight:normal;font-stretch:normal;font-size:15.33333302px;line-height:0.99999998%;font-family:Georgia;-inkscape-font-specification:Georgia;text-align:center;letter-spacing:0px;word-spacing:0px;text-anchor:middle;fill:#000000;fill-opacity:1;stroke:none;stroke-width:1px;stroke-linecap:butt;stroke-linejoin:miter;stroke-opacity:1"
       xml:space="preserve"><tspan
         y="240"
         x="25"
         id="tspan995"
         sodipodi:role="line"><tspan
   id="tspan999"
   style="font-style:italic">a</tspan> + <tspan
   id="tspan1001"
   style="font-style:italic">b</tspan> = <tspan
   id="tspan1003"
   style="font-style:italic">c</tspan></tspan></text>
    <path
       sodipodi:nodetypes="cc"
       inkscape:connector-curvature="0"
       id="path1007"
       d="M 32.198536,213 C 21.808702,211 12,213 7,228"
       style="fill:none;fill-rule:evenodd;stroke:#d61a1a;stroke-width:1px;stroke-linecap:butt;stroke-linejoin:miter;stroke-opacity:1;marker-end:url(#Arrow2Mend)" />
  </g>
  <g
     transform="matrix(1,0,0,-1,242.5891,268)"
     id="g1321">
    <path
       style="fill:none;fill-rule:evenodd;stroke:#000000;stroke-width:1.75;stroke-linecap:butt;stroke-linejoin:miter;stroke-miterlimit:4;stroke-dasharray:none;stroke-opacity:1"
       d="m 5,208.91844 20,40 20,-40 z"
       id="path1301"
       inkscape:connector-curvature="0" />
    <path
       style="opacity:1;vector-effect:none;fill:none;fill-opacity:1;fill-rule:evenodd;stroke:#000000;stroke-width:1.75;stroke-linecap:butt;stroke-linejoin:miter;stroke-miterlimit:4;stroke-dasharray:none;stroke-dashoffset:0;stroke-opacity:1"
       d="M 5,228 H 45"
       id="path1303"
       inkscape:connector-curvature="0"
       sodipodi:nodetypes="cc" />
  </g>
  <g
     id="g1479"
     transform="translate(118.92105,-406.6495)"
     inkscape:export-xdpi="384"
     inkscape:export-ydpi="384">
    <path
       sodipodi:nodetypes="zzzzzzzzzzzzzzzzzzzzzzzzzzzzzzzzzzzzzzzzzzzzzzzzz"
       inkscape:connector-curvature="0"
       id="path1346"
       d="m 6.9485874,567.25653 c 0.262892,-0.61463 0.2608012,-1.11097 0.9498095,-1.5499 0.6890083,-0.43893 2.0024109,-0.81772 2.8008181,-1.24371 0.798407,-0.42599 1.048084,-1.01047 1.798257,-1.50613 0.750173,-0.49566 1.902288,-0.97209 2.649465,-1.34994 0.747177,-0.37785 1.060151,-0.73314 1.999599,-0.99997 0.939448,-0.26683 2.295059,-0.30073 3.54928,-0.4 1.254221,-0.0993 3.033927,-0.43198 4.049179,-0.2 1.015252,0.23198 1.343096,0.47632 2.399514,0.75 1.056418,0.27368 2.23839,1.38476 3.049388,1.94993 0.810998,0.56517 1.160172,1.1721 1.599679,1.79988 0.439507,0.62778 0.979857,1.22944 1.449709,1.84985 0.469852,0.62041 0.678813,1.11001 1.433145,1.58067 0.754332,0.47066 1.932438,1.45324 2.816001,1.76924 0.883563,0.316 1.313844,0.57888 2.099577,0.8 0.785733,0.22112 1.35029,0.59723 2.367695,0.7 1.017405,0.10277 2.948336,-0.22454 3.681081,0.05 0.732745,0.27454 0.669479,0.47629 1.253359,0.79885 0.58388,0.32256 0.425407,1.46139 0.64626,2.15088 0.220853,0.68949 -0.219045,1.48127 -0.64987,2.04973 -0.430825,0.56846 -0.147376,0.88686 -0.799839,1.54983 -0.652463,0.66297 0.06394,2.56171 -0.29994,3.29949 -0.363884,0.73778 -0.458735,0.70416 -0.807307,1.0667 -0.348572,0.36254 -0.731476,0.81974 -1.692191,0.98318 -0.960715,0.16344 -2.581938,0.43634 -3.799234,0.7 -1.217296,0.26366 -2.491954,-0.33944 -3.249341,0.1 -0.757387,0.43944 -1.124683,0.64545 -1.999596,0.75 -0.874913,0.10455 -1.124255,0.93866 -2.049588,1.49997 -0.925333,0.56131 -2.101261,1.44481 -2.749446,1.99989 -0.648185,0.55508 -0.686903,0.58369 -1.299737,0.99996 -0.612834,0.41627 -1.312613,0.23148 -2.44954,0.69712 -1.136927,0.46564 -3.073094,0.42916 -4.449101,0.75 -1.376007,0.32084 -2.666209,0.4872 -3.799232,0.65 -1.133023,0.1628 -2.271956,0.32129 -2.999391,0.05 -0.727435,-0.27129 -1.208531,-0.8325 -1.549689,-1.14993 -0.341158,-0.31743 -0.484708,-0.71114 -1.049789,-0.95 -0.565081,-0.23886 -1.120102,-0.82753 -1.499696,-1.34991 -0.3795939,-0.52238 -0.7634692,-0.38284 -1.2497479,-0.84994 -0.4862787,-0.4671 -1.4381485,-0.84813 -1.8496295,-1.34996 -0.411481,-0.50183 -0.8655109,-0.52406 -1.3997173,-0.99994 -0.5342064,-0.47588 -0.9567303,-0.73614 -1.4996983,-1.4999 -0.542968,-0.76376 -1.1340107,-1.8359 -1.04979,-2.89975 0.084221,-1.06385 -0.4797448,-1.86981 -0.099979,-2.64953 0.3797658,-0.77972 0.7869,-1.34652 1.0997793,-1.94989 0.3128793,-0.60337 0.5360022,-0.51571 0.849609,-1.13568 0.3136068,-0.61997 0.4508547,-1.56587 0.700081,-2.36406 0.2492263,-0.79819 0.811737,-1.20987 0.9997989,-1.74987 0.1880619,-0.54 0.1168221,-0.99144 -0.1499574,-1.54855 -0.2667795,-0.55711 -0.012929,-1.03398 0.2499626,-1.64861 z"
       style="fill:#000000;fill-opacity:1;fill-rule:evenodd;stroke:none;stroke-width:1px;stroke-linecap:butt;stroke-linejoin:miter;stroke-opacity:1" />
    <path
       d="m 33.45499,577.15161 c -1.704612,-0.86619 -3.380811,-1.70206 -5.20684,-2.11098 -1.008311,-0.31551 -2.737281,-0.87851 -3.23061,-1.23593 1.550419,-0.87695 2.10503,-2.80131 1.852576,-4.56442 -0.366443,-1.52081 -2.136248,-2.7815 -3.537844,-1.66229 -1.558917,0.91797 -1.731139,2.89027 -1.808138,4.52501 1.030606,1.36602 -1.075403,-0.36711 -1.737395,-0.0749 -1.725736,-0.27482 -3.502638,-0.11005 -5.246639,-0.0919 0.929731,-1.26565 0.378336,-3.25545 -0.57451,-4.41965 -1.395799,-1.97447 -3.609598,0.19002 -3.636382,1.95243 -0.6182546,1.26646 0.994234,2.72369 1.212511,3.13026 -1.486849,0.0419 -3.2423891,1.78531 -4.6130384,0.6125 -0.4622086,-1.57284 2.3564774,-1.94302 1.3197917,-3.77275 -1.4357575,-1.55653 0.2824023,-3.0117 1.8487057,-3.24989 1.584173,-0.70494 3.159614,-0.78532 4.652131,0.30207 1.674067,0.0291 3.429021,-0.30627 5.069448,0.074 0.911236,0.0229 2.06916,0.386 2.632128,-0.59547 1.691655,-1.32355 4.003702,-0.4058 4.911737,1.30683 1.511567,0.69815 3.318508,0.81442 4.759058,1.79195 2.014919,0.28814 2.81983,2.33718 1.230305,3.72397 -0.331846,0.79494 -0.757589,2.32361 -1.045986,0.60261 -0.543315,-0.74072 0.236861,-2.90069 -0.522336,-1.12666 -0.567746,1.86931 1.657454,2.80112 1.894115,4.47767 l -0.06368,0.22142 -0.159105,0.18417 z m 3.423916,-5.90942 c -0.125692,0.003 -0.168005,-0.0128 -0.705078,0.0469 -0.537073,0.0597 -1.364269,1.45364 -1.349609,1.88477 0.01466,0.43113 0.02516,0.26148 0.04297,0.39453 0.328809,-0.008 0.642814,-0.0299 0.976562,0.0586 0.333748,0.0885 0.68052,0.24424 0.964844,0.39649 0.284324,0.15225 0.707681,0.25804 0.986328,0.50586 0.278647,0.24782 0.493052,0.50119 0.662109,0.83008 0.169057,0.32889 0.307597,0.72538 0.300781,1.08398 -0.0068,0.3586 -0.445894,0.35243 -0.738281,0.35547 -0.292387,0.003 -0.398665,-0.0952 -0.761718,-0.48438 -0.363053,-0.38915 0.179648,-0.14913 0.398437,0.0215 0.218789,0.17062 0.760298,0.25878 0.705078,-0.19141 -0.05522,-0.45019 -0.127084,-0.52403 -0.380859,-0.83203 -0.253775,-0.308 -0.516582,-0.42449 -0.921875,-0.67187 -0.405293,-0.24737 -0.708891,-0.32939 -1.144532,-0.48243 -0.435641,-0.15304 -0.715807,-0.22824 -1.011718,-0.30274 0.106024,0.56861 0.261325,1.01435 0.591797,1.73048 0.330472,0.71613 0.933712,0.99981 1.34375,1.6914 0.410038,0.69159 1.485373,1.09307 2.318359,1.33399 0.832986,0.24092 2.027221,0.0228 2.880859,-0.0508 0.853638,-0.0736 0.803983,-0.31675 1.494141,-0.72266 0.690158,-0.40591 1.064917,-1.23479 1.466797,-1.90625 0.40188,-0.67146 0.856562,-1.45689 0.654297,-2.11133 -0.202265,-0.65444 -0.129012,-2.17434 -0.763672,-1.65429 -0.63466,0.52005 -0.633542,1.3845 -1.414063,1.5957 -0.780521,0.2112 -1.413951,-0.54004 -2.066406,-1.02149 -0.652455,-0.48145 -1.484792,-0.92457 -2.251953,-1.20117 -0.767162,-0.27661 -1.900268,-0.30537 -2.277344,-0.29687 -0.377076,0.008 0.125691,-0.003 -10e-7,-2e-5 z m -2.349609,4.38672 c -0.05962,0.21914 -0.422888,0.65258 -0.398438,1.14062 0.02445,0.48804 -0.484107,0.68554 -0.443359,1.2168 0.04075,0.53126 0.08033,1.05744 0.126953,1.51367 0.04662,0.45623 0.258419,1.11926 0.554688,1.45898 0.296269,0.33972 0.54247,0.52487 0.876953,0.89844 0.334483,0.37357 0.840679,0.26435 1.142578,0.58203 0.301899,0.31768 0.535296,0.23649 0.947266,0.30469 0.41197,0.0682 0.870128,-0.0135 1.300781,-0.0234 0.430653,-0.01 0.599777,-0.39178 1.08789,-0.58398 0.488113,-0.1922 1.217483,-0.17712 1.765625,-0.19922 0.548142,-0.0221 1.054228,0.1259 1.484375,0.13281 0.430147,0.007 1.21991,0.29505 1.148438,-0.19336 -0.07147,-0.48841 -0.552676,-0.5394 -0.888672,-0.76562 -0.335996,-0.22622 -0.686406,-0.44164 -1.175781,-0.36133 -0.489375,0.0803 -0.983943,-0.15686 -1.451172,-0.28516 -0.467229,-0.1283 -0.832962,-0.30027 -0.8125,-0.89062 0.02046,-0.59035 -0.730825,-0.51464 -1.181641,-0.60352 -0.450816,-0.0889 -0.758182,-0.28784 -1.113281,-0.52148 -0.355099,-0.23364 -0.734623,-0.31823 -1.0625,-0.63672 -0.327877,-0.31849 -0.808276,-0.57721 -1.052734,-0.93555 -0.163563,-0.35101 -0.220409,-0.44329 -0.291016,-0.55468 -0.0091,0.49802 -0.03426,0.99805 0.07422,1.48632 0.03217,0.35657 0.312647,1.06959 0.414062,1.38868 -0.322294,-0.34051 -0.591165,-1.17149 -0.84375,-1.55079 -0.131917,-0.3919 -0.178334,-0.81804 -0.208984,-1.23046 0.01269,-0.25868 -5.13e-4,-0.52401 0,-0.78711 z m -0.998047,-2.66016 c -0.202219,0.33026 -0.463424,0.82959 -0.535649,1.28252 -0.07223,0.45293 0.244839,0.70238 0.556887,0.919 0.312048,0.21662 0.768903,0.11871 0.880191,-0.37118 0.111288,-0.48989 -0.03884,-1.15164 -0.222722,-1.4888 -0.18388,-0.33716 -0.476488,-0.6718 -0.678707,-0.34154 z"
       style="opacity:1;vector-effect:none;fill:#ea6d34;fill-opacity:1;fill-rule:evenodd;stroke:none;stroke-width:1px;stroke-linecap:butt;stroke-linejoin:miter;stroke-miterlimit:4;stroke-dasharray:none;stroke-dashoffset:0;stroke-opacity:1"
       id="path1415"
       inkscape:connector-curvature="0" />
    <path
       sodipodi:nodetypes="scsscccsccssccssscccssscscsscscccssssssccccccccsccccsssssssscccsssccsscscssscccsssscsssssccc"
       inkscape:connector-curvature="0"
       id="path1351"
       d="m 21.621094,562.40625 c -0.781937,10e-4 -1.565039,0.0208 -2.080078,0.002 -1.030078,-0.0376 -1.403092,-0.0117 -1.894532,0.25 -0.49144,0.26174 -1.001552,0.31461 -1.65039,0.64844 -0.648838,0.33383 -1.882687,1.34867 -2.648438,1.80078 -0.07718,0.0456 -0.109525,0.0634 -0.18164,0.10547 0.226855,0.12519 0.426372,0.25434 0.666015,0.31641 0.354439,0.0918 0.652316,0.37114 1.326937,0.55212 0.674621,0.18098 1.689339,-0.084 2.684782,-0.0658 0.995443,0.0182 2.070767,0.0571 2.744141,0.0879 0.673374,0.0308 0.434206,-0.11007 0.802734,-0.35352 0.368528,-0.24345 0.79981,-0.68733 1.501953,-0.79492 0.702143,-0.10759 1.792128,-0.0163 2.386719,0 0.594591,0.0163 0.852659,0.23049 1.179687,0.5293 0.327028,0.29879 0.581086,0.72227 0.853516,1.01757 0.27243,0.2953 0.302339,0.43711 0.75,0.57422 0.447661,0.13711 0.985218,0.34933 1.458984,0.57422 0.473766,0.22489 0.819738,0.43935 1.322266,0.53125 0.06723,0.0123 0.110787,0.0378 0.164062,0.0586 -0.0058,-0.0105 -0.0073,-0.0229 -0.01367,-0.0332 -0.319276,-0.51823 -0.437311,-0.65929 -0.701172,-1.09961 -0.263861,-0.44032 -0.356129,-0.76239 -0.699219,-1.25 -0.34309,-0.48761 -0.776878,-1.17725 -1.349609,-1.45117 -0.572731,-0.27392 -0.870486,-0.55781 -1.298829,-0.74805 -0.42834,-0.19024 -0.778643,-0.39664 -1.285156,-0.59961 -0.506513,-0.20297 -0.942656,-0.37917 -1.964844,-0.55078 -0.511092,-0.0858 -1.292282,-0.10271 -2.074218,-0.10156 z m -3.960938,9.92773 c -0.890245,0.0295 -1.329186,0.1466 -2.191406,0.0879 -0.86222,-0.0587 -2.447078,0.40879 -3.580078,0.61914 -1.133,0.21035 -1.450253,0.39907 -2.1210939,0.61914 -0.5200893,0.17061 -1.5275348,0.43642 -2.4199219,0.6289 -0.2025037,0.35587 -0.4392289,0.51311 -0.6484374,0.81641 -0.266024,0.38566 -0.6641163,0.68201 -1.0625,1.27148 -0.3983838,0.58947 -0.9621755,1.52644 -1.0234376,2.45703 -0.061262,0.93059 0.1818685,1.26154 0.2851563,1.8711 0.1032878,0.60956 0.3504479,1.22474 0.5996094,1.65039 0.2491615,0.42565 -0.048242,0.20472 0.765625,1.04883 0.8138665,0.84411 1.5866329,1.42246 2.484375,2.05078 0.8977421,0.62832 1.4087141,1.05716 2.4492191,1.75 0.34854,0.23208 0.573144,0.41729 0.765625,0.58984 -0.127156,-0.31372 -0.213089,-0.60944 -0.294922,-0.82812 -0.05437,-0.24708 -0.125534,-0.44803 -0.169922,-0.73828 0.120377,0.24718 0.435578,0.9355 0.728515,1.3125 0.29294,0.377 0.600098,0.68673 0.91211,1.05859 0.225719,0.26901 0.48767,0.52126 0.767578,0.75586 0.43188,0.29063 0.879052,0.54506 1.423828,0.65039 0.904739,0.17493 1.677296,-0.0631 2.603516,-0.0918 0.509572,-0.0158 1.027061,-0.13728 1.523437,-0.27734 0.862638,-0.47573 1.957151,-1.17165 2.988281,-1.51563 -0.369246,0.40192 -0.832576,0.78151 -1.248046,1.06641 0.916493,-0.18837 2.296185,-0.40734 3.148437,-0.5332 1.02658,-0.15161 1.614694,-0.39771 2.029297,-0.625 0.414603,-0.22729 1.30052,-0.64829 1.714844,-0.95313 0.414324,-0.30484 0.868848,-0.59937 1.33789,-0.91601 0.469042,-0.31664 0.799738,-0.5789 1.177735,-0.82813 0.377997,-0.24923 0.550912,-0.73162 0.83789,-0.92773 0.286978,-0.19611 0.394063,-0.24402 0.650391,-0.63477 0.256328,-0.39075 0.405413,-0.71405 0.699219,-1.41406 0.293806,-0.70001 0.342316,-2.18111 0.09961,-3 -0.242707,-0.81889 -0.316587,-1.30189 -0.599609,-1.75 -0.132791,-0.21025 -0.238918,-0.43435 -0.341797,-0.66211 -0.911156,-0.36773 -1.807772,-0.82136 -2.650391,-1.16211 -1.344536,-0.5437 -2.743221,-0.7283 -3.71289,-1.19336 -0.969669,-0.46506 -3.451271,-1.48773 -5.111329,-1.81445 -1.660056,-0.32672 -1.926161,-0.46896 -2.816406,-0.43946 z m -9.6835935,6.53125 c 0.01671,0.0175 -0.064223,0.0722 -0.296875,0.18555 -0.7239818,0.76678 0.3512782,1.55569 1.015625,2.03711 0.6643468,0.48142 1.3943915,0.78972 2.3691405,1.3418 0.974749,0.55208 2.540093,1.40762 3.677735,1.47851 1.137641,0.0709 1.61231,0.27265 2.683593,0.375 1.071283,0.10235 2.721447,0.0547 3.740235,-0.0664 1.018788,-0.12113 1.525184,-0.58835 2.335937,-0.42969 0.810753,0.15866 1.545258,-0.4877 2.550781,-0.64258 1.005523,-0.15488 2.109367,-0.89183 2.980469,-1.02539 0.871102,-0.13356 0.240841,-0.33101 -0.259765,-0.67773 0.774347,-0.28956 1.439129,0.45417 2.058593,0.82617 -0.319767,0.26695 -1.038045,-0.0344 -1.683593,0.29687 -0.645549,0.33134 -1.504576,0.5538 -2.273438,0.92578 -0.768862,0.37198 -1.515607,0.96004 -2.162109,1.48438 -0.646502,0.52434 -1.320827,0.96209 -2.015625,1.12305 -0.694798,0.16096 -1.47778,0.40018 -2.078125,0.97265 -0.600345,0.57247 -1.298991,0.6717 -2.226563,0.74219 -0.927572,0.0705 -2.362228,0.34294 -3.265625,-0.0254 -0.903397,-0.36833 -1.265809,-0.7032 -1.941406,-1.31641 -0.675597,-0.61321 -1.449416,-1.65125 -1.847656,-2.45703 -0.39824,-0.80578 -0.776348,-0.63984 -1.316407,-1.32031 -0.5400582,-0.68047 -1.5515857,-1.01291 -2.1542965,-1.55859 -0.6027108,-0.54568 -0.9737652,-1.23383 -1.4433594,-1.70313 -0.7095693,0.3292 -0.2458785,-0.52663 0.3007813,-0.38867 0.2809887,0.0425 1.2018229,-0.23019 1.2519531,-0.17774 z"
       style="opacity:1;fill:#72ad51;fill-opacity:1;fill-rule:evenodd;stroke:none;stroke-width:1px;stroke-linecap:butt;stroke-linejoin:miter;stroke-opacity:1" />
    <path
       sodipodi:nodetypes="zzzzzzzzcczzzzzzzzzzzzz"
       inkscape:connector-curvature="0"
       id="path1363"
       d="m 16.755023,586.5677 c 0.177891,-0.3315 0.487761,-0.48247 0.751326,-0.65212 0.263565,-0.16965 0.463082,-0.20535 0.566663,-0.1957 0.103582,0.01 0.254852,0.0276 0.544512,0.13121 0.28966,0.10363 0.30897,0.19685 0.718008,0.36314 0.409038,0.16629 0.524105,0.55334 0.639525,0.79602 0.11542,0.24268 0.04343,0.17296 -0.245716,0.22664 -0.289153,0.0537 -0.586667,0.10964 -0.903466,0.21275 -0.316799,0.10311 -0.464912,0.12749 -0.621484,0.17818 -0.829987,0.10052 -1.676604,0.0842 -2.509739,0.1059 -0.205301,-0.027 -0.549251,-0.23126 -0.777688,-0.3885 -0.228437,-0.15724 -0.440962,-0.37019 -0.575675,-0.5097 -0.134713,-0.13951 -0.148713,-0.12293 -0.237363,-0.23194 -0.08865,-0.10901 -0.133269,-0.4279 -0.01852,-0.49601 0.114749,-0.0681 0.144475,-0.16966 0.230615,-0.24607 0.08614,-0.0764 0.09567,-0.089 0.15711,-0.17866 0.06144,-0.0897 0.125731,-0.0857 0.363084,-0.10384 0.237353,-0.0182 0.762785,-0.0585 0.999794,0 0.237009,0.0585 0.423315,0.0263 0.530231,0.1412 0.106916,0.1149 0.05655,0.0807 0.19,0.15081 0.133451,0.0701 0.122993,0.1078 0.270663,0.18399 0.14767,0.0762 -0.05942,0.42382 -0.07188,0.51272 -0.01246,0.0889 -0.177891,0.33148 0,-2e-5 z"
       style="opacity:1;fill:#d0768f;fill-opacity:1;fill-rule:evenodd;stroke:none;stroke-width:1px;stroke-linecap:butt;stroke-linejoin:miter;stroke-opacity:1" />
    <path
       sodipodi:nodetypes="czzzczzzzzzzzzzzzzzzcc"
       inkscape:connector-curvature="0"
       id="path1437"
       d="m 13.12567,572.33445 c -0.214851,-0.22146 -0.360226,-0.43728 -0.472224,-0.65201 -0.111998,-0.21473 -2e-6,-0.73535 0.243969,-1.0147 0.243967,-0.27935 0.370963,-0.26864 0.736392,-0.32248 0.365429,-0.0538 0.639014,0.45186 0.749649,0.47521 0.004,-0.27981 0.07579,-0.77135 0.0238,-1.0494 -0.05199,-0.27805 -0.09555,-0.57432 -0.213081,-0.82256 -0.117528,-0.24824 -0.0943,-0.5101 -0.25258,-0.7241 -0.158282,-0.214 -0.275339,-0.5457 -0.526561,-0.63232 -0.251222,-0.0866 -0.432183,-0.19072 -0.653434,-0.23981 -0.221251,-0.0491 -0.445867,-0.14122 -0.680349,-0.006 -0.234482,0.13522 -0.5115,0.40379 -0.692505,0.59713 -0.181005,0.19334 -0.31226,0.26475 -0.339404,0.51532 -0.02714,0.25057 -0.16437,0.57308 -0.136687,0.80807 0.02768,0.23499 -0.05655,0.37795 -0.0451,0.55664 0.01145,0.17869 -0.021,0.33278 0.02029,0.50619 0.04129,0.17341 0.105237,0.36185 0.201773,0.52477 0.09654,0.16292 0.173935,0.32434 0.278159,0.5057 0.104224,0.18136 0.227157,0.25571 0.434218,0.35909 0.207061,0.10338 0.367515,0.25194 0.607046,0.37017 0.239531,0.11823 0.490345,0.15627 0.716632,0.24509 z"
       style="opacity:1;vector-effect:none;fill:#ffffff;fill-opacity:1;fill-rule:evenodd;stroke:none;stroke-width:1px;stroke-linecap:butt;stroke-linejoin:miter;stroke-miterlimit:4;stroke-dasharray:none;stroke-dashoffset:0;stroke-opacity:1" />
    <path
       sodipodi:nodetypes="czzzzczzzzzzzzzzzzc"
       inkscape:connector-curvature="0"
       id="path1447"
       d="m 22.848388,572.99736 c -0.163945,-0.60922 -0.224015,-1.01267 0.02644,-1.45922 0.250455,-0.44655 0.81977,-0.81382 1.279067,-0.64851 0.459297,0.16531 0.589077,0.63611 0.603484,1.05218 0.01441,0.41607 -0.390972,0.79314 -0.645434,0.96158 -0.254462,0.16844 -0.202285,0.24032 -0.57906,0.44164 0.366578,0.062 0.542697,0.0765 0.806846,0.13214 0.264149,0.0556 0.499644,0.002 0.709271,-0.26454 0.209627,-0.26696 0.634506,-0.52562 0.818866,-0.8733 0.18436,-0.34768 0.310003,-0.58351 0.403105,-1.01596 0.0931,-0.43245 0.02066,-0.76616 0.01367,-1.17757 -0.007,-0.41141 -0.211214,-0.90556 -0.437666,-1.16876 -0.226452,-0.2632 -0.369441,-0.57765 -0.752462,-0.85447 -0.383021,-0.27682 -0.702934,-0.33554 -1.148427,-0.20521 -0.445493,0.13034 -0.727352,0.39163 -1.045886,0.6517 -0.318534,0.26007 -0.685444,0.84889 -0.733534,1.26249 -0.04809,0.4136 -0.151407,0.78549 -0.157543,1.24281 -0.0061,0.45732 0.146972,1.14638 0.34224,1.45694 0.195268,0.31056 0.301197,0.34729 0.497023,0.46606 z"
       style="opacity:1;vector-effect:none;fill:#ffffff;fill-opacity:1;fill-rule:evenodd;stroke:none;stroke-width:1px;stroke-linecap:butt;stroke-linejoin:miter;stroke-miterlimit:4;stroke-dasharray:none;stroke-dashoffset:0;stroke-opacity:1" />
  </g>
  <path
     style="fill:#b7151f;fill-opacity:1;fill-rule:evenodd;stroke:none;stroke-width:1px;stroke-linecap:butt;stroke-linejoin:miter;stroke-opacity:1"
     d="m 205,208 c -7.70238,0 -14,6.29763 -14,14 0,6.8481 4.98245,12.57518 11.5,13.76367 v 6.30664 C 193.36678,242.53579 184.58258,245.58439 180,252 h 50 c -4.58258,-6.41561 -13.36678,-9.46421 -22.5,-9.92969 v -6.30664 C 214.01755,234.57518 219,228.8481 219,222 c 0,-7.70237 -6.29762,-14 -14,-14 z m 0,5 c 5.00017,0 9,3.99983 9,9 0,5.00017 -3.99983,9 -9,9 -5.00017,0 -9,-3.99983 -9,-9 0,-5.00017 3.99983,-9 9,-9 z"
     id="path1498"
     inkscape:connector-curvature="0" />
  <g
     id="g1527"
     transform="translate(118,-348.99316)">
    <g
       id="g1525">
      <path
         sodipodi:nodetypes="cczc"
         inkscape:connector-curvature="0"
         id="path1521"
         d="M 0,600 H 50 C 45,593 35,590 25,590 15,590 5,593 0,600 Z"
         style="fill:#84bc4e;fill-opacity:1;fill-rule:evenodd;stroke:none;stroke-width:1px;stroke-linecap:butt;stroke-linejoin:miter;stroke-opacity:1" />
      <path
         sodipodi:nodetypes="cczc"
         inkscape:connector-curvature="0"
         id="path1523"
         d="m 23,591 h 4 c 0,-36 0,-39 -2,-39 -2,0 -2,3 -2,39 z"
         style="color:#000000;font-style:normal;font-variant:normal;font-weight:normal;font-stretch:normal;font-size:medium;line-height:normal;font-family:sans-serif;font-variant-ligatures:normal;font-variant-position:normal;font-variant-caps:normal;font-variant-numeric:normal;font-variant-alternates:normal;font-feature-settings:normal;text-indent:0;text-align:start;text-decoration:none;text-decoration-line:none;text-decoration-style:solid;text-decoration-color:#000000;letter-spacing:normal;word-spacing:normal;text-transform:none;writing-mode:lr-tb;direction:ltr;text-orientation:mixed;dominant-baseline:auto;baseline-shift:baseline;text-anchor:start;white-space:normal;shape-padding:0;clip-rule:nonzero;display:inline;overflow:visible;visibility:visible;opacity:1;isolation:auto;mix-blend-mode:normal;color-interpolation:sRGB;color-interpolation-filters:linearRGB;solid-color:#000000;solid-opacity:1;vector-effect:none;fill:#84bc4e;fill-opacity:1;fill-rule:evenodd;stroke:none;stroke-width:5;stroke-linecap:butt;stroke-linejoin:miter;stroke-miterlimit:4;stroke-dasharray:none;stroke-dashoffset:0;stroke-opacity:1;color-rendering:auto;image-rendering:auto;shape-rendering:auto;text-rendering:auto;enable-background:accumulate" />
    </g>
  </g>
  <g
     id="g1566"
     transform="translate(60,-350)">
    <path
       style="fill:#552f84;fill-opacity:1;fill-rule:evenodd;stroke:none;stroke-width:1px;stroke-linecap:butt;stroke-linejoin:miter;stroke-opacity:1"
       d="M 0,600 H 50 C 45,593 35,590 25,590 15,590 5,593 0,600 Z"
       id="path1562"
       inkscape:connector-curvature="0"
       sodipodi:nodetypes="cczc" />
    <path
       inkscape:connector-curvature="0"
       id="path1564"
       style="fill:none;fill-rule:evenodd;stroke:#552f84;stroke-width:5;stroke-linecap:butt;stroke-linejoin:miter;stroke-miterlimit:4;stroke-dasharray:none;stroke-opacity:1"
       d="m 25,591 v -5 m 0,0 c 0,0 20,-17 20,-19 0,-2 0,-4 -20,-4 -20,0 -20,3 -20,4 0,1 20,19 20,19 z"
       sodipodi:nodetypes="cccsssc" />
  </g>
  <g
     id="g1625"
     transform="translate(240,-347)">
    <path
       sodipodi:nodetypes="cczc"
       inkscape:connector-curvature="0"
       id="path1529"
       d="M 0,600 H 50 C 45,593 35,590 25,590 15,590 5,593 0,600 Z"
       style="fill:#e6c32c;fill-opacity:1;fill-rule:evenodd;stroke:none;stroke-width:1px;stroke-linecap:butt;stroke-linejoin:miter;stroke-opacity:1" />
    <path
       inkscape:connector-curvature="0"
       id="path1605"
       d="m 25,570 10,15"
       style="opacity:1;vector-effect:none;fill:none;fill-opacity:1;fill-rule:evenodd;stroke:#b29515;stroke-width:5;stroke-linecap:round;stroke-linejoin:miter;stroke-miterlimit:4;stroke-dasharray:none;stroke-dashoffset:0;stroke-opacity:1" />
    <path
       sodipodi:nodetypes="cc"
       inkscape:connector-curvature="0"
       id="path1574-2"
       d="M 35,585 V 555"
       style="opacity:1;vector-effect:none;fill:none;fill-opacity:1;fill-rule:evenodd;stroke:#e6c32c;stroke-width:5;stroke-linecap:round;stroke-linejoin:miter;stroke-miterlimit:4;stroke-dasharray:none;stroke-dashoffset:0;stroke-opacity:1" />
    <path
       inkscape:connector-curvature="0"
       id="path1574"
       d="M 25,592 V 570"
       style="opacity:1;vector-effect:none;fill:none;fill-opacity:1;fill-rule:evenodd;stroke:#e6c32c;stroke-width:5;stroke-linecap:round;stroke-linejoin:miter;stroke-miterlimit:4;stroke-dasharray:none;stroke-dashoffset:0;stroke-opacity:1" />
  </g>
  <text
     xml:space="preserve"
     style="font-style:normal;font-variant:normal;font-weight:normal;font-stretch:normal;font-size:64px;line-height:0.99999998%;font-family:Montserrat;-inkscape-font-specification:Montserrat;text-align:center;letter-spacing:0px;word-spacing:0px;text-anchor:middle;fill:#000000;fill-opacity:1;stroke:none;stroke-width:1px;stroke-linecap:butt;stroke-linejoin:miter;stroke-opacity:1"
     x="270"
     y="312.90656"
     id="text1629"><tspan
       sodipodi:role="line"
       id="tspan1627"
       x="270"
       y="312.90656">÷</tspan></text>
</svg>
