o Frame4
v -0.56114618549217721 0.52 0.10745582848404849
v -0.541571942157283 0.5 0.103351075401785
v -0.541571942157283 0 0.103351075401785
v -0.56114618549217721 0 0.10745582848404849
v -0.55704143240991366 0.52 0.12703007181894266
v -0.55704143240991366 0 0.12703007181894266
v -0.53746718907501945 0.5 0.12292531873667915
v -0.53746718907501945 0 0.12292531873667915
v -0.30668102213855319 0.5 0.054094038414623083
v -0.287106778803659 0.52 0.049989285332359593
v -0.287106778803659 0 0.049989285332359593
v -0.30668102213855319 0 0.054094038414623083
v -0.30257626905628965 0.5 0.073668281749517242
v -0.30257626905628965 0 0.073668281749517242
v -0.28300202572139543 0.52 0.069563528667253752
v -0.28300202572139543 0 0.069563528667253752
vn -0.20523765411317393 0 -0.978712166744708
vn -0.97871216674470729 0 0.205237654113177
vn 0.97871216674470729 0 -0.20523765411317715
vn -0.20523765411317396 0 -0.97871216674470807
vn -0.97871216674470729 0 0.20523765411317715
vn 0.97871216674470729 0 -0.20523765411317715
vn -0.20523765411317471 7.6797653884389865E-16 -0.978712166744708
vn 0 1 0
vn 0 -1 0
g Frame4
f 1//1 2//1 3//1 4//1
f 5//2 1//2 4//2 6//2
f 2//3 7//3 8//3 3//3
f 9//4 10//4 11//4 12//4
f 13//5 9//5 12//5 14//5
f 10//6 15//6 16//6 11//6
f 10//7 9//7 2//7 1//7
f 10//8 1//8 5//8 15//8
f 13//9 7//9 2//9 9//9
