o Frame4
v -0.51659104385338239 0.365 0.10066691446581742
v -0.50191036135221168 0.35 0.097588349654119791
v -0.50191036135221168 0 0.097588349654119791
v -0.51659104385338239 0 0.10066691446581742
v -0.51351247904168484 0.365 0.11534759696698803
v -0.51351247904168484 0 0.11534759696698803
v -0.49883179654051418 0.35 0.1122690321552904
v -0.49883179654051418 0 0.1122690321552904
v -0.32574217133816435 0.35 0.060645571913748336
v -0.31106148883699375 0.365 0.057567007102050718
v -0.31106148883699375 0 0.057567007102050718
v -0.32574217133816435 0 0.060645571913748336
v -0.3226636065264667 0.35 0.075326254414918956
v -0.3226636065264667 0 0.075326254414918956
v -0.30798292402529609 0.365 0.072247689603221324
v -0.30798292402529609 0 0.072247689603221324
vn -0.2052376541131741 0 -0.97871216674470807
vn -0.97871216674470884 0 0.20523765411317027
vn 0.97871216674470951 0 -0.20523765411316672
vn -0.20523765411317466 0 -0.97871216674470785
vn -0.9787121667447074 0 0.20523765411317718
vn 0.9787121667447074 0 -0.20523765411317735
vn -0.20523765411317488 1.6062254407192651E-16 -0.97871216674470785
vn 0 1 0
vn 0 -1 0
g Frame4
f 1//1 2//1 3//1 4//1
f 5//2 1//2 4//2 6//2
f 2//3 7//3 8//3 3//3
f 9//4 10//4 11//4 12//4
f 13//5 9//5 12//5 14//5
f 10//6 15//6 16//6 11//6
f 10//7 9//7 2//7 1//7
f 10//8 1//8 5//8 15//8
f 13//9 7//9 2//9 9//9
