o Frame0
v -0.166283517580637 0.365 -0.41027820393823311
v -0.1716814446838181 0.35 -0.42427328818195031
v -0.1716814446838181 0 -0.42427328818195031
v -0.166283517580637 0 -0.41027820393823311
v -0.15228843333691974 0.365 -0.41567613104141421
v -0.15228843333691974 0 -0.41567613104141421
v -0.15768636044010084 0.35 -0.42967121528513141
v -0.15768636044010084 0 -0.42967121528513141
v -0.23645656992199135 0.35 -0.59221429910655732
v -0.24185449702517245 0.365 -0.60620938335027463
v -0.24185449702517245 0 -0.60620938335027463
v -0.23645656992199135 0 -0.59221429910655732
v -0.22246148567827409 0.35 -0.59761222620973853
v -0.22246148567827409 0 -0.59761222620973853
v -0.22785941278145519 0.365 -0.61160731045345584
v -0.22785941278145519 0 -0.61160731045345584
vn -0.93300561624781642 0 0.35986180687874103
vn 0.35986180687873975 0 0.93300561624781686
vn -0.35986180687873981 0 -0.933005616247817
vn -0.93300561624781742 0 0.35986180687873859
vn 0.35986180687874625 0 0.93300561624781442
vn -0.3598618068787463 0 -0.93300561624781453
vn -0.93300561624781675 1.8471592568271541E-15 0.35986180687874031
vn 0 1 0
vn 0 -1 0
g Frame0
f 1//1 2//1 3//1 4//1
f 5//2 1//2 4//2 6//2
f 2//3 7//3 8//3 3//3
f 9//4 10//4 11//4 12//4
f 13//5 9//5 12//5 14//5
f 10//6 15//6 16//6 11//6
f 10//7 9//7 2//7 1//7
f 10//8 1//8 5//8 15//8
f 13//9 7//9 2//9 9//9
