o Frame4
v -0.64027713903518424 0.365 0.1266041050761732
v -0.62559645653401352 0.35 0.12352554026447558
v -0.62559645653401352 0 0.12352554026447558
v -0.64027713903518424 0 0.1266041050761732
v -0.63719857422348669 0.365 0.14128478757734381
v -0.63719857422348669 0 0.14128478757734381
v -0.622517891722316 0.35 0.1382062227656462
v -0.622517891722316 0 0.1382062227656462
v -0.44942826651996609 0.35 0.08658276252410417
v -0.43474758401879549 0.365 0.083504197712406539
v -0.43474758401879549 0 0.083504197712406539
v -0.44942826651996609 0 0.08658276252410417
v -0.44634970170826843 0.35 0.10126344502527478
v -0.44634970170826843 0 0.10126344502527478
v -0.43166901920709783 0.365 0.098184880213577144
v -0.43166901920709783 0 0.098184880213577144
vn -0.20523765411317318 0 -0.97871216674470818
vn -0.97871216674470884 0 0.20523765411317027
vn 0.97871216674470884 0 -0.20523765411317005
vn -0.20523765411317557 0 -0.97871216674470773
vn -0.9787121667447074 0 0.20523765411317738
vn 0.9787121667447074 0 -0.20523765411317735
vn -0.20523765411317449 -1.0842021724855033E-15 -0.97871216674470785
vn 0 1 0
vn 0 -1 0
g Frame4
f 1//1 2//1 3//1 4//1
f 5//2 1//2 4//2 6//2
f 2//3 7//3 8//3 3//3
f 9//4 10//4 11//4 12//4
f 13//5 9//5 12//5 14//5
f 10//6 15//6 16//6 11//6
f 10//7 9//7 2//7 1//7
f 10//8 1//8 5//8 15//8
f 13//9 7//9 2//9 9//9
