o Frame0
v -0.15718791149535791 0.365 -0.38669623052919405
v -0.162585838598539 0.35 -0.40069131477291126
v -0.162585838598539 0 -0.40069131477291126
v -0.15718791149535791 0 -0.38669623052919405
v -0.14319282725164065 0.365 -0.39209415763237515
v -0.14319282725164065 0 -0.39209415763237515
v -0.14859075435482175 0.35 -0.40608924187609236
v -0.14859075435482175 0 -0.40608924187609236
v -0.22736096383671231 0.35 -0.5686323256975182
v -0.23275889093989341 0.365 -0.58262740994123552
v -0.23275889093989341 0 -0.58262740994123552
v -0.22736096383671231 0 -0.5686323256975182
v -0.21336587959299505 0.35 -0.57403025280069941
v -0.21336587959299505 0 -0.57403025280069941
v -0.21876380669617615 0.365 -0.58802533704441673
v -0.21876380669617615 0 -0.58802533704441673
vn -0.93300561624781642 0 0.35986180687874103
vn 0.35986180687873975 0 0.93300561624781686
vn -0.35986180687873981 0 -0.933005616247817
vn -0.93300561624781742 0 0.35986180687873859
vn 0.35986180687874625 0 0.93300561624781442
vn -0.3598618068787463 0 -0.93300561624781453
vn -0.93300561624781653 2.2487156170069706E-15 0.35986180687874064
vn 0 1 0
vn 0 -1 0
g Frame0
f 1//1 2//1 3//1 4//1
f 5//2 1//2 4//2 6//2
f 2//3 7//3 8//3 3//3
f 9//4 10//4 11//4 12//4
f 13//5 9//5 12//5 14//5
f 10//6 15//6 16//6 11//6
f 10//7 9//7 2//7 1//7
f 10//8 1//8 5//8 15//8
f 13//9 7//9 2//9 9//9
