o Frame2
v -0.95670387990041461 0.52 -0.69088587845588367
v -0.9662570049106709 0.5 -0.67331494215361409
v -0.9662570049106709 0 -0.67331494215361409
v -0.95670387990041461 0 -0.69088587845588367
v -0.97427481620268419 0.52 -0.70043900346614
v -0.97427481620268419 0 -0.70043900346614
v -0.98382794121294048 0.5 -0.68286806716387038
v -0.98382794121294048 0 -0.68286806716387038
v -1.0808945050337468 0.5 -0.46246370652637914
v -1.0904476300440031 0.52 -0.44489277022410956
v -1.0904476300440031 0 -0.44489277022410956
v -1.0808945050337468 0 -0.46246370652637914
v -1.0984654413360164 0.5 -0.47201683153663543
v -1.0984654413360164 0 -0.47201683153663543
v -1.1080185663462727 0.52 -0.45444589523436585
v -1.1080185663462727 0 -0.45444589523436585
vn 0.87854681511347987 0 0.47765625051281507
vn 0.47765625051281507 0 -0.87854681511347987
vn -0.47765625051281507 0 0.87854681511347987
vn 0.87854681511347987 0 0.47765625051281507
vn 0.47765625051281507 0 -0.87854681511347987
vn -0.47765625051281507 0 0.87854681511347987
vn 0.878546815113479 -1.6263032587282553E-15 0.4776562505128164
vn 0 1 0
vn 0 -1 0
g Frame2
f 1//1 2//1 3//1 4//1
f 5//2 1//2 4//2 6//2
f 2//3 7//3 8//3 3//3
f 9//4 10//4 11//4 12//4
f 13//5 9//5 12//5 14//5
f 10//6 15//6 16//6 11//6
f 10//7 9//7 2//7 1//7
f 10//8 1//8 5//8 15//8
f 13//9 7//9 2//9 9//9
