o Frame0
v -0.10694421988531795 0.52 -0.2494834296446895
v -0.11414145602289276 0.5 -0.26814354196964585
v -0.11414145602289276 0 -0.26814354196964585
v -0.10694421988531795 0 -0.2494834296446895
v -0.0882841075603616 0.52 -0.25668066578226434
v -0.0882841075603616 0 -0.25668066578226434
v -0.095481343697936413 0.5 -0.27534077810722069
v -0.095481343697936413 0 -0.27534077810722069
v -0.20050828967379042 0.5 -0.49206488986912189
v -0.20770552581136525 0.52 -0.51072500219407824
v -0.20770552581136525 0 -0.51072500219407824
v -0.20050828967379042 0 -0.49206488986912189
v -0.18184817734883407 0.5 -0.49926212600669662
v -0.18184817734883407 0 -0.49926212600669662
v -0.18904541348640891 0.52 -0.517922238331653
v -0.18904541348640891 0 -0.517922238331653
vn -0.93300561624781675 0 0.3598618068787402
vn 0.35986180687874136 0 0.93300561624781619
vn -0.35986180687874142 0 -0.93300561624781631
vn -0.93300561624781619 0 0.35986180687874136
vn 0.35986180687873653 0 0.93300561624781808
vn -0.35986180687873653 0 -0.93300561624781808
vn -0.93300561624781664 -1.2649025345664204E-15 0.35986180687874014
vn 0 1 0
vn 0 -1 0
g Frame0
f 1//1 2//1 3//1 4//1
f 5//2 1//2 4//2 6//2
f 2//3 7//3 8//3 3//3
f 9//4 10//4 11//4 12//4
f 13//5 9//5 12//5 14//5
f 10//6 15//6 16//6 11//6
f 10//7 9//7 2//7 1//7
f 10//8 1//8 5//8 15//8
f 13//9 7//9 2//9 9//9
