o Frame1
v -0.45025919570434136 0.52 -0.78560789765132244
v -0.47021704806382125 0.5 -0.786905637685846
v -0.47021704806382125 0 -0.786905637685846
v -0.45025919570434136 0 -0.78560789765132244
v -0.44896145566981782 0.52 -0.80556575001080233
v -0.44896145566981782 0 -0.80556575001080233
v -0.46891930802929771 0.5 -0.80686349004532587
v -0.46891930802929771 0 -0.80686349004532587
v -0.70971127637757925 0.5 -0.802478518100128
v -0.72966912873705914 0.52 -0.80377625813465159
v -0.72966912873705914 0 -0.80377625813465159
v -0.70971127637757925 0 -0.802478518100128
v -0.70841353634305571 0.5 -0.82243637045960793
v -0.70841353634305571 0 -0.82243637045960793
v -0.72837138870253559 0.52 -0.82373411049413148
v -0.72837138870253559 0 -0.82373411049413148
vn -0.064887001726176952 0 0.99789261797399176
vn 0.99789261797399165 0 0.064887001726176938
vn -0.99789261797399176 0 -0.064887001726176952
vn -0.064887001726176938 0 0.99789261797399165
vn 0.99789261797399176 0 0.064887001726176952
vn -0.99789261797399165 0 -0.064887001726176938
vn -0.064887001726175286 1.671478349248485E-15 0.99789261797399187
vn 0 1 0
vn 0 -1 0
g Frame1
f 1//1 2//1 3//1 4//1
f 5//2 1//2 4//2 6//2
f 2//3 7//3 8//3 3//3
f 9//4 10//4 11//4 12//4
f 13//5 9//5 12//5 14//5
f 10//6 15//6 16//6 11//6
f 10//7 9//7 2//7 1//7
f 10//8 1//8 5//8 15//8
f 13//9 7//9 2//9 9//9
