o Frame3
v -1.0583924037373345 0.365 -0.15384881740651415
v -1.0494373729367343 0.35 -0.1418152217942166
v -1.0494373729367343 0 -0.1418152217942166
v -1.0583924037373345 0 -0.15384881740651415
v -1.0704259993496319 0.365 -0.1448937866059142
v -1.0704259993496319 0 -0.1448937866059142
v -1.0614709685490318 0.35 -0.13286019099361665
v -1.0614709685490318 0 -0.13286019099361665
v -0.950932034130135 0.35 -0.0094456700589436865
v -0.94197700332953516 0.365 0.00258792555335385
v -0.94197700332953516 0 0.00258792555335385
v -0.950932034130135 0 -0.0094456700589436865
v -0.96296562974243249 0.35 -0.00049063925834375716
v -0.96296562974243249 0 -0.00049063925834375716
v -0.9540105989418326 0.365 0.01154295635395378
v -0.9540105989418326 0 0.01154295635395378
vn 0.802239707486497 0 -0.59700205337333623
vn -0.59700205337333256 0 -0.80223970748649964
vn 0.59700205337333256 0 0.80223970748649975
vn 0.80223970748650375 0 -0.59700205337332723
vn -0.59700205337333168 0 -0.80223970748650042
vn 0.59700205337333168 0 0.80223970748650031
vn 0.80223970748650242 2.0150828256296221E-15 -0.5970020533733289
vn 0 1 0
vn 0 -1 0
g Frame3
f 1//1 2//1 3//1 4//1
f 5//2 1//2 4//2 6//2
f 2//3 7//3 8//3 3//3
f 9//4 10//4 11//4 12//4
f 13//5 9//5 12//5 14//5
f 10//6 15//6 16//6 11//6
f 10//7 9//7 2//7 1//7
f 10//8 1//8 5//8 15//8
f 13//9 7//9 2//9 9//9
