o Wall1
v -0.89540156725705522 0 -0.82457396787867843
v -0.6891045540008377 0 -0.81115970424534445
v -0.6891045540008377 0.425 -0.81115970424534445
v -0.89540156725705522 0.425 -0.82457396787867843
v -0.6891045540008377 0.35 -0.81115970424534445
v -0.50948388276551915 0.35 -0.799480043934633
v -0.50948388276551915 0.425 -0.799480043934633
v -0.50948388276551915 0 -0.799480043934633
v -0.30318686950930168 0 -0.78606578030129892
v -0.30318686950930168 0.425 -0.78606578030129892
vn -0.0648870017261751 0 0.99789261797399176
vn -0.064887001726174648 0 0.99789261797399187
vn -0.064887001726175675 0 0.997892617973992
vt 1 0
vt 0.65165164924007479 0
vt 0.65165164924007479 1
vt 1 1
vt 0.65165164924007479 0.82352941176470584
vt 0.34834835075992504 0.82352941176470584
vt 0.34834835075992504 1
vt 0.34834835075992504 0
vt 0 0
vt 0 1
g Wall1
f 1/1/1 2/2/1 3/3/1 4/4/1
f 5/5/2 6/6/2 7/7/2 3/3/2
f 8/8/3 9/9/3 10/10/3 7/7/3
