o Wall3
v -0.82457396787867843 0 0.17291460406903875
v -0.94799380113568388 0 0.0070654409536538149
v -0.94799380113568388 0.425 0.0070654409536538149
v -0.82457396787867843 0.425 0.17291460406903875
v -0.94799380113568388 0.35 0.0070654409536538149
v -1.0554541707428831 0.35 -0.13733770639391663
v -1.0554541707428831 0.425 -0.13733770639391663
v -1.0554541707428831 0 -0.13733770639391663
v -1.1788740039998884 0 -0.30318686950930157
v -1.1788740039998884 0.425 -0.30318686950930157
vn 0.80223970748650242 0 -0.59700205337332879
vn 0.80223970748650253 0 -0.59700205337332879
vn 0.80223970748650275 0 -0.59700205337332857
vt 1 0
vt 0.65165164924007468 0
vt 0.65165164924007468 1
vt 1 1
vt 0.65165164924007468 0.82352941176470584
vt 0.348348350759925 0.82352941176470584
vt 0.348348350759925 1
vt 0.348348350759925 0
vt 0 0
vt 0 1
g Wall3
f 1/1/1 2/2/1 3/3/1 4/4/1
f 5/5/2 6/6/2 7/7/2 3/3/2
f 8/8/3 9/9/3 10/10/3 7/7/3
