o Wall0
v -0.30318686950930168 0 -0.78606578030129892
v -0.18398099737373746 0 -0.47700339561295296
v -0.18398099737373746 0.425 -0.47700339561295296
v -0.30318686950930168 0.425 -0.78606578030129892
v -0.18398099737373746 0.35 -0.47700339561295296
v -0.1192058721355642 0.35 -0.30906238468834596
v -0.1192058721355642 0.425 -0.30906238468834596
v -0.1192058721355642 0 -0.30906238468834596
v 0 0 0
v 0 0.425 0
vn -0.93300561624781675 0 0.35986180687874042
vn -0.93300561624781664 0 0.35986180687874036
vn -0.93300561624781675 0 0.35986180687874036
vt 1 0
vt 0.60682376407495764 0
vt 0.60682376407495764 1
vt 1 1
vt 0.60682376407495764 0.82352941176470584
vt 0.39317623592504225 0.82352941176470584
vt 0.39317623592504225 1
vt 0.39317623592504225 0
vt 0 0
vt 0 1
g Wall0
f 1/1/1 2/2/1 3/3/1 4/4/1
f 5/5/2 6/6/2 7/7/2 3/3/2
f 8/8/3 9/9/3 10/10/3 7/7/3
