o Wall2
v -1.1788740039998884 0 -0.30318686950930157
v -1.0992330981951379 0 -0.4496693327292377
v -1.0992330981951379 0.6 -0.4496693327292377
v -1.1788740039998884 0.6 -0.30318686950930157
v -1.0992330981951379 0.5 -0.4496693327292377
v -0.97504247306180569 0.5 -0.67809150465874224
v -0.97504247306180569 0.6 -0.67809150465874224
v -0.97504247306180569 0 -0.67809150465874224
v -0.89540156725705522 0 -0.82457396787867843
v -0.89540156725705522 0.6 -0.82457396787867843
vn 0.87854681511347932 0 0.47765625051281574
vn 0.8785468151134791 0 0.47765625051281635
vn 0.87854681511347954 0 0.47765625051281563
vt 1 0
vt 0.71905238223566381 0
vt 0.71905238223566381 1
vt 1 1
vt 0.71905238223566381 0.83333333333333337
vt 0.28094761776433619 0.83333333333333337
vt 0.28094761776433619 1
vt 0.28094761776433619 0
vt 0 0
vt 0 1
g Wall2
f 1/1/1 2/2/1 3/3/1 4/4/1
f 5/5/2 6/6/2 7/7/2 3/3/2
f 8/8/3 9/9/3 10/10/3 7/7/3
