o Wall0
v -0.30318686950930168 0 -0.78606578030129892
v -0.22945902780013272 0 -0.59491326265814792
v -0.22945902780013272 0.425 -0.59491326265814792
v -0.30318686950930168 0.425 -0.78606578030129892
v -0.22945902780013272 0.35 -0.59491326265814792
v -0.16468390256195947 0.35 -0.42697225173354086
v -0.16468390256195947 0.425 -0.42697225173354086
v -0.16468390256195947 0 -0.42697225173354086
v 0 0 0
v 0 0.425 0
vn -0.93300561624781653 0 0.35986180687874064
vn -0.93300561624781675 0 0.35986180687874009
vn -0.93300561624781664 0 0.35986180687874036
vt 1 0
vt 0.75682376407495766 0
vt 0.75682376407495766 1
vt 1 1
vt 0.75682376407495766 0.82352941176470584
vt 0.54317623592504227 0.82352941176470584
vt 0.54317623592504227 1
vt 0.54317623592504227 0
vt 0 0
vt 0 1
g Wall0
f 1/1/1 2/2/1 3/3/1 4/4/1
f 5/5/2 6/6/2 7/7/2 3/3/2
f 8/8/3 9/9/3 10/10/3 7/7/3
