o Wall3
v -0.82457396787867843 0 0.17291460406903875
v -0.92411371900075068 0 0.039155029253113927
v -0.92411371900075068 0.6 0.039155029253113927
v -0.82457396787867843 0.6 0.17291460406903875
v -0.92411371900075068 0.5 0.039155029253113927
v -1.0793342528778163 0.5 -0.16942729469337675
v -1.0793342528778163 0.6 -0.16942729469337675
v -1.0793342528778163 0 -0.16942729469337675
v -1.1788740039998884 0 -0.30318686950930157
v -1.1788740039998884 0.6 -0.30318686950930157
vn 0.80223970748650264 0 -0.59700205337332868
vn 0.80223970748650242 0 -0.597002053373329
vn 0.802239707486503 0 -0.59700205337332835
vt 1 0
vt 0.7190523822356637 0
vt 0.7190523822356637 1
vt 1 1
vt 0.7190523822356637 0.83333333333333337
vt 0.280947617764336 0.83333333333333337
vt 0.280947617764336 1
vt 0.280947617764336 0
vt 0 0
vt 0 1
g Wall3
f 1/1/1 2/2/1 3/3/1 4/4/1
f 5/5/2 6/6/2 7/7/2 3/3/2
f 8/8/3 9/9/3 10/10/3 7/7/3
