o Wall4
v 0 0 0
v -0.28505440226252721 0 0.059776406999806672
v -0.28505440226252721 0.6 0.059776406999806672
v 0 0.6 0
v -0.28505440226252721 0.5 0.059776406999806672
v -0.53951956561615122 0.5 0.11313819706923207
v -0.53951956561615122 0.6 0.11313819706923207
v -0.53951956561615122 0 0.11313819706923207
v -0.82457396787867843 0 0.17291460406903875
v -0.82457396787867843 0.6 0.17291460406903875
vn -0.20523765411317468 0 -0.978712166744708
vn -0.20523765411317466 0 -0.97871216674470785
vt 1 0
vt 0.65430099255271668 0
vt 0.65430099255271668 1
vt 1 1
vt 0.65430099255271668 0.83333333333333337
vt 0.34569900744728332 0.83333333333333337
vt 0.34569900744728332 1
vt 0.34569900744728332 0
vt 0 0
vt 0 1
g Wall4
f 1/1/1 2/2/1 3/3/1 4/4/1
f 5/5/2 6/6/2 7/7/2 3/3/2
f 8/8/1 9/9/1 10/10/1 7/7/1
