o Wall4
v 0 0 0
v -0.32420288893231552 0 0.067985913164333653
v -0.32420288893231552 0.425 0.067985913164333653
v 0 0.425 0
v -0.32420288893231552 0.35 0.067985913164333653
v -0.5003710789463629 0.35 0.10492869090470509
v -0.5003710789463629 0.425 0.10492869090470509
v -0.5003710789463629 0 0.10492869090470509
v -0.82457396787867843 0 0.17291460406903875
v -0.82457396787867843 0.425 0.17291460406903875
vn -0.20523765411317463 0 -0.97871216674470785
vn -0.20523765411317468 0 -0.97871216674470785
vt 1 0
vt 0.60682376407495764 0
vt 0.60682376407495764 1
vt 1 1
vt 0.60682376407495764 0.82352941176470584
vt 0.39317623592504231 0.82352941176470584
vt 0.39317623592504231 1
vt 0.39317623592504231 0
vt 0 0
vt 0 1
g Wall4
f 1/1/1 2/2/1 3/3/1 4/4/1
f 5/5/2 6/6/2 7/7/2 3/3/2
f 8/8/1 9/9/1 10/10/1 7/7/1
