o Wall2
v -1.1788740039998884 0 -0.30318686950930157
v -1.0801268481746253 0 -0.48481120533377686
v -1.0801268481746253 0.425 -0.48481120533377686
v -1.1788740039998884 0.425 -0.30318686950930157
v -1.0801268481746253 0.35 -0.48481120533377686
v -0.99414872308231839 0.35 -0.64294963205420308
v -0.99414872308231839 0.425 -0.64294963205420308
v -0.99414872308231839 0 -0.64294963205420308
v -0.89540156725705522 0 -0.82457396787867843
v -0.89540156725705522 0.425 -0.82457396787867843
vn 0.87854681511347954 0 0.47765625051281563
vn 0.878546815113479 0 0.4776562505128164
vn 0.87854681511347932 0 0.47765625051281591
vt 1 0
vt 0.65165164924007513 0
vt 0.65165164924007513 1
vt 1 1
vt 0.65165164924007513 0.82352941176470584
vt 0.34834835075992521 0.82352941176470584
vt 0.34834835075992521 1
vt 0.34834835075992521 0
vt 0 0
vt 0 1
g Wall2
f 1/1/1 2/2/1 3/3/1 4/4/1
f 5/5/2 6/6/2 7/7/2 3/3/2
f 8/8/3 9/9/3 10/10/3 7/7/3
