<svg xmlns="http://www.w3.org/2000/svg" viewBox="0 0 100 100"><defs><linearGradient id="a"><stop offset="0" stop-color="#74f978"/><stop offset="1" stop-color="#1c9722"/></linearGradient><filter id="b" color-interpolation-filters="sRGB"><feGaussianBlur in="SourceGraphic" result="result6" stdDeviation=".7"/><feComposite in="result6" in2="result6" operator="out" result="result8"/><feComposite in="result6" in2="result8" operator="xor" result="fbSourceGraphic"/><feSpecularLighting in="fbSourceGraphic" kernelUnitLength="1.79" lighting-color="#FFF" result="result1" specularConstant="2.62" specularExponent="50" surfaceScale="1.5"><fePointLight x="-5000" y="-10000" z="20000"/></feSpecularLighting><feComposite in="result1" in2="fbSourceGraphic" operator="in" result="result2"/><feComposite in="fbSourceGraphic" in2="result2" k2="2" k3="1" operator="arithmetic" result="result4"/><feComposite in="result4" in2="result4" operator="in" result="result91"/></filter></defs><path fill="#a07a11" d="M47.94 95.48c2.51-4.45 6.38-8.12 9.7-12.02 2.85-2.09 6.03-8.01 9.97-5.79 4.92 2.02.65 7.84 3.32 11.37 1.76 2.82 4.74 5.26 8.05 4.22 6.31-.45 12.01-5.73 13.48-11.82.82-3.96-1.53-8.86-4.94-9.92-3.4-1.06-6.05-.23-8.5-1.21-4.77-3.33.43-8.38 3.48-10.77 3.6-3.47 8.25-6.2 11.58-9.69-4.52-6.56-8.95-13.32-14.7-18.9-1.8-2.29-5.21-3.88-7.65-.8-.98 2.25.14 5.14-2.23 6.85-2.69 2.73-6.9 2.06-9.71.57-4.11-2.6-6.98-7.95-4.65-12.87 2.32-4.93 9.18-2.62 9.76-7.92-1.06-4.19-11.52-11.76-12.3-12.54-.73.86-10.87 13.29-15.2 15.68-4.32 2.4-6.15-1-4.7-4.76 1.47-3.75-2.3-6.48-5.13-7.67-5.7-2.39-15.45 4.37-16.4 11.74-.42 3.75 3.13 8.33 6.15 8.53 3.03.2 8.11-.45 8.53 3.48.43 3.92-4.84 5.98-7.26 8.83-4.2 3.89-8.55 7.62-12.67 11.6C10.57 58 15.38 64.4 21.18 69.74c3.53.5 4-3.76 4.23-7.94.23-4.17 8.22-7.62 12.14-4.13 1.28 1.2 6.5 5.74 5.58 9.83.46 4.8-3.43 7.64-8.83 8.05-5.4.4-.58 7.3 2.1 9.47 3.73 3.67 7.5 7.3 11.44 10.74l.1-.28z" filter="url(#b)" transform="matrix(.76 0 0 .76 12 12)"/></svg>