<svg xmlns="http://www.w3.org/2000/svg" viewBox="0 0 100 100"><path fill="#b3bfed" d="M56.3 9.01a10.64 10.64 0 1 0 0 21.29 10.64 10.64 0 0 0 0-21.3ZM79 26.47a4.04 4.04 0 0 0-3.84 4.94c-.84 1.06-3.67 4.18-6.73 5.59C65.8 38.2 61 39.29 61 39.29s.21-1.8-.14-2.58c-.8-1.74-2.46-3.07-4.15-4-2.36-1.29-5.17-1.7-7.85-1.85a8.4 8.4 0 0 0-3.57.43c-1.11.44-2.86 2.14-2.86 2.14s-5.67-.63-10.72 2.28c-4.05 2.35-9.49 9.65-10.07 10.44a4.04 4.04 0 1 0 2.99 2.64c.54-.6 5.1-5.57 8.25-6.62 4.17-1.4 7.97-1.97 7.97-1.97s-2.02 4.87-2.2 7.3c-.08 1.08.5 3.21.5 3.21l-4.58 14s-1.58-.38-2.38-.32c-3.74.3-10.77 3.21-10.77 3.21l-7.7-.74L20 86.43l3.14-11.95s13.81-1.59 20.03-4.62c2.03-1 4.97-13 4.97-13s4.59 2.3 7 3.14c2.36.83 7.27 1.87 7.27 1.87s-.06.46.1 1.11a62.2 62.2 0 0 0 5.34 11.1l.94 6.05 18.07-5.99-12.72-1.43S73.26 60.34 69.43 56c-2.67-3.02-11.14-4.71-11.14-4.71L59.86 46s2.74.74 8.43-2.43c3.7-2.06 8.86-8.07 9.78-9.16a4.04 4.04 0 1 0 .93-7.94z"/></svg>