<svg xmlns="http://www.w3.org/2000/svg" viewBox="0 0 100 100"><defs><filter id="a" color-interpolation-filters="sRGB"><feGaussianBlur result="blur" stdDeviation="2 2"/></filter><filter id="b" color-interpolation-filters="sRGB"><feGaussianBlur result="blur" stdDeviation="2 2"/></filter></defs><path fill="#5b5b5b" d="M55.78 94.32a4.14 4.14 0 0 1-3.85 3.86h-3.86a4.14 4.14 0 0 1-3.85-3.86z"/><path fill="gray" d="M40.36 75.05h19.28V92.4a4.14 4.14 0 0 1-3.86 3.85H44.22a4.14 4.14 0 0 1-3.86-3.85z"/><path fill="#f6c900" stroke="#000" stroke-width=".08" d="M49.83 23.06c-11.4-.04-22.95 9.6-22.92 23.09-.03 19.27 11.53 11.56 11.53 30.83h23.12c0-19.27 11.57-11.56 11.53-30.83.03-13.5-11.53-23.13-23.09-23.09h-.17z"/><path fill="none" stroke="#b4b4b4" stroke-linecap="round" stroke-width="3.85" d="M40.36 80.83h19.28m-19.28 5.78h19.28M40.36 92.4h19.28"/><path fill="#fff" d="M52.5 5C32.5 5 25 15 25 35 27.5 22.5 40 7.5 52.5 5Z" filter="url(#a)" transform="translate(11.46 23.02) scale(.77083)"/><path fill="none" stroke="#fff" stroke-width="1.54" d="M46.15 76.98v-28.9a3.85 3.85 0 1 0-7.71 0c0 3.85 1.72 5.77 3.85 5.77h15.42c2.13 0 3.85-1.92 3.85-5.78a3.85 3.85 0 1 0-7.7 0v28.9"/><path fill-opacity=".5" d="M69.49 7.5a31.98 31.98 0 0 1 8.01 21.25c0 17.26-14.26 31.44-30.83 31.44-7.14 0-13.23-2.85-18.66-7.68 5.68 6.37 15.1 7.68 23.45 7.68C68.03 60.2 80 48.51 80 31.25A31.8 31.8 0 0 0 69.49 7.49Z" filter="url(#b)" transform="matrix(.80495 0 0 .76811 10.5 23.03)"/><path fill="none" stroke="#f6c900" stroke-linecap="round" stroke-width="3.85" d="m28.2 69.88-9.54 9.53m.51-31.34H5.67m22.53-21.8-9.54-9.54m31.34.51V3.75m21.8 22.52 9.54-9.54m-.51 31.34h13.5M71.8 69.88l9.54 9.53"/></svg>