<svg xmlns="http://www.w3.org/2000/svg" viewBox="0 0 100 100"><path fill="#fff" stroke="#989898" stroke-opacity=".5" stroke-width="5" d="M56.68 68.53c-2.74-.25-8.03-2.58-8.03-2.58s-3.37 2.15-4.9 2.88a21.32 21.32 0 0 1-8.47 1.97c-4.6.1-9.87-1.32-12.56-5.29-1.05-1.56-1.27-6.62-1.27-6.62s-4.03.42-5.35.15a13.27 13.27 0 0 1-7.04-3.72c-6.4-6.9 2.1-15.23 9.27-16.3-.09-2.13-.45-4.1.27-6.18 1.88-5.41 9.3-8.45 13.55-8.75 4.26-.3 8.92 1.24 8.92 1.24s3.08-3.97 4.9-5.09a19.93 19.93 0 0 1 15.61-1.95c1.94.57 3.78 1.47 5.27 2.84 1.16 1.05 2.76 3.76 2.76 3.76s4.25-.88 5.8-.88c4.33 0 9.12 1.3 11.85 4.86a8.2 8.2 0 0 1 1.35 6.62c-.2.95-1.16 2.65-1.16 2.65s2.23 2.35 3.07 3.17a8.6 8.6 0 0 1 2.63 5.22c.9 8.96-11.9 13.6-19.08 11.92-2.84 6.7-10.02 10.75-17.4 10.08Zm19.17-.22c1.78-.34 4.21-.28 5.6 1.02 2.53 2.37-.34 5.58-2.92 6.16-1.76.4-4.23.3-5.6-1-2.62-2.45.21-5.66 2.92-6.18m9.82 9.3c4.08-.81 5.1 4.17.88 4.84-4.03.65-4.93-4.03-.88-4.84z"/></svg>