<?xml version="1.0" encoding="UTF-8" standalone="no"?>
<svg
   xmlns:dc="http://purl.org/dc/elements/1.1/"
   xmlns:cc="http://creativecommons.org/ns#"
   xmlns:rdf="http://www.w3.org/1999/02/22-rdf-syntax-ns#"
   xmlns:svg="http://www.w3.org/2000/svg"
   xmlns="http://www.w3.org/2000/svg"
   xmlns:sodipodi="http://sodipodi.sourceforge.net/DTD/sodipodi-0.dtd"
   xmlns:inkscape="http://www.inkscape.org/namespaces/inkscape"
   width="93"
   height="62"
   viewBox="0 0 93 62"
   version="1.1"
   id="main-svg"
   inkscape:export-filename="D:\c\Qoph\DataFiles\Face To Face\Unity\Face To Face\Assets\Textures\Bubble.png"
   inkscape:version="1.0.2-2 (e86c870879, 2021-01-15)"
   sodipodi:docname="Bubble.svg"
   inkscape:export-xdpi="982.21997"
   inkscape:export-ydpi="982.21997">
  <metadata
     id="metadata7">
    <rdf:RDF>
      <cc:Work
         rdf:about="">
        <dc:format>image/svg+xml</dc:format>
        <dc:type
           rdf:resource="http://purl.org/dc/dcmitype/StillImage" />
        <dc:title></dc:title>
      </cc:Work>
    </rdf:RDF>
  </metadata>
  <defs
     id="defs5" />
  <sodipodi:namedview
     id="base"
     pagecolor="#ffffff"
     bordercolor="#666666"
     borderopacity="1.0"
     inkscape:pageopacity="0.0"
     inkscape:pageshadow="2"
     inkscape:zoom="6.8942911"
     inkscape:cx="23.077931"
     inkscape:cy="25.296674"
     inkscape:document-units="px"
     showgrid="false"
     units="px"
     inkscape:current-layer="main-svg"
     inkscape:document-rotation="0"
     inkscape:snap-global="false"
     fit-margin-top="1"
     lock-margins="true"
     fit-margin-left="1"
     fit-margin-right="1"
     fit-margin-bottom="1">
    <inkscape:grid
       type="xygrid"
       id="main-grid"
       spacingx="10"
       spacingy="10"
       originx="-1.2857143"
       originy="-0.4285714" />
  </sodipodi:namedview>
  <path
     style="font-variation-settings:normal;opacity:1;vector-effect:none;fill:#f6d429;fill-opacity:1;fill-rule:evenodd;stroke:none;stroke-width:1;stroke-linecap:round;stroke-linejoin:miter;stroke-miterlimit:4;stroke-dasharray:none;stroke-dashoffset:0;stroke-opacity:1;stop-color:#000000;stop-opacity:1"
     d="M 1,24 17.571429,20.571429 14.285715,8.2857143 29,13.428572 29.714286,7.1428572 38.857143,10.571429 47.285715,1 54.714286,11 63.142857,7.5714286 64.285715,13.142858 78.428572,10.571429 77.571429,21.857143 92,25.285715 82.571429,32.857143 87.714286,41.714286 80,43.285715 77.857143,52.142858 64.285715,49 l -0.714286,9.142858 -10,-7.142858 -8,10 -6.857143,-9.714285 -11.428571,7.428571 0.142857,-11.285714 -13.142857,1.857143 1.428571,-7.714286 L 5,39.428572 12.142857,33 Z"
     id="path846" />
  <path
     style="font-variation-settings:normal;opacity:1;vector-effect:none;fill:#e8352b;fill-opacity:1;fill-rule:evenodd;stroke:#000000;stroke-width:0.5;stroke-linecap:round;stroke-linejoin:miter;stroke-miterlimit:4;stroke-dasharray:none;stroke-dashoffset:0;stroke-opacity:1;stop-color:#000000;stop-opacity:1"
     d="M 6.2857143,25.142858 21.285715,22 l -3,-10.571428 13.857142,4.142857 v -5.142857 l 8.428572,3.142857 7.142857,-8.4285718 6.714286,8.7142858 L 62,10.428572 l 1,5.142857 13.428572,-2.428571 -1.285715,10 12.714286,3.142857 L 80,32.571429 l 4.571429,7.714286 -7.142857,1.428571 -1.285715,7.857143 -13.285714,-2.714286 -0.285714,8.571429 -9,-6.857143 -7.428572,8.857143 -6,-8.571429 -9.857142,6.428572 V 45.571429 L 18.142857,47 l 1.571429,-6.714285 -9.571429,-1.571429 6.428572,-5.285714 z"
     id="path848" />
  <g
     aria-label="Smash!"
     transform="matrix(2.0784847,-0.23602726,0.23555,2.0826961,-11.646777,-25.673842)"
     id="text842"
     style="font-style:normal;font-variant:normal;font-weight:normal;font-stretch:normal;font-size:13.3333px;line-height:100%;font-family:'Comica BD Bold';-inkscape-font-specification:'Comica BD Bold, ';font-variant-ligatures:normal;font-variant-position:normal;font-variant-caps:normal;font-variant-numeric:normal;font-variant-alternates:normal;font-variant-east-asian:normal;font-feature-settings:normal;text-indent:0;text-align:center;text-decoration:none;text-decoration-line:none;text-decoration-style:solid;text-decoration-color:#000000;letter-spacing:0px;word-spacing:0px;text-transform:none;writing-mode:lr-tb;direction:ltr;text-orientation:mixed;dominant-baseline:auto;baseline-shift:baseline;text-anchor:middle;white-space:normal;shape-padding:0;shape-margin:0;inline-size:0;opacity:1;vector-effect:none;fill:#ffffff;fill-opacity:1;stroke:#000000;stroke-width:1.43273;stroke-linecap:butt;stroke-linejoin:miter;stroke-miterlimit:100;stroke-dasharray:none;stroke-dashoffset:0;stroke-opacity:1;paint-order:stroke fill markers;stop-color:#000000;stop-opacity:1">
    <path
       d="m 5.9025515,26.989989 c 0.1822912,-1.497392 1.3346321,-2.109369 3.4570226,-1.835933 0.5859359,0.07813 1.4756909,0.253907 2.6692639,0.527343 -0.07379,0.611978 -0.03038,1.280379 0.130208,2.005203 l -0.0651,0.247395 C 11.212869,27.565075 10.635613,27.365422 10.362176,27.33504 9.7241566,27.29598 9.3834455,27.43487 9.3400429,27.751706 l -0.013021,0.104166 c -0.073785,0.594617 0.3342004,1.022133 1.2239551,1.282549 1.63628,0.707464 2.352424,1.844614 2.148432,3.41145 l -0.07812,0.533853 c -0.03038,0.203993 -0.09983,0.470919 -0.208333,0.800779 -0.6467,1.249997 -1.634111,1.78602 -2.9622325,1.608069 L 9.0210333,35.440489 C 8.4741596,35.366705 7.6299777,35.138841 6.4884876,34.756897 l 0.1822912,-1.471351 c 0.043403,-0.308158 0.00434,-0.705293 -0.1171872,-1.191403 0.9201365,0.48611 1.5212634,0.746526 1.8033808,0.781248 l 0.2473952,0.03906 c 0.5425334,-0.0087 0.8398417,-0.227863 0.8919249,-0.65755 l 0.019531,-0.104166 C 9.5505455,31.809855 9.6464641,31.57525 9.5081915,31.343341 9.1377836,30.722097 8.8886551,30.672706 7.6082764,30.290762 6.2627936,29.565938 5.6942187,28.46568 5.9025515,26.989989 Z"
       style="fill:#ffffff;fill-opacity:1;stroke:#000000;stroke-width:1.43273;stroke-miterlimit:100;stroke-dasharray:none;stroke-opacity:1"
       id="path844"
       sodipodi:nodetypes="cccccccccccccccccccccacc" />
    <path
       d="m 15.815223,27.387663 c 0,0 0,1.421441 0,1.282553 0.364583,-0.394965 0.789929,-0.592447 1.276039,-0.592447 h 0.319009 c 0.555554,0 0.97222,0.227864 1.249997,0.683592 0.707463,-0.737845 1.338972,-1.106768 1.894527,-1.106768 1.132809,0 1.809891,1.249997 2.031244,3.749991 0,0.733505 -0.117187,1.508242 -0.351561,2.324213 -0.212673,0 -0.920137,-0.15625 -2.122391,-0.468749 0.08247,-0.568575 0.141059,-1.167532 0.175781,-1.796871 v -0.05208 c -0.06944,-1.124129 -0.271266,-1.686194 -0.605467,-1.686194 -0.481769,0.182291 -0.722654,0.601127 -0.722654,1.256508 0,0.217013 0.08898,0.855032 0.266926,1.914057 v 0.188802 h -1.731767 l 0.07162,-0.507811 V 32.322546 C 17.444995,30.734009 17.143345,29.93974 16.661575,29.93974 h -0.01953 c -0.447047,0.147569 -0.670571,0.583765 -0.670571,1.30859 v 0.05208 c 0,0.412325 0.01736,1.065536 0.05208,1.959631 l -2.226557,0.677081 -0.449217,-4.277333 z"
       style="fill:#ffffff;fill-opacity:1;stroke:#000000;stroke-width:1.43273;stroke-miterlimit:100;stroke-dasharray:none;stroke-opacity:1"
       id="path847"
       sodipodi:nodetypes="ccsscsccccccscccccscsscccc" />
    <path
       d="m 23.614682,28.826461 c 0.802949,-0.551214 1.553816,-0.826821 2.252599,-0.826821 h 0.16276 c 0.833331,0 1.499562,0.340711 1.998693,1.022133 0.303819,0.394965 0.455728,1.644962 0.455728,3.749991 v 0.957029 c 0,0.355901 -0.01953,0.933157 -0.05859,1.731766 -0.225694,0 -0.883244,-0.09766 -1.972651,-0.292968 v -0.15625 c 0,-0.199652 0.01736,-0.442707 0.05208,-0.729164 l 0.04557,0.09766 c -0.49045,0.364582 -0.967879,0.546873 -1.432288,0.546873 -1.349823,0 -2.024735,-0.505641 -2.024735,-1.516923 0,-1.145831 0.622828,-1.987842 1.868485,-2.526035 0.672741,-0.104167 0.502157,-0.141649 1.009112,-0.143229 0,-0.551214 -0.15842,-0.826821 -0.475259,-0.826821 -0.364583,0 -0.848522,0.16059 -1.451819,0.48177 -0.182291,0 -0.32552,-0.523002 -0.429687,-1.569007 z m 2.42838,3.111972 c -0.577256,0.07813 -0.865884,0.355902 -0.865884,0.833331 v 0.05208 c 0,0.16059 0.06944,0.240885 0.208333,0.240885 h 0.214843 c 0.429687,0 0.711804,-0.03255 0.846352,-0.09766 -0.05208,-0.685762 -0.104163,-1.028643 -0.156249,-1.028643 z"
       style="fill:#ffffff;fill-opacity:1;stroke:#000000;stroke-width:1.43273;stroke-miterlimit:100;stroke-dasharray:none;stroke-opacity:1"
       id="path849"
       sodipodi:nodetypes="ssscssccsccssccscsscssssccc" />
    <path
       d="m 29.161544,29.145471 c 0,-0.373263 0.01736,-0.559895 0.05208,-0.559895 0,-0.889755 0.605467,-1.334632 1.816402,-1.334632 0.733505,0 1.354164,0.125868 1.861975,0.377604 0.09983,0 0.217013,0.449217 0.351561,1.347652 -0.638019,-0.0868 -1.054685,-0.130208 -1.249997,-0.130208 h -0.214843 c -0.355902,0 -0.533853,0.117187 -0.533853,0.351562 0,0.342881 0.546874,0.713974 1.640621,1.113279 0.720485,0.607637 1.080727,1.213104 1.080727,1.816401 v 0.377603 c 0,0.169271 -0.03906,0.327691 -0.117188,0.47526 -0.486109,0.872393 -1.302079,1.30859 -2.44791,1.30859 H 30.92586 c -0.520832,0 -1.056855,-0.104166 -1.608069,-0.312499 0,-0.182291 -0.05209,-1.94227 -0.05209,-2.415359 0.998261,0.334201 1.660152,0.533853 1.985672,0.598957 0.347221,-0.03472 0.520832,-0.169268 0.520832,-0.403645 v -0.104166 c 0,-0.243055 -0.447048,-0.48828 -1.341143,-0.735675 -0.846352,-0.355902 -1.269528,-0.946178 -1.269528,-1.770829 z"
       style="fill:#ffffff;fill-opacity:1;stroke:#000000;stroke-width:1.43273;stroke-miterlimit:100;stroke-dasharray:none;stroke-opacity:1"
       id="path851"
       sodipodi:nodetypes="ccsccssscsscsscccssccc" />
    <path
       d="m 36.107333,25.026201 0.351561,2.890617 c 0,0 -0.437406,0.225799 0.03907,-0.05208 0.230034,-0.312499 0.687932,-0.509981 1.373694,-0.592446 1.562496,-0.190972 2.456591,0.66189 2.682285,2.558587 0.09549,0.837671 0.07162,1.95746 -0.07161,3.359366 -0.65104,-0.143229 -1.347653,-0.249565 -2.089839,-0.319009 -0.0434,-0.203993 -0.03906,-0.305989 0.01302,-0.305989 -0.05642,-1.072046 -0.123694,-1.94878 -0.201822,-2.630202 l -0.04557,-0.260416 c -0.0434,-0.399305 -0.20399,-0.583766 -0.48177,-0.553384 l -0.214843,0.02604 c -0.147569,0.01302 -0.334201,0.101995 -0.559894,0.266926 0.09549,1.089407 0.17578,1.903207 0.240884,2.4414 l 0.09766,0.833332 c -1.180552,0.373263 -1.905376,0.577255 -2.174473,0.611977 -1.019963,-5.121515 -1.575517,-7.851542 -1.666663,-8.190083 z"
       style="fill:#ffffff;fill-opacity:1;stroke:#000000;stroke-width:1.43273;stroke-miterlimit:100;stroke-dasharray:none;stroke-opacity:1"
       id="path853"
       sodipodi:nodetypes="cccccccccccccccccc" />
    <path
       d="M 43.773682,25.696639 V 30.91798 H 41.918218 L 41.29973,25.696639 Z m -0.214843,6.002589 v 1.191403 H 41.794521 V 31.25001 Z"
       style="fill:#ffffff;fill-opacity:1;stroke:#000000;stroke-width:1.43273;stroke-miterlimit:100;stroke-dasharray:none;stroke-opacity:1"
       id="path855"
       sodipodi:nodetypes="cccccccccc" />
  </g>
</svg>
