<?xml version="1.0" encoding="UTF-8" standalone="no"?>
<svg
   xmlns:dc="http://purl.org/dc/elements/1.1/"
   xmlns:cc="http://creativecommons.org/ns#"
   xmlns:rdf="http://www.w3.org/1999/02/22-rdf-syntax-ns#"
   xmlns:svg="http://www.w3.org/2000/svg"
   xmlns="http://www.w3.org/2000/svg"
   xmlns:sodipodi="http://sodipodi.sourceforge.net/DTD/sodipodi-0.dtd"
   xmlns:inkscape="http://www.inkscape.org/namespaces/inkscape"
   viewBox="-35 -35 70 70"
   stroke="black"
   stroke-width=".1"
   stroke-linecap="round"
   text-anchor="middle"
   font-size="5"
   version="1.1"
   id="svg212"
   sodipodi:docname="Space Race.svg"
   inkscape:export-filename="D:\c\Qoph\DataFiles\Space Race\Space Race.png"
   inkscape:export-xdpi="1920"
   inkscape:export-ydpi="1920"
   inkscape:version="0.92.3 (2405546, 2018-03-11)">
  <metadata
     id="metadata218">
    <rdf:RDF>
      <cc:Work
         rdf:about="">
        <dc:format>image/svg+xml</dc:format>
        <dc:type
           rdf:resource="http://purl.org/dc/dcmitype/StillImage" />
        <dc:title></dc:title>
      </cc:Work>
    </rdf:RDF>
  </metadata>
  <defs
     id="defs216" />
  <sodipodi:namedview
     pagecolor="#ffffff"
     bordercolor="#666666"
     borderopacity="1"
     objecttolerance="10"
     gridtolerance="10"
     guidetolerance="10"
     inkscape:pageopacity="1"
     inkscape:pageshadow="2"
     inkscape:window-width="640"
     inkscape:window-height="480"
     id="namedview214"
     showgrid="false"
     inkscape:zoom="13.871429"
     inkscape:cx="20.798147"
     inkscape:cy="35.000001"
     inkscape:current-layer="svg212" />
  <g
     id="g54">
    <circle
       cx="-5.5107285922007E-15"
       cy="-30"
       r="1"
       fill="black"
       id="circle2" />
    <circle
       cx="13.9416951613131"
       cy="26.5636807695963"
       r="1"
       fill="none"
       id="circle4" />
    <circle
       cx="-24.6895159768097"
       cy="-17.0419424019346"
       r="1"
       fill="none"
       id="circle6" />
    <circle
       cx="29.7812662229416"
       cy="3.61610040765967"
       r="1"
       fill="none"
       id="circle8" />
    <circle
       cx="-28.0504872805624"
       cy="10.6381466112761"
       r="1"
       fill="black"
       id="circle10" />
    <circle
       cx="19.8936797472239"
       cy="-22.455322445133"
       r="1"
       fill="none"
       id="circle12" />
    <circle
       cx="-7.17946992862674"
       cy="29.1282545227816"
       r="1"
       fill="none"
       id="circle14" />
    <circle
       cx="-7.17946992862676"
       cy="-29.1282545227816"
       r="1"
       fill="none"
       id="circle16" />
    <circle
       cx="19.8936797472239"
       cy="22.455322445133"
       r="1"
       fill="black"
       id="circle18" />
    <circle
       cx="-28.0504872805625"
       cy="-10.6381466112761"
       r="1"
       fill="none"
       id="circle20" />
    <circle
       cx="29.7812662229416"
       cy="-3.61610040765971"
       r="1"
       fill="none"
       id="circle22" />
    <circle
       cx="-24.6895159768097"
       cy="17.0419424019347"
       r="1"
       fill="none"
       id="circle24" />
    <circle
       cx="13.941695161313"
       cy="-26.5636807695963"
       r="1"
       fill="none"
       id="circle26" />
    <circle
       cx="9.18454765366783E-15"
       cy="30"
       r="1"
       fill="none"
       id="circle28" />
    <circle
       cx="-13.9416951613131"
       cy="-26.5636807695963"
       r="1"
       fill="black"
       id="circle30" />
    <circle
       cx="24.6895159768097"
       cy="17.0419424019347"
       r="1"
       fill="none"
       id="circle32" />
    <circle
       cx="-29.7812662229416"
       cy="-3.61610040765966"
       r="1"
       fill="none"
       id="circle34" />
    <circle
       cx="28.0504872805624"
       cy="-10.6381466112761"
       r="1"
       fill="none"
       id="circle36" />
    <circle
       cx="-19.8936797472239"
       cy="22.455322445133"
       r="1"
       fill="none"
       id="circle38" />
    <circle
       cx="7.17946992862672"
       cy="-29.1282545227816"
       r="1"
       fill="none"
       id="circle40" />
    <circle
       cx="7.17946992862676"
       cy="29.1282545227816"
       r="1"
       fill="black"
       id="circle42" />
    <circle
       cx="-19.8936797472239"
       cy="-22.455322445133"
       r="1"
       fill="none"
       id="circle44" />
    <circle
       cx="28.0504872805624"
       cy="10.6381466112761"
       r="1"
       fill="none"
       id="circle46" />
    <circle
       cx="-29.7812662229416"
       cy="3.61610040765974"
       r="1"
       fill="none"
       id="circle48" />
    <circle
       cx="24.6895159768097"
       cy="-17.0419424019347"
       r="1"
       fill="none"
       id="circle50" />
    <circle
       cx="-13.941695161313"
       cy="26.5636807695963"
       r="1"
       fill="none"
       id="circle52" />
  </g>
  <g
     transform="translate(28,-28)"
     id="g64">
    <g
       transform="translate(0 0)"
       id="g62">
      <path
         fill="none"
         d="M-1.10214571844014E-15,-6L2.78833903226261,5.31273615391926 -4.93790319536194,-3.40838848038693 5.95625324458832,0.723220081531934 -5.61009745611249,2.12762932225522 3.97873594944477,-4.49106448902661 -1.43589398572535,5.82565090455631 -1.43589398572535,-5.82565090455631 3.97873594944477,4.4910644890266 -5.61009745611249,-2.12762932225521 5.95625324458832,-0.723220081531942 -4.93790319536194,3.40838848038693 2.78833903226261,-5.31273615391926 1.83690953073357E-15,6 -2.78833903226261,-5.31273615391926 4.93790319536194,3.40838848038693 -5.95625324458832,-0.723220081531933 5.61009745611249,-2.12762932225522 -3.97873594944477,4.49106448902661 1.43589398572534,-5.82565090455631 1.43589398572535,5.82565090455631 -3.97873594944477,-4.4910644890266 5.61009745611249,2.12762932225521 -5.95625324458832,0.723220081531948 4.93790319536194,-3.40838848038694 -2.78833903226261,5.31273615391926"
         id="path56" />
      <circle
         cx="-1.10214571844014E-15"
         cy="-6"
         r=".1"
         fill="black"
         id="circle58" />
      <circle
         cx="0"
         cy="0"
         r=".5"
         fill="white"
         fill-opacity="0.7"
         id="circle60" />
    </g>
  </g>
  <g
     id="g210">
    <g
       transform="translate(-1.19181684952045 20.1845051621431)"
       id="g72">
      <path
         fill="none"
         d="M-1.10214571844014E-15,-6C-8.81716574752112E-16,-4.8 1.46952762458685E-15,4.8 1.83690953073357E-15,6 1.46952762458685E-15,4.8 3.18298875955582,3.59285159122128 3.97873594944477,4.4910644890266 3.18298875955582,3.59285159122128 -4.48807796488999,-1.70210345780417 -5.61009745611249,-2.12762932225521"
         id="path66" />
      <circle
         cx="-1.10214571844014E-15"
         cy="-6"
         r=".1"
         fill="black"
         id="circle68" />
      <circle
         cx="0"
         cy="0"
         r=".5"
         fill="white"
         fill-opacity="0.7"
         id="circle70" />
    </g>
    <g
       transform="translate(15.097843517638 18.2065822943456)"
       id="g80">
      <path
         fill="none"
         d="M-3.97873594944477,4.49106448902661C-3.18298875955582,3.59285159122129 -2.23067122581009,-4.25018892313541 -2.78833903226261,-5.31273615391926 -2.23067122581009,-4.25018892313541 -4.48807796488999,-1.70210345780417 -5.61009745611249,-2.12762932225521 -4.48807796488999,-1.70210345780417 -4.48807796488999,1.70210345780417 -5.61009745611249,2.12762932225522 -4.48807796488999,1.70210345780417 3.18298875955582,-3.59285159122129 3.97873594944477,-4.49106448902661"
         id="path74" />
      <circle
         cx="-3.97873594944477"
         cy="4.49106448902661"
         r=".1"
         fill="black"
         id="circle76" />
      <circle
         cx="0"
         cy="0"
         r=".5"
         fill="white"
         fill-opacity="0.7"
         id="circle78" />
    </g>
    <g
       transform="translate(-6.84886047783149 -26.4054407289226)"
       id="g88">
      <path
         fill="none"
         d="M2.78833903226261,5.31273615391926C2.23067122581009,4.25018892313541 -8.81716574752112E-16,-4.8 -1.10214571844014E-15,-6 -8.81716574752112E-16,-4.8 4.48807796488999,-1.70210345780417 5.61009745611249,-2.12762932225522 4.48807796488999,-1.70210345780417 -4.48807796488999,1.70210345780417 -5.61009745611249,2.12762932225522 -4.48807796488999,1.70210345780417 3.18298875955582,3.59285159122128 3.97873594944477,4.4910644890266 3.18298875955582,3.59285159122128 -3.95032255628955,2.72671078430955 -4.93790319536194,3.40838848038693"
         id="path82" />
      <circle
         cx="2.78833903226261"
         cy="5.31273615391926"
         r=".1"
         fill="black"
         id="circle84" />
      <circle
         cx="0"
         cy="0"
         r=".5"
         fill="white"
         fill-opacity="0.7"
         id="circle86" />
    </g>
    <g
       transform="translate(-18.7018628977034 -20.1845051621431)"
       id="g96">
      <path
         fill="none"
         d="M5.61009745611249,-2.12762932225522C4.48807796488999,-1.70210345780417 -2.23067122581009,-4.25018892313541 -2.78833903226261,-5.31273615391926"
         id="path90" />
      <circle
         cx="5.61009745611249"
         cy="-2.12762932225522"
         r=".1"
         fill="black"
         id="circle92" />
      <circle
         cx="0"
         cy="0"
         r=".5"
         fill="white"
         fill-opacity="0.7"
         id="circle94" />
    </g>
    <g
       transform="translate(-16.8169086663404 -2.04194240193466)"
       id="g104">
      <path
         fill="none"
         d="M-4.93790319536194,-3.40838848038693C-3.95032255628955,-2.72671078430954 4.48807796488999,-1.70210345780417 5.61009745611249,-2.12762932225522 4.48807796488999,-1.70210345780417 -4.48807796488999,1.70210345780417 -5.61009745611249,2.12762932225522 -4.48807796488999,1.70210345780417 1.14871518858028,-4.66052072364505 1.43589398572534,-5.82565090455631 1.14871518858028,-4.66052072364505 -8.81716574752112E-16,-4.8 -1.10214571844014E-15,-6 -8.81716574752112E-16,-4.8 4.76500259567066,-0.578576065225553 5.95625324458832,-0.723220081531942"
         id="path98" />
      <circle
         cx="-4.93790319536194"
         cy="-3.40838848038693"
         r=".1"
         fill="black"
         id="circle100" />
      <circle
         cx="0"
         cy="0"
         r=".5"
         fill="white"
         fill-opacity="0.7"
         id="circle102" />
    </g>
    <g
       transform="translate(1.52922136652309 -22.7504423246691)"
       id="g112">
      <path
         fill="none"
         d="M5.95625324458832,-0.723220081531942C4.76500259567066,-0.578576065225553 -2.23067122581009,-4.25018892313541 -2.78833903226261,-5.31273615391926 -2.23067122581009,-4.25018892313541 -3.18298875955582,-3.59285159122128 -3.97873594944477,-4.4910644890266 -3.18298875955582,-3.59285159122128 -8.81716574752112E-16,-4.8 -1.10214571844014E-15,-6 -8.81716574752112E-16,-4.8 -3.95032255628955,2.72671078430955 -4.93790319536194,3.40838848038693"
         id="path106" />
      <circle
         cx="5.95625324458832"
         cy="-0.723220081531942"
         r=".1"
         fill="black"
         id="circle108" />
      <circle
         cx="0"
         cy="0"
         r=".5"
         fill="white"
         fill-opacity="0.7"
         id="circle110" />
    </g>
    <g
       transform="translate(-17.0670564043445 -10.2890324853082)"
       id="g120">
      <path
         fill="none"
         d="M5.95625324458832,0.723220081531934C4.76500259567066,0.578576065225547 1.14871518858028,4.66052072364505 1.43589398572535,5.82565090455631 1.14871518858028,4.66052072364505 4.76500259567066,-0.578576065225553 5.95625324458832,-0.723220081531942 4.76500259567066,-0.578576065225553 -8.81716574752112E-16,-4.8 -1.10214571844014E-15,-6 -8.81716574752112E-16,-4.8 1.14871518858028,-4.66052072364505 1.43589398572534,-5.82565090455631"
         id="path114" />
      <circle
         cx="5.95625324458832"
         cy="0.723220081531934"
         r=".1"
         fill="black"
         id="circle116" />
      <circle
         cx="0"
         cy="0"
         r=".5"
         fill="white"
         fill-opacity="0.7"
         id="circle118" />
    </g>
    <g
       transform="translate(-23.0190409902553 1.05152665447448)"
       id="g128">
      <path
         fill="none"
         d="M1.43589398572534,-5.82565090455631C1.14871518858028,-4.66052072364505 -1.14871518858028,-4.66052072364505 -1.43589398572535,-5.82565090455631 -1.14871518858028,-4.66052072364505 4.48807796488999,-1.70210345780417 5.61009745611249,-2.12762932225522 4.48807796488999,-1.70210345780417 -8.81716574752112E-16,-4.8 -1.10214571844014E-15,-6 -8.81716574752112E-16,-4.8 -4.76500259567066,0.578576065225558 -5.95625324458832,0.723220081531948"
         id="path122" />
      <circle
         cx="1.43589398572534"
         cy="-5.82565090455631"
         r=".1"
         fill="black"
         id="circle124" />
      <circle
         cx="0"
         cy="0"
         r=".5"
         fill="white"
         fill-opacity="0.7"
         id="circle126" />
    </g>
    <g
       transform="translate(19.8936797472239 -18.2240098672543)"
       id="g136">
      <path
         fill="none"
         d="M-5.61009745611249,2.12762932225522C-4.48807796488999,1.70210345780417 4.48807796488999,-1.70210345780417 5.61009745611249,-2.12762932225522 4.48807796488999,-1.70210345780417 3.18298875955582,3.59285159122128 3.97873594944477,4.4910644890266 3.18298875955582,3.59285159122128 -3.18298875955582,3.59285159122129 -3.97873594944477,4.49106448902661"
         id="path130" />
      <circle
         cx="-5.61009745611249"
         cy="2.12762932225522"
         r=".1"
         fill="black"
         id="circle132" />
      <circle
         cx="0"
         cy="0"
         r=".5"
         fill="white"
         fill-opacity="0.7"
         id="circle134" />
    </g>
    <g
       transform="translate(19.8936797472238 -7.54467755486697)"
       id="g144">
      <path
         fill="none"
         d="M5.61009745611249,2.12762932225521C4.48807796488999,1.70210345780417 -4.48807796488999,1.70210345780417 -5.61009745611249,2.12762932225522 -4.48807796488999,1.70210345780417 3.95032255628955,-2.72671078430955 4.93790319536194,-3.40838848038694 3.95032255628955,-2.72671078430955 -2.23067122581009,-4.25018892313541 -2.78833903226261,-5.31273615391926 -2.23067122581009,-4.25018892313541 1.14871518858028,4.66052072364505 1.43589398572535,5.82565090455631 1.14871518858028,4.66052072364505 1.46952762458685E-15,4.8 1.83690953073357E-15,6"
         id="path138" />
      <circle
         cx="5.61009745611249"
         cy="2.12762932225521"
         r=".1"
         fill="black"
         id="circle140" />
      <circle
         cx="0"
         cy="0"
         r=".5"
         fill="white"
         fill-opacity="0.7"
         id="circle142" />
    </g>
    <g
       transform="translate(7.105427357601E-15 4.83106009699287)"
       id="g152">
      <path
         fill="none"
         d="M3.97873594944477,-4.49106448902661C3.18298875955582,-3.59285159122129 -4.48807796488999,1.70210345780417 -5.61009745611249,2.12762932225522 -4.48807796488999,1.70210345780417 1.46952762458685E-15,4.8 1.83690953073357E-15,6 1.46952762458685E-15,4.8 1.14871518858028,-4.66052072364505 1.43589398572534,-5.82565090455631 1.14871518858028,-4.66052072364505 -2.23067122581009,-4.25018892313541 -2.78833903226261,-5.31273615391926"
         id="path146" />
      <circle
         cx="3.97873594944477"
         cy="-4.49106448902661"
         r=".1"
         fill="black"
         id="circle148" />
      <circle
         cx="0"
         cy="0"
         r=".5"
         fill="white"
         fill-opacity="0.7"
         id="circle150" />
    </g>
    <g
       transform="translate(0 -7.67844407494666)"
       id="g160">
      <path
         fill="none"
         d="M1.83690953073357E-15,6C1.46952762458685E-15,4.8 1.14871518858028,4.66052072364505 1.43589398572535,5.82565090455631 1.14871518858028,4.66052072364505 4.48807796488999,-1.70210345780417 5.61009745611249,-2.12762932225522 4.48807796488999,-1.70210345780417 3.18298875955582,3.59285159122128 3.97873594944477,4.4910644890266 3.18298875955582,3.59285159122128 -8.81716574752112E-16,-4.8 -1.10214571844014E-15,-6"
         id="path154" />
      <circle
         cx="1.83690953073357E-15"
         cy="6"
         r=".1"
         fill="black"
         id="circle156" />
      <circle
         cx="0"
         cy="0"
         r=".5"
         fill="white"
         fill-opacity="0.7"
         id="circle158" />
    </g>
    <g
       transform="translate(-16.1570932956052 19.1449957108835)"
       id="g168">
      <path
         fill="none"
         d="M-1.43589398572535,5.82565090455631C-1.14871518858028,4.66052072364505 4.48807796488999,-1.70210345780417 5.61009745611249,-2.12762932225522 4.48807796488999,-1.70210345780417 3.18298875955582,3.59285159122128 3.97873594944477,4.4910644890266 3.18298875955582,3.59285159122128 -3.95032255628955,2.72671078430955 -4.93790319536194,3.40838848038693 -3.95032255628955,2.72671078430955 4.76500259567066,-0.578576065225553 5.95625324458832,-0.723220081531942 4.76500259567066,-0.578576065225553 -8.81716574752112E-16,-4.8 -1.10214571844014E-15,-6"
         id="path162" />
      <circle
         cx="-1.43589398572535"
         cy="5.82565090455631"
         r=".1"
         fill="black"
         id="circle164" />
      <circle
         cx="0"
         cy="0"
         r=".5"
         fill="white"
         fill-opacity="0.7"
         id="circle166" />
    </g>
    <g
       transform="translate(4.62873927164954 24.268243303401)"
       id="g176">
      <path
         fill="none"
         d="M5.61009745611249,2.12762932225521C4.48807796488999,1.70210345780417 -2.23067122581009,-4.25018892313541 -2.78833903226261,-5.31273615391926 -2.23067122581009,-4.25018892313541 4.48807796488999,-1.70210345780417 5.61009745611249,-2.12762932225522 4.48807796488999,-1.70210345780417 3.18298875955582,-3.59285159122129 3.97873594944477,-4.49106448902661"
         id="path170" />
      <circle
         cx="5.61009745611249"
         cy="2.12762932225521"
         r=".1"
         fill="black"
         id="circle172" />
      <circle
         cx="0"
         cy="0"
         r=".5"
         fill="white"
         fill-opacity="0.7"
         id="circle174" />
    </g>
    <g
       transform="translate(-19.6580696865026 7.45532244513305)"
       id="g184">
      <path
         fill="none"
         d="M-1.43589398572535,-5.82565090455631C-1.14871518858028,-4.66052072364505 -2.23067122581009,-4.25018892313541 -2.78833903226261,-5.31273615391926 -2.23067122581009,-4.25018892313541 -1.14871518858028,4.66052072364505 -1.43589398572535,5.82565090455631 -1.14871518858028,4.66052072364505 -8.81716574752112E-16,-4.8 -1.10214571844014E-15,-6 -8.81716574752112E-16,-4.8 1.46952762458685E-15,4.8 1.83690953073357E-15,6"
         id="path178" />
      <circle
         cx="-1.43589398572535"
         cy="-5.82565090455631"
         r=".1"
         fill="black"
         id="circle180" />
      <circle
         cx="0"
         cy="0"
         r=".5"
         fill="white"
         fill-opacity="0.7"
         id="circle182" />
    </g>
    <g
       transform="translate(-6.31923558884787 -17.9597025363294)"
       id="g192">
      <path
         fill="none"
         d="M-3.97873594944477,-4.4910644890266C-3.18298875955582,-3.59285159122128 -8.81716574752112E-16,-4.8 -1.10214571844014E-15,-6 -8.81716574752112E-16,-4.8 -3.18298875955582,3.59285159122129 -3.97873594944477,4.49106448902661 -3.18298875955582,3.59285159122129 -1.14871518858028,-4.66052072364505 -1.43589398572535,-5.82565090455631"
         id="path186" />
      <circle
         cx="-3.97873594944477"
         cy="-4.4910644890266"
         r=".1"
         fill="black"
         id="circle188" />
      <circle
         cx="0"
         cy="0"
         r=".5"
         fill="white"
         fill-opacity="0.7"
         id="circle190" />
    </g>
    <g
       transform="translate(18.0846766342372 9.58661995680163)"
       id="g200">
      <path
         fill="none"
         d="M3.97873594944477,4.4910644890266C3.18298875955582,3.59285159122128 -3.18298875955582,3.59285159122129 -3.97873594944477,4.49106448902661 -3.18298875955582,3.59285159122129 -1.14871518858028,-4.66052072364505 -1.43589398572535,-5.82565090455631 -1.14871518858028,-4.66052072364505 4.76500259567066,-0.578576065225553 5.95625324458832,-0.723220081531942 4.76500259567066,-0.578576065225553 -8.81716574752112E-16,-4.8 -1.10214571844014E-15,-6"
         id="path194" />
      <circle
         cx="3.97873594944477"
         cy="4.4910644890266"
         r=".1"
         fill="black"
         id="circle196" />
      <circle
         cx="0"
         cy="0"
         r=".5"
         fill="white"
         fill-opacity="0.7"
         id="circle198" />
    </g>
    <g
       transform="translate(23.9963785949672 2.9136878791531)"
       id="g208">
      <path
         fill="none"
         d="M-5.95625324458832,-0.723220081531933C-4.76500259567066,-0.578576065225546 1.14871518858028,4.66052072364505 1.43589398572535,5.82565090455631 1.14871518858028,4.66052072364505 -8.81716574752112E-16,-4.8 -1.10214571844014E-15,-6 -8.81716574752112E-16,-4.8 4.48807796488999,-1.70210345780417 5.61009745611249,-2.12762932225522 4.48807796488999,-1.70210345780417 4.76500259567066,-0.578576065225553 5.95625324458832,-0.723220081531942"
         id="path202" />
      <circle
         cx="-5.95625324458832"
         cy="-0.723220081531933"
         r=".1"
         fill="black"
         id="circle204" />
      <circle
         cx="0"
         cy="0"
         r=".5"
         fill="white"
         fill-opacity="0.7"
         id="circle206" />
    </g>
  </g>
</svg>
