<?xml version="1.0" encoding="utf-8"?>
<!-- Generator: Adobe Illustrator 16.0.0, SVG Export Plug-In . SVG Version: 6.00 Build 0)  -->
<!DOCTYPE svg PUBLIC "-//W3C//DTD SVG 1.1//EN" "http://www.w3.org/Graphics/SVG/1.1/DTD/svg11.dtd">
<svg version="1.1" id="圖層_1" xmlns="http://www.w3.org/2000/svg" xmlns:xlink="http://www.w3.org/1999/xlink" x="0px" y="0px"
	 width="255.12px" height="255.12px" viewBox="0 0 255.12 255.12" enable-background="new 0 0 255.12 255.12" xml:space="preserve">
<g>
	
		<line fill="none" stroke="#000000" stroke-width="2.25" stroke-miterlimit="10" x1="70.768" y1="127.641" x2="127.461" y2="127.641"/>
	
		<line fill="none" stroke="#000000" stroke-width="2.25" stroke-miterlimit="10" x1="127.461" y1="99.294" x2="70.768" y2="99.294"/>
	
		<line fill="none" stroke="#000000" stroke-width="2.25" stroke-miterlimit="10" x1="70.768" y1="99.294" x2="70.768" y2="127.641"/>
	
		<line fill="none" stroke="#000000" stroke-width="2.25" stroke-miterlimit="10" x1="127.461" y1="155.987" x2="184.153" y2="155.987"/>
	
		<line fill="none" stroke="#000000" stroke-width="2.25" stroke-miterlimit="10" x1="184.153" y1="127.641" x2="184.153" y2="155.987"/>
	
		<line fill="none" stroke="#000000" stroke-width="2.25" stroke-miterlimit="10" x1="184.153" y1="127.641" x2="127.461" y2="127.641"/>
	
		<line fill="none" stroke="#000000" stroke-width="2.25" stroke-miterlimit="10" x1="127.461" y1="70.947" x2="155.808" y2="70.947"/>
	
		<line fill="none" stroke="#000000" stroke-width="2.25" stroke-miterlimit="10" x1="155.808" y1="70.947" x2="155.808" y2="127.641"/>
	
		<line fill="none" stroke="#000000" stroke-width="2.25" stroke-miterlimit="10" x1="70.768" y1="212.68" x2="70.768" y2="127.641"/>
	
		<line fill="none" stroke="#000000" stroke-width="2.25" stroke-miterlimit="10" x1="127.461" y1="70.947" x2="127.461" y2="127.641"/>
	
		<line fill="none" stroke="#000000" stroke-width="2.25" stroke-miterlimit="10" x1="127.461" y1="212.68" x2="70.768" y2="212.68"/>
	
		<line fill="none" stroke="#000000" stroke-width="2.25" stroke-miterlimit="10" x1="240.847" y1="14.254" x2="240.847" y2="241.026"/>
	
		<line fill="none" stroke="#000000" stroke-width="2.25" stroke-miterlimit="10" x1="240.847" y1="14.254" x2="14.075" y2="14.254"/>
	
		<line fill="none" stroke="#000000" stroke-width="2.25" stroke-miterlimit="10" x1="14.075" y1="14.254" x2="14.075" y2="241.026"/>
	
		<line fill="none" stroke="#000000" stroke-width="2.25" stroke-miterlimit="10" x1="14.075" y1="241.026" x2="127.461" y2="241.026"/>
	
		<line fill="none" stroke="#000000" stroke-width="2.25" stroke-miterlimit="10" x1="127.461" y1="212.68" x2="127.461" y2="241.026"/>
	
		<line fill="none" stroke="#000000" stroke-width="2.25" stroke-miterlimit="10" x1="127.461" y1="241.026" x2="240.847" y2="241.026"/>
	
		<line fill="none" stroke="#000000" stroke-width="2.25" stroke-miterlimit="10" x1="70.768" y1="212.68" x2="32.973" y2="212.987"/>
	
		<line fill="none" stroke="#000000" stroke-width="2.25" stroke-miterlimit="10" x1="32.509" y1="155.987" x2="32.973" y2="212.987"/>
	
		<line fill="none" stroke="#000000" stroke-width="2.25" stroke-miterlimit="10" x1="32.509" y1="155.987" x2="70.768" y2="155.987"/>
	
		<line fill="none" stroke="#000000" stroke-width="2.25" stroke-miterlimit="10" x1="51.408" y1="155.987" x2="50.717" y2="70.947"/>
	<line fill="none" stroke="#000000" stroke-width="2.25" stroke-miterlimit="10" x1="70.768" y1="99.294" x2="50.717" y2="70.947"/>
	
		<line fill="none" stroke="#000000" stroke-width="2.25" stroke-miterlimit="10" x1="50.717" y1="70.947" x2="127.461" y2="70.947"/>
	
		<line fill="none" stroke="#000000" stroke-width="2.25" stroke-miterlimit="10" x1="32.973" y1="212.987" x2="14.075" y2="241.026"/>
	<line fill="none" stroke="#000000" stroke-width="2.25" stroke-miterlimit="10" x1="31.511" y1="33.152" x2="14.075" y2="14.254"/>
	
		<line fill="none" stroke="#000000" stroke-width="2.25" stroke-miterlimit="10" x1="32.509" y1="155.987" x2="31.511" y2="33.152"/>
	<line fill="none" stroke="#000000" stroke-width="2.25" stroke-miterlimit="10" x1="31.511" y1="33.152" x2="50.41" y2="33.152"/>
	<line fill="none" stroke="#000000" stroke-width="2.25" stroke-miterlimit="10" x1="50.41" y1="33.152" x2="50.717" y2="70.947"/>
	<line fill="none" stroke="#000000" stroke-width="2.25" stroke-miterlimit="10" x1="50.41" y1="33.152" x2="99.114" y2="33.152"/>
	<line fill="none" stroke="#000000" stroke-width="2.25" stroke-miterlimit="10" x1="99.114" y1="33.152" x2="99.114" y2="51.655"/>
	<line fill="none" stroke="#000000" stroke-width="2.25" stroke-miterlimit="10" x1="99.114" y1="51.655" x2="99.114" y2="70.947"/>
	
		<line fill="none" stroke="#000000" stroke-width="2.25" stroke-miterlimit="10" x1="99.114" y1="51.655" x2="184.153" y2="50.964"/>
	
		<line fill="none" stroke="#000000" stroke-width="2.25" stroke-miterlimit="10" x1="155.808" y1="70.947" x2="184.153" y2="50.964"/>
	
		<line fill="none" stroke="#000000" stroke-width="2.25" stroke-miterlimit="10" x1="184.153" y1="50.964" x2="184.153" y2="99.294"/>
	
		<line fill="none" stroke="#000000" stroke-width="2.25" stroke-miterlimit="10" x1="184.153" y1="99.294" x2="184.153" y2="127.641"/>
	
		<line fill="none" stroke="#000000" stroke-width="2.25" stroke-miterlimit="10" x1="184.153" y1="155.987" x2="240.847" y2="241.026"/>
	
		<line fill="none" stroke="#000000" stroke-width="2.25" stroke-miterlimit="10" x1="99.114" y1="192.581" x2="70.768" y2="212.68"/>
	
		<line fill="none" stroke="#000000" stroke-width="2.25" stroke-miterlimit="10" x1="127.461" y1="212.68" x2="155.808" y2="192.581"/>
	
		<line fill="none" stroke="#000000" stroke-width="2.25" stroke-miterlimit="10" x1="127.461" y1="127.641" x2="127.461" y2="192.581"/>
	
		<line fill="none" stroke="#000000" stroke-width="2.25" stroke-miterlimit="10" x1="99.114" y1="192.581" x2="208.55" y2="192.581"/>
	<line fill="none" stroke="#000000" stroke-width="2.25" stroke-miterlimit="10" x1="99.114" y1="33.152" x2="208.55" y2="33.152"/>
	<line fill="none" stroke="#000000" stroke-width="2.25" stroke-miterlimit="10" x1="14.075" y1="14.254" x2="208.55" y2="33.152"/>
	<line fill="none" stroke="#000000" stroke-width="2.25" stroke-miterlimit="10" x1="208.55" y1="33.152" x2="208.55" y2="70.947"/>
	
		<line fill="none" stroke="#000000" stroke-width="2.25" stroke-miterlimit="10" x1="208.55" y1="70.947" x2="240.847" y2="14.254"/>
	
		<line fill="none" stroke="#000000" stroke-width="2.25" stroke-miterlimit="10" x1="184.153" y1="50.964" x2="208.55" y2="50.766"/>
	
		<line fill="none" stroke="#000000" stroke-width="2.25" stroke-miterlimit="10" x1="184.153" y1="99.294" x2="208.55" y2="99.294"/>
	<line fill="none" stroke="#000000" stroke-width="2.25" stroke-miterlimit="10" x1="208.55" y1="70.947" x2="208.55" y2="99.294"/>
	
		<line fill="none" stroke="#000000" stroke-width="2.25" stroke-miterlimit="10" x1="208.55" y1="99.294" x2="208.55" y2="192.581"/>
	
		<line fill="none" stroke="#000000" stroke-width="2.25" stroke-miterlimit="10" x1="99.114" y1="127.641" x2="99.114" y2="192.581"/>
	<path fill-rule="evenodd" clip-rule="evenodd" fill="#FF0000" d="M205.55,50.766c0-1.667,1.333-3,3-3s3,1.333,3,3s-1.333,3-3,3
		S205.55,52.433,205.55,50.766L205.55,50.766z"/>
	<path fill-rule="evenodd" clip-rule="evenodd" fill="#FF0000" d="M205.55,70.947c0-1.667,1.333-3,3-3s3,1.333,3,3
		c0,1.667-1.333,3-3,3S205.55,72.614,205.55,70.947L205.55,70.947z"/>
	<path fill-rule="evenodd" clip-rule="evenodd" fill="#FF0000" d="M205.55,99.294c0-1.667,1.333-3,3-3s3,1.333,3,3s-1.333,3-3,3
		S205.55,100.96,205.55,99.294L205.55,99.294z"/>
	<path fill-rule="evenodd" clip-rule="evenodd" fill="#FF0000" d="M124.461,192.581c0-1.667,1.333-3,3-3c1.666,0,3,1.333,3,3
		s-1.334,3-3,3C125.794,195.581,124.461,194.248,124.461,192.581L124.461,192.581z"/>
	<path fill-rule="evenodd" clip-rule="evenodd" fill="#FF0000" d="M152.808,192.581c0-1.667,1.333-3,3-3c1.666,0,3,1.333,3,3
		s-1.334,3-3,3C154.141,195.581,152.808,194.248,152.808,192.581L152.808,192.581z"/>
	<path fill-rule="evenodd" clip-rule="evenodd" fill="#FF0000" d="M96.114,192.581c0-1.667,1.333-3,3-3s3,1.333,3,3s-1.333,3-3,3
		S96.114,194.248,96.114,192.581L96.114,192.581z"/>
	<path fill-rule="evenodd" clip-rule="evenodd" fill="#FF0000" d="M205.55,33.152c0-1.667,1.333-3,3-3s3,1.333,3,3
		c0,1.667-1.333,3-3,3S205.55,34.819,205.55,33.152L205.55,33.152z"/>
	<path fill-rule="evenodd" clip-rule="evenodd" fill="#FF0000" d="M181.153,50.964c0-1.667,1.334-3,3-3c1.667,0,3,1.333,3,3
		s-1.333,3-3,3C182.487,53.964,181.153,52.631,181.153,50.964L181.153,50.964z"/>
	<path fill-rule="evenodd" clip-rule="evenodd" fill="#FF0000" d="M96.114,33.152c0-1.667,1.333-3,3-3s3,1.333,3,3
		c0,1.667-1.333,3-3,3S96.114,34.819,96.114,33.152L96.114,33.152z"/>
	<path fill-rule="evenodd" clip-rule="evenodd" fill="#FF0000" d="M96.114,51.655c0-1.667,1.333-3,3-3s3,1.333,3,3
		c0,1.667-1.333,3-3,3S96.114,53.322,96.114,51.655L96.114,51.655z"/>
	<path fill-rule="evenodd" clip-rule="evenodd" fill="#FF0000" d="M28.511,33.152c0-1.667,1.333-3,3-3c1.667,0,3,1.333,3,3
		c0,1.667-1.333,3-3,3C29.845,36.152,28.511,34.819,28.511,33.152L28.511,33.152z"/>
	<path fill-rule="evenodd" clip-rule="evenodd" fill="#FF0000" d="M47.41,33.152c0-1.667,1.333-3,3-3c1.667,0,3,1.333,3,3
		c0,1.667-1.333,3-3,3C48.744,36.152,47.41,34.819,47.41,33.152L47.41,33.152z"/>
	<path fill-rule="evenodd" clip-rule="evenodd" fill="#FF0000" d="M47.717,70.947c0-1.667,1.333-3,3-3s3,1.333,3,3
		c0,1.667-1.333,3-3,3S47.717,72.614,47.717,70.947L47.717,70.947z"/>
	<path fill-rule="evenodd" clip-rule="evenodd" fill="#FF0000" d="M29.509,155.987c0-1.667,1.333-3,3-3c1.667,0,3,1.333,3,3
		c0,1.666-1.333,3-3,3C30.843,158.987,29.509,157.653,29.509,155.987L29.509,155.987z"/>
	<path fill-rule="evenodd" clip-rule="evenodd" fill="#FF0000" d="M48.408,155.987c0-1.667,1.333-3,3-3s3,1.333,3,3
		c0,1.666-1.333,3-3,3S48.408,157.653,48.408,155.987L48.408,155.987z"/>
	<path fill-rule="evenodd" clip-rule="evenodd" fill="#FF0000" d="M29.973,212.987c0-1.667,1.333-3,3-3c1.667,0,3,1.333,3,3
		c0,1.666-1.333,3-3,3C31.306,215.987,29.973,214.653,29.973,212.987L29.973,212.987z"/>
	<path fill-rule="evenodd" clip-rule="evenodd" fill="#FF0000" d="M237.847,241.026c0-1.667,1.333-3,3-3s3,1.333,3,3
		c0,1.666-1.333,3-3,3S237.847,242.692,237.847,241.026L237.847,241.026z"/>
	<path fill-rule="evenodd" clip-rule="evenodd" fill="#FF0000" d="M237.847,14.254c0-1.667,1.333-3,3-3s3,1.333,3,3
		c0,1.667-1.333,3-3,3S237.847,15.921,237.847,14.254L237.847,14.254z"/>
	<path fill-rule="evenodd" clip-rule="evenodd" fill="#FF0000" d="M11.075,14.254c0-1.667,1.333-3,3-3c1.667,0,3,1.333,3,3
		c0,1.667-1.333,3-3,3C12.408,17.254,11.075,15.921,11.075,14.254L11.075,14.254z"/>
	<path fill-rule="evenodd" clip-rule="evenodd" fill="#FF0000" d="M11.075,241.026c0-1.667,1.333-3,3-3c1.667,0,3,1.333,3,3
		c0,1.666-1.333,3-3,3C12.408,244.026,11.075,242.692,11.075,241.026L11.075,241.026z"/>
	<path fill-rule="evenodd" clip-rule="evenodd" fill="#FF0000" d="M124.461,241.026c0-1.667,1.333-3,3-3c1.666,0,3,1.333,3,3
		c0,1.666-1.334,3-3,3C125.794,244.026,124.461,242.692,124.461,241.026L124.461,241.026z"/>
	<path fill-rule="evenodd" clip-rule="evenodd" fill="#FF0000" d="M124.461,212.68c0-1.667,1.333-3,3-3c1.666,0,3,1.333,3,3
		s-1.334,3-3,3C125.794,215.68,124.461,214.347,124.461,212.68L124.461,212.68z"/>
	<path fill-rule="evenodd" clip-rule="evenodd" fill="#FF0000" d="M96.114,70.947c0-1.667,1.333-3,3-3s3,1.333,3,3
		c0,1.667-1.333,3-3,3S96.114,72.614,96.114,70.947L96.114,70.947z"/>
	<path fill-rule="evenodd" clip-rule="evenodd" fill="#FF0000" d="M181.153,99.294c0-1.667,1.334-3,3-3c1.667,0,3,1.333,3,3
		s-1.333,3-3,3C182.487,102.294,181.153,100.96,181.153,99.294L181.153,99.294z"/>
	<path fill-rule="evenodd" clip-rule="evenodd" fill="#FF0000" d="M67.768,155.987c0-1.667,1.333-3,3-3c1.667,0,3,1.333,3,3
		c0,1.666-1.333,3-3,3C69.101,158.987,67.768,157.653,67.768,155.987L67.768,155.987z"/>
	<path fill-rule="evenodd" clip-rule="evenodd" fill="#FF0000" d="M67.768,212.68c0-1.667,1.333-3,3-3c1.667,0,3,1.333,3,3
		s-1.333,3-3,3C69.101,215.68,67.768,214.347,67.768,212.68L67.768,212.68z"/>
	<path fill-rule="evenodd" clip-rule="evenodd" fill="#FF0000" d="M152.808,70.947c0-1.667,1.333-3,3-3c1.666,0,3,1.333,3,3
		c0,1.667-1.334,3-3,3C154.141,73.947,152.808,72.614,152.808,70.947L152.808,70.947z"/>
	<path fill-rule="evenodd" clip-rule="evenodd" fill="#FF0000" d="M152.808,127.641c0-1.667,1.333-3,3-3c1.666,0,3,1.333,3,3
		c0,1.666-1.334,3-3,3C154.141,130.641,152.808,129.307,152.808,127.641L152.808,127.641z"/>
	<path fill-rule="evenodd" clip-rule="evenodd" fill="#FF0000" d="M181.153,127.641c0-1.667,1.334-3,3-3c1.667,0,3,1.333,3,3
		c0,1.666-1.333,3-3,3C182.487,130.641,181.153,129.307,181.153,127.641L181.153,127.641z"/>
	<path fill-rule="evenodd" clip-rule="evenodd" fill="#FF0000" d="M181.153,155.987c0-1.667,1.334-3,3-3c1.667,0,3,1.333,3,3
		c0,1.666-1.333,3-3,3C182.487,158.987,181.153,157.653,181.153,155.987L181.153,155.987z"/>
	<path fill-rule="evenodd" clip-rule="evenodd" fill="#FF0000" d="M124.461,155.987c0-1.667,1.333-3,3-3c1.666,0,3,1.333,3,3
		c0,1.666-1.334,3-3,3C125.794,158.987,124.461,157.653,124.461,155.987L124.461,155.987z"/>
	<path fill-rule="evenodd" clip-rule="evenodd" fill="#FF0000" d="M96.114,127.641c0-1.667,1.333-3,3-3s3,1.333,3,3
		c0,1.666-1.333,3-3,3S96.114,129.307,96.114,127.641L96.114,127.641z"/>
	<path fill-rule="evenodd" clip-rule="evenodd" fill="#FF0000" d="M67.768,127.641c0-1.667,1.333-3,3-3c1.667,0,3,1.333,3,3
		c0,1.666-1.333,3-3,3C69.101,130.641,67.768,129.307,67.768,127.641L67.768,127.641z"/>
	<path fill-rule="evenodd" clip-rule="evenodd" fill="#FF0000" d="M67.768,99.294c0-1.667,1.333-3,3-3c1.667,0,3,1.333,3,3
		s-1.333,3-3,3C69.101,102.294,67.768,100.96,67.768,99.294L67.768,99.294z"/>
	<path fill-rule="evenodd" clip-rule="evenodd" fill="#FF0000" d="M124.461,70.947c0-1.667,1.333-3,3-3c1.666,0,3,1.333,3,3
		c0,1.667-1.334,3-3,3C125.794,73.947,124.461,72.614,124.461,70.947L124.461,70.947z"/>
	<path fill-rule="evenodd" clip-rule="evenodd" fill="#FF0000" d="M124.461,99.294c0-1.667,1.333-3,3-3c1.666,0,3,1.333,3,3
		s-1.334,3-3,3C125.794,102.294,124.461,100.96,124.461,99.294L124.461,99.294z"/>
	<path fill-rule="evenodd" clip-rule="evenodd" fill="#FF0000" d="M124.461,127.641c0-1.667,1.333-3,3-3c1.666,0,3,1.333,3,3
		c0,1.666-1.334,3-3,3C125.794,130.641,124.461,129.307,124.461,127.641L124.461,127.641z"/>
	<path fill-rule="evenodd" clip-rule="evenodd" fill="#FF0000" d="M205.55,192.581c0-1.667,1.333-3,3-3s3,1.333,3,3s-1.333,3-3,3
		S205.55,194.248,205.55,192.581L205.55,192.581z"/>
</g>
</svg>
