<svg xmlns="http://www.w3.org/2000/svg" viewBox="0 0 100 100"><path fill="#dbdbdb" d="m50 4.822 16.164 27.752 31.389 6.797L76.154 63.32l3.235 31.953L50 82.322l-29.39 12.95 3.236-31.952L2.447 39.371l31.389-6.797Z"/><path fill="#c2c2c2" fill-rule="evenodd" d="M50 4.822v50l16.164-22.248L50 4.822zm0 50 26.154 8.498 21.399-23.949L50 54.822zm0 0v27.5l29.389 12.951L50 54.823zm0 0L23.846 63.32 20.61 95.273 50 54.823zm0 0L33.836 32.574 2.447 39.371 50 54.822z"/><path fill="none" stroke="#000" stroke-width=".5" d="m50 4.822 16.164 27.752 31.389 6.797L76.154 63.32l3.235 31.953L50 82.322l-29.39 12.95 3.236-31.952L2.447 39.371l31.389-6.797Z"/></svg>