<svg xmlns="http://www.w3.org/2000/svg" viewBox="0 0 100 100"><path fill="#e3e259" d="m50 4.822 16.164 27.752 31.389 6.797L76.154 63.32l3.235 31.953L50 82.322l-29.39 12.95 3.236-31.952L2.447 39.371l31.389-6.797Z"/><path fill="#cfce23" fill-rule="evenodd" d="M50 54.822v-50l16.164 27.752zM97.553 39.371 50 54.822l26.154 8.498ZM79.39 95.273 50 54.822v27.5zM20.61 95.273 50 54.822 23.846 63.32ZM50 54.822 2.447 39.372l31.389-6.798Z"/><path fill="none" stroke="#000" stroke-width=".5" d="m50 4.822 16.164 27.752 31.389 6.797L76.154 63.32l3.235 31.953L50 82.322l-29.39 12.95 3.236-31.952L2.447 39.371l31.389-6.797Z"/></svg>