<svg xmlns="http://www.w3.org/2000/svg" viewBox="0 0 103.761 32.225"><path fill="#f1dd89" d="M29.915 29.224H17.112A13.084 13.084 0 014 16.112 13.084 13.084 0 0117.112 3h18.666z"/><path fill="#a0d0f5" d="M37.83 3h48.82a13.084 13.084 0 0113.112 13.112A13.084 13.084 0 0186.65 29.224H31.967z"/><path d="M70.271 5.127l-.394 1.797h-1.088l-.342 1.496h1.09l-.734 3.361a2.087 2.087 0 00-.055.45c0 .98.789 1.43 1.959 1.43.422 0 .831-.11 1.09-.286l-.068-1.39c-.082.067-.298.138-.475.138-.436 0-.64-.218-.64-.572 0-.082.011-.192.025-.274l.627-2.857H72.6l.353-1.496h-1.332l.395-1.797H70.27zM43.756 6.76c-2.246 0-3.47 2.192-3.47 4.18 0 1.742 1.006 2.72 2.503 2.72.79 0 1.417-.325 1.975-.978L44.014 16h1.742l2.014-9.076h-1.74l-.178.87c-.436-.652-1.225-1.034-2.096-1.034zm13.994 0c-2.246 0-3.47 2.192-3.47 4.18 0 1.742 1.006 2.72 2.503 2.72.79 0 1.415-.325 1.973-.978l-.192.814h1.745l1.455-6.572h-1.74l-.178.87C59.41 7.143 58.62 6.76 57.75 6.76zm8.398 0c-.966 0-1.672.518-2.189 1.021l.191-.857h-1.728l-1.46 6.572h1.73l.982-4.435c.38-.368.952-.764 1.66-.764.517 0 1.006.233 1.006.846 0 .136-.04.31-.067.433l-.87 3.92h1.728l1.006-4.517c.027-.137.068-.423.068-.545 0-1.008-.79-1.674-2.057-1.674zm17.561 0c-.966 0-1.634.627-2.002 1.021l.191-.857H80.17l-1.46 6.572h1.73l.982-4.435c.327-.368.828-.764 1.346-.764.612 0 .953.328.966.75 0 .177-.04.34-.068.476l-.885 3.973h1.742l.967-4.435c.34-.382.842-.764 1.373-.764.504 0 .94.285.94.789 0 .163-.04.356-.053.437l-.887 3.973h1.744L89.6 8.98c.027-.11.07-.368.07-.545 0-1.076-.885-1.674-1.879-1.674-1.007 0-1.758.573-2.275 1.213v-.03c0-.245-.514-1.183-1.807-1.183zm-35.322.164l-.994 4.517a3.789 3.789 0 00-.069.532c0 1.02.791 1.687 2.057 1.687.966 0 1.674-.531 2.191-1.021l-.19.857h1.73l1.454-6.572h-1.728l-.983 4.424c-.38.367-.952.775-1.564.775-.612 0-1.102-.247-1.102-.846 0-.122.028-.272.055-.394l.883-3.96h-1.74zm24.955 0l-.992 4.517a3.789 3.789 0 00-.069.532c0 1.02.791 1.687 2.057 1.687.966 0 1.674-.531 2.191-1.021l-.191.857h1.728l1.457-6.572h-1.728l-.98 4.424c-.382.367-.954.775-1.567.775-.612 0-1.102-.247-1.102-.846 0-.122.026-.272.053-.394l.887-3.96h-1.744zM44.027 8.297c.694 0 1.252.328 1.537.764l-.502 2.287c-.353.449-.899.775-1.511.775-.83 0-1.455-.6-1.455-1.539 0-1.211.802-2.287 1.931-2.287zm13.994 0c.695 0 1.254.328 1.54.764l-.504 2.287c-.354.449-.9.775-1.512.775-.83 0-1.455-.6-1.455-1.539 0-1.211.802-2.287 1.931-2.287zm-2.554 6.043c-2.148 0-3.733 1.86-3.733 3.889 0 1.74 1.152 3 3.108 3 2.136 0 3.732-1.861 3.732-3.89 0-1.74-1.151-3-3.107-3zm5.387.144l-1.452 6.6h.66l1.237-5.652 3.012 5.652h.648l1.451-6.6h-.66l-1.225 5.569-3-5.569h-.671zm7.5 0l-1.452 6.6h3.985l.13-.588h-3.335l1.332-6.012h-.66zm5.437 0l-1.451 6.6H73l1.451-6.6h-.66zm2.602 0l-1.452 6.6h.66l1.237-5.652 3.012 5.652h.648l1.451-6.6h-.66l-1.225 5.569-3-5.569h-.671zm7.5 0l-1.452 6.6h4.416l.12-.588H83.22l.552-2.508h3.696l.133-.588h-3.698l.53-2.328h3.744l.13-.588h-4.415zm-28.44.444c1.548 0 2.438 1.055 2.438 2.435 0 1.704-1.225 3.278-3.05 3.278-1.547 0-2.435-1.058-2.435-2.438 0-1.704 1.235-3.275 3.047-3.275zm-11.65 1.992l-2.03 9.209h1.147l.8-3.658h1.968c2.581 0 3.519-1.768 3.519-3.162 0-1.284-.965-2.39-2.553-2.39h-2.851zm.926 1.021h1.746c.897 0 1.53.663 1.53 1.45 0 1.104-.772 2.058-2.222 2.058h-1.842l.788-3.508zm4.072 4.067l-.543 2.449a1.74 1.74 0 00-.037.322c0 .792.638 1.35 1.834 1.35 1.129 0 1.634-.616 1.869-1.672l.543-2.45h-.807l-.527 2.384c-.14.66-.478 1.035-1.094 1.035-.594 0-.982-.28-.982-.801 0-.073.008-.154.023-.234l.527-2.383h-.806zm4.449 0l-.154.703H55.2l-2.715 2.744-.13.586h3.269l.154-.705h-2.156l2.715-2.742.13-.586H53.25zm3.824 0l-.154.703h2.105l-2.714 2.744-.131.586h3.27l.154-.705h-2.157l2.715-2.742.131-.586h-3.219zm4.045 0l-.889 4.033h2.655l.154-.697h-1.855l.742-3.336h-.807zm3.408 0l-.886 4.033h2.94l.153-.697h-2.14l.226-1.012h2.098l.154-.697h-2.097l.205-.93h2.134l.153-.697h-2.94zm5.672 0l-.886 4.033h.806l.373-1.723h2.127l-.375 1.723h.793l.887-4.033h-.791l-.36 1.613h-2.127l.36-1.613h-.807zm4.584 0l-.543 2.449a1.74 1.74 0 00-.037.322c0 .792.639 1.35 1.834 1.35 1.13 0 1.635-.616 1.87-1.672l.542-2.45h-.806l-.528 2.384c-.14.66-.478 1.035-1.094 1.035-.594 0-.982-.28-.982-.801 0-.073.007-.154.022-.234l.529-2.383h-.807zm4.526 0l-.887 4.033h.799l.638-2.883 1.46 2.883h.814l.887-4.033h-.8l-.622 2.8-1.43-2.8h-.86zm4.177 0l-.152.697h1.195l-.734 3.336h.799l.734-3.336h1.188l.154-.697h-3.184zM19.51 6.121c-2.947 0-5.356 2.399-5.356 5.34 0 2.816 2.21 5.126 4.985 5.318v9.325h1.5v-2.069h1.75v2.069h1v-5.14h-1v2.071h-1.75V16.78c2.774-.192 4.984-2.502 4.984-5.318 0-2.941-2.408-5.34-5.355-5.34h-.758zm-.371 1.537v7.604c-1.96-.187-3.485-1.8-3.485-3.801 0-2.001 1.524-3.615 3.485-3.803zm1.5 0c1.96.188 3.484 1.802 3.484 3.803 0 2-1.524 3.614-3.484 3.8V7.659z"/><path fill="#504000" fill-opacity=".314" d="M30.717 30.225L37.027 2 34.53 4l-5.416 24.225-12.001-.002c-7.792 0-14.11-5.422-14.11-12.11C3 23.905 9.317 30.224 17.111 30.224z"/><path fill="#fff" fill-opacity=".314" d="M17.112 28.222c-6.688 0-12.11-5.421-12.11-12.11A12.06 12.06 0 0117.111 4h17.417l2.498-2H17.111C9.311 2 3 8.31 3.001 16.112c.002 6.689 6.319 12.11 14.112 12.11M98.751 16.112c0-7.788-5.418-14.102-12.102-14.107L37.03 2l-6.31 28.225 2.497-2L38.632 4l48.017.005c6.684.005 12.102 5.423 12.102 12.107z"/><path fill="#002d50" fill-opacity=".314" d="M86.649 2.01c6.684 0 12.102 6.314 12.107 14.102A12.056 12.056 0 0186.65 28.225H33.216l-2.498 2H86.65c7.8 0 14.111-6.313 14.106-14.113C100.751 8.324 94.437 2.01 86.65 2.01z"/></svg>