<svg xmlns="http://www.w3.org/2000/svg" viewBox="0 0 15 100" font-size="2.7" font-family="Palatino Linotype" text-anchor="middle"><text x="5" y="7"><tspan x="5" y="7">B</tspan></text><text x="5" y="11"><tspan x="5" y="11">C</tspan></text><text x="5" y="15"><tspan x="5" y="15">Ĉ</tspan></text><text x="5" y="19"><tspan x="5" y="19">D</tspan></text><text x="5" y="23"><tspan x="5" y="23">F</tspan></text><text x="5" y="27"><tspan x="5" y="27">G</tspan></text><text x="5" y="31"><tspan x="5" y="31">Ĝ</tspan></text><text x="5" y="35"><tspan x="5" y="35">H</tspan></text><text x="5" y="39"><tspan x="5" y="39">Ĥ</tspan></text><text x="5" y="43"><tspan x="5" y="43">J</tspan></text><text x="5" y="47"><tspan x="5" y="47">Ĵ</tspan></text><text x="5" y="51"><tspan x="5" y="51">K</tspan></text><text x="5" y="55"><tspan x="5" y="55">L</tspan></text><text x="5" y="59"><tspan x="5" y="59">M</tspan></text><text x="5" y="63"><tspan x="5" y="63">N</tspan></text><text x="5" y="67"><tspan x="5" y="67">P</tspan></text><text x="5" y="71"><tspan x="5" y="71">R</tspan></text><text x="5" y="75"><tspan x="5" y="75">S</tspan></text><text x="5" y="79"><tspan x="5" y="79">Ŝ</tspan></text><text x="5" y="83"><tspan x="5" y="83">T</tspan></text><text x="5" y="87"><tspan x="5" y="87">Ŭ</tspan></text><text x="5" y="91"><tspan x="5" y="91">V</tspan></text><text x="5" y="95"><tspan x="5" y="95">Z</tspan></text><path fill="none" stroke="#000" stroke-dashoffset="1" stroke-linecap="square" stroke-width=".1" d="M9 61h2v2H9zM9 57h2v2H9zM10 57v2M9 21h2v2H9zM9 22h2M9 73h2v2H9zM9 73l2 2M9 77h2v2H9zM11 77l-2 2M9 9h2v2H9z"/><path fill-rule="evenodd" d="M9 9h1v1H9zM11 10v1h-1v-1z"/><path fill="none" stroke="#000" stroke-dashoffset="1" stroke-linecap="square" stroke-width=".1" d="M9 65h2v2H9z"/><path fill-rule="evenodd" d="M10 65h1v1h-1z"/><path fill="none" stroke="#000" stroke-dashoffset="1" stroke-linecap="square" stroke-width=".1" d="M9 85h2v2H9z"/><path fill-rule="evenodd" d="M9 85h2v1H9z"/><path fill="none" stroke="#000" stroke-dashoffset="1" stroke-linecap="square" stroke-width=".1" d="M9 17h2v2H9z"/><path fill-rule="evenodd" d="M9 18h2v1H9z"/><path fill="none" stroke="#000" stroke-dashoffset="1" stroke-linecap="square" stroke-width=".1" d="M9 93h2v2H9zM9 93l2 2M11 93l-2 2M9 69h2v2H9z"/><path fill-rule="evenodd" d="M10 69h1v2h-1z"/><path fill="none" stroke="#000" stroke-dashoffset="1" stroke-linecap="square" stroke-width=".1" d="M9 53h2v2H9z"/><path fill-rule="evenodd" d="M9 53h1v2H9z"/><path fill="none" stroke="#000" stroke-dashoffset="1" stroke-linecap="square" stroke-width=".1" d="M9 13h2v2H9z"/><path fill-rule="evenodd" d="M10 13h1v1h-1zM10 14v1H9v-1z"/><path fill="none" stroke="#000" stroke-dashoffset="1" stroke-linecap="square" stroke-width=".1" d="M9 81h2v2H9zM10 81v2M9 82h2M9 25h2v2H9zM9 26h2M10 25v1M9 29h2v2H9zM9 30h2M10 30v1M9 5h2v2H9z"/><path fill-rule="evenodd" d="M9 5h1v1H9z"/><path fill="none" stroke="#000" stroke-dashoffset="1" stroke-linecap="square" stroke-width=".1" d="M9 49h2v2H9z"/><path fill-rule="evenodd" d="M9 50h1v1H9z"/><path fill="none" stroke="#000" stroke-dashoffset="1" stroke-linecap="square" stroke-width=".1" d="M9 89h2v2H9z"/><path fill-rule="evenodd" d="M10 90h1v1h-1z"/><path fill="none" stroke="#000" stroke-dashoffset="1" stroke-linecap="square" stroke-width=".1" d="M9 33h2v2H9zM10 33v2M9 34h1M9 37h2v2H9zM10 37v2M10 38h1M9 41h2v2H9z"/><path fill-rule="evenodd" d="M9 41h2l-2 2z"/><path fill="none" stroke="#000" stroke-dashoffset="1" stroke-linecap="square" stroke-width=".1" d="M9 45h2v2H9z"/><path fill-rule="evenodd" d="M11 47H9l2-2z"/></svg>